<?xml version="1.0"?>
<!DOCTYPE svg PUBLIC "-//W3C//DTD SVG 1.0//EN" "http://www.w3.org/TR/2001/REC-SVG-20010904/DTD/svg10.dtd">
<svg xmlns="http://www.w3.org/2000/svg" xmlns:xlink="http://www.w3.org/1999/xlink" xmlns:jfreesvg="http://www.jfree.org/jfreesvg/svg" width="195" height="181" text-rendering="auto" shape-rendering="auto">
<defs></defs>
<line x1="0" y1="0" x2="54919" y2="0" style="stroke-width: 100.0;stroke: rgb(0,0,0);stroke-opacity: 1.0;stroke-linecap: round;stroke-linejoin: round;" transform="matrix(0.0035433071,0,0,0.0035433071,0,0)" /><line x1="54920" y1="0" x2="54920" y2="50919" style="stroke-width: 100.0;stroke: rgb(0,0,0);stroke-opacity: 1.0;stroke-linecap: round;stroke-linejoin: round;" transform="matrix(0.0035433071,0,0,0.0035433071,0,0)" /><line x1="54920" y1="50920" x2="1" y2="50920" style="stroke-width: 100.0;stroke: rgb(0,0,0);stroke-opacity: 1.0;stroke-linecap: round;stroke-linejoin: round;" transform="matrix(0.0035433071,0,0,0.0035433071,0,0)" /><line x1="0" y1="50920" x2="0" y2="1" style="stroke-width: 100.0;stroke: rgb(0,0,0);stroke-opacity: 1.0;stroke-linecap: round;stroke-linejoin: round;" transform="matrix(0.0035433071,0,0,0.0035433071,0,0)" /><ellipse cx="211" cy="211" rx="101" ry="101" style="fill: rgb(0,0,255); fill-opacity: 1.0" transform="matrix(0.0708661418,0,0,0.0708661418,17.7165354375,17.7165354375)" /><ellipse cx="211" cy="586" rx="101" ry="101" style="fill: rgb(0,0,255); fill-opacity: 1.0" transform="matrix(0.0708661418,0,0,0.0708661418,17.7165354375,17.7165354375)" /><ellipse cx="211" cy="868" rx="101" ry="101" style="fill: rgb(0,0,255); fill-opacity: 1.0" transform="matrix(0.0708661418,0,0,0.0708661418,17.7165354375,17.7165354375)" /><ellipse cx="1635" cy="585" rx="101" ry="101" style="fill: rgb(0,0,255); fill-opacity: 1.0" transform="matrix(0.0708661418,0,0,0.0708661418,17.7165354375,17.7165354375)" /><rect x="438" y="193" width="37" height="37" style="fill: rgb(0,0,255); fill-opacity: 1.0" transform="matrix(0.0708661418,0,0,0.0708661418,17.7165354375,17.7165354375)" /><rect x="438" y="193" width="37" height="37" style="fill: rgb(0,0,255); fill-opacity: 1.0" transform="matrix(0.0708661418,0,0,0.0708661418,17.7165354375,17.7165354375)" /><rect x="438" y="193" width="37" height="37" style="fill: rgb(0,0,255); fill-opacity: 1.0" transform="matrix(0.0708661418,0,0,0.0708661418,17.7165354375,17.7165354375)" /><rect x="438" y="193" width="37" height="37" style="fill: rgb(0,0,255); fill-opacity: 1.0" transform="matrix(0.0708661418,0,0,0.0708661418,17.7165354375,17.7165354375)" /><rect x="438" y="193" width="37" height="37" style="fill: rgb(0,0,255); fill-opacity: 1.0" transform="matrix(0.0708661418,0,0,0.0708661418,17.7165354375,17.7165354375)" /><rect x="438" y="193" width="37" height="37" style="fill: rgb(0,0,255); fill-opacity: 1.0" transform="matrix(0.0708661418,0,0,0.0708661418,17.7165354375,17.7165354375)" /><rect x="438" y="193" width="263" height="37" style="fill: rgb(0,0,255); fill-opacity: 1.0" transform="matrix(0.0708661418,0,0,0.0708661418,17.7165354375,17.7165354375)" /><rect x="664" y="193" width="37" height="37" style="fill: rgb(0,0,255); fill-opacity: 1.0" transform="matrix(0.0708661418,0,0,0.0708661418,17.7165354375,17.7165354375)" /><rect x="664" y="193" width="37" height="37" style="fill: rgb(0,0,255); fill-opacity: 1.0" transform="matrix(0.0708661418,0,0,0.0708661418,17.7165354375,17.7165354375)" /><rect x="664" y="193" width="37" height="37" style="fill: rgb(0,0,255); fill-opacity: 1.0" transform="matrix(0.0708661418,0,0,0.0708661418,17.7165354375,17.7165354375)" /><rect x="664" y="193" width="37" height="37" style="fill: rgb(0,0,255); fill-opacity: 1.0" transform="matrix(0.0708661418,0,0,0.0708661418,17.7165354375,17.7165354375)" /><rect x="664" y="193" width="37" height="37" style="fill: rgb(0,0,255); fill-opacity: 1.0" transform="matrix(0.0708661418,0,0,0.0708661418,17.7165354375,17.7165354375)" /><rect x="664" y="193" width="37" height="37" style="fill: rgb(0,0,255); fill-opacity: 1.0" transform="matrix(0.0708661418,0,0,0.0708661418,17.7165354375,17.7165354375)" /><rect x="438" y="568" width="37" height="37" style="fill: rgb(0,0,255); fill-opacity: 1.0" transform="matrix(0.0708661418,0,0,0.0708661418,17.7165354375,17.7165354375)" /><rect x="438" y="568" width="37" height="37" style="fill: rgb(0,0,255); fill-opacity: 1.0" transform="matrix(0.0708661418,0,0,0.0708661418,17.7165354375,17.7165354375)" /><rect x="438" y="568" width="37" height="37" style="fill: rgb(0,0,255); fill-opacity: 1.0" transform="matrix(0.0708661418,0,0,0.0708661418,17.7165354375,17.7165354375)" /><rect x="438" y="568" width="37" height="37" style="fill: rgb(0,0,255); fill-opacity: 1.0" transform="matrix(0.0708661418,0,0,0.0708661418,17.7165354375,17.7165354375)" /><rect x="438" y="568" width="37" height="37" style="fill: rgb(0,0,255); fill-opacity: 1.0" transform="matrix(0.0708661418,0,0,0.0708661418,17.7165354375,17.7165354375)" /><rect x="438" y="568" width="37" height="37" style="fill: rgb(0,0,255); fill-opacity: 1.0" transform="matrix(0.0708661418,0,0,0.0708661418,17.7165354375,17.7165354375)" /><rect x="438" y="568" width="263" height="37" style="fill: rgb(0,0,255); fill-opacity: 1.0" transform="matrix(0.0708661418,0,0,0.0708661418,17.7165354375,17.7165354375)" /><rect x="664" y="568" width="37" height="37" style="fill: rgb(0,0,255); fill-opacity: 1.0" transform="matrix(0.0708661418,0,0,0.0708661418,17.7165354375,17.7165354375)" /><rect x="664" y="568" width="37" height="37" style="fill: rgb(0,0,255); fill-opacity: 1.0" transform="matrix(0.0708661418,0,0,0.0708661418,17.7165354375,17.7165354375)" /><rect x="664" y="568" width="37" height="37" style="fill: rgb(0,0,255); fill-opacity: 1.0" transform="matrix(0.0708661418,0,0,0.0708661418,17.7165354375,17.7165354375)" /><rect x="664" y="568" width="37" height="37" style="fill: rgb(0,0,255); fill-opacity: 1.0" transform="matrix(0.0708661418,0,0,0.0708661418,17.7165354375,17.7165354375)" /><rect x="664" y="568" width="37" height="37" style="fill: rgb(0,0,255); fill-opacity: 1.0" transform="matrix(0.0708661418,0,0,0.0708661418,17.7165354375,17.7165354375)" /><rect x="664" y="568" width="37" height="37" style="fill: rgb(0,0,255); fill-opacity: 1.0" transform="matrix(0.0708661418,0,0,0.0708661418,17.7165354375,17.7165354375)" /><rect x="664" y="193" width="37" height="37" style="fill: rgb(0,0,255); fill-opacity: 1.0" transform="matrix(0.0708661418,0,0,0.0708661418,17.7165354375,17.7165354375)" /><rect x="664" y="193" width="37" height="37" style="fill: rgb(0,0,255); fill-opacity: 1.0" transform="matrix(0.0708661418,0,0,0.0708661418,17.7165354375,17.7165354375)" /><rect x="664" y="193" width="37" height="37" style="fill: rgb(0,0,255); fill-opacity: 1.0" transform="matrix(0.0708661418,0,0,0.0708661418,17.7165354375,17.7165354375)" /><rect x="664" y="193" width="37" height="37" style="fill: rgb(0,0,255); fill-opacity: 1.0" transform="matrix(0.0708661418,0,0,0.0708661418,17.7165354375,17.7165354375)" /><rect x="664" y="193" width="37" height="37" style="fill: rgb(0,0,255); fill-opacity: 1.0" transform="matrix(0.0708661418,0,0,0.0708661418,17.7165354375,17.7165354375)" /><rect x="664" y="193" width="37" height="37" style="fill: rgb(0,0,255); fill-opacity: 1.0" transform="matrix(0.0708661418,0,0,0.0708661418,17.7165354375,17.7165354375)" /><rect x="664" y="193" width="37" height="224" style="fill: rgb(0,0,255); fill-opacity: 1.0" transform="matrix(0.0708661418,0,0,0.0708661418,17.7165354375,17.7165354375)" /><rect x="664" y="380" width="37" height="37" style="fill: rgb(0,0,255); fill-opacity: 1.0" transform="matrix(0.0708661418,0,0,0.0708661418,17.7165354375,17.7165354375)" /><rect x="664" y="380" width="37" height="37" style="fill: rgb(0,0,255); fill-opacity: 1.0" transform="matrix(0.0708661418,0,0,0.0708661418,17.7165354375,17.7165354375)" /><rect x="664" y="380" width="37" height="37" style="fill: rgb(0,0,255); fill-opacity: 1.0" transform="matrix(0.0708661418,0,0,0.0708661418,17.7165354375,17.7165354375)" /><rect x="664" y="380" width="37" height="37" style="fill: rgb(0,0,255); fill-opacity: 1.0" transform="matrix(0.0708661418,0,0,0.0708661418,17.7165354375,17.7165354375)" /><rect x="664" y="380" width="37" height="37" style="fill: rgb(0,0,255); fill-opacity: 1.0" transform="matrix(0.0708661418,0,0,0.0708661418,17.7165354375,17.7165354375)" /><rect x="664" y="380" width="37" height="37" style="fill: rgb(0,0,255); fill-opacity: 1.0" transform="matrix(0.0708661418,0,0,0.0708661418,17.7165354375,17.7165354375)" /><rect x="664" y="568" width="37" height="37" style="fill: rgb(0,0,255); fill-opacity: 1.0" transform="matrix(0.0708661418,0,0,0.0708661418,17.7165354375,17.7165354375)" /><rect x="664" y="568" width="37" height="37" style="fill: rgb(0,0,255); fill-opacity: 1.0" transform="matrix(0.0708661418,0,0,0.0708661418,17.7165354375,17.7165354375)" /><rect x="664" y="568" width="37" height="37" style="fill: rgb(0,0,255); fill-opacity: 1.0" transform="matrix(0.0708661418,0,0,0.0708661418,17.7165354375,17.7165354375)" /><rect x="664" y="568" width="37" height="37" style="fill: rgb(0,0,255); fill-opacity: 1.0" transform="matrix(0.0708661418,0,0,0.0708661418,17.7165354375,17.7165354375)" /><rect x="664" y="568" width="37" height="37" style="fill: rgb(0,0,255); fill-opacity: 1.0" transform="matrix(0.0708661418,0,0,0.0708661418,17.7165354375,17.7165354375)" /><rect x="664" y="568" width="37" height="37" style="fill: rgb(0,0,255); fill-opacity: 1.0" transform="matrix(0.0708661418,0,0,0.0708661418,17.7165354375,17.7165354375)" /><rect x="664" y="380" width="37" height="225" style="fill: rgb(0,0,255); fill-opacity: 1.0" transform="matrix(0.0708661418,0,0,0.0708661418,17.7165354375,17.7165354375)" /><rect x="664" y="380" width="37" height="37" style="fill: rgb(0,0,255); fill-opacity: 1.0" transform="matrix(0.0708661418,0,0,0.0708661418,17.7165354375,17.7165354375)" /><rect x="664" y="380" width="37" height="37" style="fill: rgb(0,0,255); fill-opacity: 1.0" transform="matrix(0.0708661418,0,0,0.0708661418,17.7165354375,17.7165354375)" /><rect x="664" y="380" width="37" height="37" style="fill: rgb(0,0,255); fill-opacity: 1.0" transform="matrix(0.0708661418,0,0,0.0708661418,17.7165354375,17.7165354375)" /><rect x="664" y="380" width="37" height="37" style="fill: rgb(0,0,255); fill-opacity: 1.0" transform="matrix(0.0708661418,0,0,0.0708661418,17.7165354375,17.7165354375)" /><rect x="664" y="380" width="37" height="37" style="fill: rgb(0,0,255); fill-opacity: 1.0" transform="matrix(0.0708661418,0,0,0.0708661418,17.7165354375,17.7165354375)" /><rect x="664" y="380" width="37" height="37" style="fill: rgb(0,0,255); fill-opacity: 1.0" transform="matrix(0.0708661418,0,0,0.0708661418,17.7165354375,17.7165354375)" /><rect x="438" y="193" width="37" height="37" style="fill: rgb(0,0,255); fill-opacity: 1.0" transform="matrix(0.0708661418,0,0,0.0708661418,17.7165354375,17.7165354375)" /><rect x="438" y="193" width="37" height="37" style="fill: rgb(0,0,255); fill-opacity: 1.0" transform="matrix(0.0708661418,0,0,0.0708661418,17.7165354375,17.7165354375)" /><rect x="438" y="193" width="37" height="37" style="fill: rgb(0,0,255); fill-opacity: 1.0" transform="matrix(0.0708661418,0,0,0.0708661418,17.7165354375,17.7165354375)" /><rect x="438" y="193" width="37" height="37" style="fill: rgb(0,0,255); fill-opacity: 1.0" transform="matrix(0.0708661418,0,0,0.0708661418,17.7165354375,17.7165354375)" /><rect x="438" y="193" width="37" height="37" style="fill: rgb(0,0,255); fill-opacity: 1.0" transform="matrix(0.0708661418,0,0,0.0708661418,17.7165354375,17.7165354375)" /><rect x="438" y="193" width="37" height="37" style="fill: rgb(0,0,255); fill-opacity: 1.0" transform="matrix(0.0708661418,0,0,0.0708661418,17.7165354375,17.7165354375)" /><rect x="414" y="193" width="61" height="37" style="fill: rgb(0,0,255); fill-opacity: 1.0" transform="matrix(0.0708661418,0,0,0.0708661418,17.7165354375,17.7165354375)" /><rect x="414" y="193" width="37" height="37" style="fill: rgb(0,0,255); fill-opacity: 1.0" transform="matrix(0.0708661418,0,0,0.0708661418,17.7165354375,17.7165354375)" /><rect x="414" y="193" width="37" height="37" style="fill: rgb(0,0,255); fill-opacity: 1.0" transform="matrix(0.0708661418,0,0,0.0708661418,17.7165354375,17.7165354375)" /><rect x="414" y="193" width="37" height="37" style="fill: rgb(0,0,255); fill-opacity: 1.0" transform="matrix(0.0708661418,0,0,0.0708661418,17.7165354375,17.7165354375)" /><rect x="414" y="193" width="37" height="37" style="fill: rgb(0,0,255); fill-opacity: 1.0" transform="matrix(0.0708661418,0,0,0.0708661418,17.7165354375,17.7165354375)" /><rect x="414" y="193" width="37" height="37" style="fill: rgb(0,0,255); fill-opacity: 1.0" transform="matrix(0.0708661418,0,0,0.0708661418,17.7165354375,17.7165354375)" /><rect x="414" y="193" width="37" height="37" style="fill: rgb(0,0,255); fill-opacity: 1.0" transform="matrix(0.0708661418,0,0,0.0708661418,17.7165354375,17.7165354375)" /><rect x="438" y="568" width="37" height="37" style="fill: rgb(0,0,255); fill-opacity: 1.0" transform="matrix(0.0708661418,0,0,0.0708661418,17.7165354375,17.7165354375)" /><rect x="438" y="568" width="37" height="37" style="fill: rgb(0,0,255); fill-opacity: 1.0" transform="matrix(0.0708661418,0,0,0.0708661418,17.7165354375,17.7165354375)" /><rect x="438" y="568" width="37" height="37" style="fill: rgb(0,0,255); fill-opacity: 1.0" transform="matrix(0.0708661418,0,0,0.0708661418,17.7165354375,17.7165354375)" /><rect x="438" y="568" width="37" height="37" style="fill: rgb(0,0,255); fill-opacity: 1.0" transform="matrix(0.0708661418,0,0,0.0708661418,17.7165354375,17.7165354375)" /><rect x="438" y="568" width="37" height="37" style="fill: rgb(0,0,255); fill-opacity: 1.0" transform="matrix(0.0708661418,0,0,0.0708661418,17.7165354375,17.7165354375)" /><rect x="438" y="568" width="37" height="37" style="fill: rgb(0,0,255); fill-opacity: 1.0" transform="matrix(0.0708661418,0,0,0.0708661418,17.7165354375,17.7165354375)" /><rect x="414" y="568" width="61" height="37" style="fill: rgb(0,0,255); fill-opacity: 1.0" transform="matrix(0.0708661418,0,0,0.0708661418,17.7165354375,17.7165354375)" /><rect x="414" y="568" width="37" height="37" style="fill: rgb(0,0,255); fill-opacity: 1.0" transform="matrix(0.0708661418,0,0,0.0708661418,17.7165354375,17.7165354375)" /><rect x="414" y="568" width="37" height="37" style="fill: rgb(0,0,255); fill-opacity: 1.0" transform="matrix(0.0708661418,0,0,0.0708661418,17.7165354375,17.7165354375)" /><rect x="414" y="568" width="37" height="37" style="fill: rgb(0,0,255); fill-opacity: 1.0" transform="matrix(0.0708661418,0,0,0.0708661418,17.7165354375,17.7165354375)" /><rect x="414" y="568" width="37" height="37" style="fill: rgb(0,0,255); fill-opacity: 1.0" transform="matrix(0.0708661418,0,0,0.0708661418,17.7165354375,17.7165354375)" /><rect x="414" y="568" width="37" height="37" style="fill: rgb(0,0,255); fill-opacity: 1.0" transform="matrix(0.0708661418,0,0,0.0708661418,17.7165354375,17.7165354375)" /><rect x="414" y="568" width="37" height="37" style="fill: rgb(0,0,255); fill-opacity: 1.0" transform="matrix(0.0708661418,0,0,0.0708661418,17.7165354375,17.7165354375)" /><rect x="664" y="380" width="37" height="37" style="fill: rgb(0,0,255); fill-opacity: 1.0" transform="matrix(0.0708661418,0,0,0.0708661418,17.7165354375,17.7165354375)" /><rect x="664" y="380" width="37" height="37" style="fill: rgb(0,0,255); fill-opacity: 1.0" transform="matrix(0.0708661418,0,0,0.0708661418,17.7165354375,17.7165354375)" /><rect x="664" y="380" width="37" height="37" style="fill: rgb(0,0,255); fill-opacity: 1.0" transform="matrix(0.0708661418,0,0,0.0708661418,17.7165354375,17.7165354375)" /><rect x="664" y="380" width="37" height="37" style="fill: rgb(0,0,255); fill-opacity: 1.0" transform="matrix(0.0708661418,0,0,0.0708661418,17.7165354375,17.7165354375)" /><rect x="664" y="380" width="37" height="37" style="fill: rgb(0,0,255); fill-opacity: 1.0" transform="matrix(0.0708661418,0,0,0.0708661418,17.7165354375,17.7165354375)" /><rect x="664" y="380" width="37" height="37" style="fill: rgb(0,0,255); fill-opacity: 1.0" transform="matrix(0.0708661418,0,0,0.0708661418,17.7165354375,17.7165354375)" /><rect x="664" y="380" width="61" height="37" style="fill: rgb(0,0,255); fill-opacity: 1.0" transform="matrix(0.0708661418,0,0,0.0708661418,17.7165354375,17.7165354375)" /><rect x="688" y="380" width="37" height="37" style="fill: rgb(0,0,255); fill-opacity: 1.0" transform="matrix(0.0708661418,0,0,0.0708661418,17.7165354375,17.7165354375)" /><rect x="688" y="380" width="37" height="37" style="fill: rgb(0,0,255); fill-opacity: 1.0" transform="matrix(0.0708661418,0,0,0.0708661418,17.7165354375,17.7165354375)" /><rect x="688" y="380" width="37" height="37" style="fill: rgb(0,0,255); fill-opacity: 1.0" transform="matrix(0.0708661418,0,0,0.0708661418,17.7165354375,17.7165354375)" /><rect x="688" y="380" width="37" height="37" style="fill: rgb(0,0,255); fill-opacity: 1.0" transform="matrix(0.0708661418,0,0,0.0708661418,17.7165354375,17.7165354375)" /><rect x="688" y="380" width="37" height="37" style="fill: rgb(0,0,255); fill-opacity: 1.0" transform="matrix(0.0708661418,0,0,0.0708661418,17.7165354375,17.7165354375)" /><rect x="688" y="380" width="37" height="37" style="fill: rgb(0,0,255); fill-opacity: 1.0" transform="matrix(0.0708661418,0,0,0.0708661418,17.7165354375,17.7165354375)" /><rect x="827" y="380" width="37" height="37" style="fill: rgb(0,0,255); fill-opacity: 1.0" transform="matrix(0.0708661418,0,0,0.0708661418,17.7165354375,17.7165354375)" /><rect x="827" y="380" width="37" height="37" style="fill: rgb(0,0,255); fill-opacity: 1.0" transform="matrix(0.0708661418,0,0,0.0708661418,17.7165354375,17.7165354375)" /><rect x="827" y="380" width="37" height="37" style="fill: rgb(0,0,255); fill-opacity: 1.0" transform="matrix(0.0708661418,0,0,0.0708661418,17.7165354375,17.7165354375)" /><rect x="827" y="380" width="37" height="37" style="fill: rgb(0,0,255); fill-opacity: 1.0" transform="matrix(0.0708661418,0,0,0.0708661418,17.7165354375,17.7165354375)" /><rect x="827" y="380" width="37" height="37" style="fill: rgb(0,0,255); fill-opacity: 1.0" transform="matrix(0.0708661418,0,0,0.0708661418,17.7165354375,17.7165354375)" /><rect x="827" y="380" width="37" height="37" style="fill: rgb(0,0,255); fill-opacity: 1.0" transform="matrix(0.0708661418,0,0,0.0708661418,17.7165354375,17.7165354375)" /><rect x="827" y="380" width="263" height="37" style="fill: rgb(0,0,255); fill-opacity: 1.0" transform="matrix(0.0708661418,0,0,0.0708661418,17.7165354375,17.7165354375)" /><rect x="1053" y="380" width="37" height="37" style="fill: rgb(0,0,255); fill-opacity: 1.0" transform="matrix(0.0708661418,0,0,0.0708661418,17.7165354375,17.7165354375)" /><rect x="1053" y="380" width="37" height="37" style="fill: rgb(0,0,255); fill-opacity: 1.0" transform="matrix(0.0708661418,0,0,0.0708661418,17.7165354375,17.7165354375)" /><rect x="1053" y="380" width="37" height="37" style="fill: rgb(0,0,255); fill-opacity: 1.0" transform="matrix(0.0708661418,0,0,0.0708661418,17.7165354375,17.7165354375)" /><rect x="1053" y="380" width="37" height="37" style="fill: rgb(0,0,255); fill-opacity: 1.0" transform="matrix(0.0708661418,0,0,0.0708661418,17.7165354375,17.7165354375)" /><rect x="1053" y="380" width="37" height="37" style="fill: rgb(0,0,255); fill-opacity: 1.0" transform="matrix(0.0708661418,0,0,0.0708661418,17.7165354375,17.7165354375)" /><rect x="1053" y="380" width="37" height="37" style="fill: rgb(0,0,255); fill-opacity: 1.0" transform="matrix(0.0708661418,0,0,0.0708661418,17.7165354375,17.7165354375)" /><rect x="827" y="755" width="37" height="37" style="fill: rgb(0,0,255); fill-opacity: 1.0" transform="matrix(0.0708661418,0,0,0.0708661418,17.7165354375,17.7165354375)" /><rect x="827" y="755" width="37" height="37" style="fill: rgb(0,0,255); fill-opacity: 1.0" transform="matrix(0.0708661418,0,0,0.0708661418,17.7165354375,17.7165354375)" /><rect x="827" y="755" width="37" height="37" style="fill: rgb(0,0,255); fill-opacity: 1.0" transform="matrix(0.0708661418,0,0,0.0708661418,17.7165354375,17.7165354375)" /><rect x="827" y="755" width="37" height="37" style="fill: rgb(0,0,255); fill-opacity: 1.0" transform="matrix(0.0708661418,0,0,0.0708661418,17.7165354375,17.7165354375)" /><rect x="827" y="755" width="37" height="37" style="fill: rgb(0,0,255); fill-opacity: 1.0" transform="matrix(0.0708661418,0,0,0.0708661418,17.7165354375,17.7165354375)" /><rect x="827" y="755" width="37" height="37" style="fill: rgb(0,0,255); fill-opacity: 1.0" transform="matrix(0.0708661418,0,0,0.0708661418,17.7165354375,17.7165354375)" /><rect x="827" y="755" width="263" height="37" style="fill: rgb(0,0,255); fill-opacity: 1.0" transform="matrix(0.0708661418,0,0,0.0708661418,17.7165354375,17.7165354375)" /><rect x="1053" y="755" width="37" height="37" style="fill: rgb(0,0,255); fill-opacity: 1.0" transform="matrix(0.0708661418,0,0,0.0708661418,17.7165354375,17.7165354375)" /><rect x="1053" y="755" width="37" height="37" style="fill: rgb(0,0,255); fill-opacity: 1.0" transform="matrix(0.0708661418,0,0,0.0708661418,17.7165354375,17.7165354375)" /><rect x="1053" y="755" width="37" height="37" style="fill: rgb(0,0,255); fill-opacity: 1.0" transform="matrix(0.0708661418,0,0,0.0708661418,17.7165354375,17.7165354375)" /><rect x="1053" y="755" width="37" height="37" style="fill: rgb(0,0,255); fill-opacity: 1.0" transform="matrix(0.0708661418,0,0,0.0708661418,17.7165354375,17.7165354375)" /><rect x="1053" y="755" width="37" height="37" style="fill: rgb(0,0,255); fill-opacity: 1.0" transform="matrix(0.0708661418,0,0,0.0708661418,17.7165354375,17.7165354375)" /><rect x="1053" y="755" width="37" height="37" style="fill: rgb(0,0,255); fill-opacity: 1.0" transform="matrix(0.0708661418,0,0,0.0708661418,17.7165354375,17.7165354375)" /><rect x="1053" y="380" width="37" height="37" style="fill: rgb(0,0,255); fill-opacity: 1.0" transform="matrix(0.0708661418,0,0,0.0708661418,17.7165354375,17.7165354375)" /><rect x="1053" y="380" width="37" height="37" style="fill: rgb(0,0,255); fill-opacity: 1.0" transform="matrix(0.0708661418,0,0,0.0708661418,17.7165354375,17.7165354375)" /><rect x="1053" y="380" width="37" height="37" style="fill: rgb(0,0,255); fill-opacity: 1.0" transform="matrix(0.0708661418,0,0,0.0708661418,17.7165354375,17.7165354375)" /><rect x="1053" y="380" width="37" height="37" style="fill: rgb(0,0,255); fill-opacity: 1.0" transform="matrix(0.0708661418,0,0,0.0708661418,17.7165354375,17.7165354375)" /><rect x="1053" y="380" width="37" height="37" style="fill: rgb(0,0,255); fill-opacity: 1.0" transform="matrix(0.0708661418,0,0,0.0708661418,17.7165354375,17.7165354375)" /><rect x="1053" y="380" width="37" height="37" style="fill: rgb(0,0,255); fill-opacity: 1.0" transform="matrix(0.0708661418,0,0,0.0708661418,17.7165354375,17.7165354375)" /><rect x="1053" y="380" width="37" height="224" style="fill: rgb(0,0,255); fill-opacity: 1.0" transform="matrix(0.0708661418,0,0,0.0708661418,17.7165354375,17.7165354375)" /><rect x="1053" y="567" width="37" height="37" style="fill: rgb(0,0,255); fill-opacity: 1.0" transform="matrix(0.0708661418,0,0,0.0708661418,17.7165354375,17.7165354375)" /><rect x="1053" y="567" width="37" height="37" style="fill: rgb(0,0,255); fill-opacity: 1.0" transform="matrix(0.0708661418,0,0,0.0708661418,17.7165354375,17.7165354375)" /><rect x="1053" y="567" width="37" height="37" style="fill: rgb(0,0,255); fill-opacity: 1.0" transform="matrix(0.0708661418,0,0,0.0708661418,17.7165354375,17.7165354375)" /><rect x="1053" y="567" width="37" height="37" style="fill: rgb(0,0,255); fill-opacity: 1.0" transform="matrix(0.0708661418,0,0,0.0708661418,17.7165354375,17.7165354375)" /><rect x="1053" y="567" width="37" height="37" style="fill: rgb(0,0,255); fill-opacity: 1.0" transform="matrix(0.0708661418,0,0,0.0708661418,17.7165354375,17.7165354375)" /><rect x="1053" y="567" width="37" height="37" style="fill: rgb(0,0,255); fill-opacity: 1.0" transform="matrix(0.0708661418,0,0,0.0708661418,17.7165354375,17.7165354375)" /><rect x="1053" y="755" width="37" height="37" style="fill: rgb(0,0,255); fill-opacity: 1.0" transform="matrix(0.0708661418,0,0,0.0708661418,17.7165354375,17.7165354375)" /><rect x="1053" y="755" width="37" height="37" style="fill: rgb(0,0,255); fill-opacity: 1.0" transform="matrix(0.0708661418,0,0,0.0708661418,17.7165354375,17.7165354375)" /><rect x="1053" y="755" width="37" height="37" style="fill: rgb(0,0,255); fill-opacity: 1.0" transform="matrix(0.0708661418,0,0,0.0708661418,17.7165354375,17.7165354375)" /><rect x="1053" y="755" width="37" height="37" style="fill: rgb(0,0,255); fill-opacity: 1.0" transform="matrix(0.0708661418,0,0,0.0708661418,17.7165354375,17.7165354375)" /><rect x="1053" y="755" width="37" height="37" style="fill: rgb(0,0,255); fill-opacity: 1.0" transform="matrix(0.0708661418,0,0,0.0708661418,17.7165354375,17.7165354375)" /><rect x="1053" y="755" width="37" height="37" style="fill: rgb(0,0,255); fill-opacity: 1.0" transform="matrix(0.0708661418,0,0,0.0708661418,17.7165354375,17.7165354375)" /><rect x="1053" y="567" width="37" height="225" style="fill: rgb(0,0,255); fill-opacity: 1.0" transform="matrix(0.0708661418,0,0,0.0708661418,17.7165354375,17.7165354375)" /><rect x="1053" y="567" width="37" height="37" style="fill: rgb(0,0,255); fill-opacity: 1.0" transform="matrix(0.0708661418,0,0,0.0708661418,17.7165354375,17.7165354375)" /><rect x="1053" y="567" width="37" height="37" style="fill: rgb(0,0,255); fill-opacity: 1.0" transform="matrix(0.0708661418,0,0,0.0708661418,17.7165354375,17.7165354375)" /><rect x="1053" y="567" width="37" height="37" style="fill: rgb(0,0,255); fill-opacity: 1.0" transform="matrix(0.0708661418,0,0,0.0708661418,17.7165354375,17.7165354375)" /><rect x="1053" y="567" width="37" height="37" style="fill: rgb(0,0,255); fill-opacity: 1.0" transform="matrix(0.0708661418,0,0,0.0708661418,17.7165354375,17.7165354375)" /><rect x="1053" y="567" width="37" height="37" style="fill: rgb(0,0,255); fill-opacity: 1.0" transform="matrix(0.0708661418,0,0,0.0708661418,17.7165354375,17.7165354375)" /><rect x="1053" y="567" width="37" height="37" style="fill: rgb(0,0,255); fill-opacity: 1.0" transform="matrix(0.0708661418,0,0,0.0708661418,17.7165354375,17.7165354375)" /><rect x="827" y="380" width="37" height="37" style="fill: rgb(0,0,255); fill-opacity: 1.0" transform="matrix(0.0708661418,0,0,0.0708661418,17.7165354375,17.7165354375)" /><rect x="827" y="380" width="37" height="37" style="fill: rgb(0,0,255); fill-opacity: 1.0" transform="matrix(0.0708661418,0,0,0.0708661418,17.7165354375,17.7165354375)" /><rect x="827" y="380" width="37" height="37" style="fill: rgb(0,0,255); fill-opacity: 1.0" transform="matrix(0.0708661418,0,0,0.0708661418,17.7165354375,17.7165354375)" /><rect x="827" y="380" width="37" height="37" style="fill: rgb(0,0,255); fill-opacity: 1.0" transform="matrix(0.0708661418,0,0,0.0708661418,17.7165354375,17.7165354375)" /><rect x="827" y="380" width="37" height="37" style="fill: rgb(0,0,255); fill-opacity: 1.0" transform="matrix(0.0708661418,0,0,0.0708661418,17.7165354375,17.7165354375)" /><rect x="827" y="380" width="37" height="37" style="fill: rgb(0,0,255); fill-opacity: 1.0" transform="matrix(0.0708661418,0,0,0.0708661418,17.7165354375,17.7165354375)" /><rect x="803" y="380" width="61" height="37" style="fill: rgb(0,0,255); fill-opacity: 1.0" transform="matrix(0.0708661418,0,0,0.0708661418,17.7165354375,17.7165354375)" /><rect x="803" y="380" width="37" height="37" style="fill: rgb(0,0,255); fill-opacity: 1.0" transform="matrix(0.0708661418,0,0,0.0708661418,17.7165354375,17.7165354375)" /><rect x="803" y="380" width="37" height="37" style="fill: rgb(0,0,255); fill-opacity: 1.0" transform="matrix(0.0708661418,0,0,0.0708661418,17.7165354375,17.7165354375)" /><rect x="803" y="380" width="37" height="37" style="fill: rgb(0,0,255); fill-opacity: 1.0" transform="matrix(0.0708661418,0,0,0.0708661418,17.7165354375,17.7165354375)" /><rect x="803" y="380" width="37" height="37" style="fill: rgb(0,0,255); fill-opacity: 1.0" transform="matrix(0.0708661418,0,0,0.0708661418,17.7165354375,17.7165354375)" /><rect x="803" y="380" width="37" height="37" style="fill: rgb(0,0,255); fill-opacity: 1.0" transform="matrix(0.0708661418,0,0,0.0708661418,17.7165354375,17.7165354375)" /><rect x="803" y="380" width="37" height="37" style="fill: rgb(0,0,255); fill-opacity: 1.0" transform="matrix(0.0708661418,0,0,0.0708661418,17.7165354375,17.7165354375)" /><rect x="827" y="755" width="37" height="37" style="fill: rgb(0,0,255); fill-opacity: 1.0" transform="matrix(0.0708661418,0,0,0.0708661418,17.7165354375,17.7165354375)" /><rect x="827" y="755" width="37" height="37" style="fill: rgb(0,0,255); fill-opacity: 1.0" transform="matrix(0.0708661418,0,0,0.0708661418,17.7165354375,17.7165354375)" /><rect x="827" y="755" width="37" height="37" style="fill: rgb(0,0,255); fill-opacity: 1.0" transform="matrix(0.0708661418,0,0,0.0708661418,17.7165354375,17.7165354375)" /><rect x="827" y="755" width="37" height="37" style="fill: rgb(0,0,255); fill-opacity: 1.0" transform="matrix(0.0708661418,0,0,0.0708661418,17.7165354375,17.7165354375)" /><rect x="827" y="755" width="37" height="37" style="fill: rgb(0,0,255); fill-opacity: 1.0" transform="matrix(0.0708661418,0,0,0.0708661418,17.7165354375,17.7165354375)" /><rect x="827" y="755" width="37" height="37" style="fill: rgb(0,0,255); fill-opacity: 1.0" transform="matrix(0.0708661418,0,0,0.0708661418,17.7165354375,17.7165354375)" /><rect x="803" y="755" width="61" height="37" style="fill: rgb(0,0,255); fill-opacity: 1.0" transform="matrix(0.0708661418,0,0,0.0708661418,17.7165354375,17.7165354375)" /><rect x="803" y="755" width="37" height="37" style="fill: rgb(0,0,255); fill-opacity: 1.0" transform="matrix(0.0708661418,0,0,0.0708661418,17.7165354375,17.7165354375)" /><rect x="803" y="755" width="37" height="37" style="fill: rgb(0,0,255); fill-opacity: 1.0" transform="matrix(0.0708661418,0,0,0.0708661418,17.7165354375,17.7165354375)" /><rect x="803" y="755" width="37" height="37" style="fill: rgb(0,0,255); fill-opacity: 1.0" transform="matrix(0.0708661418,0,0,0.0708661418,17.7165354375,17.7165354375)" /><rect x="803" y="755" width="37" height="37" style="fill: rgb(0,0,255); fill-opacity: 1.0" transform="matrix(0.0708661418,0,0,0.0708661418,17.7165354375,17.7165354375)" /><rect x="803" y="755" width="37" height="37" style="fill: rgb(0,0,255); fill-opacity: 1.0" transform="matrix(0.0708661418,0,0,0.0708661418,17.7165354375,17.7165354375)" /><rect x="803" y="755" width="37" height="37" style="fill: rgb(0,0,255); fill-opacity: 1.0" transform="matrix(0.0708661418,0,0,0.0708661418,17.7165354375,17.7165354375)" /><rect x="1053" y="567" width="37" height="37" style="fill: rgb(0,0,255); fill-opacity: 1.0" transform="matrix(0.0708661418,0,0,0.0708661418,17.7165354375,17.7165354375)" /><rect x="1053" y="567" width="37" height="37" style="fill: rgb(0,0,255); fill-opacity: 1.0" transform="matrix(0.0708661418,0,0,0.0708661418,17.7165354375,17.7165354375)" /><rect x="1053" y="567" width="37" height="37" style="fill: rgb(0,0,255); fill-opacity: 1.0" transform="matrix(0.0708661418,0,0,0.0708661418,17.7165354375,17.7165354375)" /><rect x="1053" y="567" width="37" height="37" style="fill: rgb(0,0,255); fill-opacity: 1.0" transform="matrix(0.0708661418,0,0,0.0708661418,17.7165354375,17.7165354375)" /><rect x="1053" y="567" width="37" height="37" style="fill: rgb(0,0,255); fill-opacity: 1.0" transform="matrix(0.0708661418,0,0,0.0708661418,17.7165354375,17.7165354375)" /><rect x="1053" y="567" width="37" height="37" style="fill: rgb(0,0,255); fill-opacity: 1.0" transform="matrix(0.0708661418,0,0,0.0708661418,17.7165354375,17.7165354375)" /><rect x="1053" y="567" width="61" height="37" style="fill: rgb(0,0,255); fill-opacity: 1.0" transform="matrix(0.0708661418,0,0,0.0708661418,17.7165354375,17.7165354375)" /><rect x="1077" y="567" width="37" height="37" style="fill: rgb(0,0,255); fill-opacity: 1.0" transform="matrix(0.0708661418,0,0,0.0708661418,17.7165354375,17.7165354375)" /><rect x="1077" y="567" width="37" height="37" style="fill: rgb(0,0,255); fill-opacity: 1.0" transform="matrix(0.0708661418,0,0,0.0708661418,17.7165354375,17.7165354375)" /><rect x="1077" y="567" width="37" height="37" style="fill: rgb(0,0,255); fill-opacity: 1.0" transform="matrix(0.0708661418,0,0,0.0708661418,17.7165354375,17.7165354375)" /><rect x="1077" y="567" width="37" height="37" style="fill: rgb(0,0,255); fill-opacity: 1.0" transform="matrix(0.0708661418,0,0,0.0708661418,17.7165354375,17.7165354375)" /><rect x="1077" y="567" width="37" height="37" style="fill: rgb(0,0,255); fill-opacity: 1.0" transform="matrix(0.0708661418,0,0,0.0708661418,17.7165354375,17.7165354375)" /><rect x="1077" y="567" width="37" height="37" style="fill: rgb(0,0,255); fill-opacity: 1.0" transform="matrix(0.0708661418,0,0,0.0708661418,17.7165354375,17.7165354375)" /><g style="fill: rgb(0,0,255); fill-opacity: 1.0; stroke: none" transform="matrix(0.0708661418,0,0,0.0708661418,17.7165354375,17.7165354375)" ><path d="M 599.4515991211 732.1449584961 C 554.2687988281 739.3012084961 521 778.2539672852 521 824 C 521 869.7460327148 554.2687988281 908.6987915039 599.4515991211 915.8550415039"/></g><g style="fill: rgb(0,0,255); fill-opacity: 1.0; stroke: none" transform="matrix(0.0708661418,0,0,0.0708661418,17.7165354375,17.7165354375)" ><path d="M 628.5484008789 915.8550415039 C 673.7312011719 908.6987915039 707 869.7460327148 707 824 C 707 778.2539672852 673.7312011719 739.3012084961 628.5484008789 732.1449584961"/></g><rect x="294" y="193" width="37" height="37" style="fill: rgb(0,0,255); fill-opacity: 1.0" transform="matrix(0.0708661418,0,0,0.0708661418,17.7165354375,17.7165354375)" /><rect x="294" y="193" width="37" height="37" style="fill: rgb(0,0,255); fill-opacity: 1.0" transform="matrix(0.0708661418,0,0,0.0708661418,17.7165354375,17.7165354375)" /><rect x="294" y="193" width="37" height="37" style="fill: rgb(0,0,255); fill-opacity: 1.0" transform="matrix(0.0708661418,0,0,0.0708661418,17.7165354375,17.7165354375)" /><rect x="294" y="193" width="37" height="37" style="fill: rgb(0,0,255); fill-opacity: 1.0" transform="matrix(0.0708661418,0,0,0.0708661418,17.7165354375,17.7165354375)" /><rect x="294" y="193" width="37" height="37" style="fill: rgb(0,0,255); fill-opacity: 1.0" transform="matrix(0.0708661418,0,0,0.0708661418,17.7165354375,17.7165354375)" /><rect x="294" y="193" width="37" height="37" style="fill: rgb(0,0,255); fill-opacity: 1.0" transform="matrix(0.0708661418,0,0,0.0708661418,17.7165354375,17.7165354375)" /><rect x="294" y="193" width="37" height="37" style="fill: rgb(0,0,255); fill-opacity: 1.0" transform="matrix(0.0708661418,0,0,0.0708661418,17.7165354375,17.7165354375)" /><rect x="294" y="193" width="37" height="37" style="fill: rgb(0,0,255); fill-opacity: 1.0" transform="matrix(0.0708661418,0,0,0.0708661418,17.7165354375,17.7165354375)" /><rect x="294" y="193" width="157" height="37" style="fill: rgb(0,0,255); fill-opacity: 1.0" transform="matrix(0.0708661418,0,0,0.0708661418,17.7165354375,17.7165354375)" /><rect x="414" y="193" width="37" height="37" style="fill: rgb(0,0,255); fill-opacity: 1.0" transform="matrix(0.0708661418,0,0,0.0708661418,17.7165354375,17.7165354375)" /><rect x="414" y="193" width="37" height="37" style="fill: rgb(0,0,255); fill-opacity: 1.0" transform="matrix(0.0708661418,0,0,0.0708661418,17.7165354375,17.7165354375)" /><rect x="414" y="193" width="37" height="37" style="fill: rgb(0,0,255); fill-opacity: 1.0" transform="matrix(0.0708661418,0,0,0.0708661418,17.7165354375,17.7165354375)" /><rect x="414" y="193" width="37" height="37" style="fill: rgb(0,0,255); fill-opacity: 1.0" transform="matrix(0.0708661418,0,0,0.0708661418,17.7165354375,17.7165354375)" /><rect x="414" y="193" width="37" height="37" style="fill: rgb(0,0,255); fill-opacity: 1.0" transform="matrix(0.0708661418,0,0,0.0708661418,17.7165354375,17.7165354375)" /><rect x="414" y="193" width="37" height="37" style="fill: rgb(0,0,255); fill-opacity: 1.0" transform="matrix(0.0708661418,0,0,0.0708661418,17.7165354375,17.7165354375)" /><rect x="414" y="193" width="37" height="37" style="fill: rgb(0,0,255); fill-opacity: 1.0" transform="matrix(0.0708661418,0,0,0.0708661418,17.7165354375,17.7165354375)" /><rect x="414" y="193" width="37" height="37" style="fill: rgb(0,0,255); fill-opacity: 1.0" transform="matrix(0.0708661418,0,0,0.0708661418,17.7165354375,17.7165354375)" /><rect x="294" y="568" width="37" height="37" style="fill: rgb(0,0,255); fill-opacity: 1.0" transform="matrix(0.0708661418,0,0,0.0708661418,17.7165354375,17.7165354375)" /><rect x="294" y="568" width="37" height="37" style="fill: rgb(0,0,255); fill-opacity: 1.0" transform="matrix(0.0708661418,0,0,0.0708661418,17.7165354375,17.7165354375)" /><rect x="294" y="568" width="37" height="37" style="fill: rgb(0,0,255); fill-opacity: 1.0" transform="matrix(0.0708661418,0,0,0.0708661418,17.7165354375,17.7165354375)" /><rect x="294" y="568" width="37" height="37" style="fill: rgb(0,0,255); fill-opacity: 1.0" transform="matrix(0.0708661418,0,0,0.0708661418,17.7165354375,17.7165354375)" /><rect x="294" y="568" width="37" height="37" style="fill: rgb(0,0,255); fill-opacity: 1.0" transform="matrix(0.0708661418,0,0,0.0708661418,17.7165354375,17.7165354375)" /><rect x="294" y="568" width="37" height="37" style="fill: rgb(0,0,255); fill-opacity: 1.0" transform="matrix(0.0708661418,0,0,0.0708661418,17.7165354375,17.7165354375)" /><rect x="294" y="568" width="37" height="37" style="fill: rgb(0,0,255); fill-opacity: 1.0" transform="matrix(0.0708661418,0,0,0.0708661418,17.7165354375,17.7165354375)" /><rect x="294" y="568" width="37" height="37" style="fill: rgb(0,0,255); fill-opacity: 1.0" transform="matrix(0.0708661418,0,0,0.0708661418,17.7165354375,17.7165354375)" /><rect x="294" y="568" width="157" height="37" style="fill: rgb(0,0,255); fill-opacity: 1.0" transform="matrix(0.0708661418,0,0,0.0708661418,17.7165354375,17.7165354375)" /><rect x="414" y="568" width="37" height="37" style="fill: rgb(0,0,255); fill-opacity: 1.0" transform="matrix(0.0708661418,0,0,0.0708661418,17.7165354375,17.7165354375)" /><rect x="414" y="568" width="37" height="37" style="fill: rgb(0,0,255); fill-opacity: 1.0" transform="matrix(0.0708661418,0,0,0.0708661418,17.7165354375,17.7165354375)" /><rect x="414" y="568" width="37" height="37" style="fill: rgb(0,0,255); fill-opacity: 1.0" transform="matrix(0.0708661418,0,0,0.0708661418,17.7165354375,17.7165354375)" /><rect x="414" y="568" width="37" height="37" style="fill: rgb(0,0,255); fill-opacity: 1.0" transform="matrix(0.0708661418,0,0,0.0708661418,17.7165354375,17.7165354375)" /><rect x="414" y="568" width="37" height="37" style="fill: rgb(0,0,255); fill-opacity: 1.0" transform="matrix(0.0708661418,0,0,0.0708661418,17.7165354375,17.7165354375)" /><rect x="414" y="568" width="37" height="37" style="fill: rgb(0,0,255); fill-opacity: 1.0" transform="matrix(0.0708661418,0,0,0.0708661418,17.7165354375,17.7165354375)" /><rect x="414" y="568" width="37" height="37" style="fill: rgb(0,0,255); fill-opacity: 1.0" transform="matrix(0.0708661418,0,0,0.0708661418,17.7165354375,17.7165354375)" /><rect x="414" y="568" width="37" height="37" style="fill: rgb(0,0,255); fill-opacity: 1.0" transform="matrix(0.0708661418,0,0,0.0708661418,17.7165354375,17.7165354375)" /><rect x="1077" y="567" width="37" height="37" style="fill: rgb(0,0,255); fill-opacity: 1.0" transform="matrix(0.0708661418,0,0,0.0708661418,17.7165354375,17.7165354375)" /><rect x="1077" y="567" width="37" height="37" style="fill: rgb(0,0,255); fill-opacity: 1.0" transform="matrix(0.0708661418,0,0,0.0708661418,17.7165354375,17.7165354375)" /><rect x="1077" y="567" width="37" height="37" style="fill: rgb(0,0,255); fill-opacity: 1.0" transform="matrix(0.0708661418,0,0,0.0708661418,17.7165354375,17.7165354375)" /><rect x="1077" y="567" width="37" height="37" style="fill: rgb(0,0,255); fill-opacity: 1.0" transform="matrix(0.0708661418,0,0,0.0708661418,17.7165354375,17.7165354375)" /><rect x="1077" y="567" width="37" height="37" style="fill: rgb(0,0,255); fill-opacity: 1.0" transform="matrix(0.0708661418,0,0,0.0708661418,17.7165354375,17.7165354375)" /><rect x="1077" y="567" width="37" height="37" style="fill: rgb(0,0,255); fill-opacity: 1.0" transform="matrix(0.0708661418,0,0,0.0708661418,17.7165354375,17.7165354375)" /><rect x="1077" y="567" width="37" height="37" style="fill: rgb(0,0,255); fill-opacity: 1.0" transform="matrix(0.0708661418,0,0,0.0708661418,17.7165354375,17.7165354375)" /><rect x="1077" y="567" width="37" height="37" style="fill: rgb(0,0,255); fill-opacity: 1.0" transform="matrix(0.0708661418,0,0,0.0708661418,17.7165354375,17.7165354375)" /><rect x="1077" y="567" width="476" height="37" style="fill: rgb(0,0,255); fill-opacity: 1.0" transform="matrix(0.0708661418,0,0,0.0708661418,17.7165354375,17.7165354375)" /><rect x="1516" y="567" width="37" height="37" style="fill: rgb(0,0,255); fill-opacity: 1.0" transform="matrix(0.0708661418,0,0,0.0708661418,17.7165354375,17.7165354375)" /><rect x="1516" y="567" width="37" height="37" style="fill: rgb(0,0,255); fill-opacity: 1.0" transform="matrix(0.0708661418,0,0,0.0708661418,17.7165354375,17.7165354375)" /><rect x="1516" y="567" width="37" height="37" style="fill: rgb(0,0,255); fill-opacity: 1.0" transform="matrix(0.0708661418,0,0,0.0708661418,17.7165354375,17.7165354375)" /><rect x="1516" y="567" width="37" height="37" style="fill: rgb(0,0,255); fill-opacity: 1.0" transform="matrix(0.0708661418,0,0,0.0708661418,17.7165354375,17.7165354375)" /><rect x="1516" y="567" width="37" height="37" style="fill: rgb(0,0,255); fill-opacity: 1.0" transform="matrix(0.0708661418,0,0,0.0708661418,17.7165354375,17.7165354375)" /><rect x="1516" y="567" width="37" height="37" style="fill: rgb(0,0,255); fill-opacity: 1.0" transform="matrix(0.0708661418,0,0,0.0708661418,17.7165354375,17.7165354375)" /><rect x="1516" y="567" width="37" height="37" style="fill: rgb(0,0,255); fill-opacity: 1.0" transform="matrix(0.0708661418,0,0,0.0708661418,17.7165354375,17.7165354375)" /><rect x="1516" y="567" width="37" height="37" style="fill: rgb(0,0,255); fill-opacity: 1.0" transform="matrix(0.0708661418,0,0,0.0708661418,17.7165354375,17.7165354375)" /><rect x="688" y="380" width="37" height="37" style="fill: rgb(0,0,255); fill-opacity: 1.0" transform="matrix(0.0708661418,0,0,0.0708661418,17.7165354375,17.7165354375)" /><rect x="688" y="380" width="37" height="37" style="fill: rgb(0,0,255); fill-opacity: 1.0" transform="matrix(0.0708661418,0,0,0.0708661418,17.7165354375,17.7165354375)" /><rect x="688" y="380" width="37" height="37" style="fill: rgb(0,0,255); fill-opacity: 1.0" transform="matrix(0.0708661418,0,0,0.0708661418,17.7165354375,17.7165354375)" /><rect x="688" y="380" width="37" height="37" style="fill: rgb(0,0,255); fill-opacity: 1.0" transform="matrix(0.0708661418,0,0,0.0708661418,17.7165354375,17.7165354375)" /><rect x="688" y="380" width="37" height="37" style="fill: rgb(0,0,255); fill-opacity: 1.0" transform="matrix(0.0708661418,0,0,0.0708661418,17.7165354375,17.7165354375)" /><rect x="688" y="380" width="37" height="37" style="fill: rgb(0,0,255); fill-opacity: 1.0" transform="matrix(0.0708661418,0,0,0.0708661418,17.7165354375,17.7165354375)" /><rect x="688" y="380" width="37" height="37" style="fill: rgb(0,0,255); fill-opacity: 1.0" transform="matrix(0.0708661418,0,0,0.0708661418,17.7165354375,17.7165354375)" /><rect x="688" y="380" width="37" height="37" style="fill: rgb(0,0,255); fill-opacity: 1.0" transform="matrix(0.0708661418,0,0,0.0708661418,17.7165354375,17.7165354375)" /><rect x="688" y="380" width="152" height="37" style="fill: rgb(0,0,255); fill-opacity: 1.0" transform="matrix(0.0708661418,0,0,0.0708661418,17.7165354375,17.7165354375)" /><rect x="803" y="380" width="37" height="37" style="fill: rgb(0,0,255); fill-opacity: 1.0" transform="matrix(0.0708661418,0,0,0.0708661418,17.7165354375,17.7165354375)" /><rect x="803" y="380" width="37" height="37" style="fill: rgb(0,0,255); fill-opacity: 1.0" transform="matrix(0.0708661418,0,0,0.0708661418,17.7165354375,17.7165354375)" /><rect x="803" y="380" width="37" height="37" style="fill: rgb(0,0,255); fill-opacity: 1.0" transform="matrix(0.0708661418,0,0,0.0708661418,17.7165354375,17.7165354375)" /><rect x="803" y="380" width="37" height="37" style="fill: rgb(0,0,255); fill-opacity: 1.0" transform="matrix(0.0708661418,0,0,0.0708661418,17.7165354375,17.7165354375)" /><rect x="803" y="380" width="37" height="37" style="fill: rgb(0,0,255); fill-opacity: 1.0" transform="matrix(0.0708661418,0,0,0.0708661418,17.7165354375,17.7165354375)" /><rect x="803" y="380" width="37" height="37" style="fill: rgb(0,0,255); fill-opacity: 1.0" transform="matrix(0.0708661418,0,0,0.0708661418,17.7165354375,17.7165354375)" /><rect x="803" y="380" width="37" height="37" style="fill: rgb(0,0,255); fill-opacity: 1.0" transform="matrix(0.0708661418,0,0,0.0708661418,17.7165354375,17.7165354375)" /><rect x="803" y="380" width="37" height="37" style="fill: rgb(0,0,255); fill-opacity: 1.0" transform="matrix(0.0708661418,0,0,0.0708661418,17.7165354375,17.7165354375)" /><rect x="294" y="850" width="37" height="37" style="fill: rgb(0,0,255); fill-opacity: 1.0" transform="matrix(0.0708661418,0,0,0.0708661418,17.7165354375,17.7165354375)" /><rect x="294" y="850" width="37" height="37" style="fill: rgb(0,0,255); fill-opacity: 1.0" transform="matrix(0.0708661418,0,0,0.0708661418,17.7165354375,17.7165354375)" /><rect x="294" y="850" width="37" height="37" style="fill: rgb(0,0,255); fill-opacity: 1.0" transform="matrix(0.0708661418,0,0,0.0708661418,17.7165354375,17.7165354375)" /><rect x="294" y="850" width="37" height="37" style="fill: rgb(0,0,255); fill-opacity: 1.0" transform="matrix(0.0708661418,0,0,0.0708661418,17.7165354375,17.7165354375)" /><rect x="294" y="850" width="37" height="37" style="fill: rgb(0,0,255); fill-opacity: 1.0" transform="matrix(0.0708661418,0,0,0.0708661418,17.7165354375,17.7165354375)" /><rect x="294" y="850" width="37" height="37" style="fill: rgb(0,0,255); fill-opacity: 1.0" transform="matrix(0.0708661418,0,0,0.0708661418,17.7165354375,17.7165354375)" /><rect x="294" y="850" width="208" height="37" style="fill: rgb(0,0,255); fill-opacity: 1.0" transform="matrix(0.0708661418,0,0,0.0708661418,17.7165354375,17.7165354375)" /><rect x="465" y="850" width="37" height="37" style="fill: rgb(0,0,255); fill-opacity: 1.0" transform="matrix(0.0708661418,0,0,0.0708661418,17.7165354375,17.7165354375)" /><rect x="465" y="850" width="37" height="37" style="fill: rgb(0,0,255); fill-opacity: 1.0" transform="matrix(0.0708661418,0,0,0.0708661418,17.7165354375,17.7165354375)" /><rect x="465" y="850" width="37" height="37" style="fill: rgb(0,0,255); fill-opacity: 1.0" transform="matrix(0.0708661418,0,0,0.0708661418,17.7165354375,17.7165354375)" /><rect x="465" y="850" width="37" height="37" style="fill: rgb(0,0,255); fill-opacity: 1.0" transform="matrix(0.0708661418,0,0,0.0708661418,17.7165354375,17.7165354375)" /><rect x="465" y="850" width="37" height="37" style="fill: rgb(0,0,255); fill-opacity: 1.0" transform="matrix(0.0708661418,0,0,0.0708661418,17.7165354375,17.7165354375)" /><rect x="465" y="850" width="37" height="37" style="fill: rgb(0,0,255); fill-opacity: 1.0" transform="matrix(0.0708661418,0,0,0.0708661418,17.7165354375,17.7165354375)" /><rect x="465" y="850" width="37" height="37" style="fill: rgb(0,0,255); fill-opacity: 1.0" transform="matrix(0.0708661418,0,0,0.0708661418,17.7165354375,17.7165354375)" /><rect x="465" y="850" width="37" height="37" style="fill: rgb(0,0,255); fill-opacity: 1.0" transform="matrix(0.0708661418,0,0,0.0708661418,17.7165354375,17.7165354375)" /><rect x="465" y="850" width="37" height="37" style="fill: rgb(0,0,255); fill-opacity: 1.0" transform="matrix(0.0708661418,0,0,0.0708661418,17.7165354375,17.7165354375)" /><rect x="465" y="850" width="37" height="37" style="fill: rgb(0,0,255); fill-opacity: 1.0" transform="matrix(0.0708661418,0,0,0.0708661418,17.7165354375,17.7165354375)" /><rect x="465" y="850" width="37" height="37" style="fill: rgb(0,0,255); fill-opacity: 1.0" transform="matrix(0.0708661418,0,0,0.0708661418,17.7165354375,17.7165354375)" /><rect x="465" y="850" width="37" height="37" style="fill: rgb(0,0,255); fill-opacity: 1.0" transform="matrix(0.0708661418,0,0,0.0708661418,17.7165354375,17.7165354375)" /><rect x="465" y="806" width="37" height="81" style="fill: rgb(0,0,255); fill-opacity: 1.0" transform="matrix(0.0708661418,0,0,0.0708661418,17.7165354375,17.7165354375)" /><rect x="465" y="806" width="37" height="37" style="fill: rgb(0,0,255); fill-opacity: 1.0" transform="matrix(0.0708661418,0,0,0.0708661418,17.7165354375,17.7165354375)" /><rect x="465" y="806" width="37" height="37" style="fill: rgb(0,0,255); fill-opacity: 1.0" transform="matrix(0.0708661418,0,0,0.0708661418,17.7165354375,17.7165354375)" /><rect x="465" y="806" width="37" height="37" style="fill: rgb(0,0,255); fill-opacity: 1.0" transform="matrix(0.0708661418,0,0,0.0708661418,17.7165354375,17.7165354375)" /><rect x="465" y="806" width="37" height="37" style="fill: rgb(0,0,255); fill-opacity: 1.0" transform="matrix(0.0708661418,0,0,0.0708661418,17.7165354375,17.7165354375)" /><rect x="465" y="806" width="37" height="37" style="fill: rgb(0,0,255); fill-opacity: 1.0" transform="matrix(0.0708661418,0,0,0.0708661418,17.7165354375,17.7165354375)" /><rect x="465" y="806" width="37" height="37" style="fill: rgb(0,0,255); fill-opacity: 1.0" transform="matrix(0.0708661418,0,0,0.0708661418,17.7165354375,17.7165354375)" /><rect x="465" y="806" width="37" height="37" style="fill: rgb(0,0,255); fill-opacity: 1.0" transform="matrix(0.0708661418,0,0,0.0708661418,17.7165354375,17.7165354375)" /><rect x="465" y="806" width="37" height="37" style="fill: rgb(0,0,255); fill-opacity: 1.0" transform="matrix(0.0708661418,0,0,0.0708661418,17.7165354375,17.7165354375)" /><rect x="465" y="806" width="37" height="37" style="fill: rgb(0,0,255); fill-opacity: 1.0" transform="matrix(0.0708661418,0,0,0.0708661418,17.7165354375,17.7165354375)" /><rect x="465" y="806" width="37" height="37" style="fill: rgb(0,0,255); fill-opacity: 1.0" transform="matrix(0.0708661418,0,0,0.0708661418,17.7165354375,17.7165354375)" /><rect x="465" y="806" width="37" height="37" style="fill: rgb(0,0,255); fill-opacity: 1.0" transform="matrix(0.0708661418,0,0,0.0708661418,17.7165354375,17.7165354375)" /><rect x="465" y="806" width="37" height="37" style="fill: rgb(0,0,255); fill-opacity: 1.0" transform="matrix(0.0708661418,0,0,0.0708661418,17.7165354375,17.7165354375)" /><rect x="465" y="806" width="75" height="37" style="fill: rgb(0,0,255); fill-opacity: 1.0" transform="matrix(0.0708661418,0,0,0.0708661418,17.7165354375,17.7165354375)" /><rect x="503" y="806" width="37" height="37" style="fill: rgb(0,0,255); fill-opacity: 1.0" transform="matrix(0.0708661418,0,0,0.0708661418,17.7165354375,17.7165354375)" /><rect x="503" y="806" width="37" height="37" style="fill: rgb(0,0,255); fill-opacity: 1.0" transform="matrix(0.0708661418,0,0,0.0708661418,17.7165354375,17.7165354375)" /><rect x="503" y="806" width="37" height="37" style="fill: rgb(0,0,255); fill-opacity: 1.0" transform="matrix(0.0708661418,0,0,0.0708661418,17.7165354375,17.7165354375)" /><rect x="503" y="806" width="37" height="37" style="fill: rgb(0,0,255); fill-opacity: 1.0" transform="matrix(0.0708661418,0,0,0.0708661418,17.7165354375,17.7165354375)" /><rect x="503" y="806" width="37" height="37" style="fill: rgb(0,0,255); fill-opacity: 1.0" transform="matrix(0.0708661418,0,0,0.0708661418,17.7165354375,17.7165354375)" /><rect x="503" y="806" width="37" height="37" style="fill: rgb(0,0,255); fill-opacity: 1.0" transform="matrix(0.0708661418,0,0,0.0708661418,17.7165354375,17.7165354375)" /><rect x="689" y="806" width="37" height="37" style="fill: rgb(0,0,255); fill-opacity: 1.0" transform="matrix(0.0708661418,0,0,0.0708661418,17.7165354375,17.7165354375)" /><rect x="689" y="806" width="37" height="37" style="fill: rgb(0,0,255); fill-opacity: 1.0" transform="matrix(0.0708661418,0,0,0.0708661418,17.7165354375,17.7165354375)" /><rect x="689" y="806" width="37" height="37" style="fill: rgb(0,0,255); fill-opacity: 1.0" transform="matrix(0.0708661418,0,0,0.0708661418,17.7165354375,17.7165354375)" /><rect x="689" y="806" width="37" height="37" style="fill: rgb(0,0,255); fill-opacity: 1.0" transform="matrix(0.0708661418,0,0,0.0708661418,17.7165354375,17.7165354375)" /><rect x="689" y="806" width="37" height="37" style="fill: rgb(0,0,255); fill-opacity: 1.0" transform="matrix(0.0708661418,0,0,0.0708661418,17.7165354375,17.7165354375)" /><rect x="689" y="806" width="37" height="37" style="fill: rgb(0,0,255); fill-opacity: 1.0" transform="matrix(0.0708661418,0,0,0.0708661418,17.7165354375,17.7165354375)" /><rect x="689" y="806" width="113" height="37" style="fill: rgb(0,0,255); fill-opacity: 1.0" transform="matrix(0.0708661418,0,0,0.0708661418,17.7165354375,17.7165354375)" /><rect x="765" y="806" width="37" height="37" style="fill: rgb(0,0,255); fill-opacity: 1.0" transform="matrix(0.0708661418,0,0,0.0708661418,17.7165354375,17.7165354375)" /><rect x="765" y="806" width="37" height="37" style="fill: rgb(0,0,255); fill-opacity: 1.0" transform="matrix(0.0708661418,0,0,0.0708661418,17.7165354375,17.7165354375)" /><rect x="765" y="806" width="37" height="37" style="fill: rgb(0,0,255); fill-opacity: 1.0" transform="matrix(0.0708661418,0,0,0.0708661418,17.7165354375,17.7165354375)" /><rect x="765" y="806" width="37" height="37" style="fill: rgb(0,0,255); fill-opacity: 1.0" transform="matrix(0.0708661418,0,0,0.0708661418,17.7165354375,17.7165354375)" /><rect x="765" y="806" width="37" height="37" style="fill: rgb(0,0,255); fill-opacity: 1.0" transform="matrix(0.0708661418,0,0,0.0708661418,17.7165354375,17.7165354375)" /><rect x="765" y="806" width="37" height="37" style="fill: rgb(0,0,255); fill-opacity: 1.0" transform="matrix(0.0708661418,0,0,0.0708661418,17.7165354375,17.7165354375)" /><rect x="765" y="806" width="37" height="37" style="fill: rgb(0,0,255); fill-opacity: 1.0" transform="matrix(0.0708661418,0,0,0.0708661418,17.7165354375,17.7165354375)" /><rect x="765" y="806" width="37" height="37" style="fill: rgb(0,0,255); fill-opacity: 1.0" transform="matrix(0.0708661418,0,0,0.0708661418,17.7165354375,17.7165354375)" /><rect x="765" y="806" width="37" height="37" style="fill: rgb(0,0,255); fill-opacity: 1.0" transform="matrix(0.0708661418,0,0,0.0708661418,17.7165354375,17.7165354375)" /><rect x="765" y="806" width="37" height="37" style="fill: rgb(0,0,255); fill-opacity: 1.0" transform="matrix(0.0708661418,0,0,0.0708661418,17.7165354375,17.7165354375)" /><rect x="765" y="806" width="37" height="37" style="fill: rgb(0,0,255); fill-opacity: 1.0" transform="matrix(0.0708661418,0,0,0.0708661418,17.7165354375,17.7165354375)" /><rect x="765" y="806" width="37" height="37" style="fill: rgb(0,0,255); fill-opacity: 1.0" transform="matrix(0.0708661418,0,0,0.0708661418,17.7165354375,17.7165354375)" /><rect x="765" y="755" width="37" height="88" style="fill: rgb(0,0,255); fill-opacity: 1.0" transform="matrix(0.0708661418,0,0,0.0708661418,17.7165354375,17.7165354375)" /><rect x="765" y="755" width="37" height="37" style="fill: rgb(0,0,255); fill-opacity: 1.0" transform="matrix(0.0708661418,0,0,0.0708661418,17.7165354375,17.7165354375)" /><rect x="765" y="755" width="37" height="37" style="fill: rgb(0,0,255); fill-opacity: 1.0" transform="matrix(0.0708661418,0,0,0.0708661418,17.7165354375,17.7165354375)" /><rect x="765" y="755" width="37" height="37" style="fill: rgb(0,0,255); fill-opacity: 1.0" transform="matrix(0.0708661418,0,0,0.0708661418,17.7165354375,17.7165354375)" /><rect x="765" y="755" width="37" height="37" style="fill: rgb(0,0,255); fill-opacity: 1.0" transform="matrix(0.0708661418,0,0,0.0708661418,17.7165354375,17.7165354375)" /><rect x="765" y="755" width="37" height="37" style="fill: rgb(0,0,255); fill-opacity: 1.0" transform="matrix(0.0708661418,0,0,0.0708661418,17.7165354375,17.7165354375)" /><rect x="765" y="755" width="37" height="37" style="fill: rgb(0,0,255); fill-opacity: 1.0" transform="matrix(0.0708661418,0,0,0.0708661418,17.7165354375,17.7165354375)" /><rect x="765" y="755" width="37" height="37" style="fill: rgb(0,0,255); fill-opacity: 1.0" transform="matrix(0.0708661418,0,0,0.0708661418,17.7165354375,17.7165354375)" /><rect x="765" y="755" width="37" height="37" style="fill: rgb(0,0,255); fill-opacity: 1.0" transform="matrix(0.0708661418,0,0,0.0708661418,17.7165354375,17.7165354375)" /><rect x="765" y="755" width="37" height="37" style="fill: rgb(0,0,255); fill-opacity: 1.0" transform="matrix(0.0708661418,0,0,0.0708661418,17.7165354375,17.7165354375)" /><rect x="765" y="755" width="37" height="37" style="fill: rgb(0,0,255); fill-opacity: 1.0" transform="matrix(0.0708661418,0,0,0.0708661418,17.7165354375,17.7165354375)" /><rect x="765" y="755" width="37" height="37" style="fill: rgb(0,0,255); fill-opacity: 1.0" transform="matrix(0.0708661418,0,0,0.0708661418,17.7165354375,17.7165354375)" /><rect x="765" y="755" width="37" height="37" style="fill: rgb(0,0,255); fill-opacity: 1.0" transform="matrix(0.0708661418,0,0,0.0708661418,17.7165354375,17.7165354375)" /><rect x="765" y="755" width="75" height="37" style="fill: rgb(0,0,255); fill-opacity: 1.0" transform="matrix(0.0708661418,0,0,0.0708661418,17.7165354375,17.7165354375)" /><rect x="803" y="755" width="37" height="37" style="fill: rgb(0,0,255); fill-opacity: 1.0" transform="matrix(0.0708661418,0,0,0.0708661418,17.7165354375,17.7165354375)" /><rect x="803" y="755" width="37" height="37" style="fill: rgb(0,0,255); fill-opacity: 1.0" transform="matrix(0.0708661418,0,0,0.0708661418,17.7165354375,17.7165354375)" /><rect x="803" y="755" width="37" height="37" style="fill: rgb(0,0,255); fill-opacity: 1.0" transform="matrix(0.0708661418,0,0,0.0708661418,17.7165354375,17.7165354375)" /><rect x="803" y="755" width="37" height="37" style="fill: rgb(0,0,255); fill-opacity: 1.0" transform="matrix(0.0708661418,0,0,0.0708661418,17.7165354375,17.7165354375)" /><rect x="803" y="755" width="37" height="37" style="fill: rgb(0,0,255); fill-opacity: 1.0" transform="matrix(0.0708661418,0,0,0.0708661418,17.7165354375,17.7165354375)" /><rect x="803" y="755" width="37" height="37" style="fill: rgb(0,0,255); fill-opacity: 1.0" transform="matrix(0.0708661418,0,0,0.0708661418,17.7165354375,17.7165354375)" /></svg>
