<?xml version="1.0"?>
<!DOCTYPE svg PUBLIC "-//W3C//DTD SVG 1.0//EN" "http://www.w3.org/TR/2001/REC-SVG-20010904/DTD/svg10.dtd">
<svg xmlns="http://www.w3.org/2000/svg" xmlns:xlink="http://www.w3.org/1999/xlink" xmlns:jfreesvg="http://www.jfree.org/jfreesvg/svg" width="183" height="149" text-rendering="auto" shape-rendering="auto">
<defs></defs>
<line x1="0" y1="0" x2="51619" y2="0" style="stroke-width: 100.0;stroke: rgb(0,0,0);stroke-opacity: 1.0;stroke-linecap: round;stroke-linejoin: round;" transform="matrix(-0.0035433071,0,0,0.0035433071,183,0)" /><line x1="51620" y1="0" x2="51620" y2="41979" style="stroke-width: 100.0;stroke: rgb(0,0,0);stroke-opacity: 1.0;stroke-linecap: round;stroke-linejoin: round;" transform="matrix(-0.0035433071,0,0,0.0035433071,183,0)" /><line x1="51620" y1="41980" x2="1" y2="41980" style="stroke-width: 100.0;stroke: rgb(0,0,0);stroke-opacity: 1.0;stroke-linecap: round;stroke-linejoin: round;" transform="matrix(-0.0035433071,0,0,0.0035433071,183,0)" /><line x1="0" y1="41980" x2="0" y2="1" style="stroke-width: 100.0;stroke: rgb(0,0,0);stroke-opacity: 1.0;stroke-linecap: round;stroke-linejoin: round;" transform="matrix(-0.0035433071,0,0,0.0035433071,183,0)" /><ellipse cx="530" cy="688" rx="93" ry="93" style="fill: rgb(255,0,0); fill-opacity: 1.0" transform="matrix(-0.0708661418,0,0,0.0708661418,165.2834645625,17.7165354375)" /><ellipse cx="884" cy="885" rx="93" ry="93" style="fill: rgb(255,0,0); fill-opacity: 1.0" transform="matrix(-0.0708661418,0,0,0.0708661418,165.2834645625,17.7165354375)" /><ellipse cx="530" cy="1084" rx="5" ry="5" style="fill: rgb(255,0,0); fill-opacity: 1.0" transform="matrix(-0.0708661418,0,0,0.0708661418,165.2834645625,17.7165354375)" /><ellipse cx="884" cy="1084" rx="5" ry="5" style="fill: rgb(255,0,0); fill-opacity: 1.0" transform="matrix(-0.0708661418,0,0,0.0708661418,165.2834645625,17.7165354375)" /><rect x="528" y="1077" width="5" height="5" style="fill: rgb(255,0,0); fill-opacity: 1.0" transform="matrix(-0.0708661418,0,0,0.0708661418,165.2834645625,17.7165354375)" /><rect x="528" y="1077" width="5" height="5" style="fill: rgb(255,0,0); fill-opacity: 1.0" transform="matrix(-0.0708661418,0,0,0.0708661418,165.2834645625,17.7165354375)" /><rect x="528" y="1077" width="5" height="5" style="fill: rgb(255,0,0); fill-opacity: 1.0" transform="matrix(-0.0708661418,0,0,0.0708661418,165.2834645625,17.7165354375)" /><rect x="528" y="1077" width="5" height="5" style="fill: rgb(255,0,0); fill-opacity: 1.0" transform="matrix(-0.0708661418,0,0,0.0708661418,165.2834645625,17.7165354375)" /><rect x="528" y="1077" width="5" height="5" style="fill: rgb(255,0,0); fill-opacity: 1.0" transform="matrix(-0.0708661418,0,0,0.0708661418,165.2834645625,17.7165354375)" /><rect x="528" y="1077" width="5" height="5" style="fill: rgb(255,0,0); fill-opacity: 1.0" transform="matrix(-0.0708661418,0,0,0.0708661418,165.2834645625,17.7165354375)" /><rect x="528" y="1077" width="5" height="5" style="fill: rgb(255,0,0); fill-opacity: 1.0" transform="matrix(-0.0708661418,0,0,0.0708661418,165.2834645625,17.7165354375)" /><rect x="528" y="1077" width="5" height="5" style="fill: rgb(255,0,0); fill-opacity: 1.0" transform="matrix(-0.0708661418,0,0,0.0708661418,165.2834645625,17.7165354375)" /><rect x="528" y="1077" width="5" height="5" style="fill: rgb(255,0,0); fill-opacity: 1.0" transform="matrix(-0.0708661418,0,0,0.0708661418,165.2834645625,17.7165354375)" /><rect x="528" y="1077" width="5" height="5" style="fill: rgb(255,0,0); fill-opacity: 1.0" transform="matrix(-0.0708661418,0,0,0.0708661418,165.2834645625,17.7165354375)" /><rect x="528" y="779" width="5" height="303" style="fill: rgb(255,0,0); fill-opacity: 1.0" transform="matrix(-0.0708661418,0,0,0.0708661418,165.2834645625,17.7165354375)" /><rect x="528" y="779" width="5" height="5" style="fill: rgb(255,0,0); fill-opacity: 1.0" transform="matrix(-0.0708661418,0,0,0.0708661418,165.2834645625,17.7165354375)" /><rect x="528" y="779" width="5" height="5" style="fill: rgb(255,0,0); fill-opacity: 1.0" transform="matrix(-0.0708661418,0,0,0.0708661418,165.2834645625,17.7165354375)" /><rect x="528" y="779" width="5" height="5" style="fill: rgb(255,0,0); fill-opacity: 1.0" transform="matrix(-0.0708661418,0,0,0.0708661418,165.2834645625,17.7165354375)" /><rect x="528" y="779" width="5" height="5" style="fill: rgb(255,0,0); fill-opacity: 1.0" transform="matrix(-0.0708661418,0,0,0.0708661418,165.2834645625,17.7165354375)" /><rect x="528" y="779" width="5" height="5" style="fill: rgb(255,0,0); fill-opacity: 1.0" transform="matrix(-0.0708661418,0,0,0.0708661418,165.2834645625,17.7165354375)" /><rect x="528" y="779" width="5" height="5" style="fill: rgb(255,0,0); fill-opacity: 1.0" transform="matrix(-0.0708661418,0,0,0.0708661418,165.2834645625,17.7165354375)" /><rect x="528" y="779" width="5" height="5" style="fill: rgb(255,0,0); fill-opacity: 1.0" transform="matrix(-0.0708661418,0,0,0.0708661418,165.2834645625,17.7165354375)" /><rect x="528" y="779" width="5" height="5" style="fill: rgb(255,0,0); fill-opacity: 1.0" transform="matrix(-0.0708661418,0,0,0.0708661418,165.2834645625,17.7165354375)" /><rect x="528" y="779" width="5" height="5" style="fill: rgb(255,0,0); fill-opacity: 1.0" transform="matrix(-0.0708661418,0,0,0.0708661418,165.2834645625,17.7165354375)" /><rect x="528" y="779" width="5" height="5" style="fill: rgb(255,0,0); fill-opacity: 1.0" transform="matrix(-0.0708661418,0,0,0.0708661418,165.2834645625,17.7165354375)" /><rect x="882" y="1077" width="5" height="5" style="fill: rgb(255,0,0); fill-opacity: 1.0" transform="matrix(-0.0708661418,0,0,0.0708661418,165.2834645625,17.7165354375)" /><rect x="882" y="1077" width="5" height="5" style="fill: rgb(255,0,0); fill-opacity: 1.0" transform="matrix(-0.0708661418,0,0,0.0708661418,165.2834645625,17.7165354375)" /><rect x="882" y="1077" width="5" height="5" style="fill: rgb(255,0,0); fill-opacity: 1.0" transform="matrix(-0.0708661418,0,0,0.0708661418,165.2834645625,17.7165354375)" /><rect x="882" y="1077" width="5" height="5" style="fill: rgb(255,0,0); fill-opacity: 1.0" transform="matrix(-0.0708661418,0,0,0.0708661418,165.2834645625,17.7165354375)" /><rect x="882" y="1077" width="5" height="5" style="fill: rgb(255,0,0); fill-opacity: 1.0" transform="matrix(-0.0708661418,0,0,0.0708661418,165.2834645625,17.7165354375)" /><rect x="882" y="1077" width="5" height="5" style="fill: rgb(255,0,0); fill-opacity: 1.0" transform="matrix(-0.0708661418,0,0,0.0708661418,165.2834645625,17.7165354375)" /><rect x="882" y="1077" width="5" height="5" style="fill: rgb(255,0,0); fill-opacity: 1.0" transform="matrix(-0.0708661418,0,0,0.0708661418,165.2834645625,17.7165354375)" /><rect x="882" y="1077" width="5" height="5" style="fill: rgb(255,0,0); fill-opacity: 1.0" transform="matrix(-0.0708661418,0,0,0.0708661418,165.2834645625,17.7165354375)" /><rect x="882" y="1077" width="5" height="5" style="fill: rgb(255,0,0); fill-opacity: 1.0" transform="matrix(-0.0708661418,0,0,0.0708661418,165.2834645625,17.7165354375)" /><rect x="882" y="1077" width="5" height="5" style="fill: rgb(255,0,0); fill-opacity: 1.0" transform="matrix(-0.0708661418,0,0,0.0708661418,165.2834645625,17.7165354375)" /><rect x="882" y="976" width="5" height="106" style="fill: rgb(255,0,0); fill-opacity: 1.0" transform="matrix(-0.0708661418,0,0,0.0708661418,165.2834645625,17.7165354375)" /><rect x="882" y="976" width="5" height="5" style="fill: rgb(255,0,0); fill-opacity: 1.0" transform="matrix(-0.0708661418,0,0,0.0708661418,165.2834645625,17.7165354375)" /><rect x="882" y="976" width="5" height="5" style="fill: rgb(255,0,0); fill-opacity: 1.0" transform="matrix(-0.0708661418,0,0,0.0708661418,165.2834645625,17.7165354375)" /><rect x="882" y="976" width="5" height="5" style="fill: rgb(255,0,0); fill-opacity: 1.0" transform="matrix(-0.0708661418,0,0,0.0708661418,165.2834645625,17.7165354375)" /><rect x="882" y="976" width="5" height="5" style="fill: rgb(255,0,0); fill-opacity: 1.0" transform="matrix(-0.0708661418,0,0,0.0708661418,165.2834645625,17.7165354375)" /><rect x="882" y="976" width="5" height="5" style="fill: rgb(255,0,0); fill-opacity: 1.0" transform="matrix(-0.0708661418,0,0,0.0708661418,165.2834645625,17.7165354375)" /><rect x="882" y="976" width="5" height="5" style="fill: rgb(255,0,0); fill-opacity: 1.0" transform="matrix(-0.0708661418,0,0,0.0708661418,165.2834645625,17.7165354375)" /><rect x="882" y="976" width="5" height="5" style="fill: rgb(255,0,0); fill-opacity: 1.0" transform="matrix(-0.0708661418,0,0,0.0708661418,165.2834645625,17.7165354375)" /><rect x="882" y="976" width="5" height="5" style="fill: rgb(255,0,0); fill-opacity: 1.0" transform="matrix(-0.0708661418,0,0,0.0708661418,165.2834645625,17.7165354375)" /><rect x="882" y="976" width="5" height="5" style="fill: rgb(255,0,0); fill-opacity: 1.0" transform="matrix(-0.0708661418,0,0,0.0708661418,165.2834645625,17.7165354375)" /><rect x="882" y="976" width="5" height="5" style="fill: rgb(255,0,0); fill-opacity: 1.0" transform="matrix(-0.0708661418,0,0,0.0708661418,165.2834645625,17.7165354375)" /></svg>
