<?xml version="1.0"?>
<!DOCTYPE svg PUBLIC "-//W3C//DTD SVG 1.0//EN" "http://www.w3.org/TR/2001/REC-SVG-20010904/DTD/svg10.dtd">
<svg xmlns="http://www.w3.org/2000/svg" xmlns:xlink="http://www.w3.org/1999/xlink" xmlns:jfreesvg="http://www.jfree.org/jfreesvg/svg" width="212" height="69" text-rendering="auto" shape-rendering="auto">
<defs></defs>
<line x1="0" y1="0" x2="74519" y2="0" style="stroke-width: 100.0;stroke: rgb(0,0,0);stroke-opacity: 1.0;stroke-linecap: round;stroke-linejoin: round;" transform="matrix(0.002835,0,0,0.002835,0,0)" /><line x1="74520" y1="0" x2="74520" y2="24179" style="stroke-width: 100.0;stroke: rgb(0,0,0);stroke-opacity: 1.0;stroke-linecap: round;stroke-linejoin: round;" transform="matrix(0.002835,0,0,0.002835,0,0)" /><line x1="74520" y1="24180" x2="1" y2="24180" style="stroke-width: 100.0;stroke: rgb(0,0,0);stroke-opacity: 1.0;stroke-linecap: round;stroke-linejoin: round;" transform="matrix(0.002835,0,0,0.002835,0,0)" /><line x1="0" y1="24180" x2="0" y2="1" style="stroke-width: 100.0;stroke: rgb(0,0,0);stroke-opacity: 1.0;stroke-linecap: round;stroke-linejoin: round;" transform="matrix(0.002835,0,0,0.002835,0,0)" /><g style="fill: rgb(0,0,255); fill-opacity: 1.0; stroke: none" transform="matrix(0.056693,0,0,0.056693,2.834646,2.834646)" ><path d="M 312 586 C 312 641.78 266.78 687 211 687 C 155.22 687 110 641.78 110 586 C 110 530.22 155.22 485 211 485 C 266.78 485 312 530.22 312 586 Z "/></g><g style="fill: rgb(0,0,255); fill-opacity: 1.0; stroke: none" transform="matrix(0.056693,0,0,0.056693,2.834646,2.834646)" ><path d="M 612 211 C 612 266.78 566.78 312 511 312 C 455.22 312 410 266.78 410 211 C 410 155.22 455.22 110 511 110 C 566.78 110 612 155.22 612 211 Z "/></g><g style="fill: rgb(0,0,255); fill-opacity: 1.0; stroke: none" transform="matrix(0.056693,0,0,0.056693,2.834646,2.834646)" ><path d="M 3516 399 C 3516 454.78 3470.78 500 3415 500 C 3359.22 500 3314 454.78 3314 399 C 3314 343.22 3359.22 298 3415 298 C 3470.78 298 3516 343.22 3516 399 Z "/></g><rect x="1035" y="193" width="37" height="37" style="fill: rgb(0,0,255); fill-opacity: 1.0" transform="matrix(0.056693,0,0,0.056693,2.834646,2.834646)" /><rect x="1035" y="193" width="37" height="37" style="fill: rgb(0,0,255); fill-opacity: 1.0" transform="matrix(0.056693,0,0,0.056693,2.834646,2.834646)" /><rect x="1035" y="193" width="37" height="37" style="fill: rgb(0,0,255); fill-opacity: 1.0" transform="matrix(0.056693,0,0,0.056693,2.834646,2.834646)" /><rect x="1035" y="193" width="37" height="37" style="fill: rgb(0,0,255); fill-opacity: 1.0" transform="matrix(0.056693,0,0,0.056693,2.834646,2.834646)" /><rect x="1035" y="193" width="263" height="37" style="fill: rgb(0,0,255); fill-opacity: 1.0" transform="matrix(0.056693,0,0,0.056693,2.834646,2.834646)" /><rect x="1261" y="193" width="37" height="37" style="fill: rgb(0,0,255); fill-opacity: 1.0" transform="matrix(0.056693,0,0,0.056693,2.834646,2.834646)" /><rect x="1261" y="193" width="37" height="37" style="fill: rgb(0,0,255); fill-opacity: 1.0" transform="matrix(0.056693,0,0,0.056693,2.834646,2.834646)" /><rect x="1261" y="193" width="37" height="37" style="fill: rgb(0,0,255); fill-opacity: 1.0" transform="matrix(0.056693,0,0,0.056693,2.834646,2.834646)" /><rect x="1261" y="193" width="37" height="37" style="fill: rgb(0,0,255); fill-opacity: 1.0" transform="matrix(0.056693,0,0,0.056693,2.834646,2.834646)" /><rect x="1035" y="568" width="37" height="37" style="fill: rgb(0,0,255); fill-opacity: 1.0" transform="matrix(0.056693,0,0,0.056693,2.834646,2.834646)" /><rect x="1035" y="568" width="37" height="37" style="fill: rgb(0,0,255); fill-opacity: 1.0" transform="matrix(0.056693,0,0,0.056693,2.834646,2.834646)" /><rect x="1035" y="568" width="37" height="37" style="fill: rgb(0,0,255); fill-opacity: 1.0" transform="matrix(0.056693,0,0,0.056693,2.834646,2.834646)" /><rect x="1035" y="568" width="37" height="37" style="fill: rgb(0,0,255); fill-opacity: 1.0" transform="matrix(0.056693,0,0,0.056693,2.834646,2.834646)" /><rect x="1035" y="568" width="263" height="37" style="fill: rgb(0,0,255); fill-opacity: 1.0" transform="matrix(0.056693,0,0,0.056693,2.834646,2.834646)" /><rect x="1261" y="568" width="37" height="37" style="fill: rgb(0,0,255); fill-opacity: 1.0" transform="matrix(0.056693,0,0,0.056693,2.834646,2.834646)" /><rect x="1261" y="568" width="37" height="37" style="fill: rgb(0,0,255); fill-opacity: 1.0" transform="matrix(0.056693,0,0,0.056693,2.834646,2.834646)" /><rect x="1261" y="568" width="37" height="37" style="fill: rgb(0,0,255); fill-opacity: 1.0" transform="matrix(0.056693,0,0,0.056693,2.834646,2.834646)" /><rect x="1261" y="568" width="37" height="37" style="fill: rgb(0,0,255); fill-opacity: 1.0" transform="matrix(0.056693,0,0,0.056693,2.834646,2.834646)" /><rect x="1261" y="193" width="37" height="37" style="fill: rgb(0,0,255); fill-opacity: 1.0" transform="matrix(0.056693,0,0,0.056693,2.834646,2.834646)" /><rect x="1261" y="193" width="37" height="37" style="fill: rgb(0,0,255); fill-opacity: 1.0" transform="matrix(0.056693,0,0,0.056693,2.834646,2.834646)" /><rect x="1261" y="193" width="37" height="37" style="fill: rgb(0,0,255); fill-opacity: 1.0" transform="matrix(0.056693,0,0,0.056693,2.834646,2.834646)" /><rect x="1261" y="193" width="37" height="37" style="fill: rgb(0,0,255); fill-opacity: 1.0" transform="matrix(0.056693,0,0,0.056693,2.834646,2.834646)" /><rect x="1261" y="193" width="37" height="224" style="fill: rgb(0,0,255); fill-opacity: 1.0" transform="matrix(0.056693,0,0,0.056693,2.834646,2.834646)" /><rect x="1261" y="380" width="37" height="37" style="fill: rgb(0,0,255); fill-opacity: 1.0" transform="matrix(0.056693,0,0,0.056693,2.834646,2.834646)" /><rect x="1261" y="380" width="37" height="37" style="fill: rgb(0,0,255); fill-opacity: 1.0" transform="matrix(0.056693,0,0,0.056693,2.834646,2.834646)" /><rect x="1261" y="380" width="37" height="37" style="fill: rgb(0,0,255); fill-opacity: 1.0" transform="matrix(0.056693,0,0,0.056693,2.834646,2.834646)" /><rect x="1261" y="380" width="37" height="37" style="fill: rgb(0,0,255); fill-opacity: 1.0" transform="matrix(0.056693,0,0,0.056693,2.834646,2.834646)" /><rect x="1261" y="568" width="37" height="37" style="fill: rgb(0,0,255); fill-opacity: 1.0" transform="matrix(0.056693,0,0,0.056693,2.834646,2.834646)" /><rect x="1261" y="568" width="37" height="37" style="fill: rgb(0,0,255); fill-opacity: 1.0" transform="matrix(0.056693,0,0,0.056693,2.834646,2.834646)" /><rect x="1261" y="568" width="37" height="37" style="fill: rgb(0,0,255); fill-opacity: 1.0" transform="matrix(0.056693,0,0,0.056693,2.834646,2.834646)" /><rect x="1261" y="568" width="37" height="37" style="fill: rgb(0,0,255); fill-opacity: 1.0" transform="matrix(0.056693,0,0,0.056693,2.834646,2.834646)" /><rect x="1261" y="380" width="37" height="225" style="fill: rgb(0,0,255); fill-opacity: 1.0" transform="matrix(0.056693,0,0,0.056693,2.834646,2.834646)" /><rect x="1261" y="380" width="37" height="37" style="fill: rgb(0,0,255); fill-opacity: 1.0" transform="matrix(0.056693,0,0,0.056693,2.834646,2.834646)" /><rect x="1261" y="380" width="37" height="37" style="fill: rgb(0,0,255); fill-opacity: 1.0" transform="matrix(0.056693,0,0,0.056693,2.834646,2.834646)" /><rect x="1261" y="380" width="37" height="37" style="fill: rgb(0,0,255); fill-opacity: 1.0" transform="matrix(0.056693,0,0,0.056693,2.834646,2.834646)" /><rect x="1261" y="380" width="37" height="37" style="fill: rgb(0,0,255); fill-opacity: 1.0" transform="matrix(0.056693,0,0,0.056693,2.834646,2.834646)" /><rect x="1035" y="193" width="37" height="37" style="fill: rgb(0,0,255); fill-opacity: 1.0" transform="matrix(0.056693,0,0,0.056693,2.834646,2.834646)" /><rect x="1035" y="193" width="37" height="37" style="fill: rgb(0,0,255); fill-opacity: 1.0" transform="matrix(0.056693,0,0,0.056693,2.834646,2.834646)" /><rect x="1035" y="193" width="37" height="37" style="fill: rgb(0,0,255); fill-opacity: 1.0" transform="matrix(0.056693,0,0,0.056693,2.834646,2.834646)" /><rect x="1035" y="193" width="37" height="37" style="fill: rgb(0,0,255); fill-opacity: 1.0" transform="matrix(0.056693,0,0,0.056693,2.834646,2.834646)" /><rect x="1011" y="193" width="61" height="37" style="fill: rgb(0,0,255); fill-opacity: 1.0" transform="matrix(0.056693,0,0,0.056693,2.834646,2.834646)" /><rect x="1011" y="193" width="37" height="37" style="fill: rgb(0,0,255); fill-opacity: 1.0" transform="matrix(0.056693,0,0,0.056693,2.834646,2.834646)" /><rect x="1011" y="193" width="37" height="37" style="fill: rgb(0,0,255); fill-opacity: 1.0" transform="matrix(0.056693,0,0,0.056693,2.834646,2.834646)" /><rect x="1011" y="193" width="37" height="37" style="fill: rgb(0,0,255); fill-opacity: 1.0" transform="matrix(0.056693,0,0,0.056693,2.834646,2.834646)" /><rect x="1011" y="193" width="37" height="37" style="fill: rgb(0,0,255); fill-opacity: 1.0" transform="matrix(0.056693,0,0,0.056693,2.834646,2.834646)" /><rect x="1035" y="568" width="37" height="37" style="fill: rgb(0,0,255); fill-opacity: 1.0" transform="matrix(0.056693,0,0,0.056693,2.834646,2.834646)" /><rect x="1035" y="568" width="37" height="37" style="fill: rgb(0,0,255); fill-opacity: 1.0" transform="matrix(0.056693,0,0,0.056693,2.834646,2.834646)" /><rect x="1035" y="568" width="37" height="37" style="fill: rgb(0,0,255); fill-opacity: 1.0" transform="matrix(0.056693,0,0,0.056693,2.834646,2.834646)" /><rect x="1035" y="568" width="37" height="37" style="fill: rgb(0,0,255); fill-opacity: 1.0" transform="matrix(0.056693,0,0,0.056693,2.834646,2.834646)" /><rect x="1011" y="568" width="61" height="37" style="fill: rgb(0,0,255); fill-opacity: 1.0" transform="matrix(0.056693,0,0,0.056693,2.834646,2.834646)" /><rect x="1011" y="568" width="37" height="37" style="fill: rgb(0,0,255); fill-opacity: 1.0" transform="matrix(0.056693,0,0,0.056693,2.834646,2.834646)" /><rect x="1011" y="568" width="37" height="37" style="fill: rgb(0,0,255); fill-opacity: 1.0" transform="matrix(0.056693,0,0,0.056693,2.834646,2.834646)" /><rect x="1011" y="568" width="37" height="37" style="fill: rgb(0,0,255); fill-opacity: 1.0" transform="matrix(0.056693,0,0,0.056693,2.834646,2.834646)" /><rect x="1011" y="568" width="37" height="37" style="fill: rgb(0,0,255); fill-opacity: 1.0" transform="matrix(0.056693,0,0,0.056693,2.834646,2.834646)" /><rect x="1261" y="380" width="37" height="37" style="fill: rgb(0,0,255); fill-opacity: 1.0" transform="matrix(0.056693,0,0,0.056693,2.834646,2.834646)" /><rect x="1261" y="380" width="37" height="37" style="fill: rgb(0,0,255); fill-opacity: 1.0" transform="matrix(0.056693,0,0,0.056693,2.834646,2.834646)" /><rect x="1261" y="380" width="37" height="37" style="fill: rgb(0,0,255); fill-opacity: 1.0" transform="matrix(0.056693,0,0,0.056693,2.834646,2.834646)" /><rect x="1261" y="380" width="37" height="37" style="fill: rgb(0,0,255); fill-opacity: 1.0" transform="matrix(0.056693,0,0,0.056693,2.834646,2.834646)" /><rect x="1261" y="380" width="61" height="37" style="fill: rgb(0,0,255); fill-opacity: 1.0" transform="matrix(0.056693,0,0,0.056693,2.834646,2.834646)" /><rect x="1285" y="380" width="37" height="37" style="fill: rgb(0,0,255); fill-opacity: 1.0" transform="matrix(0.056693,0,0,0.056693,2.834646,2.834646)" /><rect x="1285" y="380" width="37" height="37" style="fill: rgb(0,0,255); fill-opacity: 1.0" transform="matrix(0.056693,0,0,0.056693,2.834646,2.834646)" /><rect x="1285" y="380" width="37" height="37" style="fill: rgb(0,0,255); fill-opacity: 1.0" transform="matrix(0.056693,0,0,0.056693,2.834646,2.834646)" /><rect x="1285" y="380" width="37" height="37" style="fill: rgb(0,0,255); fill-opacity: 1.0" transform="matrix(0.056693,0,0,0.056693,2.834646,2.834646)" /><rect x="1417" y="380" width="37" height="74" style="fill: rgb(0,0,255); fill-opacity: 1.0" transform="matrix(0.056693,0,0,0.056693,2.834646,2.834646)" /><rect x="1417" y="437" width="111" height="37" style="fill: rgb(0,0,255); fill-opacity: 1.0" transform="matrix(0.056693,0,0,0.056693,2.834646,2.834646)" /><rect x="1491" y="325" width="37" height="149" style="fill: rgb(0,0,255); fill-opacity: 1.0" transform="matrix(0.056693,0,0,0.056693,2.834646,2.834646)" /><rect x="1491" y="325" width="111" height="37" style="fill: rgb(0,0,255); fill-opacity: 1.0" transform="matrix(0.056693,0,0,0.056693,2.834646,2.834646)" /><rect x="1565" y="325" width="37" height="149" style="fill: rgb(0,0,255); fill-opacity: 1.0" transform="matrix(0.056693,0,0,0.056693,2.834646,2.834646)" /><rect x="1565" y="437" width="111" height="37" style="fill: rgb(0,0,255); fill-opacity: 1.0" transform="matrix(0.056693,0,0,0.056693,2.834646,2.834646)" /><rect x="1639" y="325" width="37" height="149" style="fill: rgb(0,0,255); fill-opacity: 1.0" transform="matrix(0.056693,0,0,0.056693,2.834646,2.834646)" /><rect x="1639" y="325" width="111" height="37" style="fill: rgb(0,0,255); fill-opacity: 1.0" transform="matrix(0.056693,0,0,0.056693,2.834646,2.834646)" /><rect x="1713" y="325" width="37" height="149" style="fill: rgb(0,0,255); fill-opacity: 1.0" transform="matrix(0.056693,0,0,0.056693,2.834646,2.834646)" /><rect x="1713" y="437" width="111" height="37" style="fill: rgb(0,0,255); fill-opacity: 1.0" transform="matrix(0.056693,0,0,0.056693,2.834646,2.834646)" /><rect x="1787" y="325" width="37" height="149" style="fill: rgb(0,0,255); fill-opacity: 1.0" transform="matrix(0.056693,0,0,0.056693,2.834646,2.834646)" /><rect x="1787" y="325" width="111" height="37" style="fill: rgb(0,0,255); fill-opacity: 1.0" transform="matrix(0.056693,0,0,0.056693,2.834646,2.834646)" /><rect x="1861" y="325" width="37" height="149" style="fill: rgb(0,0,255); fill-opacity: 1.0" transform="matrix(0.056693,0,0,0.056693,2.834646,2.834646)" /><rect x="1861" y="437" width="111" height="37" style="fill: rgb(0,0,255); fill-opacity: 1.0" transform="matrix(0.056693,0,0,0.056693,2.834646,2.834646)" /><rect x="1935" y="325" width="37" height="149" style="fill: rgb(0,0,255); fill-opacity: 1.0" transform="matrix(0.056693,0,0,0.056693,2.834646,2.834646)" /><rect x="1935" y="325" width="111" height="37" style="fill: rgb(0,0,255); fill-opacity: 1.0" transform="matrix(0.056693,0,0,0.056693,2.834646,2.834646)" /><rect x="2009" y="325" width="37" height="149" style="fill: rgb(0,0,255); fill-opacity: 1.0" transform="matrix(0.056693,0,0,0.056693,2.834646,2.834646)" /><rect x="2009" y="437" width="111" height="37" style="fill: rgb(0,0,255); fill-opacity: 1.0" transform="matrix(0.056693,0,0,0.056693,2.834646,2.834646)" /><rect x="2083" y="325" width="37" height="149" style="fill: rgb(0,0,255); fill-opacity: 1.0" transform="matrix(0.056693,0,0,0.056693,2.834646,2.834646)" /><rect x="2083" y="325" width="111" height="37" style="fill: rgb(0,0,255); fill-opacity: 1.0" transform="matrix(0.056693,0,0,0.056693,2.834646,2.834646)" /><rect x="2157" y="325" width="37" height="149" style="fill: rgb(0,0,255); fill-opacity: 1.0" transform="matrix(0.056693,0,0,0.056693,2.834646,2.834646)" /><rect x="2157" y="437" width="111" height="37" style="fill: rgb(0,0,255); fill-opacity: 1.0" transform="matrix(0.056693,0,0,0.056693,2.834646,2.834646)" /><rect x="2231" y="325" width="37" height="149" style="fill: rgb(0,0,255); fill-opacity: 1.0" transform="matrix(0.056693,0,0,0.056693,2.834646,2.834646)" /><rect x="2231" y="325" width="111" height="37" style="fill: rgb(0,0,255); fill-opacity: 1.0" transform="matrix(0.056693,0,0,0.056693,2.834646,2.834646)" /><rect x="2305" y="325" width="37" height="149" style="fill: rgb(0,0,255); fill-opacity: 1.0" transform="matrix(0.056693,0,0,0.056693,2.834646,2.834646)" /><rect x="2305" y="437" width="111" height="37" style="fill: rgb(0,0,255); fill-opacity: 1.0" transform="matrix(0.056693,0,0,0.056693,2.834646,2.834646)" /><rect x="2379" y="325" width="37" height="149" style="fill: rgb(0,0,255); fill-opacity: 1.0" transform="matrix(0.056693,0,0,0.056693,2.834646,2.834646)" /><rect x="2379" y="325" width="111" height="37" style="fill: rgb(0,0,255); fill-opacity: 1.0" transform="matrix(0.056693,0,0,0.056693,2.834646,2.834646)" /><rect x="2453" y="325" width="37" height="149" style="fill: rgb(0,0,255); fill-opacity: 1.0" transform="matrix(0.056693,0,0,0.056693,2.834646,2.834646)" /><rect x="2453" y="437" width="111" height="37" style="fill: rgb(0,0,255); fill-opacity: 1.0" transform="matrix(0.056693,0,0,0.056693,2.834646,2.834646)" /><rect x="2527" y="325" width="37" height="149" style="fill: rgb(0,0,255); fill-opacity: 1.0" transform="matrix(0.056693,0,0,0.056693,2.834646,2.834646)" /><rect x="2527" y="325" width="111" height="37" style="fill: rgb(0,0,255); fill-opacity: 1.0" transform="matrix(0.056693,0,0,0.056693,2.834646,2.834646)" /><rect x="2601" y="325" width="37" height="149" style="fill: rgb(0,0,255); fill-opacity: 1.0" transform="matrix(0.056693,0,0,0.056693,2.834646,2.834646)" /><rect x="2601" y="437" width="111" height="37" style="fill: rgb(0,0,255); fill-opacity: 1.0" transform="matrix(0.056693,0,0,0.056693,2.834646,2.834646)" /><rect x="2675" y="325" width="37" height="149" style="fill: rgb(0,0,255); fill-opacity: 1.0" transform="matrix(0.056693,0,0,0.056693,2.834646,2.834646)" /><rect x="2675" y="325" width="111" height="37" style="fill: rgb(0,0,255); fill-opacity: 1.0" transform="matrix(0.056693,0,0,0.056693,2.834646,2.834646)" /><rect x="2749" y="325" width="37" height="149" style="fill: rgb(0,0,255); fill-opacity: 1.0" transform="matrix(0.056693,0,0,0.056693,2.834646,2.834646)" /><rect x="2749" y="437" width="111" height="37" style="fill: rgb(0,0,255); fill-opacity: 1.0" transform="matrix(0.056693,0,0,0.056693,2.834646,2.834646)" /><rect x="2823" y="325" width="37" height="149" style="fill: rgb(0,0,255); fill-opacity: 1.0" transform="matrix(0.056693,0,0,0.056693,2.834646,2.834646)" /><rect x="2823" y="325" width="111" height="37" style="fill: rgb(0,0,255); fill-opacity: 1.0" transform="matrix(0.056693,0,0,0.056693,2.834646,2.834646)" /><rect x="2897" y="325" width="37" height="92" style="fill: rgb(0,0,255); fill-opacity: 1.0" transform="matrix(0.056693,0,0,0.056693,2.834646,2.834646)" /><g style="fill: rgb(0,0,255); fill-opacity: 1.0; stroke: none" transform="matrix(0.056693,0,0,0.056693,2.834646,2.834646)" ><path d="M 915 586 C 915 637.36 873.36 679 822 679 C 770.64 679 729 637.36 729 586 C 729 534.64 770.64 493 822 493 C 873.36 493 915 534.64 915 586 Z "/></g><rect x="807" y="493" width="30" height="186" style="fill: rgb(255,255,255); fill-opacity: 1.0" transform="matrix(0.056693,0,0,0.056693,2.834646,2.834646)" /><rect x="294" y="568" width="37" height="37" style="fill: rgb(0,0,255); fill-opacity: 1.0" transform="matrix(0.056693,0,0,0.056693,2.834646,2.834646)" /><rect x="294" y="568" width="37" height="37" style="fill: rgb(0,0,255); fill-opacity: 1.0" transform="matrix(0.056693,0,0,0.056693,2.834646,2.834646)" /><rect x="294" y="568" width="37" height="37" style="fill: rgb(0,0,255); fill-opacity: 1.0" transform="matrix(0.056693,0,0,0.056693,2.834646,2.834646)" /><rect x="294" y="568" width="37" height="37" style="fill: rgb(0,0,255); fill-opacity: 1.0" transform="matrix(0.056693,0,0,0.056693,2.834646,2.834646)" /><rect x="294" y="568" width="37" height="37" style="fill: rgb(0,0,255); fill-opacity: 1.0" transform="matrix(0.056693,0,0,0.056693,2.834646,2.834646)" /><rect x="294" y="568" width="37" height="37" style="fill: rgb(0,0,255); fill-opacity: 1.0" transform="matrix(0.056693,0,0,0.056693,2.834646,2.834646)" /><rect x="294" y="568" width="454" height="37" style="fill: rgb(0,0,255); fill-opacity: 1.0" transform="matrix(0.056693,0,0,0.056693,2.834646,2.834646)" /><rect x="711" y="568" width="37" height="37" style="fill: rgb(0,0,255); fill-opacity: 1.0" transform="matrix(0.056693,0,0,0.056693,2.834646,2.834646)" /><rect x="711" y="568" width="37" height="37" style="fill: rgb(0,0,255); fill-opacity: 1.0" transform="matrix(0.056693,0,0,0.056693,2.834646,2.834646)" /><rect x="711" y="568" width="37" height="37" style="fill: rgb(0,0,255); fill-opacity: 1.0" transform="matrix(0.056693,0,0,0.056693,2.834646,2.834646)" /><rect x="711" y="568" width="37" height="37" style="fill: rgb(0,0,255); fill-opacity: 1.0" transform="matrix(0.056693,0,0,0.056693,2.834646,2.834646)" /><rect x="711" y="568" width="37" height="37" style="fill: rgb(0,0,255); fill-opacity: 1.0" transform="matrix(0.056693,0,0,0.056693,2.834646,2.834646)" /><rect x="711" y="568" width="37" height="37" style="fill: rgb(0,0,255); fill-opacity: 1.0" transform="matrix(0.056693,0,0,0.056693,2.834646,2.834646)" /><rect x="594" y="193" width="37" height="37" style="fill: rgb(0,0,255); fill-opacity: 1.0" transform="matrix(0.056693,0,0,0.056693,2.834646,2.834646)" /><rect x="594" y="193" width="37" height="37" style="fill: rgb(0,0,255); fill-opacity: 1.0" transform="matrix(0.056693,0,0,0.056693,2.834646,2.834646)" /><rect x="594" y="193" width="37" height="37" style="fill: rgb(0,0,255); fill-opacity: 1.0" transform="matrix(0.056693,0,0,0.056693,2.834646,2.834646)" /><rect x="594" y="193" width="37" height="37" style="fill: rgb(0,0,255); fill-opacity: 1.0" transform="matrix(0.056693,0,0,0.056693,2.834646,2.834646)" /><rect x="594" y="193" width="37" height="37" style="fill: rgb(0,0,255); fill-opacity: 1.0" transform="matrix(0.056693,0,0,0.056693,2.834646,2.834646)" /><rect x="594" y="193" width="37" height="37" style="fill: rgb(0,0,255); fill-opacity: 1.0" transform="matrix(0.056693,0,0,0.056693,2.834646,2.834646)" /><rect x="594" y="193" width="454" height="37" style="fill: rgb(0,0,255); fill-opacity: 1.0" transform="matrix(0.056693,0,0,0.056693,2.834646,2.834646)" /><rect x="1011" y="193" width="37" height="37" style="fill: rgb(0,0,255); fill-opacity: 1.0" transform="matrix(0.056693,0,0,0.056693,2.834646,2.834646)" /><rect x="1011" y="193" width="37" height="37" style="fill: rgb(0,0,255); fill-opacity: 1.0" transform="matrix(0.056693,0,0,0.056693,2.834646,2.834646)" /><rect x="1011" y="193" width="37" height="37" style="fill: rgb(0,0,255); fill-opacity: 1.0" transform="matrix(0.056693,0,0,0.056693,2.834646,2.834646)" /><rect x="1011" y="193" width="37" height="37" style="fill: rgb(0,0,255); fill-opacity: 1.0" transform="matrix(0.056693,0,0,0.056693,2.834646,2.834646)" /><rect x="1011" y="193" width="37" height="37" style="fill: rgb(0,0,255); fill-opacity: 1.0" transform="matrix(0.056693,0,0,0.056693,2.834646,2.834646)" /><rect x="1011" y="193" width="37" height="37" style="fill: rgb(0,0,255); fill-opacity: 1.0" transform="matrix(0.056693,0,0,0.056693,2.834646,2.834646)" /><rect x="2916" y="381" width="37" height="37" style="fill: rgb(0,0,255); fill-opacity: 1.0" transform="matrix(0.056693,0,0,0.056693,2.834646,2.834646)" /><rect x="2916" y="381" width="37" height="37" style="fill: rgb(0,0,255); fill-opacity: 1.0" transform="matrix(0.056693,0,0,0.056693,2.834646,2.834646)" /><rect x="2916" y="381" width="37" height="37" style="fill: rgb(0,0,255); fill-opacity: 1.0" transform="matrix(0.056693,0,0,0.056693,2.834646,2.834646)" /><rect x="2916" y="381" width="37" height="37" style="fill: rgb(0,0,255); fill-opacity: 1.0" transform="matrix(0.056693,0,0,0.056693,2.834646,2.834646)" /><rect x="2916" y="381" width="37" height="37" style="fill: rgb(0,0,255); fill-opacity: 1.0" transform="matrix(0.056693,0,0,0.056693,2.834646,2.834646)" /><rect x="2916" y="381" width="37" height="37" style="fill: rgb(0,0,255); fill-opacity: 1.0" transform="matrix(0.056693,0,0,0.056693,2.834646,2.834646)" /><rect x="2916" y="381" width="417" height="37" style="fill: rgb(0,0,255); fill-opacity: 1.0" transform="matrix(0.056693,0,0,0.056693,2.834646,2.834646)" /><rect x="3296" y="381" width="37" height="37" style="fill: rgb(0,0,255); fill-opacity: 1.0" transform="matrix(0.056693,0,0,0.056693,2.834646,2.834646)" /><rect x="3296" y="381" width="37" height="37" style="fill: rgb(0,0,255); fill-opacity: 1.0" transform="matrix(0.056693,0,0,0.056693,2.834646,2.834646)" /><rect x="3296" y="381" width="37" height="37" style="fill: rgb(0,0,255); fill-opacity: 1.0" transform="matrix(0.056693,0,0,0.056693,2.834646,2.834646)" /><rect x="3296" y="381" width="37" height="37" style="fill: rgb(0,0,255); fill-opacity: 1.0" transform="matrix(0.056693,0,0,0.056693,2.834646,2.834646)" /><rect x="3296" y="381" width="37" height="37" style="fill: rgb(0,0,255); fill-opacity: 1.0" transform="matrix(0.056693,0,0,0.056693,2.834646,2.834646)" /><rect x="3296" y="381" width="37" height="37" style="fill: rgb(0,0,255); fill-opacity: 1.0" transform="matrix(0.056693,0,0,0.056693,2.834646,2.834646)" /><rect x="897" y="568" width="37" height="37" style="fill: rgb(0,0,255); fill-opacity: 1.0" transform="matrix(0.056693,0,0,0.056693,2.834646,2.834646)" /><rect x="897" y="568" width="37" height="37" style="fill: rgb(0,0,255); fill-opacity: 1.0" transform="matrix(0.056693,0,0,0.056693,2.834646,2.834646)" /><rect x="897" y="568" width="37" height="37" style="fill: rgb(0,0,255); fill-opacity: 1.0" transform="matrix(0.056693,0,0,0.056693,2.834646,2.834646)" /><rect x="897" y="568" width="37" height="37" style="fill: rgb(0,0,255); fill-opacity: 1.0" transform="matrix(0.056693,0,0,0.056693,2.834646,2.834646)" /><rect x="897" y="568" width="37" height="37" style="fill: rgb(0,0,255); fill-opacity: 1.0" transform="matrix(0.056693,0,0,0.056693,2.834646,2.834646)" /><rect x="897" y="568" width="37" height="37" style="fill: rgb(0,0,255); fill-opacity: 1.0" transform="matrix(0.056693,0,0,0.056693,2.834646,2.834646)" /><rect x="897" y="568" width="151" height="37" style="fill: rgb(0,0,255); fill-opacity: 1.0" transform="matrix(0.056693,0,0,0.056693,2.834646,2.834646)" /><rect x="1011" y="568" width="37" height="37" style="fill: rgb(0,0,255); fill-opacity: 1.0" transform="matrix(0.056693,0,0,0.056693,2.834646,2.834646)" /><rect x="1011" y="568" width="37" height="37" style="fill: rgb(0,0,255); fill-opacity: 1.0" transform="matrix(0.056693,0,0,0.056693,2.834646,2.834646)" /><rect x="1011" y="568" width="37" height="37" style="fill: rgb(0,0,255); fill-opacity: 1.0" transform="matrix(0.056693,0,0,0.056693,2.834646,2.834646)" /><rect x="1011" y="568" width="37" height="37" style="fill: rgb(0,0,255); fill-opacity: 1.0" transform="matrix(0.056693,0,0,0.056693,2.834646,2.834646)" /><rect x="1011" y="568" width="37" height="37" style="fill: rgb(0,0,255); fill-opacity: 1.0" transform="matrix(0.056693,0,0,0.056693,2.834646,2.834646)" /><rect x="1011" y="568" width="37" height="37" style="fill: rgb(0,0,255); fill-opacity: 1.0" transform="matrix(0.056693,0,0,0.056693,2.834646,2.834646)" /><rect x="1285" y="380" width="37" height="37" style="fill: rgb(0,0,255); fill-opacity: 1.0" transform="matrix(0.056693,0,0,0.056693,2.834646,2.834646)" /><rect x="1285" y="380" width="37" height="37" style="fill: rgb(0,0,255); fill-opacity: 1.0" transform="matrix(0.056693,0,0,0.056693,2.834646,2.834646)" /><rect x="1285" y="380" width="37" height="37" style="fill: rgb(0,0,255); fill-opacity: 1.0" transform="matrix(0.056693,0,0,0.056693,2.834646,2.834646)" /><rect x="1285" y="380" width="37" height="37" style="fill: rgb(0,0,255); fill-opacity: 1.0" transform="matrix(0.056693,0,0,0.056693,2.834646,2.834646)" /><rect x="1285" y="380" width="113" height="37" style="fill: rgb(0,0,255); fill-opacity: 1.0" transform="matrix(0.056693,0,0,0.056693,2.834646,2.834646)" /><rect x="1361" y="380" width="37" height="37" style="fill: rgb(0,0,255); fill-opacity: 1.0" transform="matrix(0.056693,0,0,0.056693,2.834646,2.834646)" /><rect x="1361" y="380" width="37" height="37" style="fill: rgb(0,0,255); fill-opacity: 1.0" transform="matrix(0.056693,0,0,0.056693,2.834646,2.834646)" /><rect x="1361" y="380" width="37" height="37" style="fill: rgb(0,0,255); fill-opacity: 1.0" transform="matrix(0.056693,0,0,0.056693,2.834646,2.834646)" /><rect x="1361" y="380" width="37" height="37" style="fill: rgb(0,0,255); fill-opacity: 1.0" transform="matrix(0.056693,0,0,0.056693,2.834646,2.834646)" /><rect x="1361" y="380" width="37" height="37" style="fill: rgb(0,0,255); fill-opacity: 1.0" transform="matrix(0.056693,0,0,0.056693,2.834646,2.834646)" /><rect x="1361" y="380" width="37" height="37" style="fill: rgb(0,0,255); fill-opacity: 1.0" transform="matrix(0.056693,0,0,0.056693,2.834646,2.834646)" /><rect x="1361" y="380" width="37" height="37" style="fill: rgb(0,0,255); fill-opacity: 1.0" transform="matrix(0.056693,0,0,0.056693,2.834646,2.834646)" /><rect x="1361" y="380" width="37" height="37" style="fill: rgb(0,0,255); fill-opacity: 1.0" transform="matrix(0.056693,0,0,0.056693,2.834646,2.834646)" /><rect x="1361" y="380" width="37" height="38" style="fill: rgb(0,0,255); fill-opacity: 1.0" transform="matrix(0.056693,0,0,0.056693,2.834646,2.834646)" /><rect x="1361" y="381" width="37" height="37" style="fill: rgb(0,0,255); fill-opacity: 1.0" transform="matrix(0.056693,0,0,0.056693,2.834646,2.834646)" /><rect x="1361" y="381" width="37" height="37" style="fill: rgb(0,0,255); fill-opacity: 1.0" transform="matrix(0.056693,0,0,0.056693,2.834646,2.834646)" /><rect x="1361" y="381" width="37" height="37" style="fill: rgb(0,0,255); fill-opacity: 1.0" transform="matrix(0.056693,0,0,0.056693,2.834646,2.834646)" /><rect x="1361" y="381" width="37" height="37" style="fill: rgb(0,0,255); fill-opacity: 1.0" transform="matrix(0.056693,0,0,0.056693,2.834646,2.834646)" /><rect x="1361" y="381" width="37" height="37" style="fill: rgb(0,0,255); fill-opacity: 1.0" transform="matrix(0.056693,0,0,0.056693,2.834646,2.834646)" /><rect x="1361" y="381" width="37" height="37" style="fill: rgb(0,0,255); fill-opacity: 1.0" transform="matrix(0.056693,0,0,0.056693,2.834646,2.834646)" /><rect x="1361" y="381" width="37" height="37" style="fill: rgb(0,0,255); fill-opacity: 1.0" transform="matrix(0.056693,0,0,0.056693,2.834646,2.834646)" /><rect x="1361" y="381" width="37" height="37" style="fill: rgb(0,0,255); fill-opacity: 1.0" transform="matrix(0.056693,0,0,0.056693,2.834646,2.834646)" /><rect x="1361" y="381" width="75" height="37" style="fill: rgb(0,0,255); fill-opacity: 1.0" transform="matrix(0.056693,0,0,0.056693,2.834646,2.834646)" /><rect x="1399" y="381" width="37" height="37" style="fill: rgb(0,0,255); fill-opacity: 1.0" transform="matrix(0.056693,0,0,0.056693,2.834646,2.834646)" /><rect x="1399" y="381" width="37" height="37" style="fill: rgb(0,0,255); fill-opacity: 1.0" transform="matrix(0.056693,0,0,0.056693,2.834646,2.834646)" /><rect x="1399" y="381" width="37" height="37" style="fill: rgb(0,0,255); fill-opacity: 1.0" transform="matrix(0.056693,0,0,0.056693,2.834646,2.834646)" /><rect x="1399" y="381" width="37" height="37" style="fill: rgb(0,0,255); fill-opacity: 1.0" transform="matrix(0.056693,0,0,0.056693,2.834646,2.834646)" /></svg>
