<?xml version="1.0"?>
<!DOCTYPE svg PUBLIC "-//W3C//DTD SVG 1.0//EN" "http://www.w3.org/TR/2001/REC-SVG-20010904/DTD/svg10.dtd">
<svg xmlns="http://www.w3.org/2000/svg" xmlns:xlink="http://www.w3.org/1999/xlink" xmlns:jfreesvg="http://www.jfree.org/jfreesvg/svg" width="212" height="69" text-rendering="auto" shape-rendering="auto">
<defs></defs>
<line x1="0" y1="0" x2="74519" y2="0" style="stroke-width: 100.0;stroke: rgb(0,0,0);stroke-opacity: 1.0;stroke-linecap: round;stroke-linejoin: round;" transform="matrix(-0.002835,0,0,0.002835,212,0)" /><line x1="74520" y1="0" x2="74520" y2="24179" style="stroke-width: 100.0;stroke: rgb(0,0,0);stroke-opacity: 1.0;stroke-linecap: round;stroke-linejoin: round;" transform="matrix(-0.002835,0,0,0.002835,212,0)" /><line x1="74520" y1="24180" x2="1" y2="24180" style="stroke-width: 100.0;stroke: rgb(0,0,0);stroke-opacity: 1.0;stroke-linecap: round;stroke-linejoin: round;" transform="matrix(-0.002835,0,0,0.002835,212,0)" /><line x1="0" y1="24180" x2="0" y2="1" style="stroke-width: 100.0;stroke: rgb(0,0,0);stroke-opacity: 1.0;stroke-linecap: round;stroke-linejoin: round;" transform="matrix(-0.002835,0,0,0.002835,212,0)" /><g style="fill: rgb(255,0,0); fill-opacity: 1.0; stroke: none" transform="matrix(-0.056693,0,0,0.056693,209.165354,2.834646)" ><path d="M 915 586 C 915 637.36 873.36 679 822 679 C 770.64 679 729 637.36 729 586 C 729 534.64 770.64 493 822 493 C 873.36 493 915 534.64 915 586 Z "/></g><g style="fill: rgb(255,0,0); fill-opacity: 1.0; stroke: none" transform="matrix(-0.056693,0,0,0.056693,209.165354,2.834646)" ><path d="M 923 898 C 923 953.78 877.78 999 822 999 C 766.22 999 721 953.78 721 898 C 721 842.22 766.22 797 822 797 C 877.78 797 923 842.22 923 898 Z "/></g><rect x="804" y="779" width="37" height="37" style="fill: rgb(255,0,0); fill-opacity: 1.0" transform="matrix(-0.056693,0,0,0.056693,209.165354,2.834646)" /><rect x="804" y="779" width="37" height="37" style="fill: rgb(255,0,0); fill-opacity: 1.0" transform="matrix(-0.056693,0,0,0.056693,209.165354,2.834646)" /><rect x="804" y="779" width="37" height="37" style="fill: rgb(255,0,0); fill-opacity: 1.0" transform="matrix(-0.056693,0,0,0.056693,209.165354,2.834646)" /><rect x="804" y="779" width="37" height="37" style="fill: rgb(255,0,0); fill-opacity: 1.0" transform="matrix(-0.056693,0,0,0.056693,209.165354,2.834646)" /><rect x="804" y="779" width="37" height="37" style="fill: rgb(255,0,0); fill-opacity: 1.0" transform="matrix(-0.056693,0,0,0.056693,209.165354,2.834646)" /><rect x="804" y="779" width="37" height="37" style="fill: rgb(255,0,0); fill-opacity: 1.0" transform="matrix(-0.056693,0,0,0.056693,209.165354,2.834646)" /><rect x="804" y="661" width="37" height="155" style="fill: rgb(255,0,0); fill-opacity: 1.0" transform="matrix(-0.056693,0,0,0.056693,209.165354,2.834646)" /><rect x="804" y="661" width="37" height="37" style="fill: rgb(255,0,0); fill-opacity: 1.0" transform="matrix(-0.056693,0,0,0.056693,209.165354,2.834646)" /><rect x="804" y="661" width="37" height="37" style="fill: rgb(255,0,0); fill-opacity: 1.0" transform="matrix(-0.056693,0,0,0.056693,209.165354,2.834646)" /><rect x="804" y="661" width="37" height="37" style="fill: rgb(255,0,0); fill-opacity: 1.0" transform="matrix(-0.056693,0,0,0.056693,209.165354,2.834646)" /><rect x="804" y="661" width="37" height="37" style="fill: rgb(255,0,0); fill-opacity: 1.0" transform="matrix(-0.056693,0,0,0.056693,209.165354,2.834646)" /><rect x="804" y="661" width="37" height="37" style="fill: rgb(255,0,0); fill-opacity: 1.0" transform="matrix(-0.056693,0,0,0.056693,209.165354,2.834646)" /><rect x="804" y="661" width="37" height="37" style="fill: rgb(255,0,0); fill-opacity: 1.0" transform="matrix(-0.056693,0,0,0.056693,209.165354,2.834646)" /></svg>
