<?xml version="1.0"?>
<!DOCTYPE svg PUBLIC "-//W3C//DTD SVG 1.0//EN" "http://www.w3.org/TR/2001/REC-SVG-20010904/DTD/svg10.dtd">
<svg xmlns="http://www.w3.org/2000/svg" xmlns:xlink="http://www.w3.org/1999/xlink" xmlns:jfreesvg="http://www.jfree.org/jfreesvg/svg" width="37" height="32" text-rendering="auto" shape-rendering="auto">
<defs></defs>
<line x1="0" y1="0" x2="12909" y2="0" style="stroke-width: 50.0;stroke: rgb(0,0,0);stroke-opacity: 1.0;stroke-linecap: round;stroke-linejoin: round;" transform="matrix(-0.002835,0,0,0.002835,37,0)" /><line x1="12910" y1="0" x2="12910" y2="11009" style="stroke-width: 50.0;stroke: rgb(0,0,0);stroke-opacity: 1.0;stroke-linecap: round;stroke-linejoin: round;" transform="matrix(-0.002835,0,0,0.002835,37,0)" /><line x1="12910" y1="11010" x2="1" y2="11010" style="stroke-width: 50.0;stroke: rgb(0,0,0);stroke-opacity: 1.0;stroke-linecap: round;stroke-linejoin: round;" transform="matrix(-0.002835,0,0,0.002835,37,0)" /><line x1="0" y1="11010" x2="0" y2="1" style="stroke-width: 50.0;stroke: rgb(0,0,0);stroke-opacity: 1.0;stroke-linecap: round;stroke-linejoin: round;" transform="matrix(-0.002835,0,0,0.002835,37,0)" /><g style="fill: rgb(255,0,0); fill-opacity: 1.0; stroke: none" transform="matrix(-0.028346,0,0,0.028346,34.165354,2.834646)" ><path d="M 506 509 C 506 522.81 494.81 534 481 534 C 467.19 534 456 522.81 456 509 C 456 495.19 467.19 484 481 484 C 494.81 484 506 495.19 506 509 Z "/></g><g style="fill: rgb(255,0,0); fill-opacity: 1.0; stroke: none" transform="matrix(-0.028346,0,0,0.028346,34.165354,2.834646)" ><path d="M 491 681 C 491 686.52 486.52 691 481 691 C 475.48 691 471 686.52 471 681 C 471 675.48 475.48 671 481 671 C 486.52 671 491 675.48 491 681 Z "/></g><rect x="476" y="666" width="10" height="10" style="fill: rgb(255,0,0); fill-opacity: 1.0" transform="matrix(-0.028346,0,0,0.028346,34.165354,2.834646)" /><rect x="476" y="666" width="10" height="10" style="fill: rgb(255,0,0); fill-opacity: 1.0" transform="matrix(-0.028346,0,0,0.028346,34.165354,2.834646)" /><rect x="476" y="666" width="10" height="10" style="fill: rgb(255,0,0); fill-opacity: 1.0" transform="matrix(-0.028346,0,0,0.028346,34.165354,2.834646)" /><rect x="476" y="666" width="10" height="10" style="fill: rgb(255,0,0); fill-opacity: 1.0" transform="matrix(-0.028346,0,0,0.028346,34.165354,2.834646)" /><rect x="476" y="666" width="10" height="10" style="fill: rgb(255,0,0); fill-opacity: 1.0" transform="matrix(-0.028346,0,0,0.028346,34.165354,2.834646)" /><rect x="476" y="666" width="10" height="10" style="fill: rgb(255,0,0); fill-opacity: 1.0" transform="matrix(-0.028346,0,0,0.028346,34.165354,2.834646)" /><rect x="476" y="666" width="10" height="10" style="fill: rgb(255,0,0); fill-opacity: 1.0" transform="matrix(-0.028346,0,0,0.028346,34.165354,2.834646)" /><rect x="476" y="666" width="10" height="10" style="fill: rgb(255,0,0); fill-opacity: 1.0" transform="matrix(-0.028346,0,0,0.028346,34.165354,2.834646)" /><rect x="476" y="666" width="10" height="10" style="fill: rgb(255,0,0); fill-opacity: 1.0" transform="matrix(-0.028346,0,0,0.028346,34.165354,2.834646)" /><rect x="476" y="666" width="10" height="10" style="fill: rgb(255,0,0); fill-opacity: 1.0" transform="matrix(-0.028346,0,0,0.028346,34.165354,2.834646)" /><rect x="476" y="666" width="10" height="10" style="fill: rgb(255,0,0); fill-opacity: 1.0" transform="matrix(-0.028346,0,0,0.028346,34.165354,2.834646)" /><rect x="476" y="666" width="10" height="10" style="fill: rgb(255,0,0); fill-opacity: 1.0" transform="matrix(-0.028346,0,0,0.028346,34.165354,2.834646)" /><rect x="476" y="666" width="10" height="10" style="fill: rgb(255,0,0); fill-opacity: 1.0" transform="matrix(-0.028346,0,0,0.028346,34.165354,2.834646)" /><rect x="476" y="666" width="10" height="10" style="fill: rgb(255,0,0); fill-opacity: 1.0" transform="matrix(-0.028346,0,0,0.028346,34.165354,2.834646)" /><rect x="476" y="666" width="10" height="10" style="fill: rgb(255,0,0); fill-opacity: 1.0" transform="matrix(-0.028346,0,0,0.028346,34.165354,2.834646)" /><rect x="476" y="666" width="10" height="10" style="fill: rgb(255,0,0); fill-opacity: 1.0" transform="matrix(-0.028346,0,0,0.028346,34.165354,2.834646)" /><rect x="476" y="666" width="10" height="10" style="fill: rgb(255,0,0); fill-opacity: 1.0" transform="matrix(-0.028346,0,0,0.028346,34.165354,2.834646)" /><rect x="476" y="666" width="10" height="10" style="fill: rgb(255,0,0); fill-opacity: 1.0" transform="matrix(-0.028346,0,0,0.028346,34.165354,2.834646)" /><rect x="476" y="666" width="10" height="10" style="fill: rgb(255,0,0); fill-opacity: 1.0" transform="matrix(-0.028346,0,0,0.028346,34.165354,2.834646)" /><rect x="476" y="666" width="10" height="10" style="fill: rgb(255,0,0); fill-opacity: 1.0" transform="matrix(-0.028346,0,0,0.028346,34.165354,2.834646)" /><rect x="476" y="666" width="10" height="10" style="fill: rgb(255,0,0); fill-opacity: 1.0" transform="matrix(-0.028346,0,0,0.028346,34.165354,2.834646)" /><rect x="476" y="666" width="10" height="10" style="fill: rgb(255,0,0); fill-opacity: 1.0" transform="matrix(-0.028346,0,0,0.028346,34.165354,2.834646)" /><rect x="476" y="666" width="10" height="10" style="fill: rgb(255,0,0); fill-opacity: 1.0" transform="matrix(-0.028346,0,0,0.028346,34.165354,2.834646)" /><rect x="476" y="666" width="10" height="10" style="fill: rgb(255,0,0); fill-opacity: 1.0" transform="matrix(-0.028346,0,0,0.028346,34.165354,2.834646)" /><rect x="476" y="666" width="10" height="10" style="fill: rgb(255,0,0); fill-opacity: 1.0" transform="matrix(-0.028346,0,0,0.028346,34.165354,2.834646)" /><rect x="476" y="666" width="10" height="10" style="fill: rgb(255,0,0); fill-opacity: 1.0" transform="matrix(-0.028346,0,0,0.028346,34.165354,2.834646)" /><rect x="476" y="666" width="10" height="10" style="fill: rgb(255,0,0); fill-opacity: 1.0" transform="matrix(-0.028346,0,0,0.028346,34.165354,2.834646)" /><rect x="476" y="666" width="10" height="10" style="fill: rgb(255,0,0); fill-opacity: 1.0" transform="matrix(-0.028346,0,0,0.028346,34.165354,2.834646)" /><rect x="476" y="666" width="10" height="10" style="fill: rgb(255,0,0); fill-opacity: 1.0" transform="matrix(-0.028346,0,0,0.028346,34.165354,2.834646)" /><rect x="476" y="666" width="10" height="10" style="fill: rgb(255,0,0); fill-opacity: 1.0" transform="matrix(-0.028346,0,0,0.028346,34.165354,2.834646)" /><rect x="476" y="666" width="10" height="10" style="fill: rgb(255,0,0); fill-opacity: 1.0" transform="matrix(-0.028346,0,0,0.028346,34.165354,2.834646)" /><rect x="476" y="666" width="10" height="10" style="fill: rgb(255,0,0); fill-opacity: 1.0" transform="matrix(-0.028346,0,0,0.028346,34.165354,2.834646)" /><rect x="476" y="666" width="10" height="10" style="fill: rgb(255,0,0); fill-opacity: 1.0" transform="matrix(-0.028346,0,0,0.028346,34.165354,2.834646)" /><rect x="476" y="666" width="10" height="10" style="fill: rgb(255,0,0); fill-opacity: 1.0" transform="matrix(-0.028346,0,0,0.028346,34.165354,2.834646)" /><rect x="476" y="666" width="10" height="10" style="fill: rgb(255,0,0); fill-opacity: 1.0" transform="matrix(-0.028346,0,0,0.028346,34.165354,2.834646)" /><rect x="476" y="666" width="10" height="10" style="fill: rgb(255,0,0); fill-opacity: 1.0" transform="matrix(-0.028346,0,0,0.028346,34.165354,2.834646)" /><rect x="476" y="666" width="10" height="10" style="fill: rgb(255,0,0); fill-opacity: 1.0" transform="matrix(-0.028346,0,0,0.028346,34.165354,2.834646)" /><rect x="476" y="666" width="10" height="10" style="fill: rgb(255,0,0); fill-opacity: 1.0" transform="matrix(-0.028346,0,0,0.028346,34.165354,2.834646)" /><rect x="476" y="666" width="10" height="10" style="fill: rgb(255,0,0); fill-opacity: 1.0" transform="matrix(-0.028346,0,0,0.028346,34.165354,2.834646)" /><rect x="476" y="666" width="10" height="10" style="fill: rgb(255,0,0); fill-opacity: 1.0" transform="matrix(-0.028346,0,0,0.028346,34.165354,2.834646)" /><rect x="476" y="666" width="10" height="10" style="fill: rgb(255,0,0); fill-opacity: 1.0" transform="matrix(-0.028346,0,0,0.028346,34.165354,2.834646)" /><rect x="476" y="666" width="10" height="10" style="fill: rgb(255,0,0); fill-opacity: 1.0" transform="matrix(-0.028346,0,0,0.028346,34.165354,2.834646)" /><rect x="476" y="666" width="10" height="10" style="fill: rgb(255,0,0); fill-opacity: 1.0" transform="matrix(-0.028346,0,0,0.028346,34.165354,2.834646)" /><rect x="476" y="666" width="10" height="10" style="fill: rgb(255,0,0); fill-opacity: 1.0" transform="matrix(-0.028346,0,0,0.028346,34.165354,2.834646)" /><rect x="476" y="666" width="10" height="10" style="fill: rgb(255,0,0); fill-opacity: 1.0" transform="matrix(-0.028346,0,0,0.028346,34.165354,2.834646)" /><rect x="476" y="666" width="10" height="10" style="fill: rgb(255,0,0); fill-opacity: 1.0" transform="matrix(-0.028346,0,0,0.028346,34.165354,2.834646)" /><rect x="476" y="666" width="10" height="10" style="fill: rgb(255,0,0); fill-opacity: 1.0" transform="matrix(-0.028346,0,0,0.028346,34.165354,2.834646)" /><rect x="476" y="666" width="10" height="10" style="fill: rgb(255,0,0); fill-opacity: 1.0" transform="matrix(-0.028346,0,0,0.028346,34.165354,2.834646)" /><rect x="476" y="666" width="10" height="10" style="fill: rgb(255,0,0); fill-opacity: 1.0" transform="matrix(-0.028346,0,0,0.028346,34.165354,2.834646)" /><rect x="476" y="666" width="10" height="10" style="fill: rgb(255,0,0); fill-opacity: 1.0" transform="matrix(-0.028346,0,0,0.028346,34.165354,2.834646)" /><rect x="476" y="666" width="10" height="10" style="fill: rgb(255,0,0); fill-opacity: 1.0" transform="matrix(-0.028346,0,0,0.028346,34.165354,2.834646)" /><rect x="476" y="666" width="10" height="10" style="fill: rgb(255,0,0); fill-opacity: 1.0" transform="matrix(-0.028346,0,0,0.028346,34.165354,2.834646)" /><rect x="476" y="666" width="10" height="10" style="fill: rgb(255,0,0); fill-opacity: 1.0" transform="matrix(-0.028346,0,0,0.028346,34.165354,2.834646)" /><rect x="476" y="666" width="10" height="10" style="fill: rgb(255,0,0); fill-opacity: 1.0" transform="matrix(-0.028346,0,0,0.028346,34.165354,2.834646)" /><rect x="476" y="666" width="10" height="10" style="fill: rgb(255,0,0); fill-opacity: 1.0" transform="matrix(-0.028346,0,0,0.028346,34.165354,2.834646)" /><rect x="476" y="666" width="10" height="10" style="fill: rgb(255,0,0); fill-opacity: 1.0" transform="matrix(-0.028346,0,0,0.028346,34.165354,2.834646)" /><rect x="476" y="666" width="10" height="10" style="fill: rgb(255,0,0); fill-opacity: 1.0" transform="matrix(-0.028346,0,0,0.028346,34.165354,2.834646)" /><rect x="476" y="666" width="10" height="10" style="fill: rgb(255,0,0); fill-opacity: 1.0" transform="matrix(-0.028346,0,0,0.028346,34.165354,2.834646)" /><rect x="476" y="666" width="10" height="10" style="fill: rgb(255,0,0); fill-opacity: 1.0" transform="matrix(-0.028346,0,0,0.028346,34.165354,2.834646)" /><rect x="476" y="666" width="10" height="10" style="fill: rgb(255,0,0); fill-opacity: 1.0" transform="matrix(-0.028346,0,0,0.028346,34.165354,2.834646)" /><rect x="476" y="666" width="10" height="10" style="fill: rgb(255,0,0); fill-opacity: 1.0" transform="matrix(-0.028346,0,0,0.028346,34.165354,2.834646)" /><rect x="476" y="666" width="10" height="10" style="fill: rgb(255,0,0); fill-opacity: 1.0" transform="matrix(-0.028346,0,0,0.028346,34.165354,2.834646)" /><rect x="476" y="666" width="10" height="10" style="fill: rgb(255,0,0); fill-opacity: 1.0" transform="matrix(-0.028346,0,0,0.028346,34.165354,2.834646)" /><rect x="476" y="666" width="10" height="10" style="fill: rgb(255,0,0); fill-opacity: 1.0" transform="matrix(-0.028346,0,0,0.028346,34.165354,2.834646)" /><rect x="476" y="529" width="10" height="147" style="fill: rgb(255,0,0); fill-opacity: 1.0" transform="matrix(-0.028346,0,0,0.028346,34.165354,2.834646)" /><rect x="476" y="529" width="10" height="10" style="fill: rgb(255,0,0); fill-opacity: 1.0" transform="matrix(-0.028346,0,0,0.028346,34.165354,2.834646)" /><rect x="476" y="529" width="10" height="10" style="fill: rgb(255,0,0); fill-opacity: 1.0" transform="matrix(-0.028346,0,0,0.028346,34.165354,2.834646)" /><rect x="476" y="529" width="10" height="10" style="fill: rgb(255,0,0); fill-opacity: 1.0" transform="matrix(-0.028346,0,0,0.028346,34.165354,2.834646)" /><rect x="476" y="529" width="10" height="10" style="fill: rgb(255,0,0); fill-opacity: 1.0" transform="matrix(-0.028346,0,0,0.028346,34.165354,2.834646)" /><rect x="476" y="529" width="10" height="10" style="fill: rgb(255,0,0); fill-opacity: 1.0" transform="matrix(-0.028346,0,0,0.028346,34.165354,2.834646)" /><rect x="476" y="529" width="10" height="10" style="fill: rgb(255,0,0); fill-opacity: 1.0" transform="matrix(-0.028346,0,0,0.028346,34.165354,2.834646)" /><rect x="476" y="529" width="10" height="10" style="fill: rgb(255,0,0); fill-opacity: 1.0" transform="matrix(-0.028346,0,0,0.028346,34.165354,2.834646)" /><rect x="476" y="529" width="10" height="10" style="fill: rgb(255,0,0); fill-opacity: 1.0" transform="matrix(-0.028346,0,0,0.028346,34.165354,2.834646)" /><rect x="476" y="529" width="10" height="10" style="fill: rgb(255,0,0); fill-opacity: 1.0" transform="matrix(-0.028346,0,0,0.028346,34.165354,2.834646)" /><rect x="476" y="529" width="10" height="10" style="fill: rgb(255,0,0); fill-opacity: 1.0" transform="matrix(-0.028346,0,0,0.028346,34.165354,2.834646)" /><rect x="476" y="529" width="10" height="10" style="fill: rgb(255,0,0); fill-opacity: 1.0" transform="matrix(-0.028346,0,0,0.028346,34.165354,2.834646)" /><rect x="476" y="529" width="10" height="10" style="fill: rgb(255,0,0); fill-opacity: 1.0" transform="matrix(-0.028346,0,0,0.028346,34.165354,2.834646)" /><rect x="476" y="529" width="10" height="10" style="fill: rgb(255,0,0); fill-opacity: 1.0" transform="matrix(-0.028346,0,0,0.028346,34.165354,2.834646)" /><rect x="476" y="529" width="10" height="10" style="fill: rgb(255,0,0); fill-opacity: 1.0" transform="matrix(-0.028346,0,0,0.028346,34.165354,2.834646)" /><rect x="476" y="529" width="10" height="10" style="fill: rgb(255,0,0); fill-opacity: 1.0" transform="matrix(-0.028346,0,0,0.028346,34.165354,2.834646)" /><rect x="476" y="529" width="10" height="10" style="fill: rgb(255,0,0); fill-opacity: 1.0" transform="matrix(-0.028346,0,0,0.028346,34.165354,2.834646)" /><rect x="476" y="529" width="10" height="10" style="fill: rgb(255,0,0); fill-opacity: 1.0" transform="matrix(-0.028346,0,0,0.028346,34.165354,2.834646)" /><rect x="476" y="529" width="10" height="10" style="fill: rgb(255,0,0); fill-opacity: 1.0" transform="matrix(-0.028346,0,0,0.028346,34.165354,2.834646)" /><rect x="476" y="529" width="10" height="10" style="fill: rgb(255,0,0); fill-opacity: 1.0" transform="matrix(-0.028346,0,0,0.028346,34.165354,2.834646)" /><rect x="476" y="529" width="10" height="10" style="fill: rgb(255,0,0); fill-opacity: 1.0" transform="matrix(-0.028346,0,0,0.028346,34.165354,2.834646)" /><rect x="476" y="529" width="10" height="10" style="fill: rgb(255,0,0); fill-opacity: 1.0" transform="matrix(-0.028346,0,0,0.028346,34.165354,2.834646)" /><rect x="476" y="529" width="10" height="10" style="fill: rgb(255,0,0); fill-opacity: 1.0" transform="matrix(-0.028346,0,0,0.028346,34.165354,2.834646)" /><rect x="476" y="529" width="10" height="10" style="fill: rgb(255,0,0); fill-opacity: 1.0" transform="matrix(-0.028346,0,0,0.028346,34.165354,2.834646)" /><rect x="476" y="529" width="10" height="10" style="fill: rgb(255,0,0); fill-opacity: 1.0" transform="matrix(-0.028346,0,0,0.028346,34.165354,2.834646)" /><rect x="476" y="529" width="10" height="10" style="fill: rgb(255,0,0); fill-opacity: 1.0" transform="matrix(-0.028346,0,0,0.028346,34.165354,2.834646)" /><rect x="476" y="529" width="10" height="10" style="fill: rgb(255,0,0); fill-opacity: 1.0" transform="matrix(-0.028346,0,0,0.028346,34.165354,2.834646)" /><rect x="476" y="529" width="10" height="10" style="fill: rgb(255,0,0); fill-opacity: 1.0" transform="matrix(-0.028346,0,0,0.028346,34.165354,2.834646)" /><rect x="476" y="529" width="10" height="10" style="fill: rgb(255,0,0); fill-opacity: 1.0" transform="matrix(-0.028346,0,0,0.028346,34.165354,2.834646)" /><rect x="476" y="529" width="10" height="10" style="fill: rgb(255,0,0); fill-opacity: 1.0" transform="matrix(-0.028346,0,0,0.028346,34.165354,2.834646)" /><rect x="476" y="529" width="10" height="10" style="fill: rgb(255,0,0); fill-opacity: 1.0" transform="matrix(-0.028346,0,0,0.028346,34.165354,2.834646)" /><rect x="476" y="529" width="10" height="10" style="fill: rgb(255,0,0); fill-opacity: 1.0" transform="matrix(-0.028346,0,0,0.028346,34.165354,2.834646)" /><rect x="476" y="529" width="10" height="10" style="fill: rgb(255,0,0); fill-opacity: 1.0" transform="matrix(-0.028346,0,0,0.028346,34.165354,2.834646)" /><rect x="476" y="529" width="10" height="10" style="fill: rgb(255,0,0); fill-opacity: 1.0" transform="matrix(-0.028346,0,0,0.028346,34.165354,2.834646)" /><rect x="476" y="529" width="10" height="10" style="fill: rgb(255,0,0); fill-opacity: 1.0" transform="matrix(-0.028346,0,0,0.028346,34.165354,2.834646)" /><rect x="476" y="529" width="10" height="10" style="fill: rgb(255,0,0); fill-opacity: 1.0" transform="matrix(-0.028346,0,0,0.028346,34.165354,2.834646)" /><rect x="476" y="529" width="10" height="10" style="fill: rgb(255,0,0); fill-opacity: 1.0" transform="matrix(-0.028346,0,0,0.028346,34.165354,2.834646)" /><rect x="476" y="529" width="10" height="10" style="fill: rgb(255,0,0); fill-opacity: 1.0" transform="matrix(-0.028346,0,0,0.028346,34.165354,2.834646)" /><rect x="476" y="529" width="10" height="10" style="fill: rgb(255,0,0); fill-opacity: 1.0" transform="matrix(-0.028346,0,0,0.028346,34.165354,2.834646)" /><rect x="476" y="529" width="10" height="10" style="fill: rgb(255,0,0); fill-opacity: 1.0" transform="matrix(-0.028346,0,0,0.028346,34.165354,2.834646)" /><rect x="476" y="529" width="10" height="10" style="fill: rgb(255,0,0); fill-opacity: 1.0" transform="matrix(-0.028346,0,0,0.028346,34.165354,2.834646)" /><rect x="476" y="529" width="10" height="10" style="fill: rgb(255,0,0); fill-opacity: 1.0" transform="matrix(-0.028346,0,0,0.028346,34.165354,2.834646)" /><rect x="476" y="529" width="10" height="10" style="fill: rgb(255,0,0); fill-opacity: 1.0" transform="matrix(-0.028346,0,0,0.028346,34.165354,2.834646)" /><rect x="476" y="529" width="10" height="10" style="fill: rgb(255,0,0); fill-opacity: 1.0" transform="matrix(-0.028346,0,0,0.028346,34.165354,2.834646)" /><rect x="476" y="529" width="10" height="10" style="fill: rgb(255,0,0); fill-opacity: 1.0" transform="matrix(-0.028346,0,0,0.028346,34.165354,2.834646)" /><rect x="476" y="529" width="10" height="10" style="fill: rgb(255,0,0); fill-opacity: 1.0" transform="matrix(-0.028346,0,0,0.028346,34.165354,2.834646)" /><rect x="476" y="529" width="10" height="10" style="fill: rgb(255,0,0); fill-opacity: 1.0" transform="matrix(-0.028346,0,0,0.028346,34.165354,2.834646)" /><rect x="476" y="529" width="10" height="10" style="fill: rgb(255,0,0); fill-opacity: 1.0" transform="matrix(-0.028346,0,0,0.028346,34.165354,2.834646)" /><rect x="476" y="529" width="10" height="10" style="fill: rgb(255,0,0); fill-opacity: 1.0" transform="matrix(-0.028346,0,0,0.028346,34.165354,2.834646)" /><rect x="476" y="529" width="10" height="10" style="fill: rgb(255,0,0); fill-opacity: 1.0" transform="matrix(-0.028346,0,0,0.028346,34.165354,2.834646)" /><rect x="476" y="529" width="10" height="10" style="fill: rgb(255,0,0); fill-opacity: 1.0" transform="matrix(-0.028346,0,0,0.028346,34.165354,2.834646)" /><rect x="476" y="529" width="10" height="10" style="fill: rgb(255,0,0); fill-opacity: 1.0" transform="matrix(-0.028346,0,0,0.028346,34.165354,2.834646)" /><rect x="476" y="529" width="10" height="10" style="fill: rgb(255,0,0); fill-opacity: 1.0" transform="matrix(-0.028346,0,0,0.028346,34.165354,2.834646)" /><rect x="476" y="529" width="10" height="10" style="fill: rgb(255,0,0); fill-opacity: 1.0" transform="matrix(-0.028346,0,0,0.028346,34.165354,2.834646)" /><rect x="476" y="529" width="10" height="10" style="fill: rgb(255,0,0); fill-opacity: 1.0" transform="matrix(-0.028346,0,0,0.028346,34.165354,2.834646)" /><rect x="476" y="529" width="10" height="10" style="fill: rgb(255,0,0); fill-opacity: 1.0" transform="matrix(-0.028346,0,0,0.028346,34.165354,2.834646)" /><rect x="476" y="529" width="10" height="10" style="fill: rgb(255,0,0); fill-opacity: 1.0" transform="matrix(-0.028346,0,0,0.028346,34.165354,2.834646)" /><rect x="476" y="529" width="10" height="10" style="fill: rgb(255,0,0); fill-opacity: 1.0" transform="matrix(-0.028346,0,0,0.028346,34.165354,2.834646)" /><rect x="476" y="529" width="10" height="10" style="fill: rgb(255,0,0); fill-opacity: 1.0" transform="matrix(-0.028346,0,0,0.028346,34.165354,2.834646)" /><rect x="476" y="529" width="10" height="10" style="fill: rgb(255,0,0); fill-opacity: 1.0" transform="matrix(-0.028346,0,0,0.028346,34.165354,2.834646)" /><rect x="476" y="529" width="10" height="10" style="fill: rgb(255,0,0); fill-opacity: 1.0" transform="matrix(-0.028346,0,0,0.028346,34.165354,2.834646)" /><rect x="476" y="529" width="10" height="10" style="fill: rgb(255,0,0); fill-opacity: 1.0" transform="matrix(-0.028346,0,0,0.028346,34.165354,2.834646)" /><rect x="476" y="529" width="10" height="10" style="fill: rgb(255,0,0); fill-opacity: 1.0" transform="matrix(-0.028346,0,0,0.028346,34.165354,2.834646)" /><rect x="476" y="529" width="10" height="10" style="fill: rgb(255,0,0); fill-opacity: 1.0" transform="matrix(-0.028346,0,0,0.028346,34.165354,2.834646)" /><rect x="476" y="529" width="10" height="10" style="fill: rgb(255,0,0); fill-opacity: 1.0" transform="matrix(-0.028346,0,0,0.028346,34.165354,2.834646)" /></svg>
