<?xml version="1.0"?>
<!DOCTYPE svg PUBLIC "-//W3C//DTD SVG 1.0//EN" "http://www.w3.org/TR/2001/REC-SVG-20010904/DTD/svg10.dtd">
<svg xmlns="http://www.w3.org/2000/svg" xmlns:xlink="http://www.w3.org/1999/xlink" xmlns:jfreesvg="http://www.jfree.org/jfreesvg/svg" width="195" height="69" text-rendering="auto" shape-rendering="auto">
<defs></defs>
<line x1="0" y1="0" x2="68539" y2="0" style="stroke-width: 100.0;stroke: rgb(0,0,0);stroke-opacity: 1.0;stroke-linecap: round;stroke-linejoin: round;" transform="matrix(-0.002835,0,0,0.002835,195,0)" /><line x1="68540" y1="0" x2="68540" y2="24199" style="stroke-width: 100.0;stroke: rgb(0,0,0);stroke-opacity: 1.0;stroke-linecap: round;stroke-linejoin: round;" transform="matrix(-0.002835,0,0,0.002835,195,0)" /><line x1="68540" y1="24200" x2="1" y2="24200" style="stroke-width: 100.0;stroke: rgb(0,0,0);stroke-opacity: 1.0;stroke-linecap: round;stroke-linejoin: round;" transform="matrix(-0.002835,0,0,0.002835,195,0)" /><line x1="0" y1="24200" x2="0" y2="1" style="stroke-width: 100.0;stroke: rgb(0,0,0);stroke-opacity: 1.0;stroke-linecap: round;stroke-linejoin: round;" transform="matrix(-0.002835,0,0,0.002835,195,0)" /><g style="fill: rgb(255,0,0); fill-opacity: 1.0; stroke: none" transform="matrix(-0.056693,0,0,0.056693,192.165354,2.834646)" ><path d="M 616 586 C 616 637.36 574.36 679 523 679 C 471.64 679 430 637.36 430 586 C 430 534.64 471.64 493 523 493 C 574.36 493 616 534.64 616 586 Z "/></g><g style="fill: rgb(255,0,0); fill-opacity: 1.0; stroke: none" transform="matrix(-0.056693,0,0,0.056693,192.165354,2.834646)" ><path d="M 624 899 C 624 954.78 578.78 1000 523 1000 C 467.22 1000 422 954.78 422 899 C 422 843.22 467.22 798 523 798 C 578.78 798 624 843.22 624 899 Z "/></g><rect x="505" y="780" width="37" height="37" style="fill: rgb(255,0,0); fill-opacity: 1.0" transform="matrix(-0.056693,0,0,0.056693,192.165354,2.834646)" /><rect x="505" y="780" width="37" height="37" style="fill: rgb(255,0,0); fill-opacity: 1.0" transform="matrix(-0.056693,0,0,0.056693,192.165354,2.834646)" /><rect x="505" y="780" width="37" height="37" style="fill: rgb(255,0,0); fill-opacity: 1.0" transform="matrix(-0.056693,0,0,0.056693,192.165354,2.834646)" /><rect x="505" y="780" width="37" height="37" style="fill: rgb(255,0,0); fill-opacity: 1.0" transform="matrix(-0.056693,0,0,0.056693,192.165354,2.834646)" /><rect x="505" y="780" width="37" height="37" style="fill: rgb(255,0,0); fill-opacity: 1.0" transform="matrix(-0.056693,0,0,0.056693,192.165354,2.834646)" /><rect x="505" y="780" width="37" height="37" style="fill: rgb(255,0,0); fill-opacity: 1.0" transform="matrix(-0.056693,0,0,0.056693,192.165354,2.834646)" /><rect x="505" y="780" width="37" height="37" style="fill: rgb(255,0,0); fill-opacity: 1.0" transform="matrix(-0.056693,0,0,0.056693,192.165354,2.834646)" /><rect x="505" y="780" width="37" height="37" style="fill: rgb(255,0,0); fill-opacity: 1.0" transform="matrix(-0.056693,0,0,0.056693,192.165354,2.834646)" /><rect x="505" y="780" width="37" height="37" style="fill: rgb(255,0,0); fill-opacity: 1.0" transform="matrix(-0.056693,0,0,0.056693,192.165354,2.834646)" /><rect x="505" y="780" width="37" height="37" style="fill: rgb(255,0,0); fill-opacity: 1.0" transform="matrix(-0.056693,0,0,0.056693,192.165354,2.834646)" /><rect x="505" y="661" width="37" height="156" style="fill: rgb(255,0,0); fill-opacity: 1.0" transform="matrix(-0.056693,0,0,0.056693,192.165354,2.834646)" /><rect x="505" y="661" width="37" height="37" style="fill: rgb(255,0,0); fill-opacity: 1.0" transform="matrix(-0.056693,0,0,0.056693,192.165354,2.834646)" /><rect x="505" y="661" width="37" height="37" style="fill: rgb(255,0,0); fill-opacity: 1.0" transform="matrix(-0.056693,0,0,0.056693,192.165354,2.834646)" /><rect x="505" y="661" width="37" height="37" style="fill: rgb(255,0,0); fill-opacity: 1.0" transform="matrix(-0.056693,0,0,0.056693,192.165354,2.834646)" /><rect x="505" y="661" width="37" height="37" style="fill: rgb(255,0,0); fill-opacity: 1.0" transform="matrix(-0.056693,0,0,0.056693,192.165354,2.834646)" /><rect x="505" y="661" width="37" height="37" style="fill: rgb(255,0,0); fill-opacity: 1.0" transform="matrix(-0.056693,0,0,0.056693,192.165354,2.834646)" /><rect x="505" y="661" width="37" height="37" style="fill: rgb(255,0,0); fill-opacity: 1.0" transform="matrix(-0.056693,0,0,0.056693,192.165354,2.834646)" /><rect x="505" y="661" width="37" height="37" style="fill: rgb(255,0,0); fill-opacity: 1.0" transform="matrix(-0.056693,0,0,0.056693,192.165354,2.834646)" /><rect x="505" y="661" width="37" height="37" style="fill: rgb(255,0,0); fill-opacity: 1.0" transform="matrix(-0.056693,0,0,0.056693,192.165354,2.834646)" /><rect x="505" y="661" width="37" height="37" style="fill: rgb(255,0,0); fill-opacity: 1.0" transform="matrix(-0.056693,0,0,0.056693,192.165354,2.834646)" /><rect x="505" y="661" width="37" height="37" style="fill: rgb(255,0,0); fill-opacity: 1.0" transform="matrix(-0.056693,0,0,0.056693,192.165354,2.834646)" /></svg>
