<?xml version="1.0"?>
<!DOCTYPE svg PUBLIC "-//W3C//DTD SVG 1.0//EN" "http://www.w3.org/TR/2001/REC-SVG-20010904/DTD/svg10.dtd">
<svg xmlns="http://www.w3.org/2000/svg" xmlns:xlink="http://www.w3.org/1999/xlink" xmlns:jfreesvg="http://www.jfree.org/jfreesvg/svg" width="38" height="35" text-rendering="auto" shape-rendering="auto">
<defs></defs>
<line x1="0" y1="0" x2="13299" y2="0" style="stroke-width: 50.0;stroke: rgb(0,0,0);stroke-opacity: 1.0;stroke-linecap: round;stroke-linejoin: round;" transform="matrix(-0.002835,0,0,0.002835,38,0)" /><line x1="13300" y1="0" x2="13300" y2="12089" style="stroke-width: 50.0;stroke: rgb(0,0,0);stroke-opacity: 1.0;stroke-linecap: round;stroke-linejoin: round;" transform="matrix(-0.002835,0,0,0.002835,38,0)" /><line x1="13300" y1="12090" x2="1" y2="12090" style="stroke-width: 50.0;stroke: rgb(0,0,0);stroke-opacity: 1.0;stroke-linecap: round;stroke-linejoin: round;" transform="matrix(-0.002835,0,0,0.002835,38,0)" /><line x1="0" y1="12090" x2="0" y2="1" style="stroke-width: 50.0;stroke: rgb(0,0,0);stroke-opacity: 1.0;stroke-linecap: round;stroke-linejoin: round;" transform="matrix(-0.002835,0,0,0.002835,38,0)" /><g style="fill: rgb(255,0,0); fill-opacity: 1.0; stroke: none" transform="matrix(-0.028346,0,0,0.028346,35.165354,2.834646)" ><path d="M 585 534 C 585 547.81 573.81 559 560 559 C 546.19 559 535 547.81 535 534 C 535 520.19 546.19 509 560 509 C 573.81 509 585 520.19 585 534 Z "/></g><g style="fill: rgb(255,0,0); fill-opacity: 1.0; stroke: none" transform="matrix(-0.028346,0,0,0.028346,35.165354,2.834646)" ><path d="M 570 789 C 570 794.52 565.52 799 560 799 C 554.48 799 550 794.52 550 789 C 550 783.48 554.48 779 560 779 C 565.52 779 570 783.48 570 789 Z "/></g><rect x="555" y="774" width="10" height="10" style="fill: rgb(255,0,0); fill-opacity: 1.0" transform="matrix(-0.028346,0,0,0.028346,35.165354,2.834646)" /><rect x="555" y="774" width="10" height="10" style="fill: rgb(255,0,0); fill-opacity: 1.0" transform="matrix(-0.028346,0,0,0.028346,35.165354,2.834646)" /><rect x="555" y="774" width="10" height="10" style="fill: rgb(255,0,0); fill-opacity: 1.0" transform="matrix(-0.028346,0,0,0.028346,35.165354,2.834646)" /><rect x="555" y="774" width="10" height="10" style="fill: rgb(255,0,0); fill-opacity: 1.0" transform="matrix(-0.028346,0,0,0.028346,35.165354,2.834646)" /><rect x="555" y="774" width="10" height="10" style="fill: rgb(255,0,0); fill-opacity: 1.0" transform="matrix(-0.028346,0,0,0.028346,35.165354,2.834646)" /><rect x="555" y="774" width="10" height="10" style="fill: rgb(255,0,0); fill-opacity: 1.0" transform="matrix(-0.028346,0,0,0.028346,35.165354,2.834646)" /><rect x="555" y="774" width="10" height="10" style="fill: rgb(255,0,0); fill-opacity: 1.0" transform="matrix(-0.028346,0,0,0.028346,35.165354,2.834646)" /><rect x="555" y="774" width="10" height="10" style="fill: rgb(255,0,0); fill-opacity: 1.0" transform="matrix(-0.028346,0,0,0.028346,35.165354,2.834646)" /><rect x="555" y="774" width="10" height="10" style="fill: rgb(255,0,0); fill-opacity: 1.0" transform="matrix(-0.028346,0,0,0.028346,35.165354,2.834646)" /><rect x="555" y="774" width="10" height="10" style="fill: rgb(255,0,0); fill-opacity: 1.0" transform="matrix(-0.028346,0,0,0.028346,35.165354,2.834646)" /><rect x="555" y="774" width="10" height="10" style="fill: rgb(255,0,0); fill-opacity: 1.0" transform="matrix(-0.028346,0,0,0.028346,35.165354,2.834646)" /><rect x="555" y="774" width="10" height="10" style="fill: rgb(255,0,0); fill-opacity: 1.0" transform="matrix(-0.028346,0,0,0.028346,35.165354,2.834646)" /><rect x="555" y="774" width="10" height="10" style="fill: rgb(255,0,0); fill-opacity: 1.0" transform="matrix(-0.028346,0,0,0.028346,35.165354,2.834646)" /><rect x="555" y="774" width="10" height="10" style="fill: rgb(255,0,0); fill-opacity: 1.0" transform="matrix(-0.028346,0,0,0.028346,35.165354,2.834646)" /><rect x="555" y="774" width="10" height="10" style="fill: rgb(255,0,0); fill-opacity: 1.0" transform="matrix(-0.028346,0,0,0.028346,35.165354,2.834646)" /><rect x="555" y="774" width="10" height="10" style="fill: rgb(255,0,0); fill-opacity: 1.0" transform="matrix(-0.028346,0,0,0.028346,35.165354,2.834646)" /><rect x="555" y="774" width="10" height="10" style="fill: rgb(255,0,0); fill-opacity: 1.0" transform="matrix(-0.028346,0,0,0.028346,35.165354,2.834646)" /><rect x="555" y="774" width="10" height="10" style="fill: rgb(255,0,0); fill-opacity: 1.0" transform="matrix(-0.028346,0,0,0.028346,35.165354,2.834646)" /><rect x="555" y="774" width="10" height="10" style="fill: rgb(255,0,0); fill-opacity: 1.0" transform="matrix(-0.028346,0,0,0.028346,35.165354,2.834646)" /><rect x="555" y="774" width="10" height="10" style="fill: rgb(255,0,0); fill-opacity: 1.0" transform="matrix(-0.028346,0,0,0.028346,35.165354,2.834646)" /><rect x="555" y="774" width="10" height="10" style="fill: rgb(255,0,0); fill-opacity: 1.0" transform="matrix(-0.028346,0,0,0.028346,35.165354,2.834646)" /><rect x="555" y="774" width="10" height="10" style="fill: rgb(255,0,0); fill-opacity: 1.0" transform="matrix(-0.028346,0,0,0.028346,35.165354,2.834646)" /><rect x="555" y="774" width="10" height="10" style="fill: rgb(255,0,0); fill-opacity: 1.0" transform="matrix(-0.028346,0,0,0.028346,35.165354,2.834646)" /><rect x="555" y="774" width="10" height="10" style="fill: rgb(255,0,0); fill-opacity: 1.0" transform="matrix(-0.028346,0,0,0.028346,35.165354,2.834646)" /><rect x="555" y="774" width="10" height="10" style="fill: rgb(255,0,0); fill-opacity: 1.0" transform="matrix(-0.028346,0,0,0.028346,35.165354,2.834646)" /><rect x="555" y="774" width="10" height="10" style="fill: rgb(255,0,0); fill-opacity: 1.0" transform="matrix(-0.028346,0,0,0.028346,35.165354,2.834646)" /><rect x="555" y="774" width="10" height="10" style="fill: rgb(255,0,0); fill-opacity: 1.0" transform="matrix(-0.028346,0,0,0.028346,35.165354,2.834646)" /><rect x="555" y="774" width="10" height="10" style="fill: rgb(255,0,0); fill-opacity: 1.0" transform="matrix(-0.028346,0,0,0.028346,35.165354,2.834646)" /><rect x="555" y="774" width="10" height="10" style="fill: rgb(255,0,0); fill-opacity: 1.0" transform="matrix(-0.028346,0,0,0.028346,35.165354,2.834646)" /><rect x="555" y="774" width="10" height="10" style="fill: rgb(255,0,0); fill-opacity: 1.0" transform="matrix(-0.028346,0,0,0.028346,35.165354,2.834646)" /><rect x="555" y="774" width="10" height="10" style="fill: rgb(255,0,0); fill-opacity: 1.0" transform="matrix(-0.028346,0,0,0.028346,35.165354,2.834646)" /><rect x="555" y="774" width="10" height="10" style="fill: rgb(255,0,0); fill-opacity: 1.0" transform="matrix(-0.028346,0,0,0.028346,35.165354,2.834646)" /><rect x="555" y="774" width="10" height="10" style="fill: rgb(255,0,0); fill-opacity: 1.0" transform="matrix(-0.028346,0,0,0.028346,35.165354,2.834646)" /><rect x="555" y="774" width="10" height="10" style="fill: rgb(255,0,0); fill-opacity: 1.0" transform="matrix(-0.028346,0,0,0.028346,35.165354,2.834646)" /><rect x="555" y="774" width="10" height="10" style="fill: rgb(255,0,0); fill-opacity: 1.0" transform="matrix(-0.028346,0,0,0.028346,35.165354,2.834646)" /><rect x="555" y="774" width="10" height="10" style="fill: rgb(255,0,0); fill-opacity: 1.0" transform="matrix(-0.028346,0,0,0.028346,35.165354,2.834646)" /><rect x="555" y="774" width="10" height="10" style="fill: rgb(255,0,0); fill-opacity: 1.0" transform="matrix(-0.028346,0,0,0.028346,35.165354,2.834646)" /><rect x="555" y="774" width="10" height="10" style="fill: rgb(255,0,0); fill-opacity: 1.0" transform="matrix(-0.028346,0,0,0.028346,35.165354,2.834646)" /><rect x="555" y="774" width="10" height="10" style="fill: rgb(255,0,0); fill-opacity: 1.0" transform="matrix(-0.028346,0,0,0.028346,35.165354,2.834646)" /><rect x="555" y="774" width="10" height="10" style="fill: rgb(255,0,0); fill-opacity: 1.0" transform="matrix(-0.028346,0,0,0.028346,35.165354,2.834646)" /><rect x="555" y="774" width="10" height="10" style="fill: rgb(255,0,0); fill-opacity: 1.0" transform="matrix(-0.028346,0,0,0.028346,35.165354,2.834646)" /><rect x="555" y="774" width="10" height="10" style="fill: rgb(255,0,0); fill-opacity: 1.0" transform="matrix(-0.028346,0,0,0.028346,35.165354,2.834646)" /><rect x="555" y="774" width="10" height="10" style="fill: rgb(255,0,0); fill-opacity: 1.0" transform="matrix(-0.028346,0,0,0.028346,35.165354,2.834646)" /><rect x="555" y="774" width="10" height="10" style="fill: rgb(255,0,0); fill-opacity: 1.0" transform="matrix(-0.028346,0,0,0.028346,35.165354,2.834646)" /><rect x="555" y="774" width="10" height="10" style="fill: rgb(255,0,0); fill-opacity: 1.0" transform="matrix(-0.028346,0,0,0.028346,35.165354,2.834646)" /><rect x="555" y="774" width="10" height="10" style="fill: rgb(255,0,0); fill-opacity: 1.0" transform="matrix(-0.028346,0,0,0.028346,35.165354,2.834646)" /><rect x="555" y="774" width="10" height="10" style="fill: rgb(255,0,0); fill-opacity: 1.0" transform="matrix(-0.028346,0,0,0.028346,35.165354,2.834646)" /><rect x="555" y="774" width="10" height="10" style="fill: rgb(255,0,0); fill-opacity: 1.0" transform="matrix(-0.028346,0,0,0.028346,35.165354,2.834646)" /><rect x="555" y="774" width="10" height="10" style="fill: rgb(255,0,0); fill-opacity: 1.0" transform="matrix(-0.028346,0,0,0.028346,35.165354,2.834646)" /><rect x="555" y="774" width="10" height="10" style="fill: rgb(255,0,0); fill-opacity: 1.0" transform="matrix(-0.028346,0,0,0.028346,35.165354,2.834646)" /><rect x="555" y="774" width="10" height="10" style="fill: rgb(255,0,0); fill-opacity: 1.0" transform="matrix(-0.028346,0,0,0.028346,35.165354,2.834646)" /><rect x="555" y="774" width="10" height="10" style="fill: rgb(255,0,0); fill-opacity: 1.0" transform="matrix(-0.028346,0,0,0.028346,35.165354,2.834646)" /><rect x="555" y="774" width="10" height="10" style="fill: rgb(255,0,0); fill-opacity: 1.0" transform="matrix(-0.028346,0,0,0.028346,35.165354,2.834646)" /><rect x="555" y="774" width="10" height="10" style="fill: rgb(255,0,0); fill-opacity: 1.0" transform="matrix(-0.028346,0,0,0.028346,35.165354,2.834646)" /><rect x="555" y="554" width="10" height="230" style="fill: rgb(255,0,0); fill-opacity: 1.0" transform="matrix(-0.028346,0,0,0.028346,35.165354,2.834646)" /><rect x="555" y="554" width="10" height="10" style="fill: rgb(255,0,0); fill-opacity: 1.0" transform="matrix(-0.028346,0,0,0.028346,35.165354,2.834646)" /><rect x="555" y="554" width="10" height="10" style="fill: rgb(255,0,0); fill-opacity: 1.0" transform="matrix(-0.028346,0,0,0.028346,35.165354,2.834646)" /><rect x="555" y="554" width="10" height="10" style="fill: rgb(255,0,0); fill-opacity: 1.0" transform="matrix(-0.028346,0,0,0.028346,35.165354,2.834646)" /><rect x="555" y="554" width="10" height="10" style="fill: rgb(255,0,0); fill-opacity: 1.0" transform="matrix(-0.028346,0,0,0.028346,35.165354,2.834646)" /><rect x="555" y="554" width="10" height="10" style="fill: rgb(255,0,0); fill-opacity: 1.0" transform="matrix(-0.028346,0,0,0.028346,35.165354,2.834646)" /><rect x="555" y="554" width="10" height="10" style="fill: rgb(255,0,0); fill-opacity: 1.0" transform="matrix(-0.028346,0,0,0.028346,35.165354,2.834646)" /><rect x="555" y="554" width="10" height="10" style="fill: rgb(255,0,0); fill-opacity: 1.0" transform="matrix(-0.028346,0,0,0.028346,35.165354,2.834646)" /><rect x="555" y="554" width="10" height="10" style="fill: rgb(255,0,0); fill-opacity: 1.0" transform="matrix(-0.028346,0,0,0.028346,35.165354,2.834646)" /><rect x="555" y="554" width="10" height="10" style="fill: rgb(255,0,0); fill-opacity: 1.0" transform="matrix(-0.028346,0,0,0.028346,35.165354,2.834646)" /><rect x="555" y="554" width="10" height="10" style="fill: rgb(255,0,0); fill-opacity: 1.0" transform="matrix(-0.028346,0,0,0.028346,35.165354,2.834646)" /><rect x="555" y="554" width="10" height="10" style="fill: rgb(255,0,0); fill-opacity: 1.0" transform="matrix(-0.028346,0,0,0.028346,35.165354,2.834646)" /><rect x="555" y="554" width="10" height="10" style="fill: rgb(255,0,0); fill-opacity: 1.0" transform="matrix(-0.028346,0,0,0.028346,35.165354,2.834646)" /><rect x="555" y="554" width="10" height="10" style="fill: rgb(255,0,0); fill-opacity: 1.0" transform="matrix(-0.028346,0,0,0.028346,35.165354,2.834646)" /><rect x="555" y="554" width="10" height="10" style="fill: rgb(255,0,0); fill-opacity: 1.0" transform="matrix(-0.028346,0,0,0.028346,35.165354,2.834646)" /><rect x="555" y="554" width="10" height="10" style="fill: rgb(255,0,0); fill-opacity: 1.0" transform="matrix(-0.028346,0,0,0.028346,35.165354,2.834646)" /><rect x="555" y="554" width="10" height="10" style="fill: rgb(255,0,0); fill-opacity: 1.0" transform="matrix(-0.028346,0,0,0.028346,35.165354,2.834646)" /><rect x="555" y="554" width="10" height="10" style="fill: rgb(255,0,0); fill-opacity: 1.0" transform="matrix(-0.028346,0,0,0.028346,35.165354,2.834646)" /><rect x="555" y="554" width="10" height="10" style="fill: rgb(255,0,0); fill-opacity: 1.0" transform="matrix(-0.028346,0,0,0.028346,35.165354,2.834646)" /><rect x="555" y="554" width="10" height="10" style="fill: rgb(255,0,0); fill-opacity: 1.0" transform="matrix(-0.028346,0,0,0.028346,35.165354,2.834646)" /><rect x="555" y="554" width="10" height="10" style="fill: rgb(255,0,0); fill-opacity: 1.0" transform="matrix(-0.028346,0,0,0.028346,35.165354,2.834646)" /><rect x="555" y="554" width="10" height="10" style="fill: rgb(255,0,0); fill-opacity: 1.0" transform="matrix(-0.028346,0,0,0.028346,35.165354,2.834646)" /><rect x="555" y="554" width="10" height="10" style="fill: rgb(255,0,0); fill-opacity: 1.0" transform="matrix(-0.028346,0,0,0.028346,35.165354,2.834646)" /><rect x="555" y="554" width="10" height="10" style="fill: rgb(255,0,0); fill-opacity: 1.0" transform="matrix(-0.028346,0,0,0.028346,35.165354,2.834646)" /><rect x="555" y="554" width="10" height="10" style="fill: rgb(255,0,0); fill-opacity: 1.0" transform="matrix(-0.028346,0,0,0.028346,35.165354,2.834646)" /><rect x="555" y="554" width="10" height="10" style="fill: rgb(255,0,0); fill-opacity: 1.0" transform="matrix(-0.028346,0,0,0.028346,35.165354,2.834646)" /><rect x="555" y="554" width="10" height="10" style="fill: rgb(255,0,0); fill-opacity: 1.0" transform="matrix(-0.028346,0,0,0.028346,35.165354,2.834646)" /><rect x="555" y="554" width="10" height="10" style="fill: rgb(255,0,0); fill-opacity: 1.0" transform="matrix(-0.028346,0,0,0.028346,35.165354,2.834646)" /><rect x="555" y="554" width="10" height="10" style="fill: rgb(255,0,0); fill-opacity: 1.0" transform="matrix(-0.028346,0,0,0.028346,35.165354,2.834646)" /><rect x="555" y="554" width="10" height="10" style="fill: rgb(255,0,0); fill-opacity: 1.0" transform="matrix(-0.028346,0,0,0.028346,35.165354,2.834646)" /><rect x="555" y="554" width="10" height="10" style="fill: rgb(255,0,0); fill-opacity: 1.0" transform="matrix(-0.028346,0,0,0.028346,35.165354,2.834646)" /><rect x="555" y="554" width="10" height="10" style="fill: rgb(255,0,0); fill-opacity: 1.0" transform="matrix(-0.028346,0,0,0.028346,35.165354,2.834646)" /><rect x="555" y="554" width="10" height="10" style="fill: rgb(255,0,0); fill-opacity: 1.0" transform="matrix(-0.028346,0,0,0.028346,35.165354,2.834646)" /><rect x="555" y="554" width="10" height="10" style="fill: rgb(255,0,0); fill-opacity: 1.0" transform="matrix(-0.028346,0,0,0.028346,35.165354,2.834646)" /><rect x="555" y="554" width="10" height="10" style="fill: rgb(255,0,0); fill-opacity: 1.0" transform="matrix(-0.028346,0,0,0.028346,35.165354,2.834646)" /><rect x="555" y="554" width="10" height="10" style="fill: rgb(255,0,0); fill-opacity: 1.0" transform="matrix(-0.028346,0,0,0.028346,35.165354,2.834646)" /><rect x="555" y="554" width="10" height="10" style="fill: rgb(255,0,0); fill-opacity: 1.0" transform="matrix(-0.028346,0,0,0.028346,35.165354,2.834646)" /><rect x="555" y="554" width="10" height="10" style="fill: rgb(255,0,0); fill-opacity: 1.0" transform="matrix(-0.028346,0,0,0.028346,35.165354,2.834646)" /><rect x="555" y="554" width="10" height="10" style="fill: rgb(255,0,0); fill-opacity: 1.0" transform="matrix(-0.028346,0,0,0.028346,35.165354,2.834646)" /><rect x="555" y="554" width="10" height="10" style="fill: rgb(255,0,0); fill-opacity: 1.0" transform="matrix(-0.028346,0,0,0.028346,35.165354,2.834646)" /><rect x="555" y="554" width="10" height="10" style="fill: rgb(255,0,0); fill-opacity: 1.0" transform="matrix(-0.028346,0,0,0.028346,35.165354,2.834646)" /><rect x="555" y="554" width="10" height="10" style="fill: rgb(255,0,0); fill-opacity: 1.0" transform="matrix(-0.028346,0,0,0.028346,35.165354,2.834646)" /><rect x="555" y="554" width="10" height="10" style="fill: rgb(255,0,0); fill-opacity: 1.0" transform="matrix(-0.028346,0,0,0.028346,35.165354,2.834646)" /><rect x="555" y="554" width="10" height="10" style="fill: rgb(255,0,0); fill-opacity: 1.0" transform="matrix(-0.028346,0,0,0.028346,35.165354,2.834646)" /><rect x="555" y="554" width="10" height="10" style="fill: rgb(255,0,0); fill-opacity: 1.0" transform="matrix(-0.028346,0,0,0.028346,35.165354,2.834646)" /><rect x="555" y="554" width="10" height="10" style="fill: rgb(255,0,0); fill-opacity: 1.0" transform="matrix(-0.028346,0,0,0.028346,35.165354,2.834646)" /><rect x="555" y="554" width="10" height="10" style="fill: rgb(255,0,0); fill-opacity: 1.0" transform="matrix(-0.028346,0,0,0.028346,35.165354,2.834646)" /><rect x="555" y="554" width="10" height="10" style="fill: rgb(255,0,0); fill-opacity: 1.0" transform="matrix(-0.028346,0,0,0.028346,35.165354,2.834646)" /><rect x="555" y="554" width="10" height="10" style="fill: rgb(255,0,0); fill-opacity: 1.0" transform="matrix(-0.028346,0,0,0.028346,35.165354,2.834646)" /><rect x="555" y="554" width="10" height="10" style="fill: rgb(255,0,0); fill-opacity: 1.0" transform="matrix(-0.028346,0,0,0.028346,35.165354,2.834646)" /><rect x="555" y="554" width="10" height="10" style="fill: rgb(255,0,0); fill-opacity: 1.0" transform="matrix(-0.028346,0,0,0.028346,35.165354,2.834646)" /><rect x="555" y="554" width="10" height="10" style="fill: rgb(255,0,0); fill-opacity: 1.0" transform="matrix(-0.028346,0,0,0.028346,35.165354,2.834646)" /><rect x="555" y="554" width="10" height="10" style="fill: rgb(255,0,0); fill-opacity: 1.0" transform="matrix(-0.028346,0,0,0.028346,35.165354,2.834646)" /><rect x="555" y="554" width="10" height="10" style="fill: rgb(255,0,0); fill-opacity: 1.0" transform="matrix(-0.028346,0,0,0.028346,35.165354,2.834646)" /><rect x="555" y="554" width="10" height="10" style="fill: rgb(255,0,0); fill-opacity: 1.0" transform="matrix(-0.028346,0,0,0.028346,35.165354,2.834646)" /></svg>
