<?xml version="1.0"?>
<!DOCTYPE svg PUBLIC "-//W3C//DTD SVG 1.0//EN" "http://www.w3.org/TR/2001/REC-SVG-20010904/DTD/svg10.dtd">
<svg xmlns="http://www.w3.org/2000/svg" xmlns:xlink="http://www.w3.org/1999/xlink" xmlns:jfreesvg="http://www.jfree.org/jfreesvg/svg" width="124" height="99" text-rendering="auto" shape-rendering="auto">
<defs></defs>
<g style="fill: rgb(0,0,255); fill-opacity: 1.0; stroke: none" transform="matrix(0.056693,0,0,0.056693,2.834646,2.834646)" ><path d="M 554 211 C 554 266.78 508.78 312 453 312 C 397.22 312 352 266.78 352 211 C 352 155.22 397.22 110 453 110 C 508.78 110 554 155.22 554 211 Z "/></g><g style="fill: rgb(0,0,255); fill-opacity: 1.0; stroke: none" transform="matrix(0.056693,0,0,0.056693,2.834646,2.834646)" ><path d="M 312 586 C 312 641.78 266.78 687 211 687 C 155.22 687 110 641.78 110 586 C 110 530.22 155.22 485 211 485 C 266.78 485 312 530.22 312 586 Z "/></g><g style="fill: rgb(0,0,255); fill-opacity: 1.0; stroke: none" transform="matrix(0.056693,0,0,0.056693,2.834646,2.834646)" ><path d="M 554 828 C 554 883.78 508.78 929 453 929 C 397.22 929 352 883.78 352 828 C 352 772.22 397.22 727 453 727 C 508.78 727 554 772.22 554 828 Z "/></g><g style="fill: rgb(0,0,255); fill-opacity: 1.0; stroke: none" transform="matrix(0.056693,0,0,0.056693,2.834646,2.834646)" ><path d="M 1974 585 C 1974 640.78 1928.78 686 1873 686 C 1817.22 686 1772 640.78 1772 585 C 1772 529.22 1817.22 484 1873 484 C 1928.78 484 1974 529.22 1974 585 Z "/></g><rect x="677" y="193" width="37" height="37" style="fill: rgb(0,0,255); fill-opacity: 1.0" transform="matrix(0.056693,0,0,0.056693,2.834646,2.834646)" /><rect x="677" y="193" width="37" height="37" style="fill: rgb(0,0,255); fill-opacity: 1.0" transform="matrix(0.056693,0,0,0.056693,2.834646,2.834646)" /><rect x="677" y="193" width="37" height="37" style="fill: rgb(0,0,255); fill-opacity: 1.0" transform="matrix(0.056693,0,0,0.056693,2.834646,2.834646)" /><rect x="677" y="193" width="37" height="37" style="fill: rgb(0,0,255); fill-opacity: 1.0" transform="matrix(0.056693,0,0,0.056693,2.834646,2.834646)" /><rect x="677" y="193" width="263" height="37" style="fill: rgb(0,0,255); fill-opacity: 1.0" transform="matrix(0.056693,0,0,0.056693,2.834646,2.834646)" /><rect x="903" y="193" width="37" height="37" style="fill: rgb(0,0,255); fill-opacity: 1.0" transform="matrix(0.056693,0,0,0.056693,2.834646,2.834646)" /><rect x="903" y="193" width="37" height="37" style="fill: rgb(0,0,255); fill-opacity: 1.0" transform="matrix(0.056693,0,0,0.056693,2.834646,2.834646)" /><rect x="903" y="193" width="37" height="37" style="fill: rgb(0,0,255); fill-opacity: 1.0" transform="matrix(0.056693,0,0,0.056693,2.834646,2.834646)" /><rect x="903" y="193" width="37" height="37" style="fill: rgb(0,0,255); fill-opacity: 1.0" transform="matrix(0.056693,0,0,0.056693,2.834646,2.834646)" /><rect x="677" y="568" width="37" height="37" style="fill: rgb(0,0,255); fill-opacity: 1.0" transform="matrix(0.056693,0,0,0.056693,2.834646,2.834646)" /><rect x="677" y="568" width="37" height="37" style="fill: rgb(0,0,255); fill-opacity: 1.0" transform="matrix(0.056693,0,0,0.056693,2.834646,2.834646)" /><rect x="677" y="568" width="37" height="37" style="fill: rgb(0,0,255); fill-opacity: 1.0" transform="matrix(0.056693,0,0,0.056693,2.834646,2.834646)" /><rect x="677" y="568" width="37" height="37" style="fill: rgb(0,0,255); fill-opacity: 1.0" transform="matrix(0.056693,0,0,0.056693,2.834646,2.834646)" /><rect x="677" y="568" width="263" height="37" style="fill: rgb(0,0,255); fill-opacity: 1.0" transform="matrix(0.056693,0,0,0.056693,2.834646,2.834646)" /><rect x="903" y="568" width="37" height="37" style="fill: rgb(0,0,255); fill-opacity: 1.0" transform="matrix(0.056693,0,0,0.056693,2.834646,2.834646)" /><rect x="903" y="568" width="37" height="37" style="fill: rgb(0,0,255); fill-opacity: 1.0" transform="matrix(0.056693,0,0,0.056693,2.834646,2.834646)" /><rect x="903" y="568" width="37" height="37" style="fill: rgb(0,0,255); fill-opacity: 1.0" transform="matrix(0.056693,0,0,0.056693,2.834646,2.834646)" /><rect x="903" y="568" width="37" height="37" style="fill: rgb(0,0,255); fill-opacity: 1.0" transform="matrix(0.056693,0,0,0.056693,2.834646,2.834646)" /><rect x="903" y="193" width="37" height="37" style="fill: rgb(0,0,255); fill-opacity: 1.0" transform="matrix(0.056693,0,0,0.056693,2.834646,2.834646)" /><rect x="903" y="193" width="37" height="37" style="fill: rgb(0,0,255); fill-opacity: 1.0" transform="matrix(0.056693,0,0,0.056693,2.834646,2.834646)" /><rect x="903" y="193" width="37" height="37" style="fill: rgb(0,0,255); fill-opacity: 1.0" transform="matrix(0.056693,0,0,0.056693,2.834646,2.834646)" /><rect x="903" y="193" width="37" height="37" style="fill: rgb(0,0,255); fill-opacity: 1.0" transform="matrix(0.056693,0,0,0.056693,2.834646,2.834646)" /><rect x="903" y="193" width="37" height="224" style="fill: rgb(0,0,255); fill-opacity: 1.0" transform="matrix(0.056693,0,0,0.056693,2.834646,2.834646)" /><rect x="903" y="380" width="37" height="37" style="fill: rgb(0,0,255); fill-opacity: 1.0" transform="matrix(0.056693,0,0,0.056693,2.834646,2.834646)" /><rect x="903" y="380" width="37" height="37" style="fill: rgb(0,0,255); fill-opacity: 1.0" transform="matrix(0.056693,0,0,0.056693,2.834646,2.834646)" /><rect x="903" y="380" width="37" height="37" style="fill: rgb(0,0,255); fill-opacity: 1.0" transform="matrix(0.056693,0,0,0.056693,2.834646,2.834646)" /><rect x="903" y="380" width="37" height="37" style="fill: rgb(0,0,255); fill-opacity: 1.0" transform="matrix(0.056693,0,0,0.056693,2.834646,2.834646)" /><rect x="903" y="568" width="37" height="37" style="fill: rgb(0,0,255); fill-opacity: 1.0" transform="matrix(0.056693,0,0,0.056693,2.834646,2.834646)" /><rect x="903" y="568" width="37" height="37" style="fill: rgb(0,0,255); fill-opacity: 1.0" transform="matrix(0.056693,0,0,0.056693,2.834646,2.834646)" /><rect x="903" y="568" width="37" height="37" style="fill: rgb(0,0,255); fill-opacity: 1.0" transform="matrix(0.056693,0,0,0.056693,2.834646,2.834646)" /><rect x="903" y="568" width="37" height="37" style="fill: rgb(0,0,255); fill-opacity: 1.0" transform="matrix(0.056693,0,0,0.056693,2.834646,2.834646)" /><rect x="903" y="380" width="37" height="225" style="fill: rgb(0,0,255); fill-opacity: 1.0" transform="matrix(0.056693,0,0,0.056693,2.834646,2.834646)" /><rect x="903" y="380" width="37" height="37" style="fill: rgb(0,0,255); fill-opacity: 1.0" transform="matrix(0.056693,0,0,0.056693,2.834646,2.834646)" /><rect x="903" y="380" width="37" height="37" style="fill: rgb(0,0,255); fill-opacity: 1.0" transform="matrix(0.056693,0,0,0.056693,2.834646,2.834646)" /><rect x="903" y="380" width="37" height="37" style="fill: rgb(0,0,255); fill-opacity: 1.0" transform="matrix(0.056693,0,0,0.056693,2.834646,2.834646)" /><rect x="903" y="380" width="37" height="37" style="fill: rgb(0,0,255); fill-opacity: 1.0" transform="matrix(0.056693,0,0,0.056693,2.834646,2.834646)" /><rect x="677" y="193" width="37" height="37" style="fill: rgb(0,0,255); fill-opacity: 1.0" transform="matrix(0.056693,0,0,0.056693,2.834646,2.834646)" /><rect x="677" y="193" width="37" height="37" style="fill: rgb(0,0,255); fill-opacity: 1.0" transform="matrix(0.056693,0,0,0.056693,2.834646,2.834646)" /><rect x="677" y="193" width="37" height="37" style="fill: rgb(0,0,255); fill-opacity: 1.0" transform="matrix(0.056693,0,0,0.056693,2.834646,2.834646)" /><rect x="677" y="193" width="37" height="37" style="fill: rgb(0,0,255); fill-opacity: 1.0" transform="matrix(0.056693,0,0,0.056693,2.834646,2.834646)" /><rect x="653" y="193" width="61" height="37" style="fill: rgb(0,0,255); fill-opacity: 1.0" transform="matrix(0.056693,0,0,0.056693,2.834646,2.834646)" /><rect x="653" y="193" width="37" height="37" style="fill: rgb(0,0,255); fill-opacity: 1.0" transform="matrix(0.056693,0,0,0.056693,2.834646,2.834646)" /><rect x="653" y="193" width="37" height="37" style="fill: rgb(0,0,255); fill-opacity: 1.0" transform="matrix(0.056693,0,0,0.056693,2.834646,2.834646)" /><rect x="653" y="193" width="37" height="37" style="fill: rgb(0,0,255); fill-opacity: 1.0" transform="matrix(0.056693,0,0,0.056693,2.834646,2.834646)" /><rect x="653" y="193" width="37" height="37" style="fill: rgb(0,0,255); fill-opacity: 1.0" transform="matrix(0.056693,0,0,0.056693,2.834646,2.834646)" /><rect x="677" y="568" width="37" height="37" style="fill: rgb(0,0,255); fill-opacity: 1.0" transform="matrix(0.056693,0,0,0.056693,2.834646,2.834646)" /><rect x="677" y="568" width="37" height="37" style="fill: rgb(0,0,255); fill-opacity: 1.0" transform="matrix(0.056693,0,0,0.056693,2.834646,2.834646)" /><rect x="677" y="568" width="37" height="37" style="fill: rgb(0,0,255); fill-opacity: 1.0" transform="matrix(0.056693,0,0,0.056693,2.834646,2.834646)" /><rect x="677" y="568" width="37" height="37" style="fill: rgb(0,0,255); fill-opacity: 1.0" transform="matrix(0.056693,0,0,0.056693,2.834646,2.834646)" /><rect x="653" y="568" width="61" height="37" style="fill: rgb(0,0,255); fill-opacity: 1.0" transform="matrix(0.056693,0,0,0.056693,2.834646,2.834646)" /><rect x="653" y="568" width="37" height="37" style="fill: rgb(0,0,255); fill-opacity: 1.0" transform="matrix(0.056693,0,0,0.056693,2.834646,2.834646)" /><rect x="653" y="568" width="37" height="37" style="fill: rgb(0,0,255); fill-opacity: 1.0" transform="matrix(0.056693,0,0,0.056693,2.834646,2.834646)" /><rect x="653" y="568" width="37" height="37" style="fill: rgb(0,0,255); fill-opacity: 1.0" transform="matrix(0.056693,0,0,0.056693,2.834646,2.834646)" /><rect x="653" y="568" width="37" height="37" style="fill: rgb(0,0,255); fill-opacity: 1.0" transform="matrix(0.056693,0,0,0.056693,2.834646,2.834646)" /><rect x="903" y="380" width="37" height="37" style="fill: rgb(0,0,255); fill-opacity: 1.0" transform="matrix(0.056693,0,0,0.056693,2.834646,2.834646)" /><rect x="903" y="380" width="37" height="37" style="fill: rgb(0,0,255); fill-opacity: 1.0" transform="matrix(0.056693,0,0,0.056693,2.834646,2.834646)" /><rect x="903" y="380" width="37" height="37" style="fill: rgb(0,0,255); fill-opacity: 1.0" transform="matrix(0.056693,0,0,0.056693,2.834646,2.834646)" /><rect x="903" y="380" width="37" height="37" style="fill: rgb(0,0,255); fill-opacity: 1.0" transform="matrix(0.056693,0,0,0.056693,2.834646,2.834646)" /><rect x="903" y="380" width="61" height="37" style="fill: rgb(0,0,255); fill-opacity: 1.0" transform="matrix(0.056693,0,0,0.056693,2.834646,2.834646)" /><rect x="927" y="380" width="37" height="37" style="fill: rgb(0,0,255); fill-opacity: 1.0" transform="matrix(0.056693,0,0,0.056693,2.834646,2.834646)" /><rect x="927" y="380" width="37" height="37" style="fill: rgb(0,0,255); fill-opacity: 1.0" transform="matrix(0.056693,0,0,0.056693,2.834646,2.834646)" /><rect x="927" y="380" width="37" height="37" style="fill: rgb(0,0,255); fill-opacity: 1.0" transform="matrix(0.056693,0,0,0.056693,2.834646,2.834646)" /><rect x="927" y="380" width="37" height="37" style="fill: rgb(0,0,255); fill-opacity: 1.0" transform="matrix(0.056693,0,0,0.056693,2.834646,2.834646)" /><rect x="1065" y="380" width="37" height="37" style="fill: rgb(0,0,255); fill-opacity: 1.0" transform="matrix(0.056693,0,0,0.056693,2.834646,2.834646)" /><rect x="1065" y="380" width="37" height="37" style="fill: rgb(0,0,255); fill-opacity: 1.0" transform="matrix(0.056693,0,0,0.056693,2.834646,2.834646)" /><rect x="1065" y="380" width="37" height="37" style="fill: rgb(0,0,255); fill-opacity: 1.0" transform="matrix(0.056693,0,0,0.056693,2.834646,2.834646)" /><rect x="1065" y="380" width="37" height="37" style="fill: rgb(0,0,255); fill-opacity: 1.0" transform="matrix(0.056693,0,0,0.056693,2.834646,2.834646)" /><rect x="1065" y="380" width="263" height="37" style="fill: rgb(0,0,255); fill-opacity: 1.0" transform="matrix(0.056693,0,0,0.056693,2.834646,2.834646)" /><rect x="1291" y="380" width="37" height="37" style="fill: rgb(0,0,255); fill-opacity: 1.0" transform="matrix(0.056693,0,0,0.056693,2.834646,2.834646)" /><rect x="1291" y="380" width="37" height="37" style="fill: rgb(0,0,255); fill-opacity: 1.0" transform="matrix(0.056693,0,0,0.056693,2.834646,2.834646)" /><rect x="1291" y="380" width="37" height="37" style="fill: rgb(0,0,255); fill-opacity: 1.0" transform="matrix(0.056693,0,0,0.056693,2.834646,2.834646)" /><rect x="1291" y="380" width="37" height="37" style="fill: rgb(0,0,255); fill-opacity: 1.0" transform="matrix(0.056693,0,0,0.056693,2.834646,2.834646)" /><rect x="1065" y="755" width="37" height="37" style="fill: rgb(0,0,255); fill-opacity: 1.0" transform="matrix(0.056693,0,0,0.056693,2.834646,2.834646)" /><rect x="1065" y="755" width="37" height="37" style="fill: rgb(0,0,255); fill-opacity: 1.0" transform="matrix(0.056693,0,0,0.056693,2.834646,2.834646)" /><rect x="1065" y="755" width="37" height="37" style="fill: rgb(0,0,255); fill-opacity: 1.0" transform="matrix(0.056693,0,0,0.056693,2.834646,2.834646)" /><rect x="1065" y="755" width="37" height="37" style="fill: rgb(0,0,255); fill-opacity: 1.0" transform="matrix(0.056693,0,0,0.056693,2.834646,2.834646)" /><rect x="1065" y="755" width="263" height="37" style="fill: rgb(0,0,255); fill-opacity: 1.0" transform="matrix(0.056693,0,0,0.056693,2.834646,2.834646)" /><rect x="1291" y="755" width="37" height="37" style="fill: rgb(0,0,255); fill-opacity: 1.0" transform="matrix(0.056693,0,0,0.056693,2.834646,2.834646)" /><rect x="1291" y="755" width="37" height="37" style="fill: rgb(0,0,255); fill-opacity: 1.0" transform="matrix(0.056693,0,0,0.056693,2.834646,2.834646)" /><rect x="1291" y="755" width="37" height="37" style="fill: rgb(0,0,255); fill-opacity: 1.0" transform="matrix(0.056693,0,0,0.056693,2.834646,2.834646)" /><rect x="1291" y="755" width="37" height="37" style="fill: rgb(0,0,255); fill-opacity: 1.0" transform="matrix(0.056693,0,0,0.056693,2.834646,2.834646)" /><rect x="1291" y="380" width="37" height="37" style="fill: rgb(0,0,255); fill-opacity: 1.0" transform="matrix(0.056693,0,0,0.056693,2.834646,2.834646)" /><rect x="1291" y="380" width="37" height="37" style="fill: rgb(0,0,255); fill-opacity: 1.0" transform="matrix(0.056693,0,0,0.056693,2.834646,2.834646)" /><rect x="1291" y="380" width="37" height="37" style="fill: rgb(0,0,255); fill-opacity: 1.0" transform="matrix(0.056693,0,0,0.056693,2.834646,2.834646)" /><rect x="1291" y="380" width="37" height="37" style="fill: rgb(0,0,255); fill-opacity: 1.0" transform="matrix(0.056693,0,0,0.056693,2.834646,2.834646)" /><rect x="1291" y="380" width="37" height="224" style="fill: rgb(0,0,255); fill-opacity: 1.0" transform="matrix(0.056693,0,0,0.056693,2.834646,2.834646)" /><rect x="1291" y="567" width="37" height="37" style="fill: rgb(0,0,255); fill-opacity: 1.0" transform="matrix(0.056693,0,0,0.056693,2.834646,2.834646)" /><rect x="1291" y="567" width="37" height="37" style="fill: rgb(0,0,255); fill-opacity: 1.0" transform="matrix(0.056693,0,0,0.056693,2.834646,2.834646)" /><rect x="1291" y="567" width="37" height="37" style="fill: rgb(0,0,255); fill-opacity: 1.0" transform="matrix(0.056693,0,0,0.056693,2.834646,2.834646)" /><rect x="1291" y="567" width="37" height="37" style="fill: rgb(0,0,255); fill-opacity: 1.0" transform="matrix(0.056693,0,0,0.056693,2.834646,2.834646)" /><rect x="1291" y="755" width="37" height="37" style="fill: rgb(0,0,255); fill-opacity: 1.0" transform="matrix(0.056693,0,0,0.056693,2.834646,2.834646)" /><rect x="1291" y="755" width="37" height="37" style="fill: rgb(0,0,255); fill-opacity: 1.0" transform="matrix(0.056693,0,0,0.056693,2.834646,2.834646)" /><rect x="1291" y="755" width="37" height="37" style="fill: rgb(0,0,255); fill-opacity: 1.0" transform="matrix(0.056693,0,0,0.056693,2.834646,2.834646)" /><rect x="1291" y="755" width="37" height="37" style="fill: rgb(0,0,255); fill-opacity: 1.0" transform="matrix(0.056693,0,0,0.056693,2.834646,2.834646)" /><rect x="1291" y="567" width="37" height="225" style="fill: rgb(0,0,255); fill-opacity: 1.0" transform="matrix(0.056693,0,0,0.056693,2.834646,2.834646)" /><rect x="1291" y="567" width="37" height="37" style="fill: rgb(0,0,255); fill-opacity: 1.0" transform="matrix(0.056693,0,0,0.056693,2.834646,2.834646)" /><rect x="1291" y="567" width="37" height="37" style="fill: rgb(0,0,255); fill-opacity: 1.0" transform="matrix(0.056693,0,0,0.056693,2.834646,2.834646)" /><rect x="1291" y="567" width="37" height="37" style="fill: rgb(0,0,255); fill-opacity: 1.0" transform="matrix(0.056693,0,0,0.056693,2.834646,2.834646)" /><rect x="1291" y="567" width="37" height="37" style="fill: rgb(0,0,255); fill-opacity: 1.0" transform="matrix(0.056693,0,0,0.056693,2.834646,2.834646)" /><rect x="1065" y="380" width="37" height="37" style="fill: rgb(0,0,255); fill-opacity: 1.0" transform="matrix(0.056693,0,0,0.056693,2.834646,2.834646)" /><rect x="1065" y="380" width="37" height="37" style="fill: rgb(0,0,255); fill-opacity: 1.0" transform="matrix(0.056693,0,0,0.056693,2.834646,2.834646)" /><rect x="1065" y="380" width="37" height="37" style="fill: rgb(0,0,255); fill-opacity: 1.0" transform="matrix(0.056693,0,0,0.056693,2.834646,2.834646)" /><rect x="1065" y="380" width="37" height="37" style="fill: rgb(0,0,255); fill-opacity: 1.0" transform="matrix(0.056693,0,0,0.056693,2.834646,2.834646)" /><rect x="1041" y="380" width="61" height="37" style="fill: rgb(0,0,255); fill-opacity: 1.0" transform="matrix(0.056693,0,0,0.056693,2.834646,2.834646)" /><rect x="1041" y="380" width="37" height="37" style="fill: rgb(0,0,255); fill-opacity: 1.0" transform="matrix(0.056693,0,0,0.056693,2.834646,2.834646)" /><rect x="1041" y="380" width="37" height="37" style="fill: rgb(0,0,255); fill-opacity: 1.0" transform="matrix(0.056693,0,0,0.056693,2.834646,2.834646)" /><rect x="1041" y="380" width="37" height="37" style="fill: rgb(0,0,255); fill-opacity: 1.0" transform="matrix(0.056693,0,0,0.056693,2.834646,2.834646)" /><rect x="1041" y="380" width="37" height="37" style="fill: rgb(0,0,255); fill-opacity: 1.0" transform="matrix(0.056693,0,0,0.056693,2.834646,2.834646)" /><rect x="1065" y="755" width="37" height="37" style="fill: rgb(0,0,255); fill-opacity: 1.0" transform="matrix(0.056693,0,0,0.056693,2.834646,2.834646)" /><rect x="1065" y="755" width="37" height="37" style="fill: rgb(0,0,255); fill-opacity: 1.0" transform="matrix(0.056693,0,0,0.056693,2.834646,2.834646)" /><rect x="1065" y="755" width="37" height="37" style="fill: rgb(0,0,255); fill-opacity: 1.0" transform="matrix(0.056693,0,0,0.056693,2.834646,2.834646)" /><rect x="1065" y="755" width="37" height="37" style="fill: rgb(0,0,255); fill-opacity: 1.0" transform="matrix(0.056693,0,0,0.056693,2.834646,2.834646)" /><rect x="1041" y="755" width="61" height="37" style="fill: rgb(0,0,255); fill-opacity: 1.0" transform="matrix(0.056693,0,0,0.056693,2.834646,2.834646)" /><rect x="1041" y="755" width="37" height="37" style="fill: rgb(0,0,255); fill-opacity: 1.0" transform="matrix(0.056693,0,0,0.056693,2.834646,2.834646)" /><rect x="1041" y="755" width="37" height="37" style="fill: rgb(0,0,255); fill-opacity: 1.0" transform="matrix(0.056693,0,0,0.056693,2.834646,2.834646)" /><rect x="1041" y="755" width="37" height="37" style="fill: rgb(0,0,255); fill-opacity: 1.0" transform="matrix(0.056693,0,0,0.056693,2.834646,2.834646)" /><rect x="1041" y="755" width="37" height="37" style="fill: rgb(0,0,255); fill-opacity: 1.0" transform="matrix(0.056693,0,0,0.056693,2.834646,2.834646)" /><rect x="1291" y="567" width="37" height="37" style="fill: rgb(0,0,255); fill-opacity: 1.0" transform="matrix(0.056693,0,0,0.056693,2.834646,2.834646)" /><rect x="1291" y="567" width="37" height="37" style="fill: rgb(0,0,255); fill-opacity: 1.0" transform="matrix(0.056693,0,0,0.056693,2.834646,2.834646)" /><rect x="1291" y="567" width="37" height="37" style="fill: rgb(0,0,255); fill-opacity: 1.0" transform="matrix(0.056693,0,0,0.056693,2.834646,2.834646)" /><rect x="1291" y="567" width="37" height="37" style="fill: rgb(0,0,255); fill-opacity: 1.0" transform="matrix(0.056693,0,0,0.056693,2.834646,2.834646)" /><rect x="1291" y="567" width="61" height="37" style="fill: rgb(0,0,255); fill-opacity: 1.0" transform="matrix(0.056693,0,0,0.056693,2.834646,2.834646)" /><rect x="1315" y="567" width="37" height="37" style="fill: rgb(0,0,255); fill-opacity: 1.0" transform="matrix(0.056693,0,0,0.056693,2.834646,2.834646)" /><rect x="1315" y="567" width="37" height="37" style="fill: rgb(0,0,255); fill-opacity: 1.0" transform="matrix(0.056693,0,0,0.056693,2.834646,2.834646)" /><rect x="1315" y="567" width="37" height="37" style="fill: rgb(0,0,255); fill-opacity: 1.0" transform="matrix(0.056693,0,0,0.056693,2.834646,2.834646)" /><rect x="1315" y="567" width="37" height="37" style="fill: rgb(0,0,255); fill-opacity: 1.0" transform="matrix(0.056693,0,0,0.056693,2.834646,2.834646)" /><g style="fill: rgb(0,0,255); fill-opacity: 1.0; stroke: none" transform="matrix(0.056693,0,0,0.056693,2.834646,2.834646)" ><path d="M 945 821 C 945 872.36 903.36 914 852 914 C 800.64 914 759 872.36 759 821 C 759 769.64 800.64 728 852 728 C 903.36 728 945 769.64 945 821 Z "/></g><rect x="837" y="728" width="30" height="186" style="fill: rgb(255,255,255); fill-opacity: 1.0" transform="matrix(0.056693,0,0,0.056693,2.834646,2.834646)" /><rect x="536" y="193" width="37" height="37" style="fill: rgb(0,0,255); fill-opacity: 1.0" transform="matrix(0.056693,0,0,0.056693,2.834646,2.834646)" /><rect x="536" y="193" width="37" height="37" style="fill: rgb(0,0,255); fill-opacity: 1.0" transform="matrix(0.056693,0,0,0.056693,2.834646,2.834646)" /><rect x="536" y="193" width="37" height="37" style="fill: rgb(0,0,255); fill-opacity: 1.0" transform="matrix(0.056693,0,0,0.056693,2.834646,2.834646)" /><rect x="536" y="193" width="37" height="37" style="fill: rgb(0,0,255); fill-opacity: 1.0" transform="matrix(0.056693,0,0,0.056693,2.834646,2.834646)" /><rect x="536" y="193" width="37" height="37" style="fill: rgb(0,0,255); fill-opacity: 1.0" transform="matrix(0.056693,0,0,0.056693,2.834646,2.834646)" /><rect x="536" y="193" width="37" height="37" style="fill: rgb(0,0,255); fill-opacity: 1.0" transform="matrix(0.056693,0,0,0.056693,2.834646,2.834646)" /><rect x="536" y="193" width="154" height="37" style="fill: rgb(0,0,255); fill-opacity: 1.0" transform="matrix(0.056693,0,0,0.056693,2.834646,2.834646)" /><rect x="653" y="193" width="37" height="37" style="fill: rgb(0,0,255); fill-opacity: 1.0" transform="matrix(0.056693,0,0,0.056693,2.834646,2.834646)" /><rect x="653" y="193" width="37" height="37" style="fill: rgb(0,0,255); fill-opacity: 1.0" transform="matrix(0.056693,0,0,0.056693,2.834646,2.834646)" /><rect x="653" y="193" width="37" height="37" style="fill: rgb(0,0,255); fill-opacity: 1.0" transform="matrix(0.056693,0,0,0.056693,2.834646,2.834646)" /><rect x="653" y="193" width="37" height="37" style="fill: rgb(0,0,255); fill-opacity: 1.0" transform="matrix(0.056693,0,0,0.056693,2.834646,2.834646)" /><rect x="653" y="193" width="37" height="37" style="fill: rgb(0,0,255); fill-opacity: 1.0" transform="matrix(0.056693,0,0,0.056693,2.834646,2.834646)" /><rect x="653" y="193" width="37" height="37" style="fill: rgb(0,0,255); fill-opacity: 1.0" transform="matrix(0.056693,0,0,0.056693,2.834646,2.834646)" /><rect x="294" y="568" width="37" height="37" style="fill: rgb(0,0,255); fill-opacity: 1.0" transform="matrix(0.056693,0,0,0.056693,2.834646,2.834646)" /><rect x="294" y="568" width="37" height="37" style="fill: rgb(0,0,255); fill-opacity: 1.0" transform="matrix(0.056693,0,0,0.056693,2.834646,2.834646)" /><rect x="294" y="568" width="37" height="37" style="fill: rgb(0,0,255); fill-opacity: 1.0" transform="matrix(0.056693,0,0,0.056693,2.834646,2.834646)" /><rect x="294" y="568" width="37" height="37" style="fill: rgb(0,0,255); fill-opacity: 1.0" transform="matrix(0.056693,0,0,0.056693,2.834646,2.834646)" /><rect x="294" y="568" width="37" height="37" style="fill: rgb(0,0,255); fill-opacity: 1.0" transform="matrix(0.056693,0,0,0.056693,2.834646,2.834646)" /><rect x="294" y="568" width="37" height="37" style="fill: rgb(0,0,255); fill-opacity: 1.0" transform="matrix(0.056693,0,0,0.056693,2.834646,2.834646)" /><rect x="294" y="568" width="396" height="37" style="fill: rgb(0,0,255); fill-opacity: 1.0" transform="matrix(0.056693,0,0,0.056693,2.834646,2.834646)" /><rect x="653" y="568" width="37" height="37" style="fill: rgb(0,0,255); fill-opacity: 1.0" transform="matrix(0.056693,0,0,0.056693,2.834646,2.834646)" /><rect x="653" y="568" width="37" height="37" style="fill: rgb(0,0,255); fill-opacity: 1.0" transform="matrix(0.056693,0,0,0.056693,2.834646,2.834646)" /><rect x="653" y="568" width="37" height="37" style="fill: rgb(0,0,255); fill-opacity: 1.0" transform="matrix(0.056693,0,0,0.056693,2.834646,2.834646)" /><rect x="653" y="568" width="37" height="37" style="fill: rgb(0,0,255); fill-opacity: 1.0" transform="matrix(0.056693,0,0,0.056693,2.834646,2.834646)" /><rect x="653" y="568" width="37" height="37" style="fill: rgb(0,0,255); fill-opacity: 1.0" transform="matrix(0.056693,0,0,0.056693,2.834646,2.834646)" /><rect x="653" y="568" width="37" height="37" style="fill: rgb(0,0,255); fill-opacity: 1.0" transform="matrix(0.056693,0,0,0.056693,2.834646,2.834646)" /><rect x="1315" y="567" width="37" height="37" style="fill: rgb(0,0,255); fill-opacity: 1.0" transform="matrix(0.056693,0,0,0.056693,2.834646,2.834646)" /><rect x="1315" y="567" width="37" height="37" style="fill: rgb(0,0,255); fill-opacity: 1.0" transform="matrix(0.056693,0,0,0.056693,2.834646,2.834646)" /><rect x="1315" y="567" width="37" height="37" style="fill: rgb(0,0,255); fill-opacity: 1.0" transform="matrix(0.056693,0,0,0.056693,2.834646,2.834646)" /><rect x="1315" y="567" width="37" height="37" style="fill: rgb(0,0,255); fill-opacity: 1.0" transform="matrix(0.056693,0,0,0.056693,2.834646,2.834646)" /><rect x="1315" y="567" width="37" height="37" style="fill: rgb(0,0,255); fill-opacity: 1.0" transform="matrix(0.056693,0,0,0.056693,2.834646,2.834646)" /><rect x="1315" y="567" width="37" height="37" style="fill: rgb(0,0,255); fill-opacity: 1.0" transform="matrix(0.056693,0,0,0.056693,2.834646,2.834646)" /><rect x="1315" y="567" width="476" height="37" style="fill: rgb(0,0,255); fill-opacity: 1.0" transform="matrix(0.056693,0,0,0.056693,2.834646,2.834646)" /><rect x="1754" y="567" width="37" height="37" style="fill: rgb(0,0,255); fill-opacity: 1.0" transform="matrix(0.056693,0,0,0.056693,2.834646,2.834646)" /><rect x="1754" y="567" width="37" height="37" style="fill: rgb(0,0,255); fill-opacity: 1.0" transform="matrix(0.056693,0,0,0.056693,2.834646,2.834646)" /><rect x="1754" y="567" width="37" height="37" style="fill: rgb(0,0,255); fill-opacity: 1.0" transform="matrix(0.056693,0,0,0.056693,2.834646,2.834646)" /><rect x="1754" y="567" width="37" height="37" style="fill: rgb(0,0,255); fill-opacity: 1.0" transform="matrix(0.056693,0,0,0.056693,2.834646,2.834646)" /><rect x="1754" y="567" width="37" height="37" style="fill: rgb(0,0,255); fill-opacity: 1.0" transform="matrix(0.056693,0,0,0.056693,2.834646,2.834646)" /><rect x="1754" y="567" width="37" height="37" style="fill: rgb(0,0,255); fill-opacity: 1.0" transform="matrix(0.056693,0,0,0.056693,2.834646,2.834646)" /><rect x="927" y="380" width="37" height="37" style="fill: rgb(0,0,255); fill-opacity: 1.0" transform="matrix(0.056693,0,0,0.056693,2.834646,2.834646)" /><rect x="927" y="380" width="37" height="37" style="fill: rgb(0,0,255); fill-opacity: 1.0" transform="matrix(0.056693,0,0,0.056693,2.834646,2.834646)" /><rect x="927" y="380" width="37" height="37" style="fill: rgb(0,0,255); fill-opacity: 1.0" transform="matrix(0.056693,0,0,0.056693,2.834646,2.834646)" /><rect x="927" y="380" width="37" height="37" style="fill: rgb(0,0,255); fill-opacity: 1.0" transform="matrix(0.056693,0,0,0.056693,2.834646,2.834646)" /><rect x="927" y="380" width="37" height="37" style="fill: rgb(0,0,255); fill-opacity: 1.0" transform="matrix(0.056693,0,0,0.056693,2.834646,2.834646)" /><rect x="927" y="380" width="37" height="37" style="fill: rgb(0,0,255); fill-opacity: 1.0" transform="matrix(0.056693,0,0,0.056693,2.834646,2.834646)" /><rect x="927" y="380" width="151" height="37" style="fill: rgb(0,0,255); fill-opacity: 1.0" transform="matrix(0.056693,0,0,0.056693,2.834646,2.834646)" /><rect x="1041" y="380" width="37" height="37" style="fill: rgb(0,0,255); fill-opacity: 1.0" transform="matrix(0.056693,0,0,0.056693,2.834646,2.834646)" /><rect x="1041" y="380" width="37" height="37" style="fill: rgb(0,0,255); fill-opacity: 1.0" transform="matrix(0.056693,0,0,0.056693,2.834646,2.834646)" /><rect x="1041" y="380" width="37" height="37" style="fill: rgb(0,0,255); fill-opacity: 1.0" transform="matrix(0.056693,0,0,0.056693,2.834646,2.834646)" /><rect x="1041" y="380" width="37" height="37" style="fill: rgb(0,0,255); fill-opacity: 1.0" transform="matrix(0.056693,0,0,0.056693,2.834646,2.834646)" /><rect x="1041" y="380" width="37" height="37" style="fill: rgb(0,0,255); fill-opacity: 1.0" transform="matrix(0.056693,0,0,0.056693,2.834646,2.834646)" /><rect x="1041" y="380" width="37" height="37" style="fill: rgb(0,0,255); fill-opacity: 1.0" transform="matrix(0.056693,0,0,0.056693,2.834646,2.834646)" /><rect x="536" y="810" width="37" height="37" style="fill: rgb(0,0,255); fill-opacity: 1.0" transform="matrix(0.056693,0,0,0.056693,2.834646,2.834646)" /><rect x="536" y="810" width="37" height="37" style="fill: rgb(0,0,255); fill-opacity: 1.0" transform="matrix(0.056693,0,0,0.056693,2.834646,2.834646)" /><rect x="536" y="810" width="37" height="37" style="fill: rgb(0,0,255); fill-opacity: 1.0" transform="matrix(0.056693,0,0,0.056693,2.834646,2.834646)" /><rect x="536" y="810" width="37" height="37" style="fill: rgb(0,0,255); fill-opacity: 1.0" transform="matrix(0.056693,0,0,0.056693,2.834646,2.834646)" /><rect x="536" y="810" width="204" height="37" style="fill: rgb(0,0,255); fill-opacity: 1.0" transform="matrix(0.056693,0,0,0.056693,2.834646,2.834646)" /><rect x="703" y="810" width="37" height="37" style="fill: rgb(0,0,255); fill-opacity: 1.0" transform="matrix(0.056693,0,0,0.056693,2.834646,2.834646)" /><rect x="703" y="810" width="37" height="37" style="fill: rgb(0,0,255); fill-opacity: 1.0" transform="matrix(0.056693,0,0,0.056693,2.834646,2.834646)" /><rect x="703" y="810" width="37" height="37" style="fill: rgb(0,0,255); fill-opacity: 1.0" transform="matrix(0.056693,0,0,0.056693,2.834646,2.834646)" /><rect x="703" y="810" width="37" height="37" style="fill: rgb(0,0,255); fill-opacity: 1.0" transform="matrix(0.056693,0,0,0.056693,2.834646,2.834646)" /><rect x="703" y="810" width="37" height="37" style="fill: rgb(0,0,255); fill-opacity: 1.0" transform="matrix(0.056693,0,0,0.056693,2.834646,2.834646)" /><rect x="703" y="810" width="37" height="37" style="fill: rgb(0,0,255); fill-opacity: 1.0" transform="matrix(0.056693,0,0,0.056693,2.834646,2.834646)" /><rect x="703" y="810" width="37" height="37" style="fill: rgb(0,0,255); fill-opacity: 1.0" transform="matrix(0.056693,0,0,0.056693,2.834646,2.834646)" /><rect x="703" y="810" width="37" height="37" style="fill: rgb(0,0,255); fill-opacity: 1.0" transform="matrix(0.056693,0,0,0.056693,2.834646,2.834646)" /><rect x="703" y="803" width="37" height="44" style="fill: rgb(0,0,255); fill-opacity: 1.0" transform="matrix(0.056693,0,0,0.056693,2.834646,2.834646)" /><rect x="703" y="803" width="37" height="37" style="fill: rgb(0,0,255); fill-opacity: 1.0" transform="matrix(0.056693,0,0,0.056693,2.834646,2.834646)" /><rect x="703" y="803" width="37" height="37" style="fill: rgb(0,0,255); fill-opacity: 1.0" transform="matrix(0.056693,0,0,0.056693,2.834646,2.834646)" /><rect x="703" y="803" width="37" height="37" style="fill: rgb(0,0,255); fill-opacity: 1.0" transform="matrix(0.056693,0,0,0.056693,2.834646,2.834646)" /><rect x="703" y="803" width="37" height="37" style="fill: rgb(0,0,255); fill-opacity: 1.0" transform="matrix(0.056693,0,0,0.056693,2.834646,2.834646)" /><rect x="703" y="803" width="37" height="37" style="fill: rgb(0,0,255); fill-opacity: 1.0" transform="matrix(0.056693,0,0,0.056693,2.834646,2.834646)" /><rect x="703" y="803" width="37" height="37" style="fill: rgb(0,0,255); fill-opacity: 1.0" transform="matrix(0.056693,0,0,0.056693,2.834646,2.834646)" /><rect x="703" y="803" width="37" height="37" style="fill: rgb(0,0,255); fill-opacity: 1.0" transform="matrix(0.056693,0,0,0.056693,2.834646,2.834646)" /><rect x="703" y="803" width="37" height="37" style="fill: rgb(0,0,255); fill-opacity: 1.0" transform="matrix(0.056693,0,0,0.056693,2.834646,2.834646)" /><rect x="703" y="803" width="75" height="37" style="fill: rgb(0,0,255); fill-opacity: 1.0" transform="matrix(0.056693,0,0,0.056693,2.834646,2.834646)" /><rect x="741" y="803" width="37" height="37" style="fill: rgb(0,0,255); fill-opacity: 1.0" transform="matrix(0.056693,0,0,0.056693,2.834646,2.834646)" /><rect x="741" y="803" width="37" height="37" style="fill: rgb(0,0,255); fill-opacity: 1.0" transform="matrix(0.056693,0,0,0.056693,2.834646,2.834646)" /><rect x="741" y="803" width="37" height="37" style="fill: rgb(0,0,255); fill-opacity: 1.0" transform="matrix(0.056693,0,0,0.056693,2.834646,2.834646)" /><rect x="741" y="803" width="37" height="37" style="fill: rgb(0,0,255); fill-opacity: 1.0" transform="matrix(0.056693,0,0,0.056693,2.834646,2.834646)" /><rect x="927" y="803" width="37" height="37" style="fill: rgb(0,0,255); fill-opacity: 1.0" transform="matrix(0.056693,0,0,0.056693,2.834646,2.834646)" /><rect x="927" y="803" width="37" height="37" style="fill: rgb(0,0,255); fill-opacity: 1.0" transform="matrix(0.056693,0,0,0.056693,2.834646,2.834646)" /><rect x="927" y="803" width="37" height="37" style="fill: rgb(0,0,255); fill-opacity: 1.0" transform="matrix(0.056693,0,0,0.056693,2.834646,2.834646)" /><rect x="927" y="803" width="37" height="37" style="fill: rgb(0,0,255); fill-opacity: 1.0" transform="matrix(0.056693,0,0,0.056693,2.834646,2.834646)" /><rect x="927" y="803" width="113" height="37" style="fill: rgb(0,0,255); fill-opacity: 1.0" transform="matrix(0.056693,0,0,0.056693,2.834646,2.834646)" /><rect x="1003" y="803" width="37" height="37" style="fill: rgb(0,0,255); fill-opacity: 1.0" transform="matrix(0.056693,0,0,0.056693,2.834646,2.834646)" /><rect x="1003" y="803" width="37" height="37" style="fill: rgb(0,0,255); fill-opacity: 1.0" transform="matrix(0.056693,0,0,0.056693,2.834646,2.834646)" /><rect x="1003" y="803" width="37" height="37" style="fill: rgb(0,0,255); fill-opacity: 1.0" transform="matrix(0.056693,0,0,0.056693,2.834646,2.834646)" /><rect x="1003" y="803" width="37" height="37" style="fill: rgb(0,0,255); fill-opacity: 1.0" transform="matrix(0.056693,0,0,0.056693,2.834646,2.834646)" /><rect x="1003" y="803" width="37" height="37" style="fill: rgb(0,0,255); fill-opacity: 1.0" transform="matrix(0.056693,0,0,0.056693,2.834646,2.834646)" /><rect x="1003" y="803" width="37" height="37" style="fill: rgb(0,0,255); fill-opacity: 1.0" transform="matrix(0.056693,0,0,0.056693,2.834646,2.834646)" /><rect x="1003" y="803" width="37" height="37" style="fill: rgb(0,0,255); fill-opacity: 1.0" transform="matrix(0.056693,0,0,0.056693,2.834646,2.834646)" /><rect x="1003" y="803" width="37" height="37" style="fill: rgb(0,0,255); fill-opacity: 1.0" transform="matrix(0.056693,0,0,0.056693,2.834646,2.834646)" /><rect x="1003" y="755" width="37" height="85" style="fill: rgb(0,0,255); fill-opacity: 1.0" transform="matrix(0.056693,0,0,0.056693,2.834646,2.834646)" /><rect x="1003" y="755" width="37" height="37" style="fill: rgb(0,0,255); fill-opacity: 1.0" transform="matrix(0.056693,0,0,0.056693,2.834646,2.834646)" /><rect x="1003" y="755" width="37" height="37" style="fill: rgb(0,0,255); fill-opacity: 1.0" transform="matrix(0.056693,0,0,0.056693,2.834646,2.834646)" /><rect x="1003" y="755" width="37" height="37" style="fill: rgb(0,0,255); fill-opacity: 1.0" transform="matrix(0.056693,0,0,0.056693,2.834646,2.834646)" /><rect x="1003" y="755" width="37" height="37" style="fill: rgb(0,0,255); fill-opacity: 1.0" transform="matrix(0.056693,0,0,0.056693,2.834646,2.834646)" /><rect x="1003" y="755" width="37" height="37" style="fill: rgb(0,0,255); fill-opacity: 1.0" transform="matrix(0.056693,0,0,0.056693,2.834646,2.834646)" /><rect x="1003" y="755" width="37" height="37" style="fill: rgb(0,0,255); fill-opacity: 1.0" transform="matrix(0.056693,0,0,0.056693,2.834646,2.834646)" /><rect x="1003" y="755" width="37" height="37" style="fill: rgb(0,0,255); fill-opacity: 1.0" transform="matrix(0.056693,0,0,0.056693,2.834646,2.834646)" /><rect x="1003" y="755" width="37" height="37" style="fill: rgb(0,0,255); fill-opacity: 1.0" transform="matrix(0.056693,0,0,0.056693,2.834646,2.834646)" /><rect x="1003" y="755" width="75" height="37" style="fill: rgb(0,0,255); fill-opacity: 1.0" transform="matrix(0.056693,0,0,0.056693,2.834646,2.834646)" /><rect x="1041" y="755" width="37" height="37" style="fill: rgb(0,0,255); fill-opacity: 1.0" transform="matrix(0.056693,0,0,0.056693,2.834646,2.834646)" /><rect x="1041" y="755" width="37" height="37" style="fill: rgb(0,0,255); fill-opacity: 1.0" transform="matrix(0.056693,0,0,0.056693,2.834646,2.834646)" /><rect x="1041" y="755" width="37" height="37" style="fill: rgb(0,0,255); fill-opacity: 1.0" transform="matrix(0.056693,0,0,0.056693,2.834646,2.834646)" /><rect x="1041" y="755" width="37" height="37" style="fill: rgb(0,0,255); fill-opacity: 1.0" transform="matrix(0.056693,0,0,0.056693,2.834646,2.834646)" /></svg>
