<?xml version="1.0"?>
<!DOCTYPE svg PUBLIC "-//W3C//DTD SVG 1.0//EN" "http://www.w3.org/TR/2001/REC-SVG-20010904/DTD/svg10.dtd">
<svg xmlns="http://www.w3.org/2000/svg" xmlns:xlink="http://www.w3.org/1999/xlink" xmlns:jfreesvg="http://www.jfree.org/jfreesvg/svg" width="195" height="69" text-rendering="auto" shape-rendering="auto">
<defs></defs>
<line x1="0" y1="0" x2="68539" y2="0" style="stroke-width: 100.0;stroke: rgb(0,0,0);stroke-opacity: 1.0;stroke-linecap: round;stroke-linejoin: round;" transform="matrix(0.002835,0,0,0.002835,0,0)" /><line x1="68540" y1="0" x2="68540" y2="24199" style="stroke-width: 100.0;stroke: rgb(0,0,0);stroke-opacity: 1.0;stroke-linecap: round;stroke-linejoin: round;" transform="matrix(0.002835,0,0,0.002835,0,0)" /><line x1="68540" y1="24200" x2="1" y2="24200" style="stroke-width: 100.0;stroke: rgb(0,0,0);stroke-opacity: 1.0;stroke-linecap: round;stroke-linejoin: round;" transform="matrix(0.002835,0,0,0.002835,0,0)" /><line x1="0" y1="24200" x2="0" y2="1" style="stroke-width: 100.0;stroke: rgb(0,0,0);stroke-opacity: 1.0;stroke-linecap: round;stroke-linejoin: round;" transform="matrix(0.002835,0,0,0.002835,0,0)" /><g style="fill: rgb(0,0,255); fill-opacity: 1.0; stroke: none" transform="matrix(0.056693,0,0,0.056693,2.834646,2.834646)" ><path d="M 312 586 C 312 641.78 266.78 687 211 687 C 155.22 687 110 641.78 110 586 C 110 530.22 155.22 485 211 485 C 266.78 485 312 530.22 312 586 Z "/></g><g style="fill: rgb(0,0,255); fill-opacity: 1.0; stroke: none" transform="matrix(0.056693,0,0,0.056693,2.834646,2.834646)" ><path d="M 312 211 C 312 266.78 266.78 312 211 312 C 155.22 312 110 266.78 110 211 C 110 155.22 155.22 110 211 110 C 266.78 110 312 155.22 312 211 Z "/></g><g style="fill: rgb(0,0,255); fill-opacity: 1.0; stroke: none" transform="matrix(0.056693,0,0,0.056693,2.834646,2.834646)" ><path d="M 3217 398 C 3217 453.78 3171.78 499 3116 499 C 3060.22 499 3015 453.78 3015 398 C 3015 342.22 3060.22 297 3116 297 C 3171.78 297 3217 342.22 3217 398 Z "/></g><rect x="736" y="193" width="37" height="37" style="fill: rgb(0,0,255); fill-opacity: 1.0" transform="matrix(0.056693,0,0,0.056693,2.834646,2.834646)" /><rect x="736" y="193" width="37" height="37" style="fill: rgb(0,0,255); fill-opacity: 1.0" transform="matrix(0.056693,0,0,0.056693,2.834646,2.834646)" /><rect x="736" y="193" width="37" height="37" style="fill: rgb(0,0,255); fill-opacity: 1.0" transform="matrix(0.056693,0,0,0.056693,2.834646,2.834646)" /><rect x="736" y="193" width="37" height="37" style="fill: rgb(0,0,255); fill-opacity: 1.0" transform="matrix(0.056693,0,0,0.056693,2.834646,2.834646)" /><rect x="736" y="193" width="37" height="37" style="fill: rgb(0,0,255); fill-opacity: 1.0" transform="matrix(0.056693,0,0,0.056693,2.834646,2.834646)" /><rect x="736" y="193" width="37" height="37" style="fill: rgb(0,0,255); fill-opacity: 1.0" transform="matrix(0.056693,0,0,0.056693,2.834646,2.834646)" /><rect x="736" y="193" width="37" height="37" style="fill: rgb(0,0,255); fill-opacity: 1.0" transform="matrix(0.056693,0,0,0.056693,2.834646,2.834646)" /><rect x="736" y="193" width="37" height="37" style="fill: rgb(0,0,255); fill-opacity: 1.0" transform="matrix(0.056693,0,0,0.056693,2.834646,2.834646)" /><rect x="736" y="193" width="263" height="37" style="fill: rgb(0,0,255); fill-opacity: 1.0" transform="matrix(0.056693,0,0,0.056693,2.834646,2.834646)" /><rect x="962" y="193" width="37" height="37" style="fill: rgb(0,0,255); fill-opacity: 1.0" transform="matrix(0.056693,0,0,0.056693,2.834646,2.834646)" /><rect x="962" y="193" width="37" height="37" style="fill: rgb(0,0,255); fill-opacity: 1.0" transform="matrix(0.056693,0,0,0.056693,2.834646,2.834646)" /><rect x="962" y="193" width="37" height="37" style="fill: rgb(0,0,255); fill-opacity: 1.0" transform="matrix(0.056693,0,0,0.056693,2.834646,2.834646)" /><rect x="962" y="193" width="37" height="37" style="fill: rgb(0,0,255); fill-opacity: 1.0" transform="matrix(0.056693,0,0,0.056693,2.834646,2.834646)" /><rect x="962" y="193" width="37" height="37" style="fill: rgb(0,0,255); fill-opacity: 1.0" transform="matrix(0.056693,0,0,0.056693,2.834646,2.834646)" /><rect x="962" y="193" width="37" height="37" style="fill: rgb(0,0,255); fill-opacity: 1.0" transform="matrix(0.056693,0,0,0.056693,2.834646,2.834646)" /><rect x="962" y="193" width="37" height="37" style="fill: rgb(0,0,255); fill-opacity: 1.0" transform="matrix(0.056693,0,0,0.056693,2.834646,2.834646)" /><rect x="962" y="193" width="37" height="37" style="fill: rgb(0,0,255); fill-opacity: 1.0" transform="matrix(0.056693,0,0,0.056693,2.834646,2.834646)" /><rect x="736" y="568" width="37" height="37" style="fill: rgb(0,0,255); fill-opacity: 1.0" transform="matrix(0.056693,0,0,0.056693,2.834646,2.834646)" /><rect x="736" y="568" width="37" height="37" style="fill: rgb(0,0,255); fill-opacity: 1.0" transform="matrix(0.056693,0,0,0.056693,2.834646,2.834646)" /><rect x="736" y="568" width="37" height="37" style="fill: rgb(0,0,255); fill-opacity: 1.0" transform="matrix(0.056693,0,0,0.056693,2.834646,2.834646)" /><rect x="736" y="568" width="37" height="37" style="fill: rgb(0,0,255); fill-opacity: 1.0" transform="matrix(0.056693,0,0,0.056693,2.834646,2.834646)" /><rect x="736" y="568" width="37" height="37" style="fill: rgb(0,0,255); fill-opacity: 1.0" transform="matrix(0.056693,0,0,0.056693,2.834646,2.834646)" /><rect x="736" y="568" width="37" height="37" style="fill: rgb(0,0,255); fill-opacity: 1.0" transform="matrix(0.056693,0,0,0.056693,2.834646,2.834646)" /><rect x="736" y="568" width="37" height="37" style="fill: rgb(0,0,255); fill-opacity: 1.0" transform="matrix(0.056693,0,0,0.056693,2.834646,2.834646)" /><rect x="736" y="568" width="37" height="37" style="fill: rgb(0,0,255); fill-opacity: 1.0" transform="matrix(0.056693,0,0,0.056693,2.834646,2.834646)" /><rect x="736" y="568" width="263" height="37" style="fill: rgb(0,0,255); fill-opacity: 1.0" transform="matrix(0.056693,0,0,0.056693,2.834646,2.834646)" /><rect x="962" y="568" width="37" height="37" style="fill: rgb(0,0,255); fill-opacity: 1.0" transform="matrix(0.056693,0,0,0.056693,2.834646,2.834646)" /><rect x="962" y="568" width="37" height="37" style="fill: rgb(0,0,255); fill-opacity: 1.0" transform="matrix(0.056693,0,0,0.056693,2.834646,2.834646)" /><rect x="962" y="568" width="37" height="37" style="fill: rgb(0,0,255); fill-opacity: 1.0" transform="matrix(0.056693,0,0,0.056693,2.834646,2.834646)" /><rect x="962" y="568" width="37" height="37" style="fill: rgb(0,0,255); fill-opacity: 1.0" transform="matrix(0.056693,0,0,0.056693,2.834646,2.834646)" /><rect x="962" y="568" width="37" height="37" style="fill: rgb(0,0,255); fill-opacity: 1.0" transform="matrix(0.056693,0,0,0.056693,2.834646,2.834646)" /><rect x="962" y="568" width="37" height="37" style="fill: rgb(0,0,255); fill-opacity: 1.0" transform="matrix(0.056693,0,0,0.056693,2.834646,2.834646)" /><rect x="962" y="568" width="37" height="37" style="fill: rgb(0,0,255); fill-opacity: 1.0" transform="matrix(0.056693,0,0,0.056693,2.834646,2.834646)" /><rect x="962" y="568" width="37" height="37" style="fill: rgb(0,0,255); fill-opacity: 1.0" transform="matrix(0.056693,0,0,0.056693,2.834646,2.834646)" /><rect x="962" y="193" width="37" height="37" style="fill: rgb(0,0,255); fill-opacity: 1.0" transform="matrix(0.056693,0,0,0.056693,2.834646,2.834646)" /><rect x="962" y="193" width="37" height="37" style="fill: rgb(0,0,255); fill-opacity: 1.0" transform="matrix(0.056693,0,0,0.056693,2.834646,2.834646)" /><rect x="962" y="193" width="37" height="37" style="fill: rgb(0,0,255); fill-opacity: 1.0" transform="matrix(0.056693,0,0,0.056693,2.834646,2.834646)" /><rect x="962" y="193" width="37" height="37" style="fill: rgb(0,0,255); fill-opacity: 1.0" transform="matrix(0.056693,0,0,0.056693,2.834646,2.834646)" /><rect x="962" y="193" width="37" height="37" style="fill: rgb(0,0,255); fill-opacity: 1.0" transform="matrix(0.056693,0,0,0.056693,2.834646,2.834646)" /><rect x="962" y="193" width="37" height="37" style="fill: rgb(0,0,255); fill-opacity: 1.0" transform="matrix(0.056693,0,0,0.056693,2.834646,2.834646)" /><rect x="962" y="193" width="37" height="37" style="fill: rgb(0,0,255); fill-opacity: 1.0" transform="matrix(0.056693,0,0,0.056693,2.834646,2.834646)" /><rect x="962" y="193" width="37" height="37" style="fill: rgb(0,0,255); fill-opacity: 1.0" transform="matrix(0.056693,0,0,0.056693,2.834646,2.834646)" /><rect x="962" y="193" width="37" height="224" style="fill: rgb(0,0,255); fill-opacity: 1.0" transform="matrix(0.056693,0,0,0.056693,2.834646,2.834646)" /><rect x="962" y="380" width="37" height="37" style="fill: rgb(0,0,255); fill-opacity: 1.0" transform="matrix(0.056693,0,0,0.056693,2.834646,2.834646)" /><rect x="962" y="380" width="37" height="37" style="fill: rgb(0,0,255); fill-opacity: 1.0" transform="matrix(0.056693,0,0,0.056693,2.834646,2.834646)" /><rect x="962" y="380" width="37" height="37" style="fill: rgb(0,0,255); fill-opacity: 1.0" transform="matrix(0.056693,0,0,0.056693,2.834646,2.834646)" /><rect x="962" y="380" width="37" height="37" style="fill: rgb(0,0,255); fill-opacity: 1.0" transform="matrix(0.056693,0,0,0.056693,2.834646,2.834646)" /><rect x="962" y="380" width="37" height="37" style="fill: rgb(0,0,255); fill-opacity: 1.0" transform="matrix(0.056693,0,0,0.056693,2.834646,2.834646)" /><rect x="962" y="380" width="37" height="37" style="fill: rgb(0,0,255); fill-opacity: 1.0" transform="matrix(0.056693,0,0,0.056693,2.834646,2.834646)" /><rect x="962" y="380" width="37" height="37" style="fill: rgb(0,0,255); fill-opacity: 1.0" transform="matrix(0.056693,0,0,0.056693,2.834646,2.834646)" /><rect x="962" y="380" width="37" height="37" style="fill: rgb(0,0,255); fill-opacity: 1.0" transform="matrix(0.056693,0,0,0.056693,2.834646,2.834646)" /><rect x="962" y="568" width="37" height="37" style="fill: rgb(0,0,255); fill-opacity: 1.0" transform="matrix(0.056693,0,0,0.056693,2.834646,2.834646)" /><rect x="962" y="568" width="37" height="37" style="fill: rgb(0,0,255); fill-opacity: 1.0" transform="matrix(0.056693,0,0,0.056693,2.834646,2.834646)" /><rect x="962" y="568" width="37" height="37" style="fill: rgb(0,0,255); fill-opacity: 1.0" transform="matrix(0.056693,0,0,0.056693,2.834646,2.834646)" /><rect x="962" y="568" width="37" height="37" style="fill: rgb(0,0,255); fill-opacity: 1.0" transform="matrix(0.056693,0,0,0.056693,2.834646,2.834646)" /><rect x="962" y="568" width="37" height="37" style="fill: rgb(0,0,255); fill-opacity: 1.0" transform="matrix(0.056693,0,0,0.056693,2.834646,2.834646)" /><rect x="962" y="568" width="37" height="37" style="fill: rgb(0,0,255); fill-opacity: 1.0" transform="matrix(0.056693,0,0,0.056693,2.834646,2.834646)" /><rect x="962" y="568" width="37" height="37" style="fill: rgb(0,0,255); fill-opacity: 1.0" transform="matrix(0.056693,0,0,0.056693,2.834646,2.834646)" /><rect x="962" y="568" width="37" height="37" style="fill: rgb(0,0,255); fill-opacity: 1.0" transform="matrix(0.056693,0,0,0.056693,2.834646,2.834646)" /><rect x="962" y="380" width="37" height="225" style="fill: rgb(0,0,255); fill-opacity: 1.0" transform="matrix(0.056693,0,0,0.056693,2.834646,2.834646)" /><rect x="962" y="380" width="37" height="37" style="fill: rgb(0,0,255); fill-opacity: 1.0" transform="matrix(0.056693,0,0,0.056693,2.834646,2.834646)" /><rect x="962" y="380" width="37" height="37" style="fill: rgb(0,0,255); fill-opacity: 1.0" transform="matrix(0.056693,0,0,0.056693,2.834646,2.834646)" /><rect x="962" y="380" width="37" height="37" style="fill: rgb(0,0,255); fill-opacity: 1.0" transform="matrix(0.056693,0,0,0.056693,2.834646,2.834646)" /><rect x="962" y="380" width="37" height="37" style="fill: rgb(0,0,255); fill-opacity: 1.0" transform="matrix(0.056693,0,0,0.056693,2.834646,2.834646)" /><rect x="962" y="380" width="37" height="37" style="fill: rgb(0,0,255); fill-opacity: 1.0" transform="matrix(0.056693,0,0,0.056693,2.834646,2.834646)" /><rect x="962" y="380" width="37" height="37" style="fill: rgb(0,0,255); fill-opacity: 1.0" transform="matrix(0.056693,0,0,0.056693,2.834646,2.834646)" /><rect x="962" y="380" width="37" height="37" style="fill: rgb(0,0,255); fill-opacity: 1.0" transform="matrix(0.056693,0,0,0.056693,2.834646,2.834646)" /><rect x="962" y="380" width="37" height="37" style="fill: rgb(0,0,255); fill-opacity: 1.0" transform="matrix(0.056693,0,0,0.056693,2.834646,2.834646)" /><rect x="736" y="193" width="37" height="37" style="fill: rgb(0,0,255); fill-opacity: 1.0" transform="matrix(0.056693,0,0,0.056693,2.834646,2.834646)" /><rect x="736" y="193" width="37" height="37" style="fill: rgb(0,0,255); fill-opacity: 1.0" transform="matrix(0.056693,0,0,0.056693,2.834646,2.834646)" /><rect x="736" y="193" width="37" height="37" style="fill: rgb(0,0,255); fill-opacity: 1.0" transform="matrix(0.056693,0,0,0.056693,2.834646,2.834646)" /><rect x="736" y="193" width="37" height="37" style="fill: rgb(0,0,255); fill-opacity: 1.0" transform="matrix(0.056693,0,0,0.056693,2.834646,2.834646)" /><rect x="736" y="193" width="37" height="37" style="fill: rgb(0,0,255); fill-opacity: 1.0" transform="matrix(0.056693,0,0,0.056693,2.834646,2.834646)" /><rect x="736" y="193" width="37" height="37" style="fill: rgb(0,0,255); fill-opacity: 1.0" transform="matrix(0.056693,0,0,0.056693,2.834646,2.834646)" /><rect x="736" y="193" width="37" height="37" style="fill: rgb(0,0,255); fill-opacity: 1.0" transform="matrix(0.056693,0,0,0.056693,2.834646,2.834646)" /><rect x="736" y="193" width="37" height="37" style="fill: rgb(0,0,255); fill-opacity: 1.0" transform="matrix(0.056693,0,0,0.056693,2.834646,2.834646)" /><rect x="712" y="193" width="61" height="37" style="fill: rgb(0,0,255); fill-opacity: 1.0" transform="matrix(0.056693,0,0,0.056693,2.834646,2.834646)" /><rect x="712" y="193" width="37" height="37" style="fill: rgb(0,0,255); fill-opacity: 1.0" transform="matrix(0.056693,0,0,0.056693,2.834646,2.834646)" /><rect x="712" y="193" width="37" height="37" style="fill: rgb(0,0,255); fill-opacity: 1.0" transform="matrix(0.056693,0,0,0.056693,2.834646,2.834646)" /><rect x="712" y="193" width="37" height="37" style="fill: rgb(0,0,255); fill-opacity: 1.0" transform="matrix(0.056693,0,0,0.056693,2.834646,2.834646)" /><rect x="712" y="193" width="37" height="37" style="fill: rgb(0,0,255); fill-opacity: 1.0" transform="matrix(0.056693,0,0,0.056693,2.834646,2.834646)" /><rect x="712" y="193" width="37" height="37" style="fill: rgb(0,0,255); fill-opacity: 1.0" transform="matrix(0.056693,0,0,0.056693,2.834646,2.834646)" /><rect x="712" y="193" width="37" height="37" style="fill: rgb(0,0,255); fill-opacity: 1.0" transform="matrix(0.056693,0,0,0.056693,2.834646,2.834646)" /><rect x="712" y="193" width="37" height="37" style="fill: rgb(0,0,255); fill-opacity: 1.0" transform="matrix(0.056693,0,0,0.056693,2.834646,2.834646)" /><rect x="712" y="193" width="37" height="37" style="fill: rgb(0,0,255); fill-opacity: 1.0" transform="matrix(0.056693,0,0,0.056693,2.834646,2.834646)" /><rect x="736" y="568" width="37" height="37" style="fill: rgb(0,0,255); fill-opacity: 1.0" transform="matrix(0.056693,0,0,0.056693,2.834646,2.834646)" /><rect x="736" y="568" width="37" height="37" style="fill: rgb(0,0,255); fill-opacity: 1.0" transform="matrix(0.056693,0,0,0.056693,2.834646,2.834646)" /><rect x="736" y="568" width="37" height="37" style="fill: rgb(0,0,255); fill-opacity: 1.0" transform="matrix(0.056693,0,0,0.056693,2.834646,2.834646)" /><rect x="736" y="568" width="37" height="37" style="fill: rgb(0,0,255); fill-opacity: 1.0" transform="matrix(0.056693,0,0,0.056693,2.834646,2.834646)" /><rect x="736" y="568" width="37" height="37" style="fill: rgb(0,0,255); fill-opacity: 1.0" transform="matrix(0.056693,0,0,0.056693,2.834646,2.834646)" /><rect x="736" y="568" width="37" height="37" style="fill: rgb(0,0,255); fill-opacity: 1.0" transform="matrix(0.056693,0,0,0.056693,2.834646,2.834646)" /><rect x="736" y="568" width="37" height="37" style="fill: rgb(0,0,255); fill-opacity: 1.0" transform="matrix(0.056693,0,0,0.056693,2.834646,2.834646)" /><rect x="736" y="568" width="37" height="37" style="fill: rgb(0,0,255); fill-opacity: 1.0" transform="matrix(0.056693,0,0,0.056693,2.834646,2.834646)" /><rect x="712" y="568" width="61" height="37" style="fill: rgb(0,0,255); fill-opacity: 1.0" transform="matrix(0.056693,0,0,0.056693,2.834646,2.834646)" /><rect x="712" y="568" width="37" height="37" style="fill: rgb(0,0,255); fill-opacity: 1.0" transform="matrix(0.056693,0,0,0.056693,2.834646,2.834646)" /><rect x="712" y="568" width="37" height="37" style="fill: rgb(0,0,255); fill-opacity: 1.0" transform="matrix(0.056693,0,0,0.056693,2.834646,2.834646)" /><rect x="712" y="568" width="37" height="37" style="fill: rgb(0,0,255); fill-opacity: 1.0" transform="matrix(0.056693,0,0,0.056693,2.834646,2.834646)" /><rect x="712" y="568" width="37" height="37" style="fill: rgb(0,0,255); fill-opacity: 1.0" transform="matrix(0.056693,0,0,0.056693,2.834646,2.834646)" /><rect x="712" y="568" width="37" height="37" style="fill: rgb(0,0,255); fill-opacity: 1.0" transform="matrix(0.056693,0,0,0.056693,2.834646,2.834646)" /><rect x="712" y="568" width="37" height="37" style="fill: rgb(0,0,255); fill-opacity: 1.0" transform="matrix(0.056693,0,0,0.056693,2.834646,2.834646)" /><rect x="712" y="568" width="37" height="37" style="fill: rgb(0,0,255); fill-opacity: 1.0" transform="matrix(0.056693,0,0,0.056693,2.834646,2.834646)" /><rect x="712" y="568" width="37" height="37" style="fill: rgb(0,0,255); fill-opacity: 1.0" transform="matrix(0.056693,0,0,0.056693,2.834646,2.834646)" /><rect x="962" y="380" width="37" height="37" style="fill: rgb(0,0,255); fill-opacity: 1.0" transform="matrix(0.056693,0,0,0.056693,2.834646,2.834646)" /><rect x="962" y="380" width="37" height="37" style="fill: rgb(0,0,255); fill-opacity: 1.0" transform="matrix(0.056693,0,0,0.056693,2.834646,2.834646)" /><rect x="962" y="380" width="37" height="37" style="fill: rgb(0,0,255); fill-opacity: 1.0" transform="matrix(0.056693,0,0,0.056693,2.834646,2.834646)" /><rect x="962" y="380" width="37" height="37" style="fill: rgb(0,0,255); fill-opacity: 1.0" transform="matrix(0.056693,0,0,0.056693,2.834646,2.834646)" /><rect x="962" y="380" width="37" height="37" style="fill: rgb(0,0,255); fill-opacity: 1.0" transform="matrix(0.056693,0,0,0.056693,2.834646,2.834646)" /><rect x="962" y="380" width="37" height="37" style="fill: rgb(0,0,255); fill-opacity: 1.0" transform="matrix(0.056693,0,0,0.056693,2.834646,2.834646)" /><rect x="962" y="380" width="37" height="37" style="fill: rgb(0,0,255); fill-opacity: 1.0" transform="matrix(0.056693,0,0,0.056693,2.834646,2.834646)" /><rect x="962" y="380" width="37" height="37" style="fill: rgb(0,0,255); fill-opacity: 1.0" transform="matrix(0.056693,0,0,0.056693,2.834646,2.834646)" /><rect x="962" y="380" width="61" height="37" style="fill: rgb(0,0,255); fill-opacity: 1.0" transform="matrix(0.056693,0,0,0.056693,2.834646,2.834646)" /><rect x="986" y="380" width="37" height="37" style="fill: rgb(0,0,255); fill-opacity: 1.0" transform="matrix(0.056693,0,0,0.056693,2.834646,2.834646)" /><rect x="986" y="380" width="37" height="37" style="fill: rgb(0,0,255); fill-opacity: 1.0" transform="matrix(0.056693,0,0,0.056693,2.834646,2.834646)" /><rect x="986" y="380" width="37" height="37" style="fill: rgb(0,0,255); fill-opacity: 1.0" transform="matrix(0.056693,0,0,0.056693,2.834646,2.834646)" /><rect x="986" y="380" width="37" height="37" style="fill: rgb(0,0,255); fill-opacity: 1.0" transform="matrix(0.056693,0,0,0.056693,2.834646,2.834646)" /><rect x="986" y="380" width="37" height="37" style="fill: rgb(0,0,255); fill-opacity: 1.0" transform="matrix(0.056693,0,0,0.056693,2.834646,2.834646)" /><rect x="986" y="380" width="37" height="37" style="fill: rgb(0,0,255); fill-opacity: 1.0" transform="matrix(0.056693,0,0,0.056693,2.834646,2.834646)" /><rect x="986" y="380" width="37" height="37" style="fill: rgb(0,0,255); fill-opacity: 1.0" transform="matrix(0.056693,0,0,0.056693,2.834646,2.834646)" /><rect x="986" y="380" width="37" height="37" style="fill: rgb(0,0,255); fill-opacity: 1.0" transform="matrix(0.056693,0,0,0.056693,2.834646,2.834646)" /><rect x="1118" y="379" width="37" height="74" style="fill: rgb(0,0,255); fill-opacity: 1.0" transform="matrix(0.056693,0,0,0.056693,2.834646,2.834646)" /><rect x="1118" y="436" width="111" height="37" style="fill: rgb(0,0,255); fill-opacity: 1.0" transform="matrix(0.056693,0,0,0.056693,2.834646,2.834646)" /><rect x="1192" y="324" width="37" height="149" style="fill: rgb(0,0,255); fill-opacity: 1.0" transform="matrix(0.056693,0,0,0.056693,2.834646,2.834646)" /><rect x="1192" y="324" width="111" height="37" style="fill: rgb(0,0,255); fill-opacity: 1.0" transform="matrix(0.056693,0,0,0.056693,2.834646,2.834646)" /><rect x="1266" y="324" width="37" height="149" style="fill: rgb(0,0,255); fill-opacity: 1.0" transform="matrix(0.056693,0,0,0.056693,2.834646,2.834646)" /><rect x="1266" y="436" width="111" height="37" style="fill: rgb(0,0,255); fill-opacity: 1.0" transform="matrix(0.056693,0,0,0.056693,2.834646,2.834646)" /><rect x="1340" y="324" width="37" height="149" style="fill: rgb(0,0,255); fill-opacity: 1.0" transform="matrix(0.056693,0,0,0.056693,2.834646,2.834646)" /><rect x="1340" y="324" width="111" height="37" style="fill: rgb(0,0,255); fill-opacity: 1.0" transform="matrix(0.056693,0,0,0.056693,2.834646,2.834646)" /><rect x="1414" y="324" width="37" height="149" style="fill: rgb(0,0,255); fill-opacity: 1.0" transform="matrix(0.056693,0,0,0.056693,2.834646,2.834646)" /><rect x="1414" y="436" width="111" height="37" style="fill: rgb(0,0,255); fill-opacity: 1.0" transform="matrix(0.056693,0,0,0.056693,2.834646,2.834646)" /><rect x="1488" y="324" width="37" height="149" style="fill: rgb(0,0,255); fill-opacity: 1.0" transform="matrix(0.056693,0,0,0.056693,2.834646,2.834646)" /><rect x="1488" y="324" width="111" height="37" style="fill: rgb(0,0,255); fill-opacity: 1.0" transform="matrix(0.056693,0,0,0.056693,2.834646,2.834646)" /><rect x="1562" y="324" width="37" height="149" style="fill: rgb(0,0,255); fill-opacity: 1.0" transform="matrix(0.056693,0,0,0.056693,2.834646,2.834646)" /><rect x="1562" y="436" width="111" height="37" style="fill: rgb(0,0,255); fill-opacity: 1.0" transform="matrix(0.056693,0,0,0.056693,2.834646,2.834646)" /><rect x="1636" y="324" width="37" height="149" style="fill: rgb(0,0,255); fill-opacity: 1.0" transform="matrix(0.056693,0,0,0.056693,2.834646,2.834646)" /><rect x="1636" y="324" width="111" height="37" style="fill: rgb(0,0,255); fill-opacity: 1.0" transform="matrix(0.056693,0,0,0.056693,2.834646,2.834646)" /><rect x="1710" y="324" width="37" height="149" style="fill: rgb(0,0,255); fill-opacity: 1.0" transform="matrix(0.056693,0,0,0.056693,2.834646,2.834646)" /><rect x="1710" y="436" width="111" height="37" style="fill: rgb(0,0,255); fill-opacity: 1.0" transform="matrix(0.056693,0,0,0.056693,2.834646,2.834646)" /><rect x="1784" y="324" width="37" height="149" style="fill: rgb(0,0,255); fill-opacity: 1.0" transform="matrix(0.056693,0,0,0.056693,2.834646,2.834646)" /><rect x="1784" y="324" width="111" height="37" style="fill: rgb(0,0,255); fill-opacity: 1.0" transform="matrix(0.056693,0,0,0.056693,2.834646,2.834646)" /><rect x="1858" y="324" width="37" height="149" style="fill: rgb(0,0,255); fill-opacity: 1.0" transform="matrix(0.056693,0,0,0.056693,2.834646,2.834646)" /><rect x="1858" y="436" width="111" height="37" style="fill: rgb(0,0,255); fill-opacity: 1.0" transform="matrix(0.056693,0,0,0.056693,2.834646,2.834646)" /><rect x="1932" y="324" width="37" height="149" style="fill: rgb(0,0,255); fill-opacity: 1.0" transform="matrix(0.056693,0,0,0.056693,2.834646,2.834646)" /><rect x="1932" y="324" width="111" height="37" style="fill: rgb(0,0,255); fill-opacity: 1.0" transform="matrix(0.056693,0,0,0.056693,2.834646,2.834646)" /><rect x="2006" y="324" width="37" height="149" style="fill: rgb(0,0,255); fill-opacity: 1.0" transform="matrix(0.056693,0,0,0.056693,2.834646,2.834646)" /><rect x="2006" y="436" width="111" height="37" style="fill: rgb(0,0,255); fill-opacity: 1.0" transform="matrix(0.056693,0,0,0.056693,2.834646,2.834646)" /><rect x="2080" y="324" width="37" height="149" style="fill: rgb(0,0,255); fill-opacity: 1.0" transform="matrix(0.056693,0,0,0.056693,2.834646,2.834646)" /><rect x="2080" y="324" width="111" height="37" style="fill: rgb(0,0,255); fill-opacity: 1.0" transform="matrix(0.056693,0,0,0.056693,2.834646,2.834646)" /><rect x="2154" y="324" width="37" height="149" style="fill: rgb(0,0,255); fill-opacity: 1.0" transform="matrix(0.056693,0,0,0.056693,2.834646,2.834646)" /><rect x="2154" y="436" width="111" height="37" style="fill: rgb(0,0,255); fill-opacity: 1.0" transform="matrix(0.056693,0,0,0.056693,2.834646,2.834646)" /><rect x="2228" y="324" width="37" height="149" style="fill: rgb(0,0,255); fill-opacity: 1.0" transform="matrix(0.056693,0,0,0.056693,2.834646,2.834646)" /><rect x="2228" y="324" width="111" height="37" style="fill: rgb(0,0,255); fill-opacity: 1.0" transform="matrix(0.056693,0,0,0.056693,2.834646,2.834646)" /><rect x="2302" y="324" width="37" height="149" style="fill: rgb(0,0,255); fill-opacity: 1.0" transform="matrix(0.056693,0,0,0.056693,2.834646,2.834646)" /><rect x="2302" y="436" width="111" height="37" style="fill: rgb(0,0,255); fill-opacity: 1.0" transform="matrix(0.056693,0,0,0.056693,2.834646,2.834646)" /><rect x="2376" y="324" width="37" height="149" style="fill: rgb(0,0,255); fill-opacity: 1.0" transform="matrix(0.056693,0,0,0.056693,2.834646,2.834646)" /><rect x="2376" y="324" width="111" height="37" style="fill: rgb(0,0,255); fill-opacity: 1.0" transform="matrix(0.056693,0,0,0.056693,2.834646,2.834646)" /><rect x="2450" y="324" width="37" height="149" style="fill: rgb(0,0,255); fill-opacity: 1.0" transform="matrix(0.056693,0,0,0.056693,2.834646,2.834646)" /><rect x="2450" y="436" width="111" height="37" style="fill: rgb(0,0,255); fill-opacity: 1.0" transform="matrix(0.056693,0,0,0.056693,2.834646,2.834646)" /><rect x="2524" y="324" width="37" height="149" style="fill: rgb(0,0,255); fill-opacity: 1.0" transform="matrix(0.056693,0,0,0.056693,2.834646,2.834646)" /><rect x="2524" y="324" width="111" height="37" style="fill: rgb(0,0,255); fill-opacity: 1.0" transform="matrix(0.056693,0,0,0.056693,2.834646,2.834646)" /><rect x="2598" y="324" width="37" height="92" style="fill: rgb(0,0,255); fill-opacity: 1.0" transform="matrix(0.056693,0,0,0.056693,2.834646,2.834646)" /><g style="fill: rgb(0,0,255); fill-opacity: 1.0; stroke: none" transform="matrix(0.056693,0,0,0.056693,2.834646,2.834646)" ><path d="M 616 586 C 616 637.36 574.36 679 523 679 C 471.64 679 430 637.36 430 586 C 430 534.64 471.64 493 523 493 C 574.36 493 616 534.64 616 586 Z "/></g><rect x="508" y="493" width="30" height="186" style="fill: rgb(255,255,255); fill-opacity: 1.0" transform="matrix(0.056693,0,0,0.056693,2.834646,2.834646)" /><rect x="294" y="568" width="37" height="37" style="fill: rgb(0,0,255); fill-opacity: 1.0" transform="matrix(0.056693,0,0,0.056693,2.834646,2.834646)" /><rect x="294" y="568" width="37" height="37" style="fill: rgb(0,0,255); fill-opacity: 1.0" transform="matrix(0.056693,0,0,0.056693,2.834646,2.834646)" /><rect x="294" y="568" width="37" height="37" style="fill: rgb(0,0,255); fill-opacity: 1.0" transform="matrix(0.056693,0,0,0.056693,2.834646,2.834646)" /><rect x="294" y="568" width="37" height="37" style="fill: rgb(0,0,255); fill-opacity: 1.0" transform="matrix(0.056693,0,0,0.056693,2.834646,2.834646)" /><rect x="294" y="568" width="37" height="37" style="fill: rgb(0,0,255); fill-opacity: 1.0" transform="matrix(0.056693,0,0,0.056693,2.834646,2.834646)" /><rect x="294" y="568" width="37" height="37" style="fill: rgb(0,0,255); fill-opacity: 1.0" transform="matrix(0.056693,0,0,0.056693,2.834646,2.834646)" /><rect x="294" y="568" width="37" height="37" style="fill: rgb(0,0,255); fill-opacity: 1.0" transform="matrix(0.056693,0,0,0.056693,2.834646,2.834646)" /><rect x="294" y="568" width="37" height="37" style="fill: rgb(0,0,255); fill-opacity: 1.0" transform="matrix(0.056693,0,0,0.056693,2.834646,2.834646)" /><rect x="294" y="568" width="37" height="37" style="fill: rgb(0,0,255); fill-opacity: 1.0" transform="matrix(0.056693,0,0,0.056693,2.834646,2.834646)" /><rect x="294" y="568" width="37" height="37" style="fill: rgb(0,0,255); fill-opacity: 1.0" transform="matrix(0.056693,0,0,0.056693,2.834646,2.834646)" /><rect x="294" y="568" width="155" height="37" style="fill: rgb(0,0,255); fill-opacity: 1.0" transform="matrix(0.056693,0,0,0.056693,2.834646,2.834646)" /><rect x="412" y="568" width="37" height="37" style="fill: rgb(0,0,255); fill-opacity: 1.0" transform="matrix(0.056693,0,0,0.056693,2.834646,2.834646)" /><rect x="412" y="568" width="37" height="37" style="fill: rgb(0,0,255); fill-opacity: 1.0" transform="matrix(0.056693,0,0,0.056693,2.834646,2.834646)" /><rect x="412" y="568" width="37" height="37" style="fill: rgb(0,0,255); fill-opacity: 1.0" transform="matrix(0.056693,0,0,0.056693,2.834646,2.834646)" /><rect x="412" y="568" width="37" height="37" style="fill: rgb(0,0,255); fill-opacity: 1.0" transform="matrix(0.056693,0,0,0.056693,2.834646,2.834646)" /><rect x="412" y="568" width="37" height="37" style="fill: rgb(0,0,255); fill-opacity: 1.0" transform="matrix(0.056693,0,0,0.056693,2.834646,2.834646)" /><rect x="412" y="568" width="37" height="37" style="fill: rgb(0,0,255); fill-opacity: 1.0" transform="matrix(0.056693,0,0,0.056693,2.834646,2.834646)" /><rect x="412" y="568" width="37" height="37" style="fill: rgb(0,0,255); fill-opacity: 1.0" transform="matrix(0.056693,0,0,0.056693,2.834646,2.834646)" /><rect x="412" y="568" width="37" height="37" style="fill: rgb(0,0,255); fill-opacity: 1.0" transform="matrix(0.056693,0,0,0.056693,2.834646,2.834646)" /><rect x="412" y="568" width="37" height="37" style="fill: rgb(0,0,255); fill-opacity: 1.0" transform="matrix(0.056693,0,0,0.056693,2.834646,2.834646)" /><rect x="412" y="568" width="37" height="37" style="fill: rgb(0,0,255); fill-opacity: 1.0" transform="matrix(0.056693,0,0,0.056693,2.834646,2.834646)" /><rect x="294" y="193" width="37" height="37" style="fill: rgb(0,0,255); fill-opacity: 1.0" transform="matrix(0.056693,0,0,0.056693,2.834646,2.834646)" /><rect x="294" y="193" width="37" height="37" style="fill: rgb(0,0,255); fill-opacity: 1.0" transform="matrix(0.056693,0,0,0.056693,2.834646,2.834646)" /><rect x="294" y="193" width="37" height="37" style="fill: rgb(0,0,255); fill-opacity: 1.0" transform="matrix(0.056693,0,0,0.056693,2.834646,2.834646)" /><rect x="294" y="193" width="37" height="37" style="fill: rgb(0,0,255); fill-opacity: 1.0" transform="matrix(0.056693,0,0,0.056693,2.834646,2.834646)" /><rect x="294" y="193" width="37" height="37" style="fill: rgb(0,0,255); fill-opacity: 1.0" transform="matrix(0.056693,0,0,0.056693,2.834646,2.834646)" /><rect x="294" y="193" width="37" height="37" style="fill: rgb(0,0,255); fill-opacity: 1.0" transform="matrix(0.056693,0,0,0.056693,2.834646,2.834646)" /><rect x="294" y="193" width="37" height="37" style="fill: rgb(0,0,255); fill-opacity: 1.0" transform="matrix(0.056693,0,0,0.056693,2.834646,2.834646)" /><rect x="294" y="193" width="37" height="37" style="fill: rgb(0,0,255); fill-opacity: 1.0" transform="matrix(0.056693,0,0,0.056693,2.834646,2.834646)" /><rect x="294" y="193" width="37" height="37" style="fill: rgb(0,0,255); fill-opacity: 1.0" transform="matrix(0.056693,0,0,0.056693,2.834646,2.834646)" /><rect x="294" y="193" width="37" height="37" style="fill: rgb(0,0,255); fill-opacity: 1.0" transform="matrix(0.056693,0,0,0.056693,2.834646,2.834646)" /><rect x="294" y="193" width="455" height="37" style="fill: rgb(0,0,255); fill-opacity: 1.0" transform="matrix(0.056693,0,0,0.056693,2.834646,2.834646)" /><rect x="712" y="193" width="37" height="37" style="fill: rgb(0,0,255); fill-opacity: 1.0" transform="matrix(0.056693,0,0,0.056693,2.834646,2.834646)" /><rect x="712" y="193" width="37" height="37" style="fill: rgb(0,0,255); fill-opacity: 1.0" transform="matrix(0.056693,0,0,0.056693,2.834646,2.834646)" /><rect x="712" y="193" width="37" height="37" style="fill: rgb(0,0,255); fill-opacity: 1.0" transform="matrix(0.056693,0,0,0.056693,2.834646,2.834646)" /><rect x="712" y="193" width="37" height="37" style="fill: rgb(0,0,255); fill-opacity: 1.0" transform="matrix(0.056693,0,0,0.056693,2.834646,2.834646)" /><rect x="712" y="193" width="37" height="37" style="fill: rgb(0,0,255); fill-opacity: 1.0" transform="matrix(0.056693,0,0,0.056693,2.834646,2.834646)" /><rect x="712" y="193" width="37" height="37" style="fill: rgb(0,0,255); fill-opacity: 1.0" transform="matrix(0.056693,0,0,0.056693,2.834646,2.834646)" /><rect x="712" y="193" width="37" height="37" style="fill: rgb(0,0,255); fill-opacity: 1.0" transform="matrix(0.056693,0,0,0.056693,2.834646,2.834646)" /><rect x="712" y="193" width="37" height="37" style="fill: rgb(0,0,255); fill-opacity: 1.0" transform="matrix(0.056693,0,0,0.056693,2.834646,2.834646)" /><rect x="712" y="193" width="37" height="37" style="fill: rgb(0,0,255); fill-opacity: 1.0" transform="matrix(0.056693,0,0,0.056693,2.834646,2.834646)" /><rect x="712" y="193" width="37" height="37" style="fill: rgb(0,0,255); fill-opacity: 1.0" transform="matrix(0.056693,0,0,0.056693,2.834646,2.834646)" /><rect x="2617" y="380" width="37" height="37" style="fill: rgb(0,0,255); fill-opacity: 1.0" transform="matrix(0.056693,0,0,0.056693,2.834646,2.834646)" /><rect x="2617" y="380" width="37" height="37" style="fill: rgb(0,0,255); fill-opacity: 1.0" transform="matrix(0.056693,0,0,0.056693,2.834646,2.834646)" /><rect x="2617" y="380" width="37" height="37" style="fill: rgb(0,0,255); fill-opacity: 1.0" transform="matrix(0.056693,0,0,0.056693,2.834646,2.834646)" /><rect x="2617" y="380" width="37" height="37" style="fill: rgb(0,0,255); fill-opacity: 1.0" transform="matrix(0.056693,0,0,0.056693,2.834646,2.834646)" /><rect x="2617" y="380" width="37" height="37" style="fill: rgb(0,0,255); fill-opacity: 1.0" transform="matrix(0.056693,0,0,0.056693,2.834646,2.834646)" /><rect x="2617" y="380" width="37" height="37" style="fill: rgb(0,0,255); fill-opacity: 1.0" transform="matrix(0.056693,0,0,0.056693,2.834646,2.834646)" /><rect x="2617" y="380" width="37" height="37" style="fill: rgb(0,0,255); fill-opacity: 1.0" transform="matrix(0.056693,0,0,0.056693,2.834646,2.834646)" /><rect x="2617" y="380" width="37" height="37" style="fill: rgb(0,0,255); fill-opacity: 1.0" transform="matrix(0.056693,0,0,0.056693,2.834646,2.834646)" /><rect x="2617" y="380" width="37" height="37" style="fill: rgb(0,0,255); fill-opacity: 1.0" transform="matrix(0.056693,0,0,0.056693,2.834646,2.834646)" /><rect x="2617" y="380" width="37" height="37" style="fill: rgb(0,0,255); fill-opacity: 1.0" transform="matrix(0.056693,0,0,0.056693,2.834646,2.834646)" /><rect x="2617" y="380" width="417" height="37" style="fill: rgb(0,0,255); fill-opacity: 1.0" transform="matrix(0.056693,0,0,0.056693,2.834646,2.834646)" /><rect x="2997" y="380" width="37" height="37" style="fill: rgb(0,0,255); fill-opacity: 1.0" transform="matrix(0.056693,0,0,0.056693,2.834646,2.834646)" /><rect x="2997" y="380" width="37" height="37" style="fill: rgb(0,0,255); fill-opacity: 1.0" transform="matrix(0.056693,0,0,0.056693,2.834646,2.834646)" /><rect x="2997" y="380" width="37" height="37" style="fill: rgb(0,0,255); fill-opacity: 1.0" transform="matrix(0.056693,0,0,0.056693,2.834646,2.834646)" /><rect x="2997" y="380" width="37" height="37" style="fill: rgb(0,0,255); fill-opacity: 1.0" transform="matrix(0.056693,0,0,0.056693,2.834646,2.834646)" /><rect x="2997" y="380" width="37" height="37" style="fill: rgb(0,0,255); fill-opacity: 1.0" transform="matrix(0.056693,0,0,0.056693,2.834646,2.834646)" /><rect x="2997" y="380" width="37" height="37" style="fill: rgb(0,0,255); fill-opacity: 1.0" transform="matrix(0.056693,0,0,0.056693,2.834646,2.834646)" /><rect x="2997" y="380" width="37" height="37" style="fill: rgb(0,0,255); fill-opacity: 1.0" transform="matrix(0.056693,0,0,0.056693,2.834646,2.834646)" /><rect x="2997" y="380" width="37" height="37" style="fill: rgb(0,0,255); fill-opacity: 1.0" transform="matrix(0.056693,0,0,0.056693,2.834646,2.834646)" /><rect x="2997" y="380" width="37" height="37" style="fill: rgb(0,0,255); fill-opacity: 1.0" transform="matrix(0.056693,0,0,0.056693,2.834646,2.834646)" /><rect x="2997" y="380" width="37" height="37" style="fill: rgb(0,0,255); fill-opacity: 1.0" transform="matrix(0.056693,0,0,0.056693,2.834646,2.834646)" /><rect x="598" y="568" width="37" height="37" style="fill: rgb(0,0,255); fill-opacity: 1.0" transform="matrix(0.056693,0,0,0.056693,2.834646,2.834646)" /><rect x="598" y="568" width="37" height="37" style="fill: rgb(0,0,255); fill-opacity: 1.0" transform="matrix(0.056693,0,0,0.056693,2.834646,2.834646)" /><rect x="598" y="568" width="37" height="37" style="fill: rgb(0,0,255); fill-opacity: 1.0" transform="matrix(0.056693,0,0,0.056693,2.834646,2.834646)" /><rect x="598" y="568" width="37" height="37" style="fill: rgb(0,0,255); fill-opacity: 1.0" transform="matrix(0.056693,0,0,0.056693,2.834646,2.834646)" /><rect x="598" y="568" width="37" height="37" style="fill: rgb(0,0,255); fill-opacity: 1.0" transform="matrix(0.056693,0,0,0.056693,2.834646,2.834646)" /><rect x="598" y="568" width="37" height="37" style="fill: rgb(0,0,255); fill-opacity: 1.0" transform="matrix(0.056693,0,0,0.056693,2.834646,2.834646)" /><rect x="598" y="568" width="37" height="37" style="fill: rgb(0,0,255); fill-opacity: 1.0" transform="matrix(0.056693,0,0,0.056693,2.834646,2.834646)" /><rect x="598" y="568" width="37" height="37" style="fill: rgb(0,0,255); fill-opacity: 1.0" transform="matrix(0.056693,0,0,0.056693,2.834646,2.834646)" /><rect x="598" y="568" width="37" height="37" style="fill: rgb(0,0,255); fill-opacity: 1.0" transform="matrix(0.056693,0,0,0.056693,2.834646,2.834646)" /><rect x="598" y="568" width="37" height="37" style="fill: rgb(0,0,255); fill-opacity: 1.0" transform="matrix(0.056693,0,0,0.056693,2.834646,2.834646)" /><rect x="598" y="568" width="151" height="37" style="fill: rgb(0,0,255); fill-opacity: 1.0" transform="matrix(0.056693,0,0,0.056693,2.834646,2.834646)" /><rect x="712" y="568" width="37" height="37" style="fill: rgb(0,0,255); fill-opacity: 1.0" transform="matrix(0.056693,0,0,0.056693,2.834646,2.834646)" /><rect x="712" y="568" width="37" height="37" style="fill: rgb(0,0,255); fill-opacity: 1.0" transform="matrix(0.056693,0,0,0.056693,2.834646,2.834646)" /><rect x="712" y="568" width="37" height="37" style="fill: rgb(0,0,255); fill-opacity: 1.0" transform="matrix(0.056693,0,0,0.056693,2.834646,2.834646)" /><rect x="712" y="568" width="37" height="37" style="fill: rgb(0,0,255); fill-opacity: 1.0" transform="matrix(0.056693,0,0,0.056693,2.834646,2.834646)" /><rect x="712" y="568" width="37" height="37" style="fill: rgb(0,0,255); fill-opacity: 1.0" transform="matrix(0.056693,0,0,0.056693,2.834646,2.834646)" /><rect x="712" y="568" width="37" height="37" style="fill: rgb(0,0,255); fill-opacity: 1.0" transform="matrix(0.056693,0,0,0.056693,2.834646,2.834646)" /><rect x="712" y="568" width="37" height="37" style="fill: rgb(0,0,255); fill-opacity: 1.0" transform="matrix(0.056693,0,0,0.056693,2.834646,2.834646)" /><rect x="712" y="568" width="37" height="37" style="fill: rgb(0,0,255); fill-opacity: 1.0" transform="matrix(0.056693,0,0,0.056693,2.834646,2.834646)" /><rect x="712" y="568" width="37" height="37" style="fill: rgb(0,0,255); fill-opacity: 1.0" transform="matrix(0.056693,0,0,0.056693,2.834646,2.834646)" /><rect x="712" y="568" width="37" height="37" style="fill: rgb(0,0,255); fill-opacity: 1.0" transform="matrix(0.056693,0,0,0.056693,2.834646,2.834646)" /><rect x="986" y="380" width="37" height="37" style="fill: rgb(0,0,255); fill-opacity: 1.0" transform="matrix(0.056693,0,0,0.056693,2.834646,2.834646)" /><rect x="986" y="380" width="37" height="37" style="fill: rgb(0,0,255); fill-opacity: 1.0" transform="matrix(0.056693,0,0,0.056693,2.834646,2.834646)" /><rect x="986" y="380" width="37" height="37" style="fill: rgb(0,0,255); fill-opacity: 1.0" transform="matrix(0.056693,0,0,0.056693,2.834646,2.834646)" /><rect x="986" y="380" width="37" height="37" style="fill: rgb(0,0,255); fill-opacity: 1.0" transform="matrix(0.056693,0,0,0.056693,2.834646,2.834646)" /><rect x="986" y="380" width="37" height="37" style="fill: rgb(0,0,255); fill-opacity: 1.0" transform="matrix(0.056693,0,0,0.056693,2.834646,2.834646)" /><rect x="986" y="380" width="37" height="37" style="fill: rgb(0,0,255); fill-opacity: 1.0" transform="matrix(0.056693,0,0,0.056693,2.834646,2.834646)" /><rect x="986" y="380" width="37" height="37" style="fill: rgb(0,0,255); fill-opacity: 1.0" transform="matrix(0.056693,0,0,0.056693,2.834646,2.834646)" /><rect x="986" y="380" width="37" height="37" style="fill: rgb(0,0,255); fill-opacity: 1.0" transform="matrix(0.056693,0,0,0.056693,2.834646,2.834646)" /><rect x="986" y="380" width="37" height="37" style="fill: rgb(0,0,255); fill-opacity: 1.0" transform="matrix(0.056693,0,0,0.056693,2.834646,2.834646)" /><rect x="986" y="380" width="37" height="37" style="fill: rgb(0,0,255); fill-opacity: 1.0" transform="matrix(0.056693,0,0,0.056693,2.834646,2.834646)" /><rect x="986" y="380" width="151" height="37" style="fill: rgb(0,0,255); fill-opacity: 1.0" transform="matrix(0.056693,0,0,0.056693,2.834646,2.834646)" /><rect x="1100" y="380" width="37" height="37" style="fill: rgb(0,0,255); fill-opacity: 1.0" transform="matrix(0.056693,0,0,0.056693,2.834646,2.834646)" /><rect x="1100" y="380" width="37" height="37" style="fill: rgb(0,0,255); fill-opacity: 1.0" transform="matrix(0.056693,0,0,0.056693,2.834646,2.834646)" /><rect x="1100" y="380" width="37" height="37" style="fill: rgb(0,0,255); fill-opacity: 1.0" transform="matrix(0.056693,0,0,0.056693,2.834646,2.834646)" /><rect x="1100" y="380" width="37" height="37" style="fill: rgb(0,0,255); fill-opacity: 1.0" transform="matrix(0.056693,0,0,0.056693,2.834646,2.834646)" /><rect x="1100" y="380" width="37" height="37" style="fill: rgb(0,0,255); fill-opacity: 1.0" transform="matrix(0.056693,0,0,0.056693,2.834646,2.834646)" /><rect x="1100" y="380" width="37" height="37" style="fill: rgb(0,0,255); fill-opacity: 1.0" transform="matrix(0.056693,0,0,0.056693,2.834646,2.834646)" /><rect x="1100" y="380" width="37" height="37" style="fill: rgb(0,0,255); fill-opacity: 1.0" transform="matrix(0.056693,0,0,0.056693,2.834646,2.834646)" /><rect x="1100" y="380" width="37" height="37" style="fill: rgb(0,0,255); fill-opacity: 1.0" transform="matrix(0.056693,0,0,0.056693,2.834646,2.834646)" /><rect x="1100" y="380" width="37" height="37" style="fill: rgb(0,0,255); fill-opacity: 1.0" transform="matrix(0.056693,0,0,0.056693,2.834646,2.834646)" /><rect x="1100" y="380" width="37" height="37" style="fill: rgb(0,0,255); fill-opacity: 1.0" transform="matrix(0.056693,0,0,0.056693,2.834646,2.834646)" /></svg>
