<?xml version="1.0"?>
<!DOCTYPE svg PUBLIC "-//W3C//DTD SVG 1.0//EN" "http://www.w3.org/TR/2001/REC-SVG-20010904/DTD/svg10.dtd">
<svg xmlns="http://www.w3.org/2000/svg" xmlns:xlink="http://www.w3.org/1999/xlink" xmlns:jfreesvg="http://www.jfree.org/jfreesvg/svg" width="38" height="31" text-rendering="auto" shape-rendering="auto">
<defs></defs>
<line x1="0" y1="0" x2="13299" y2="0" style="stroke-width: 50.0;stroke: rgb(0,0,0);stroke-opacity: 1.0;stroke-linecap: round;stroke-linejoin: round;" transform="matrix(-0.002835,0,0,0.002835,38,0)" /><line x1="13300" y1="0" x2="13300" y2="10859" style="stroke-width: 50.0;stroke: rgb(0,0,0);stroke-opacity: 1.0;stroke-linecap: round;stroke-linejoin: round;" transform="matrix(-0.002835,0,0,0.002835,38,0)" /><line x1="13300" y1="10860" x2="1" y2="10860" style="stroke-width: 50.0;stroke: rgb(0,0,0);stroke-opacity: 1.0;stroke-linecap: round;stroke-linejoin: round;" transform="matrix(-0.002835,0,0,0.002835,38,0)" /><line x1="0" y1="10860" x2="0" y2="1" style="stroke-width: 50.0;stroke: rgb(0,0,0);stroke-opacity: 1.0;stroke-linecap: round;stroke-linejoin: round;" transform="matrix(-0.002835,0,0,0.002835,38,0)" /><g style="fill: rgb(255,0,0); fill-opacity: 1.0; stroke: none" transform="matrix(-0.028346,0,0,0.028346,35.165354,2.834646)" ><path d="M 585 500 C 585 513.81 573.81 525 560 525 C 546.19 525 535 513.81 535 500 C 535 486.19 546.19 475 560 475 C 573.81 475 585 486.19 585 500 Z "/></g><g style="fill: rgb(255,0,0); fill-opacity: 1.0; stroke: none" transform="matrix(-0.028346,0,0,0.028346,35.165354,2.834646)" ><path d="M 570 666 C 570 671.52 565.52 676 560 676 C 554.48 676 550 671.52 550 666 C 550 660.48 554.48 656 560 656 C 565.52 656 570 660.48 570 666 Z "/></g><rect x="555" y="651" width="10" height="10" style="fill: rgb(255,0,0); fill-opacity: 1.0" transform="matrix(-0.028346,0,0,0.028346,35.165354,2.834646)" /><rect x="555" y="651" width="10" height="10" style="fill: rgb(255,0,0); fill-opacity: 1.0" transform="matrix(-0.028346,0,0,0.028346,35.165354,2.834646)" /><rect x="555" y="651" width="10" height="10" style="fill: rgb(255,0,0); fill-opacity: 1.0" transform="matrix(-0.028346,0,0,0.028346,35.165354,2.834646)" /><rect x="555" y="651" width="10" height="10" style="fill: rgb(255,0,0); fill-opacity: 1.0" transform="matrix(-0.028346,0,0,0.028346,35.165354,2.834646)" /><rect x="555" y="651" width="10" height="10" style="fill: rgb(255,0,0); fill-opacity: 1.0" transform="matrix(-0.028346,0,0,0.028346,35.165354,2.834646)" /><rect x="555" y="651" width="10" height="10" style="fill: rgb(255,0,0); fill-opacity: 1.0" transform="matrix(-0.028346,0,0,0.028346,35.165354,2.834646)" /><rect x="555" y="651" width="10" height="10" style="fill: rgb(255,0,0); fill-opacity: 1.0" transform="matrix(-0.028346,0,0,0.028346,35.165354,2.834646)" /><rect x="555" y="651" width="10" height="10" style="fill: rgb(255,0,0); fill-opacity: 1.0" transform="matrix(-0.028346,0,0,0.028346,35.165354,2.834646)" /><rect x="555" y="651" width="10" height="10" style="fill: rgb(255,0,0); fill-opacity: 1.0" transform="matrix(-0.028346,0,0,0.028346,35.165354,2.834646)" /><rect x="555" y="651" width="10" height="10" style="fill: rgb(255,0,0); fill-opacity: 1.0" transform="matrix(-0.028346,0,0,0.028346,35.165354,2.834646)" /><rect x="555" y="651" width="10" height="10" style="fill: rgb(255,0,0); fill-opacity: 1.0" transform="matrix(-0.028346,0,0,0.028346,35.165354,2.834646)" /><rect x="555" y="651" width="10" height="10" style="fill: rgb(255,0,0); fill-opacity: 1.0" transform="matrix(-0.028346,0,0,0.028346,35.165354,2.834646)" /><rect x="555" y="651" width="10" height="10" style="fill: rgb(255,0,0); fill-opacity: 1.0" transform="matrix(-0.028346,0,0,0.028346,35.165354,2.834646)" /><rect x="555" y="651" width="10" height="10" style="fill: rgb(255,0,0); fill-opacity: 1.0" transform="matrix(-0.028346,0,0,0.028346,35.165354,2.834646)" /><rect x="555" y="651" width="10" height="10" style="fill: rgb(255,0,0); fill-opacity: 1.0" transform="matrix(-0.028346,0,0,0.028346,35.165354,2.834646)" /><rect x="555" y="651" width="10" height="10" style="fill: rgb(255,0,0); fill-opacity: 1.0" transform="matrix(-0.028346,0,0,0.028346,35.165354,2.834646)" /><rect x="555" y="651" width="10" height="10" style="fill: rgb(255,0,0); fill-opacity: 1.0" transform="matrix(-0.028346,0,0,0.028346,35.165354,2.834646)" /><rect x="555" y="651" width="10" height="10" style="fill: rgb(255,0,0); fill-opacity: 1.0" transform="matrix(-0.028346,0,0,0.028346,35.165354,2.834646)" /><rect x="555" y="651" width="10" height="10" style="fill: rgb(255,0,0); fill-opacity: 1.0" transform="matrix(-0.028346,0,0,0.028346,35.165354,2.834646)" /><rect x="555" y="651" width="10" height="10" style="fill: rgb(255,0,0); fill-opacity: 1.0" transform="matrix(-0.028346,0,0,0.028346,35.165354,2.834646)" /><rect x="555" y="651" width="10" height="10" style="fill: rgb(255,0,0); fill-opacity: 1.0" transform="matrix(-0.028346,0,0,0.028346,35.165354,2.834646)" /><rect x="555" y="651" width="10" height="10" style="fill: rgb(255,0,0); fill-opacity: 1.0" transform="matrix(-0.028346,0,0,0.028346,35.165354,2.834646)" /><rect x="555" y="651" width="10" height="10" style="fill: rgb(255,0,0); fill-opacity: 1.0" transform="matrix(-0.028346,0,0,0.028346,35.165354,2.834646)" /><rect x="555" y="651" width="10" height="10" style="fill: rgb(255,0,0); fill-opacity: 1.0" transform="matrix(-0.028346,0,0,0.028346,35.165354,2.834646)" /><rect x="555" y="651" width="10" height="10" style="fill: rgb(255,0,0); fill-opacity: 1.0" transform="matrix(-0.028346,0,0,0.028346,35.165354,2.834646)" /><rect x="555" y="651" width="10" height="10" style="fill: rgb(255,0,0); fill-opacity: 1.0" transform="matrix(-0.028346,0,0,0.028346,35.165354,2.834646)" /><rect x="555" y="651" width="10" height="10" style="fill: rgb(255,0,0); fill-opacity: 1.0" transform="matrix(-0.028346,0,0,0.028346,35.165354,2.834646)" /><rect x="555" y="651" width="10" height="10" style="fill: rgb(255,0,0); fill-opacity: 1.0" transform="matrix(-0.028346,0,0,0.028346,35.165354,2.834646)" /><rect x="555" y="651" width="10" height="10" style="fill: rgb(255,0,0); fill-opacity: 1.0" transform="matrix(-0.028346,0,0,0.028346,35.165354,2.834646)" /><rect x="555" y="651" width="10" height="10" style="fill: rgb(255,0,0); fill-opacity: 1.0" transform="matrix(-0.028346,0,0,0.028346,35.165354,2.834646)" /><rect x="555" y="651" width="10" height="10" style="fill: rgb(255,0,0); fill-opacity: 1.0" transform="matrix(-0.028346,0,0,0.028346,35.165354,2.834646)" /><rect x="555" y="651" width="10" height="10" style="fill: rgb(255,0,0); fill-opacity: 1.0" transform="matrix(-0.028346,0,0,0.028346,35.165354,2.834646)" /><rect x="555" y="651" width="10" height="10" style="fill: rgb(255,0,0); fill-opacity: 1.0" transform="matrix(-0.028346,0,0,0.028346,35.165354,2.834646)" /><rect x="555" y="651" width="10" height="10" style="fill: rgb(255,0,0); fill-opacity: 1.0" transform="matrix(-0.028346,0,0,0.028346,35.165354,2.834646)" /><rect x="555" y="651" width="10" height="10" style="fill: rgb(255,0,0); fill-opacity: 1.0" transform="matrix(-0.028346,0,0,0.028346,35.165354,2.834646)" /><rect x="555" y="651" width="10" height="10" style="fill: rgb(255,0,0); fill-opacity: 1.0" transform="matrix(-0.028346,0,0,0.028346,35.165354,2.834646)" /><rect x="555" y="651" width="10" height="10" style="fill: rgb(255,0,0); fill-opacity: 1.0" transform="matrix(-0.028346,0,0,0.028346,35.165354,2.834646)" /><rect x="555" y="651" width="10" height="10" style="fill: rgb(255,0,0); fill-opacity: 1.0" transform="matrix(-0.028346,0,0,0.028346,35.165354,2.834646)" /><rect x="555" y="651" width="10" height="10" style="fill: rgb(255,0,0); fill-opacity: 1.0" transform="matrix(-0.028346,0,0,0.028346,35.165354,2.834646)" /><rect x="555" y="651" width="10" height="10" style="fill: rgb(255,0,0); fill-opacity: 1.0" transform="matrix(-0.028346,0,0,0.028346,35.165354,2.834646)" /><rect x="555" y="651" width="10" height="10" style="fill: rgb(255,0,0); fill-opacity: 1.0" transform="matrix(-0.028346,0,0,0.028346,35.165354,2.834646)" /><rect x="555" y="651" width="10" height="10" style="fill: rgb(255,0,0); fill-opacity: 1.0" transform="matrix(-0.028346,0,0,0.028346,35.165354,2.834646)" /><rect x="555" y="651" width="10" height="10" style="fill: rgb(255,0,0); fill-opacity: 1.0" transform="matrix(-0.028346,0,0,0.028346,35.165354,2.834646)" /><rect x="555" y="651" width="10" height="10" style="fill: rgb(255,0,0); fill-opacity: 1.0" transform="matrix(-0.028346,0,0,0.028346,35.165354,2.834646)" /><rect x="555" y="651" width="10" height="10" style="fill: rgb(255,0,0); fill-opacity: 1.0" transform="matrix(-0.028346,0,0,0.028346,35.165354,2.834646)" /><rect x="555" y="651" width="10" height="10" style="fill: rgb(255,0,0); fill-opacity: 1.0" transform="matrix(-0.028346,0,0,0.028346,35.165354,2.834646)" /><rect x="555" y="651" width="10" height="10" style="fill: rgb(255,0,0); fill-opacity: 1.0" transform="matrix(-0.028346,0,0,0.028346,35.165354,2.834646)" /><rect x="555" y="651" width="10" height="10" style="fill: rgb(255,0,0); fill-opacity: 1.0" transform="matrix(-0.028346,0,0,0.028346,35.165354,2.834646)" /><rect x="555" y="651" width="10" height="10" style="fill: rgb(255,0,0); fill-opacity: 1.0" transform="matrix(-0.028346,0,0,0.028346,35.165354,2.834646)" /><rect x="555" y="651" width="10" height="10" style="fill: rgb(255,0,0); fill-opacity: 1.0" transform="matrix(-0.028346,0,0,0.028346,35.165354,2.834646)" /><rect x="555" y="651" width="10" height="10" style="fill: rgb(255,0,0); fill-opacity: 1.0" transform="matrix(-0.028346,0,0,0.028346,35.165354,2.834646)" /><rect x="555" y="651" width="10" height="10" style="fill: rgb(255,0,0); fill-opacity: 1.0" transform="matrix(-0.028346,0,0,0.028346,35.165354,2.834646)" /><rect x="555" y="651" width="10" height="10" style="fill: rgb(255,0,0); fill-opacity: 1.0" transform="matrix(-0.028346,0,0,0.028346,35.165354,2.834646)" /><rect x="555" y="651" width="10" height="10" style="fill: rgb(255,0,0); fill-opacity: 1.0" transform="matrix(-0.028346,0,0,0.028346,35.165354,2.834646)" /><rect x="555" y="651" width="10" height="10" style="fill: rgb(255,0,0); fill-opacity: 1.0" transform="matrix(-0.028346,0,0,0.028346,35.165354,2.834646)" /><rect x="555" y="651" width="10" height="10" style="fill: rgb(255,0,0); fill-opacity: 1.0" transform="matrix(-0.028346,0,0,0.028346,35.165354,2.834646)" /><rect x="555" y="651" width="10" height="10" style="fill: rgb(255,0,0); fill-opacity: 1.0" transform="matrix(-0.028346,0,0,0.028346,35.165354,2.834646)" /><rect x="555" y="651" width="10" height="10" style="fill: rgb(255,0,0); fill-opacity: 1.0" transform="matrix(-0.028346,0,0,0.028346,35.165354,2.834646)" /><rect x="555" y="651" width="10" height="10" style="fill: rgb(255,0,0); fill-opacity: 1.0" transform="matrix(-0.028346,0,0,0.028346,35.165354,2.834646)" /><rect x="555" y="651" width="10" height="10" style="fill: rgb(255,0,0); fill-opacity: 1.0" transform="matrix(-0.028346,0,0,0.028346,35.165354,2.834646)" /><rect x="555" y="651" width="10" height="10" style="fill: rgb(255,0,0); fill-opacity: 1.0" transform="matrix(-0.028346,0,0,0.028346,35.165354,2.834646)" /><rect x="555" y="651" width="10" height="10" style="fill: rgb(255,0,0); fill-opacity: 1.0" transform="matrix(-0.028346,0,0,0.028346,35.165354,2.834646)" /><rect x="555" y="651" width="10" height="10" style="fill: rgb(255,0,0); fill-opacity: 1.0" transform="matrix(-0.028346,0,0,0.028346,35.165354,2.834646)" /><rect x="555" y="651" width="10" height="10" style="fill: rgb(255,0,0); fill-opacity: 1.0" transform="matrix(-0.028346,0,0,0.028346,35.165354,2.834646)" /><rect x="555" y="520" width="10" height="141" style="fill: rgb(255,0,0); fill-opacity: 1.0" transform="matrix(-0.028346,0,0,0.028346,35.165354,2.834646)" /><rect x="555" y="520" width="10" height="10" style="fill: rgb(255,0,0); fill-opacity: 1.0" transform="matrix(-0.028346,0,0,0.028346,35.165354,2.834646)" /><rect x="555" y="520" width="10" height="10" style="fill: rgb(255,0,0); fill-opacity: 1.0" transform="matrix(-0.028346,0,0,0.028346,35.165354,2.834646)" /><rect x="555" y="520" width="10" height="10" style="fill: rgb(255,0,0); fill-opacity: 1.0" transform="matrix(-0.028346,0,0,0.028346,35.165354,2.834646)" /><rect x="555" y="520" width="10" height="10" style="fill: rgb(255,0,0); fill-opacity: 1.0" transform="matrix(-0.028346,0,0,0.028346,35.165354,2.834646)" /><rect x="555" y="520" width="10" height="10" style="fill: rgb(255,0,0); fill-opacity: 1.0" transform="matrix(-0.028346,0,0,0.028346,35.165354,2.834646)" /><rect x="555" y="520" width="10" height="10" style="fill: rgb(255,0,0); fill-opacity: 1.0" transform="matrix(-0.028346,0,0,0.028346,35.165354,2.834646)" /><rect x="555" y="520" width="10" height="10" style="fill: rgb(255,0,0); fill-opacity: 1.0" transform="matrix(-0.028346,0,0,0.028346,35.165354,2.834646)" /><rect x="555" y="520" width="10" height="10" style="fill: rgb(255,0,0); fill-opacity: 1.0" transform="matrix(-0.028346,0,0,0.028346,35.165354,2.834646)" /><rect x="555" y="520" width="10" height="10" style="fill: rgb(255,0,0); fill-opacity: 1.0" transform="matrix(-0.028346,0,0,0.028346,35.165354,2.834646)" /><rect x="555" y="520" width="10" height="10" style="fill: rgb(255,0,0); fill-opacity: 1.0" transform="matrix(-0.028346,0,0,0.028346,35.165354,2.834646)" /><rect x="555" y="520" width="10" height="10" style="fill: rgb(255,0,0); fill-opacity: 1.0" transform="matrix(-0.028346,0,0,0.028346,35.165354,2.834646)" /><rect x="555" y="520" width="10" height="10" style="fill: rgb(255,0,0); fill-opacity: 1.0" transform="matrix(-0.028346,0,0,0.028346,35.165354,2.834646)" /><rect x="555" y="520" width="10" height="10" style="fill: rgb(255,0,0); fill-opacity: 1.0" transform="matrix(-0.028346,0,0,0.028346,35.165354,2.834646)" /><rect x="555" y="520" width="10" height="10" style="fill: rgb(255,0,0); fill-opacity: 1.0" transform="matrix(-0.028346,0,0,0.028346,35.165354,2.834646)" /><rect x="555" y="520" width="10" height="10" style="fill: rgb(255,0,0); fill-opacity: 1.0" transform="matrix(-0.028346,0,0,0.028346,35.165354,2.834646)" /><rect x="555" y="520" width="10" height="10" style="fill: rgb(255,0,0); fill-opacity: 1.0" transform="matrix(-0.028346,0,0,0.028346,35.165354,2.834646)" /><rect x="555" y="520" width="10" height="10" style="fill: rgb(255,0,0); fill-opacity: 1.0" transform="matrix(-0.028346,0,0,0.028346,35.165354,2.834646)" /><rect x="555" y="520" width="10" height="10" style="fill: rgb(255,0,0); fill-opacity: 1.0" transform="matrix(-0.028346,0,0,0.028346,35.165354,2.834646)" /><rect x="555" y="520" width="10" height="10" style="fill: rgb(255,0,0); fill-opacity: 1.0" transform="matrix(-0.028346,0,0,0.028346,35.165354,2.834646)" /><rect x="555" y="520" width="10" height="10" style="fill: rgb(255,0,0); fill-opacity: 1.0" transform="matrix(-0.028346,0,0,0.028346,35.165354,2.834646)" /><rect x="555" y="520" width="10" height="10" style="fill: rgb(255,0,0); fill-opacity: 1.0" transform="matrix(-0.028346,0,0,0.028346,35.165354,2.834646)" /><rect x="555" y="520" width="10" height="10" style="fill: rgb(255,0,0); fill-opacity: 1.0" transform="matrix(-0.028346,0,0,0.028346,35.165354,2.834646)" /><rect x="555" y="520" width="10" height="10" style="fill: rgb(255,0,0); fill-opacity: 1.0" transform="matrix(-0.028346,0,0,0.028346,35.165354,2.834646)" /><rect x="555" y="520" width="10" height="10" style="fill: rgb(255,0,0); fill-opacity: 1.0" transform="matrix(-0.028346,0,0,0.028346,35.165354,2.834646)" /><rect x="555" y="520" width="10" height="10" style="fill: rgb(255,0,0); fill-opacity: 1.0" transform="matrix(-0.028346,0,0,0.028346,35.165354,2.834646)" /><rect x="555" y="520" width="10" height="10" style="fill: rgb(255,0,0); fill-opacity: 1.0" transform="matrix(-0.028346,0,0,0.028346,35.165354,2.834646)" /><rect x="555" y="520" width="10" height="10" style="fill: rgb(255,0,0); fill-opacity: 1.0" transform="matrix(-0.028346,0,0,0.028346,35.165354,2.834646)" /><rect x="555" y="520" width="10" height="10" style="fill: rgb(255,0,0); fill-opacity: 1.0" transform="matrix(-0.028346,0,0,0.028346,35.165354,2.834646)" /><rect x="555" y="520" width="10" height="10" style="fill: rgb(255,0,0); fill-opacity: 1.0" transform="matrix(-0.028346,0,0,0.028346,35.165354,2.834646)" /><rect x="555" y="520" width="10" height="10" style="fill: rgb(255,0,0); fill-opacity: 1.0" transform="matrix(-0.028346,0,0,0.028346,35.165354,2.834646)" /><rect x="555" y="520" width="10" height="10" style="fill: rgb(255,0,0); fill-opacity: 1.0" transform="matrix(-0.028346,0,0,0.028346,35.165354,2.834646)" /><rect x="555" y="520" width="10" height="10" style="fill: rgb(255,0,0); fill-opacity: 1.0" transform="matrix(-0.028346,0,0,0.028346,35.165354,2.834646)" /><rect x="555" y="520" width="10" height="10" style="fill: rgb(255,0,0); fill-opacity: 1.0" transform="matrix(-0.028346,0,0,0.028346,35.165354,2.834646)" /><rect x="555" y="520" width="10" height="10" style="fill: rgb(255,0,0); fill-opacity: 1.0" transform="matrix(-0.028346,0,0,0.028346,35.165354,2.834646)" /><rect x="555" y="520" width="10" height="10" style="fill: rgb(255,0,0); fill-opacity: 1.0" transform="matrix(-0.028346,0,0,0.028346,35.165354,2.834646)" /><rect x="555" y="520" width="10" height="10" style="fill: rgb(255,0,0); fill-opacity: 1.0" transform="matrix(-0.028346,0,0,0.028346,35.165354,2.834646)" /><rect x="555" y="520" width="10" height="10" style="fill: rgb(255,0,0); fill-opacity: 1.0" transform="matrix(-0.028346,0,0,0.028346,35.165354,2.834646)" /><rect x="555" y="520" width="10" height="10" style="fill: rgb(255,0,0); fill-opacity: 1.0" transform="matrix(-0.028346,0,0,0.028346,35.165354,2.834646)" /><rect x="555" y="520" width="10" height="10" style="fill: rgb(255,0,0); fill-opacity: 1.0" transform="matrix(-0.028346,0,0,0.028346,35.165354,2.834646)" /><rect x="555" y="520" width="10" height="10" style="fill: rgb(255,0,0); fill-opacity: 1.0" transform="matrix(-0.028346,0,0,0.028346,35.165354,2.834646)" /><rect x="555" y="520" width="10" height="10" style="fill: rgb(255,0,0); fill-opacity: 1.0" transform="matrix(-0.028346,0,0,0.028346,35.165354,2.834646)" /><rect x="555" y="520" width="10" height="10" style="fill: rgb(255,0,0); fill-opacity: 1.0" transform="matrix(-0.028346,0,0,0.028346,35.165354,2.834646)" /><rect x="555" y="520" width="10" height="10" style="fill: rgb(255,0,0); fill-opacity: 1.0" transform="matrix(-0.028346,0,0,0.028346,35.165354,2.834646)" /><rect x="555" y="520" width="10" height="10" style="fill: rgb(255,0,0); fill-opacity: 1.0" transform="matrix(-0.028346,0,0,0.028346,35.165354,2.834646)" /><rect x="555" y="520" width="10" height="10" style="fill: rgb(255,0,0); fill-opacity: 1.0" transform="matrix(-0.028346,0,0,0.028346,35.165354,2.834646)" /><rect x="555" y="520" width="10" height="10" style="fill: rgb(255,0,0); fill-opacity: 1.0" transform="matrix(-0.028346,0,0,0.028346,35.165354,2.834646)" /><rect x="555" y="520" width="10" height="10" style="fill: rgb(255,0,0); fill-opacity: 1.0" transform="matrix(-0.028346,0,0,0.028346,35.165354,2.834646)" /><rect x="555" y="520" width="10" height="10" style="fill: rgb(255,0,0); fill-opacity: 1.0" transform="matrix(-0.028346,0,0,0.028346,35.165354,2.834646)" /><rect x="555" y="520" width="10" height="10" style="fill: rgb(255,0,0); fill-opacity: 1.0" transform="matrix(-0.028346,0,0,0.028346,35.165354,2.834646)" /><rect x="555" y="520" width="10" height="10" style="fill: rgb(255,0,0); fill-opacity: 1.0" transform="matrix(-0.028346,0,0,0.028346,35.165354,2.834646)" /><rect x="555" y="520" width="10" height="10" style="fill: rgb(255,0,0); fill-opacity: 1.0" transform="matrix(-0.028346,0,0,0.028346,35.165354,2.834646)" /><rect x="555" y="520" width="10" height="10" style="fill: rgb(255,0,0); fill-opacity: 1.0" transform="matrix(-0.028346,0,0,0.028346,35.165354,2.834646)" /><rect x="555" y="520" width="10" height="10" style="fill: rgb(255,0,0); fill-opacity: 1.0" transform="matrix(-0.028346,0,0,0.028346,35.165354,2.834646)" /><rect x="555" y="520" width="10" height="10" style="fill: rgb(255,0,0); fill-opacity: 1.0" transform="matrix(-0.028346,0,0,0.028346,35.165354,2.834646)" /><rect x="555" y="520" width="10" height="10" style="fill: rgb(255,0,0); fill-opacity: 1.0" transform="matrix(-0.028346,0,0,0.028346,35.165354,2.834646)" /><rect x="555" y="520" width="10" height="10" style="fill: rgb(255,0,0); fill-opacity: 1.0" transform="matrix(-0.028346,0,0,0.028346,35.165354,2.834646)" /><rect x="555" y="520" width="10" height="10" style="fill: rgb(255,0,0); fill-opacity: 1.0" transform="matrix(-0.028346,0,0,0.028346,35.165354,2.834646)" /><rect x="555" y="520" width="10" height="10" style="fill: rgb(255,0,0); fill-opacity: 1.0" transform="matrix(-0.028346,0,0,0.028346,35.165354,2.834646)" /><rect x="555" y="520" width="10" height="10" style="fill: rgb(255,0,0); fill-opacity: 1.0" transform="matrix(-0.028346,0,0,0.028346,35.165354,2.834646)" /><rect x="555" y="520" width="10" height="10" style="fill: rgb(255,0,0); fill-opacity: 1.0" transform="matrix(-0.028346,0,0,0.028346,35.165354,2.834646)" /><rect x="555" y="520" width="10" height="10" style="fill: rgb(255,0,0); fill-opacity: 1.0" transform="matrix(-0.028346,0,0,0.028346,35.165354,2.834646)" /><rect x="555" y="520" width="10" height="10" style="fill: rgb(255,0,0); fill-opacity: 1.0" transform="matrix(-0.028346,0,0,0.028346,35.165354,2.834646)" /><rect x="555" y="520" width="10" height="10" style="fill: rgb(255,0,0); fill-opacity: 1.0" transform="matrix(-0.028346,0,0,0.028346,35.165354,2.834646)" /><rect x="555" y="520" width="10" height="10" style="fill: rgb(255,0,0); fill-opacity: 1.0" transform="matrix(-0.028346,0,0,0.028346,35.165354,2.834646)" /></svg>
