<?xml version="1.0"?>
<!DOCTYPE svg PUBLIC "-//W3C//DTD SVG 1.0//EN" "http://www.w3.org/TR/2001/REC-SVG-20010904/DTD/svg10.dtd">
<svg xmlns="http://www.w3.org/2000/svg" xmlns:xlink="http://www.w3.org/1999/xlink" xmlns:jfreesvg="http://www.jfree.org/jfreesvg/svg" width="38" height="33" text-rendering="auto" shape-rendering="auto">
<defs></defs>
<line x1="0" y1="0" x2="13119" y2="0" style="stroke-width: 50.0;stroke: rgb(0,0,0);stroke-opacity: 1.0;stroke-linecap: round;stroke-linejoin: round;" transform="matrix(-0.002835,0,0,0.002835,38,0)" /><line x1="13120" y1="0" x2="13120" y2="11539" style="stroke-width: 50.0;stroke: rgb(0,0,0);stroke-opacity: 1.0;stroke-linecap: round;stroke-linejoin: round;" transform="matrix(-0.002835,0,0,0.002835,38,0)" /><line x1="13120" y1="11540" x2="1" y2="11540" style="stroke-width: 50.0;stroke: rgb(0,0,0);stroke-opacity: 1.0;stroke-linecap: round;stroke-linejoin: round;" transform="matrix(-0.002835,0,0,0.002835,38,0)" /><line x1="0" y1="11540" x2="0" y2="1" style="stroke-width: 50.0;stroke: rgb(0,0,0);stroke-opacity: 1.0;stroke-linecap: round;stroke-linejoin: round;" transform="matrix(-0.002835,0,0,0.002835,38,0)" /><g style="fill: rgb(255,0,0); fill-opacity: 1.0; stroke: none" transform="matrix(-0.028346,0,0,0.028346,35.165354,2.834646)" ><path d="M 659 479 C 659 492.81 647.81 504 634 504 C 620.19 504 609 492.81 609 479 C 609 465.19 620.19 454 634 454 C 647.81 454 659 465.19 659 479 Z "/></g><g style="fill: rgb(255,0,0); fill-opacity: 1.0; stroke: none" transform="matrix(-0.028346,0,0,0.028346,35.165354,2.834646)" ><path d="M 644 734 C 644 739.52 639.52 744 634 744 C 628.48 744 624 739.52 624 734 C 624 728.48 628.48 724 634 724 C 639.52 724 644 728.48 644 734 Z "/></g><rect x="629" y="719" width="10" height="10" style="fill: rgb(255,0,0); fill-opacity: 1.0" transform="matrix(-0.028346,0,0,0.028346,35.165354,2.834646)" /><rect x="629" y="719" width="10" height="10" style="fill: rgb(255,0,0); fill-opacity: 1.0" transform="matrix(-0.028346,0,0,0.028346,35.165354,2.834646)" /><rect x="629" y="719" width="10" height="10" style="fill: rgb(255,0,0); fill-opacity: 1.0" transform="matrix(-0.028346,0,0,0.028346,35.165354,2.834646)" /><rect x="629" y="719" width="10" height="10" style="fill: rgb(255,0,0); fill-opacity: 1.0" transform="matrix(-0.028346,0,0,0.028346,35.165354,2.834646)" /><rect x="629" y="719" width="10" height="10" style="fill: rgb(255,0,0); fill-opacity: 1.0" transform="matrix(-0.028346,0,0,0.028346,35.165354,2.834646)" /><rect x="629" y="719" width="10" height="10" style="fill: rgb(255,0,0); fill-opacity: 1.0" transform="matrix(-0.028346,0,0,0.028346,35.165354,2.834646)" /><rect x="629" y="719" width="10" height="10" style="fill: rgb(255,0,0); fill-opacity: 1.0" transform="matrix(-0.028346,0,0,0.028346,35.165354,2.834646)" /><rect x="629" y="719" width="10" height="10" style="fill: rgb(255,0,0); fill-opacity: 1.0" transform="matrix(-0.028346,0,0,0.028346,35.165354,2.834646)" /><rect x="629" y="719" width="10" height="10" style="fill: rgb(255,0,0); fill-opacity: 1.0" transform="matrix(-0.028346,0,0,0.028346,35.165354,2.834646)" /><rect x="629" y="719" width="10" height="10" style="fill: rgb(255,0,0); fill-opacity: 1.0" transform="matrix(-0.028346,0,0,0.028346,35.165354,2.834646)" /><rect x="629" y="719" width="10" height="10" style="fill: rgb(255,0,0); fill-opacity: 1.0" transform="matrix(-0.028346,0,0,0.028346,35.165354,2.834646)" /><rect x="629" y="719" width="10" height="10" style="fill: rgb(255,0,0); fill-opacity: 1.0" transform="matrix(-0.028346,0,0,0.028346,35.165354,2.834646)" /><rect x="629" y="719" width="10" height="10" style="fill: rgb(255,0,0); fill-opacity: 1.0" transform="matrix(-0.028346,0,0,0.028346,35.165354,2.834646)" /><rect x="629" y="719" width="10" height="10" style="fill: rgb(255,0,0); fill-opacity: 1.0" transform="matrix(-0.028346,0,0,0.028346,35.165354,2.834646)" /><rect x="629" y="719" width="10" height="10" style="fill: rgb(255,0,0); fill-opacity: 1.0" transform="matrix(-0.028346,0,0,0.028346,35.165354,2.834646)" /><rect x="629" y="719" width="10" height="10" style="fill: rgb(255,0,0); fill-opacity: 1.0" transform="matrix(-0.028346,0,0,0.028346,35.165354,2.834646)" /><rect x="629" y="719" width="10" height="10" style="fill: rgb(255,0,0); fill-opacity: 1.0" transform="matrix(-0.028346,0,0,0.028346,35.165354,2.834646)" /><rect x="629" y="719" width="10" height="10" style="fill: rgb(255,0,0); fill-opacity: 1.0" transform="matrix(-0.028346,0,0,0.028346,35.165354,2.834646)" /><rect x="629" y="719" width="10" height="10" style="fill: rgb(255,0,0); fill-opacity: 1.0" transform="matrix(-0.028346,0,0,0.028346,35.165354,2.834646)" /><rect x="629" y="719" width="10" height="10" style="fill: rgb(255,0,0); fill-opacity: 1.0" transform="matrix(-0.028346,0,0,0.028346,35.165354,2.834646)" /><rect x="629" y="719" width="10" height="10" style="fill: rgb(255,0,0); fill-opacity: 1.0" transform="matrix(-0.028346,0,0,0.028346,35.165354,2.834646)" /><rect x="629" y="719" width="10" height="10" style="fill: rgb(255,0,0); fill-opacity: 1.0" transform="matrix(-0.028346,0,0,0.028346,35.165354,2.834646)" /><rect x="629" y="719" width="10" height="10" style="fill: rgb(255,0,0); fill-opacity: 1.0" transform="matrix(-0.028346,0,0,0.028346,35.165354,2.834646)" /><rect x="629" y="719" width="10" height="10" style="fill: rgb(255,0,0); fill-opacity: 1.0" transform="matrix(-0.028346,0,0,0.028346,35.165354,2.834646)" /><rect x="629" y="719" width="10" height="10" style="fill: rgb(255,0,0); fill-opacity: 1.0" transform="matrix(-0.028346,0,0,0.028346,35.165354,2.834646)" /><rect x="629" y="719" width="10" height="10" style="fill: rgb(255,0,0); fill-opacity: 1.0" transform="matrix(-0.028346,0,0,0.028346,35.165354,2.834646)" /><rect x="629" y="719" width="10" height="10" style="fill: rgb(255,0,0); fill-opacity: 1.0" transform="matrix(-0.028346,0,0,0.028346,35.165354,2.834646)" /><rect x="629" y="719" width="10" height="10" style="fill: rgb(255,0,0); fill-opacity: 1.0" transform="matrix(-0.028346,0,0,0.028346,35.165354,2.834646)" /><rect x="629" y="719" width="10" height="10" style="fill: rgb(255,0,0); fill-opacity: 1.0" transform="matrix(-0.028346,0,0,0.028346,35.165354,2.834646)" /><rect x="629" y="719" width="10" height="10" style="fill: rgb(255,0,0); fill-opacity: 1.0" transform="matrix(-0.028346,0,0,0.028346,35.165354,2.834646)" /><rect x="629" y="719" width="10" height="10" style="fill: rgb(255,0,0); fill-opacity: 1.0" transform="matrix(-0.028346,0,0,0.028346,35.165354,2.834646)" /><rect x="629" y="719" width="10" height="10" style="fill: rgb(255,0,0); fill-opacity: 1.0" transform="matrix(-0.028346,0,0,0.028346,35.165354,2.834646)" /><rect x="629" y="719" width="10" height="10" style="fill: rgb(255,0,0); fill-opacity: 1.0" transform="matrix(-0.028346,0,0,0.028346,35.165354,2.834646)" /><rect x="629" y="719" width="10" height="10" style="fill: rgb(255,0,0); fill-opacity: 1.0" transform="matrix(-0.028346,0,0,0.028346,35.165354,2.834646)" /><rect x="629" y="719" width="10" height="10" style="fill: rgb(255,0,0); fill-opacity: 1.0" transform="matrix(-0.028346,0,0,0.028346,35.165354,2.834646)" /><rect x="629" y="719" width="10" height="10" style="fill: rgb(255,0,0); fill-opacity: 1.0" transform="matrix(-0.028346,0,0,0.028346,35.165354,2.834646)" /><rect x="629" y="719" width="10" height="10" style="fill: rgb(255,0,0); fill-opacity: 1.0" transform="matrix(-0.028346,0,0,0.028346,35.165354,2.834646)" /><rect x="629" y="719" width="10" height="10" style="fill: rgb(255,0,0); fill-opacity: 1.0" transform="matrix(-0.028346,0,0,0.028346,35.165354,2.834646)" /><rect x="629" y="719" width="10" height="10" style="fill: rgb(255,0,0); fill-opacity: 1.0" transform="matrix(-0.028346,0,0,0.028346,35.165354,2.834646)" /><rect x="629" y="719" width="10" height="10" style="fill: rgb(255,0,0); fill-opacity: 1.0" transform="matrix(-0.028346,0,0,0.028346,35.165354,2.834646)" /><rect x="629" y="719" width="10" height="10" style="fill: rgb(255,0,0); fill-opacity: 1.0" transform="matrix(-0.028346,0,0,0.028346,35.165354,2.834646)" /><rect x="629" y="719" width="10" height="10" style="fill: rgb(255,0,0); fill-opacity: 1.0" transform="matrix(-0.028346,0,0,0.028346,35.165354,2.834646)" /><rect x="629" y="719" width="10" height="10" style="fill: rgb(255,0,0); fill-opacity: 1.0" transform="matrix(-0.028346,0,0,0.028346,35.165354,2.834646)" /><rect x="629" y="719" width="10" height="10" style="fill: rgb(255,0,0); fill-opacity: 1.0" transform="matrix(-0.028346,0,0,0.028346,35.165354,2.834646)" /><rect x="629" y="719" width="10" height="10" style="fill: rgb(255,0,0); fill-opacity: 1.0" transform="matrix(-0.028346,0,0,0.028346,35.165354,2.834646)" /><rect x="629" y="719" width="10" height="10" style="fill: rgb(255,0,0); fill-opacity: 1.0" transform="matrix(-0.028346,0,0,0.028346,35.165354,2.834646)" /><rect x="629" y="719" width="10" height="10" style="fill: rgb(255,0,0); fill-opacity: 1.0" transform="matrix(-0.028346,0,0,0.028346,35.165354,2.834646)" /><rect x="629" y="719" width="10" height="10" style="fill: rgb(255,0,0); fill-opacity: 1.0" transform="matrix(-0.028346,0,0,0.028346,35.165354,2.834646)" /><rect x="629" y="719" width="10" height="10" style="fill: rgb(255,0,0); fill-opacity: 1.0" transform="matrix(-0.028346,0,0,0.028346,35.165354,2.834646)" /><rect x="629" y="719" width="10" height="10" style="fill: rgb(255,0,0); fill-opacity: 1.0" transform="matrix(-0.028346,0,0,0.028346,35.165354,2.834646)" /><rect x="629" y="719" width="10" height="10" style="fill: rgb(255,0,0); fill-opacity: 1.0" transform="matrix(-0.028346,0,0,0.028346,35.165354,2.834646)" /><rect x="629" y="719" width="10" height="10" style="fill: rgb(255,0,0); fill-opacity: 1.0" transform="matrix(-0.028346,0,0,0.028346,35.165354,2.834646)" /><rect x="629" y="719" width="10" height="10" style="fill: rgb(255,0,0); fill-opacity: 1.0" transform="matrix(-0.028346,0,0,0.028346,35.165354,2.834646)" /><rect x="629" y="719" width="10" height="10" style="fill: rgb(255,0,0); fill-opacity: 1.0" transform="matrix(-0.028346,0,0,0.028346,35.165354,2.834646)" /><rect x="629" y="499" width="10" height="230" style="fill: rgb(255,0,0); fill-opacity: 1.0" transform="matrix(-0.028346,0,0,0.028346,35.165354,2.834646)" /><rect x="629" y="499" width="10" height="10" style="fill: rgb(255,0,0); fill-opacity: 1.0" transform="matrix(-0.028346,0,0,0.028346,35.165354,2.834646)" /><rect x="629" y="499" width="10" height="10" style="fill: rgb(255,0,0); fill-opacity: 1.0" transform="matrix(-0.028346,0,0,0.028346,35.165354,2.834646)" /><rect x="629" y="499" width="10" height="10" style="fill: rgb(255,0,0); fill-opacity: 1.0" transform="matrix(-0.028346,0,0,0.028346,35.165354,2.834646)" /><rect x="629" y="499" width="10" height="10" style="fill: rgb(255,0,0); fill-opacity: 1.0" transform="matrix(-0.028346,0,0,0.028346,35.165354,2.834646)" /><rect x="629" y="499" width="10" height="10" style="fill: rgb(255,0,0); fill-opacity: 1.0" transform="matrix(-0.028346,0,0,0.028346,35.165354,2.834646)" /><rect x="629" y="499" width="10" height="10" style="fill: rgb(255,0,0); fill-opacity: 1.0" transform="matrix(-0.028346,0,0,0.028346,35.165354,2.834646)" /><rect x="629" y="499" width="10" height="10" style="fill: rgb(255,0,0); fill-opacity: 1.0" transform="matrix(-0.028346,0,0,0.028346,35.165354,2.834646)" /><rect x="629" y="499" width="10" height="10" style="fill: rgb(255,0,0); fill-opacity: 1.0" transform="matrix(-0.028346,0,0,0.028346,35.165354,2.834646)" /><rect x="629" y="499" width="10" height="10" style="fill: rgb(255,0,0); fill-opacity: 1.0" transform="matrix(-0.028346,0,0,0.028346,35.165354,2.834646)" /><rect x="629" y="499" width="10" height="10" style="fill: rgb(255,0,0); fill-opacity: 1.0" transform="matrix(-0.028346,0,0,0.028346,35.165354,2.834646)" /><rect x="629" y="499" width="10" height="10" style="fill: rgb(255,0,0); fill-opacity: 1.0" transform="matrix(-0.028346,0,0,0.028346,35.165354,2.834646)" /><rect x="629" y="499" width="10" height="10" style="fill: rgb(255,0,0); fill-opacity: 1.0" transform="matrix(-0.028346,0,0,0.028346,35.165354,2.834646)" /><rect x="629" y="499" width="10" height="10" style="fill: rgb(255,0,0); fill-opacity: 1.0" transform="matrix(-0.028346,0,0,0.028346,35.165354,2.834646)" /><rect x="629" y="499" width="10" height="10" style="fill: rgb(255,0,0); fill-opacity: 1.0" transform="matrix(-0.028346,0,0,0.028346,35.165354,2.834646)" /><rect x="629" y="499" width="10" height="10" style="fill: rgb(255,0,0); fill-opacity: 1.0" transform="matrix(-0.028346,0,0,0.028346,35.165354,2.834646)" /><rect x="629" y="499" width="10" height="10" style="fill: rgb(255,0,0); fill-opacity: 1.0" transform="matrix(-0.028346,0,0,0.028346,35.165354,2.834646)" /><rect x="629" y="499" width="10" height="10" style="fill: rgb(255,0,0); fill-opacity: 1.0" transform="matrix(-0.028346,0,0,0.028346,35.165354,2.834646)" /><rect x="629" y="499" width="10" height="10" style="fill: rgb(255,0,0); fill-opacity: 1.0" transform="matrix(-0.028346,0,0,0.028346,35.165354,2.834646)" /><rect x="629" y="499" width="10" height="10" style="fill: rgb(255,0,0); fill-opacity: 1.0" transform="matrix(-0.028346,0,0,0.028346,35.165354,2.834646)" /><rect x="629" y="499" width="10" height="10" style="fill: rgb(255,0,0); fill-opacity: 1.0" transform="matrix(-0.028346,0,0,0.028346,35.165354,2.834646)" /><rect x="629" y="499" width="10" height="10" style="fill: rgb(255,0,0); fill-opacity: 1.0" transform="matrix(-0.028346,0,0,0.028346,35.165354,2.834646)" /><rect x="629" y="499" width="10" height="10" style="fill: rgb(255,0,0); fill-opacity: 1.0" transform="matrix(-0.028346,0,0,0.028346,35.165354,2.834646)" /><rect x="629" y="499" width="10" height="10" style="fill: rgb(255,0,0); fill-opacity: 1.0" transform="matrix(-0.028346,0,0,0.028346,35.165354,2.834646)" /><rect x="629" y="499" width="10" height="10" style="fill: rgb(255,0,0); fill-opacity: 1.0" transform="matrix(-0.028346,0,0,0.028346,35.165354,2.834646)" /><rect x="629" y="499" width="10" height="10" style="fill: rgb(255,0,0); fill-opacity: 1.0" transform="matrix(-0.028346,0,0,0.028346,35.165354,2.834646)" /><rect x="629" y="499" width="10" height="10" style="fill: rgb(255,0,0); fill-opacity: 1.0" transform="matrix(-0.028346,0,0,0.028346,35.165354,2.834646)" /><rect x="629" y="499" width="10" height="10" style="fill: rgb(255,0,0); fill-opacity: 1.0" transform="matrix(-0.028346,0,0,0.028346,35.165354,2.834646)" /><rect x="629" y="499" width="10" height="10" style="fill: rgb(255,0,0); fill-opacity: 1.0" transform="matrix(-0.028346,0,0,0.028346,35.165354,2.834646)" /><rect x="629" y="499" width="10" height="10" style="fill: rgb(255,0,0); fill-opacity: 1.0" transform="matrix(-0.028346,0,0,0.028346,35.165354,2.834646)" /><rect x="629" y="499" width="10" height="10" style="fill: rgb(255,0,0); fill-opacity: 1.0" transform="matrix(-0.028346,0,0,0.028346,35.165354,2.834646)" /><rect x="629" y="499" width="10" height="10" style="fill: rgb(255,0,0); fill-opacity: 1.0" transform="matrix(-0.028346,0,0,0.028346,35.165354,2.834646)" /><rect x="629" y="499" width="10" height="10" style="fill: rgb(255,0,0); fill-opacity: 1.0" transform="matrix(-0.028346,0,0,0.028346,35.165354,2.834646)" /><rect x="629" y="499" width="10" height="10" style="fill: rgb(255,0,0); fill-opacity: 1.0" transform="matrix(-0.028346,0,0,0.028346,35.165354,2.834646)" /><rect x="629" y="499" width="10" height="10" style="fill: rgb(255,0,0); fill-opacity: 1.0" transform="matrix(-0.028346,0,0,0.028346,35.165354,2.834646)" /><rect x="629" y="499" width="10" height="10" style="fill: rgb(255,0,0); fill-opacity: 1.0" transform="matrix(-0.028346,0,0,0.028346,35.165354,2.834646)" /><rect x="629" y="499" width="10" height="10" style="fill: rgb(255,0,0); fill-opacity: 1.0" transform="matrix(-0.028346,0,0,0.028346,35.165354,2.834646)" /><rect x="629" y="499" width="10" height="10" style="fill: rgb(255,0,0); fill-opacity: 1.0" transform="matrix(-0.028346,0,0,0.028346,35.165354,2.834646)" /><rect x="629" y="499" width="10" height="10" style="fill: rgb(255,0,0); fill-opacity: 1.0" transform="matrix(-0.028346,0,0,0.028346,35.165354,2.834646)" /><rect x="629" y="499" width="10" height="10" style="fill: rgb(255,0,0); fill-opacity: 1.0" transform="matrix(-0.028346,0,0,0.028346,35.165354,2.834646)" /><rect x="629" y="499" width="10" height="10" style="fill: rgb(255,0,0); fill-opacity: 1.0" transform="matrix(-0.028346,0,0,0.028346,35.165354,2.834646)" /><rect x="629" y="499" width="10" height="10" style="fill: rgb(255,0,0); fill-opacity: 1.0" transform="matrix(-0.028346,0,0,0.028346,35.165354,2.834646)" /><rect x="629" y="499" width="10" height="10" style="fill: rgb(255,0,0); fill-opacity: 1.0" transform="matrix(-0.028346,0,0,0.028346,35.165354,2.834646)" /><rect x="629" y="499" width="10" height="10" style="fill: rgb(255,0,0); fill-opacity: 1.0" transform="matrix(-0.028346,0,0,0.028346,35.165354,2.834646)" /><rect x="629" y="499" width="10" height="10" style="fill: rgb(255,0,0); fill-opacity: 1.0" transform="matrix(-0.028346,0,0,0.028346,35.165354,2.834646)" /><rect x="629" y="499" width="10" height="10" style="fill: rgb(255,0,0); fill-opacity: 1.0" transform="matrix(-0.028346,0,0,0.028346,35.165354,2.834646)" /><rect x="629" y="499" width="10" height="10" style="fill: rgb(255,0,0); fill-opacity: 1.0" transform="matrix(-0.028346,0,0,0.028346,35.165354,2.834646)" /><rect x="629" y="499" width="10" height="10" style="fill: rgb(255,0,0); fill-opacity: 1.0" transform="matrix(-0.028346,0,0,0.028346,35.165354,2.834646)" /><rect x="629" y="499" width="10" height="10" style="fill: rgb(255,0,0); fill-opacity: 1.0" transform="matrix(-0.028346,0,0,0.028346,35.165354,2.834646)" /><rect x="629" y="499" width="10" height="10" style="fill: rgb(255,0,0); fill-opacity: 1.0" transform="matrix(-0.028346,0,0,0.028346,35.165354,2.834646)" /><rect x="629" y="499" width="10" height="10" style="fill: rgb(255,0,0); fill-opacity: 1.0" transform="matrix(-0.028346,0,0,0.028346,35.165354,2.834646)" /><rect x="629" y="499" width="10" height="10" style="fill: rgb(255,0,0); fill-opacity: 1.0" transform="matrix(-0.028346,0,0,0.028346,35.165354,2.834646)" /><rect x="629" y="499" width="10" height="10" style="fill: rgb(255,0,0); fill-opacity: 1.0" transform="matrix(-0.028346,0,0,0.028346,35.165354,2.834646)" /><rect x="629" y="499" width="10" height="10" style="fill: rgb(255,0,0); fill-opacity: 1.0" transform="matrix(-0.028346,0,0,0.028346,35.165354,2.834646)" /><rect x="629" y="499" width="10" height="10" style="fill: rgb(255,0,0); fill-opacity: 1.0" transform="matrix(-0.028346,0,0,0.028346,35.165354,2.834646)" /></svg>
