<?xml version="1.0"?>
<!DOCTYPE svg PUBLIC "-//W3C//DTD SVG 1.0//EN" "http://www.w3.org/TR/2001/REC-SVG-20010904/DTD/svg10.dtd">
<svg xmlns="http://www.w3.org/2000/svg" xmlns:xlink="http://www.w3.org/1999/xlink" xmlns:jfreesvg="http://www.jfree.org/jfreesvg/svg" width="34" height="31" text-rendering="auto" shape-rendering="auto">
<defs></defs>
<line x1="0" y1="0" x2="11979" y2="0" style="stroke-width: 50.0;stroke: rgb(0,0,0);stroke-opacity: 1.0;stroke-linecap: round;stroke-linejoin: round;" transform="matrix(-0.002835,0,0,0.002835,34,0)" /><line x1="11980" y1="0" x2="11980" y2="10779" style="stroke-width: 50.0;stroke: rgb(0,0,0);stroke-opacity: 1.0;stroke-linecap: round;stroke-linejoin: round;" transform="matrix(-0.002835,0,0,0.002835,34,0)" /><line x1="11980" y1="10780" x2="1" y2="10780" style="stroke-width: 50.0;stroke: rgb(0,0,0);stroke-opacity: 1.0;stroke-linecap: round;stroke-linejoin: round;" transform="matrix(-0.002835,0,0,0.002835,34,0)" /><line x1="0" y1="10780" x2="0" y2="1" style="stroke-width: 50.0;stroke: rgb(0,0,0);stroke-opacity: 1.0;stroke-linecap: round;stroke-linejoin: round;" transform="matrix(-0.002835,0,0,0.002835,34,0)" /><g style="fill: rgb(255,0,0); fill-opacity: 1.0; stroke: none" transform="matrix(-0.028346,0,0,0.028346,31.165354,2.834646)" ><path d="M 412 492 C 412 505.81 400.81 517 387 517 C 373.19 517 362 505.81 362 492 C 362 478.19 373.19 467 387 467 C 400.81 467 412 478.19 412 492 Z "/></g><g style="fill: rgb(255,0,0); fill-opacity: 1.0; stroke: none" transform="matrix(-0.028346,0,0,0.028346,31.165354,2.834646)" ><path d="M 397 658 C 397 663.52 392.52 668 387 668 C 381.48 668 377 663.52 377 658 C 377 652.48 381.48 648 387 648 C 392.52 648 397 652.48 397 658 Z "/></g><rect x="382" y="643" width="10" height="10" style="fill: rgb(255,0,0); fill-opacity: 1.0" transform="matrix(-0.028346,0,0,0.028346,31.165354,2.834646)" /><rect x="382" y="643" width="10" height="10" style="fill: rgb(255,0,0); fill-opacity: 1.0" transform="matrix(-0.028346,0,0,0.028346,31.165354,2.834646)" /><rect x="382" y="643" width="10" height="10" style="fill: rgb(255,0,0); fill-opacity: 1.0" transform="matrix(-0.028346,0,0,0.028346,31.165354,2.834646)" /><rect x="382" y="643" width="10" height="10" style="fill: rgb(255,0,0); fill-opacity: 1.0" transform="matrix(-0.028346,0,0,0.028346,31.165354,2.834646)" /><rect x="382" y="643" width="10" height="10" style="fill: rgb(255,0,0); fill-opacity: 1.0" transform="matrix(-0.028346,0,0,0.028346,31.165354,2.834646)" /><rect x="382" y="643" width="10" height="10" style="fill: rgb(255,0,0); fill-opacity: 1.0" transform="matrix(-0.028346,0,0,0.028346,31.165354,2.834646)" /><rect x="382" y="643" width="10" height="10" style="fill: rgb(255,0,0); fill-opacity: 1.0" transform="matrix(-0.028346,0,0,0.028346,31.165354,2.834646)" /><rect x="382" y="643" width="10" height="10" style="fill: rgb(255,0,0); fill-opacity: 1.0" transform="matrix(-0.028346,0,0,0.028346,31.165354,2.834646)" /><rect x="382" y="643" width="10" height="10" style="fill: rgb(255,0,0); fill-opacity: 1.0" transform="matrix(-0.028346,0,0,0.028346,31.165354,2.834646)" /><rect x="382" y="643" width="10" height="10" style="fill: rgb(255,0,0); fill-opacity: 1.0" transform="matrix(-0.028346,0,0,0.028346,31.165354,2.834646)" /><rect x="382" y="643" width="10" height="10" style="fill: rgb(255,0,0); fill-opacity: 1.0" transform="matrix(-0.028346,0,0,0.028346,31.165354,2.834646)" /><rect x="382" y="643" width="10" height="10" style="fill: rgb(255,0,0); fill-opacity: 1.0" transform="matrix(-0.028346,0,0,0.028346,31.165354,2.834646)" /><rect x="382" y="643" width="10" height="10" style="fill: rgb(255,0,0); fill-opacity: 1.0" transform="matrix(-0.028346,0,0,0.028346,31.165354,2.834646)" /><rect x="382" y="643" width="10" height="10" style="fill: rgb(255,0,0); fill-opacity: 1.0" transform="matrix(-0.028346,0,0,0.028346,31.165354,2.834646)" /><rect x="382" y="643" width="10" height="10" style="fill: rgb(255,0,0); fill-opacity: 1.0" transform="matrix(-0.028346,0,0,0.028346,31.165354,2.834646)" /><rect x="382" y="643" width="10" height="10" style="fill: rgb(255,0,0); fill-opacity: 1.0" transform="matrix(-0.028346,0,0,0.028346,31.165354,2.834646)" /><rect x="382" y="643" width="10" height="10" style="fill: rgb(255,0,0); fill-opacity: 1.0" transform="matrix(-0.028346,0,0,0.028346,31.165354,2.834646)" /><rect x="382" y="643" width="10" height="10" style="fill: rgb(255,0,0); fill-opacity: 1.0" transform="matrix(-0.028346,0,0,0.028346,31.165354,2.834646)" /><rect x="382" y="643" width="10" height="10" style="fill: rgb(255,0,0); fill-opacity: 1.0" transform="matrix(-0.028346,0,0,0.028346,31.165354,2.834646)" /><rect x="382" y="643" width="10" height="10" style="fill: rgb(255,0,0); fill-opacity: 1.0" transform="matrix(-0.028346,0,0,0.028346,31.165354,2.834646)" /><rect x="382" y="643" width="10" height="10" style="fill: rgb(255,0,0); fill-opacity: 1.0" transform="matrix(-0.028346,0,0,0.028346,31.165354,2.834646)" /><rect x="382" y="643" width="10" height="10" style="fill: rgb(255,0,0); fill-opacity: 1.0" transform="matrix(-0.028346,0,0,0.028346,31.165354,2.834646)" /><rect x="382" y="643" width="10" height="10" style="fill: rgb(255,0,0); fill-opacity: 1.0" transform="matrix(-0.028346,0,0,0.028346,31.165354,2.834646)" /><rect x="382" y="643" width="10" height="10" style="fill: rgb(255,0,0); fill-opacity: 1.0" transform="matrix(-0.028346,0,0,0.028346,31.165354,2.834646)" /><rect x="382" y="643" width="10" height="10" style="fill: rgb(255,0,0); fill-opacity: 1.0" transform="matrix(-0.028346,0,0,0.028346,31.165354,2.834646)" /><rect x="382" y="643" width="10" height="10" style="fill: rgb(255,0,0); fill-opacity: 1.0" transform="matrix(-0.028346,0,0,0.028346,31.165354,2.834646)" /><rect x="382" y="643" width="10" height="10" style="fill: rgb(255,0,0); fill-opacity: 1.0" transform="matrix(-0.028346,0,0,0.028346,31.165354,2.834646)" /><rect x="382" y="643" width="10" height="10" style="fill: rgb(255,0,0); fill-opacity: 1.0" transform="matrix(-0.028346,0,0,0.028346,31.165354,2.834646)" /><rect x="382" y="643" width="10" height="10" style="fill: rgb(255,0,0); fill-opacity: 1.0" transform="matrix(-0.028346,0,0,0.028346,31.165354,2.834646)" /><rect x="382" y="643" width="10" height="10" style="fill: rgb(255,0,0); fill-opacity: 1.0" transform="matrix(-0.028346,0,0,0.028346,31.165354,2.834646)" /><rect x="382" y="643" width="10" height="10" style="fill: rgb(255,0,0); fill-opacity: 1.0" transform="matrix(-0.028346,0,0,0.028346,31.165354,2.834646)" /><rect x="382" y="643" width="10" height="10" style="fill: rgb(255,0,0); fill-opacity: 1.0" transform="matrix(-0.028346,0,0,0.028346,31.165354,2.834646)" /><rect x="382" y="643" width="10" height="10" style="fill: rgb(255,0,0); fill-opacity: 1.0" transform="matrix(-0.028346,0,0,0.028346,31.165354,2.834646)" /><rect x="382" y="643" width="10" height="10" style="fill: rgb(255,0,0); fill-opacity: 1.0" transform="matrix(-0.028346,0,0,0.028346,31.165354,2.834646)" /><rect x="382" y="643" width="10" height="10" style="fill: rgb(255,0,0); fill-opacity: 1.0" transform="matrix(-0.028346,0,0,0.028346,31.165354,2.834646)" /><rect x="382" y="643" width="10" height="10" style="fill: rgb(255,0,0); fill-opacity: 1.0" transform="matrix(-0.028346,0,0,0.028346,31.165354,2.834646)" /><rect x="382" y="643" width="10" height="10" style="fill: rgb(255,0,0); fill-opacity: 1.0" transform="matrix(-0.028346,0,0,0.028346,31.165354,2.834646)" /><rect x="382" y="643" width="10" height="10" style="fill: rgb(255,0,0); fill-opacity: 1.0" transform="matrix(-0.028346,0,0,0.028346,31.165354,2.834646)" /><rect x="382" y="643" width="10" height="10" style="fill: rgb(255,0,0); fill-opacity: 1.0" transform="matrix(-0.028346,0,0,0.028346,31.165354,2.834646)" /><rect x="382" y="643" width="10" height="10" style="fill: rgb(255,0,0); fill-opacity: 1.0" transform="matrix(-0.028346,0,0,0.028346,31.165354,2.834646)" /><rect x="382" y="643" width="10" height="10" style="fill: rgb(255,0,0); fill-opacity: 1.0" transform="matrix(-0.028346,0,0,0.028346,31.165354,2.834646)" /><rect x="382" y="643" width="10" height="10" style="fill: rgb(255,0,0); fill-opacity: 1.0" transform="matrix(-0.028346,0,0,0.028346,31.165354,2.834646)" /><rect x="382" y="643" width="10" height="10" style="fill: rgb(255,0,0); fill-opacity: 1.0" transform="matrix(-0.028346,0,0,0.028346,31.165354,2.834646)" /><rect x="382" y="643" width="10" height="10" style="fill: rgb(255,0,0); fill-opacity: 1.0" transform="matrix(-0.028346,0,0,0.028346,31.165354,2.834646)" /><rect x="382" y="643" width="10" height="10" style="fill: rgb(255,0,0); fill-opacity: 1.0" transform="matrix(-0.028346,0,0,0.028346,31.165354,2.834646)" /><rect x="382" y="643" width="10" height="10" style="fill: rgb(255,0,0); fill-opacity: 1.0" transform="matrix(-0.028346,0,0,0.028346,31.165354,2.834646)" /><rect x="382" y="643" width="10" height="10" style="fill: rgb(255,0,0); fill-opacity: 1.0" transform="matrix(-0.028346,0,0,0.028346,31.165354,2.834646)" /><rect x="382" y="643" width="10" height="10" style="fill: rgb(255,0,0); fill-opacity: 1.0" transform="matrix(-0.028346,0,0,0.028346,31.165354,2.834646)" /><rect x="382" y="643" width="10" height="10" style="fill: rgb(255,0,0); fill-opacity: 1.0" transform="matrix(-0.028346,0,0,0.028346,31.165354,2.834646)" /><rect x="382" y="643" width="10" height="10" style="fill: rgb(255,0,0); fill-opacity: 1.0" transform="matrix(-0.028346,0,0,0.028346,31.165354,2.834646)" /><rect x="382" y="643" width="10" height="10" style="fill: rgb(255,0,0); fill-opacity: 1.0" transform="matrix(-0.028346,0,0,0.028346,31.165354,2.834646)" /><rect x="382" y="643" width="10" height="10" style="fill: rgb(255,0,0); fill-opacity: 1.0" transform="matrix(-0.028346,0,0,0.028346,31.165354,2.834646)" /><rect x="382" y="643" width="10" height="10" style="fill: rgb(255,0,0); fill-opacity: 1.0" transform="matrix(-0.028346,0,0,0.028346,31.165354,2.834646)" /><rect x="382" y="643" width="10" height="10" style="fill: rgb(255,0,0); fill-opacity: 1.0" transform="matrix(-0.028346,0,0,0.028346,31.165354,2.834646)" /><rect x="382" y="643" width="10" height="10" style="fill: rgb(255,0,0); fill-opacity: 1.0" transform="matrix(-0.028346,0,0,0.028346,31.165354,2.834646)" /><rect x="382" y="643" width="10" height="10" style="fill: rgb(255,0,0); fill-opacity: 1.0" transform="matrix(-0.028346,0,0,0.028346,31.165354,2.834646)" /><rect x="382" y="643" width="10" height="10" style="fill: rgb(255,0,0); fill-opacity: 1.0" transform="matrix(-0.028346,0,0,0.028346,31.165354,2.834646)" /><rect x="382" y="643" width="10" height="10" style="fill: rgb(255,0,0); fill-opacity: 1.0" transform="matrix(-0.028346,0,0,0.028346,31.165354,2.834646)" /><rect x="382" y="643" width="10" height="10" style="fill: rgb(255,0,0); fill-opacity: 1.0" transform="matrix(-0.028346,0,0,0.028346,31.165354,2.834646)" /><rect x="382" y="643" width="10" height="10" style="fill: rgb(255,0,0); fill-opacity: 1.0" transform="matrix(-0.028346,0,0,0.028346,31.165354,2.834646)" /><rect x="382" y="643" width="10" height="10" style="fill: rgb(255,0,0); fill-opacity: 1.0" transform="matrix(-0.028346,0,0,0.028346,31.165354,2.834646)" /><rect x="382" y="643" width="10" height="10" style="fill: rgb(255,0,0); fill-opacity: 1.0" transform="matrix(-0.028346,0,0,0.028346,31.165354,2.834646)" /><rect x="382" y="643" width="10" height="10" style="fill: rgb(255,0,0); fill-opacity: 1.0" transform="matrix(-0.028346,0,0,0.028346,31.165354,2.834646)" /><rect x="382" y="643" width="10" height="10" style="fill: rgb(255,0,0); fill-opacity: 1.0" transform="matrix(-0.028346,0,0,0.028346,31.165354,2.834646)" /><rect x="382" y="512" width="10" height="141" style="fill: rgb(255,0,0); fill-opacity: 1.0" transform="matrix(-0.028346,0,0,0.028346,31.165354,2.834646)" /><rect x="382" y="512" width="10" height="10" style="fill: rgb(255,0,0); fill-opacity: 1.0" transform="matrix(-0.028346,0,0,0.028346,31.165354,2.834646)" /><rect x="382" y="512" width="10" height="10" style="fill: rgb(255,0,0); fill-opacity: 1.0" transform="matrix(-0.028346,0,0,0.028346,31.165354,2.834646)" /><rect x="382" y="512" width="10" height="10" style="fill: rgb(255,0,0); fill-opacity: 1.0" transform="matrix(-0.028346,0,0,0.028346,31.165354,2.834646)" /><rect x="382" y="512" width="10" height="10" style="fill: rgb(255,0,0); fill-opacity: 1.0" transform="matrix(-0.028346,0,0,0.028346,31.165354,2.834646)" /><rect x="382" y="512" width="10" height="10" style="fill: rgb(255,0,0); fill-opacity: 1.0" transform="matrix(-0.028346,0,0,0.028346,31.165354,2.834646)" /><rect x="382" y="512" width="10" height="10" style="fill: rgb(255,0,0); fill-opacity: 1.0" transform="matrix(-0.028346,0,0,0.028346,31.165354,2.834646)" /><rect x="382" y="512" width="10" height="10" style="fill: rgb(255,0,0); fill-opacity: 1.0" transform="matrix(-0.028346,0,0,0.028346,31.165354,2.834646)" /><rect x="382" y="512" width="10" height="10" style="fill: rgb(255,0,0); fill-opacity: 1.0" transform="matrix(-0.028346,0,0,0.028346,31.165354,2.834646)" /><rect x="382" y="512" width="10" height="10" style="fill: rgb(255,0,0); fill-opacity: 1.0" transform="matrix(-0.028346,0,0,0.028346,31.165354,2.834646)" /><rect x="382" y="512" width="10" height="10" style="fill: rgb(255,0,0); fill-opacity: 1.0" transform="matrix(-0.028346,0,0,0.028346,31.165354,2.834646)" /><rect x="382" y="512" width="10" height="10" style="fill: rgb(255,0,0); fill-opacity: 1.0" transform="matrix(-0.028346,0,0,0.028346,31.165354,2.834646)" /><rect x="382" y="512" width="10" height="10" style="fill: rgb(255,0,0); fill-opacity: 1.0" transform="matrix(-0.028346,0,0,0.028346,31.165354,2.834646)" /><rect x="382" y="512" width="10" height="10" style="fill: rgb(255,0,0); fill-opacity: 1.0" transform="matrix(-0.028346,0,0,0.028346,31.165354,2.834646)" /><rect x="382" y="512" width="10" height="10" style="fill: rgb(255,0,0); fill-opacity: 1.0" transform="matrix(-0.028346,0,0,0.028346,31.165354,2.834646)" /><rect x="382" y="512" width="10" height="10" style="fill: rgb(255,0,0); fill-opacity: 1.0" transform="matrix(-0.028346,0,0,0.028346,31.165354,2.834646)" /><rect x="382" y="512" width="10" height="10" style="fill: rgb(255,0,0); fill-opacity: 1.0" transform="matrix(-0.028346,0,0,0.028346,31.165354,2.834646)" /><rect x="382" y="512" width="10" height="10" style="fill: rgb(255,0,0); fill-opacity: 1.0" transform="matrix(-0.028346,0,0,0.028346,31.165354,2.834646)" /><rect x="382" y="512" width="10" height="10" style="fill: rgb(255,0,0); fill-opacity: 1.0" transform="matrix(-0.028346,0,0,0.028346,31.165354,2.834646)" /><rect x="382" y="512" width="10" height="10" style="fill: rgb(255,0,0); fill-opacity: 1.0" transform="matrix(-0.028346,0,0,0.028346,31.165354,2.834646)" /><rect x="382" y="512" width="10" height="10" style="fill: rgb(255,0,0); fill-opacity: 1.0" transform="matrix(-0.028346,0,0,0.028346,31.165354,2.834646)" /><rect x="382" y="512" width="10" height="10" style="fill: rgb(255,0,0); fill-opacity: 1.0" transform="matrix(-0.028346,0,0,0.028346,31.165354,2.834646)" /><rect x="382" y="512" width="10" height="10" style="fill: rgb(255,0,0); fill-opacity: 1.0" transform="matrix(-0.028346,0,0,0.028346,31.165354,2.834646)" /><rect x="382" y="512" width="10" height="10" style="fill: rgb(255,0,0); fill-opacity: 1.0" transform="matrix(-0.028346,0,0,0.028346,31.165354,2.834646)" /><rect x="382" y="512" width="10" height="10" style="fill: rgb(255,0,0); fill-opacity: 1.0" transform="matrix(-0.028346,0,0,0.028346,31.165354,2.834646)" /><rect x="382" y="512" width="10" height="10" style="fill: rgb(255,0,0); fill-opacity: 1.0" transform="matrix(-0.028346,0,0,0.028346,31.165354,2.834646)" /><rect x="382" y="512" width="10" height="10" style="fill: rgb(255,0,0); fill-opacity: 1.0" transform="matrix(-0.028346,0,0,0.028346,31.165354,2.834646)" /><rect x="382" y="512" width="10" height="10" style="fill: rgb(255,0,0); fill-opacity: 1.0" transform="matrix(-0.028346,0,0,0.028346,31.165354,2.834646)" /><rect x="382" y="512" width="10" height="10" style="fill: rgb(255,0,0); fill-opacity: 1.0" transform="matrix(-0.028346,0,0,0.028346,31.165354,2.834646)" /><rect x="382" y="512" width="10" height="10" style="fill: rgb(255,0,0); fill-opacity: 1.0" transform="matrix(-0.028346,0,0,0.028346,31.165354,2.834646)" /><rect x="382" y="512" width="10" height="10" style="fill: rgb(255,0,0); fill-opacity: 1.0" transform="matrix(-0.028346,0,0,0.028346,31.165354,2.834646)" /><rect x="382" y="512" width="10" height="10" style="fill: rgb(255,0,0); fill-opacity: 1.0" transform="matrix(-0.028346,0,0,0.028346,31.165354,2.834646)" /><rect x="382" y="512" width="10" height="10" style="fill: rgb(255,0,0); fill-opacity: 1.0" transform="matrix(-0.028346,0,0,0.028346,31.165354,2.834646)" /><rect x="382" y="512" width="10" height="10" style="fill: rgb(255,0,0); fill-opacity: 1.0" transform="matrix(-0.028346,0,0,0.028346,31.165354,2.834646)" /><rect x="382" y="512" width="10" height="10" style="fill: rgb(255,0,0); fill-opacity: 1.0" transform="matrix(-0.028346,0,0,0.028346,31.165354,2.834646)" /><rect x="382" y="512" width="10" height="10" style="fill: rgb(255,0,0); fill-opacity: 1.0" transform="matrix(-0.028346,0,0,0.028346,31.165354,2.834646)" /><rect x="382" y="512" width="10" height="10" style="fill: rgb(255,0,0); fill-opacity: 1.0" transform="matrix(-0.028346,0,0,0.028346,31.165354,2.834646)" /><rect x="382" y="512" width="10" height="10" style="fill: rgb(255,0,0); fill-opacity: 1.0" transform="matrix(-0.028346,0,0,0.028346,31.165354,2.834646)" /><rect x="382" y="512" width="10" height="10" style="fill: rgb(255,0,0); fill-opacity: 1.0" transform="matrix(-0.028346,0,0,0.028346,31.165354,2.834646)" /><rect x="382" y="512" width="10" height="10" style="fill: rgb(255,0,0); fill-opacity: 1.0" transform="matrix(-0.028346,0,0,0.028346,31.165354,2.834646)" /><rect x="382" y="512" width="10" height="10" style="fill: rgb(255,0,0); fill-opacity: 1.0" transform="matrix(-0.028346,0,0,0.028346,31.165354,2.834646)" /><rect x="382" y="512" width="10" height="10" style="fill: rgb(255,0,0); fill-opacity: 1.0" transform="matrix(-0.028346,0,0,0.028346,31.165354,2.834646)" /><rect x="382" y="512" width="10" height="10" style="fill: rgb(255,0,0); fill-opacity: 1.0" transform="matrix(-0.028346,0,0,0.028346,31.165354,2.834646)" /><rect x="382" y="512" width="10" height="10" style="fill: rgb(255,0,0); fill-opacity: 1.0" transform="matrix(-0.028346,0,0,0.028346,31.165354,2.834646)" /><rect x="382" y="512" width="10" height="10" style="fill: rgb(255,0,0); fill-opacity: 1.0" transform="matrix(-0.028346,0,0,0.028346,31.165354,2.834646)" /><rect x="382" y="512" width="10" height="10" style="fill: rgb(255,0,0); fill-opacity: 1.0" transform="matrix(-0.028346,0,0,0.028346,31.165354,2.834646)" /><rect x="382" y="512" width="10" height="10" style="fill: rgb(255,0,0); fill-opacity: 1.0" transform="matrix(-0.028346,0,0,0.028346,31.165354,2.834646)" /><rect x="382" y="512" width="10" height="10" style="fill: rgb(255,0,0); fill-opacity: 1.0" transform="matrix(-0.028346,0,0,0.028346,31.165354,2.834646)" /><rect x="382" y="512" width="10" height="10" style="fill: rgb(255,0,0); fill-opacity: 1.0" transform="matrix(-0.028346,0,0,0.028346,31.165354,2.834646)" /><rect x="382" y="512" width="10" height="10" style="fill: rgb(255,0,0); fill-opacity: 1.0" transform="matrix(-0.028346,0,0,0.028346,31.165354,2.834646)" /><rect x="382" y="512" width="10" height="10" style="fill: rgb(255,0,0); fill-opacity: 1.0" transform="matrix(-0.028346,0,0,0.028346,31.165354,2.834646)" /><rect x="382" y="512" width="10" height="10" style="fill: rgb(255,0,0); fill-opacity: 1.0" transform="matrix(-0.028346,0,0,0.028346,31.165354,2.834646)" /><rect x="382" y="512" width="10" height="10" style="fill: rgb(255,0,0); fill-opacity: 1.0" transform="matrix(-0.028346,0,0,0.028346,31.165354,2.834646)" /><rect x="382" y="512" width="10" height="10" style="fill: rgb(255,0,0); fill-opacity: 1.0" transform="matrix(-0.028346,0,0,0.028346,31.165354,2.834646)" /><rect x="382" y="512" width="10" height="10" style="fill: rgb(255,0,0); fill-opacity: 1.0" transform="matrix(-0.028346,0,0,0.028346,31.165354,2.834646)" /><rect x="382" y="512" width="10" height="10" style="fill: rgb(255,0,0); fill-opacity: 1.0" transform="matrix(-0.028346,0,0,0.028346,31.165354,2.834646)" /><rect x="382" y="512" width="10" height="10" style="fill: rgb(255,0,0); fill-opacity: 1.0" transform="matrix(-0.028346,0,0,0.028346,31.165354,2.834646)" /><rect x="382" y="512" width="10" height="10" style="fill: rgb(255,0,0); fill-opacity: 1.0" transform="matrix(-0.028346,0,0,0.028346,31.165354,2.834646)" /><rect x="382" y="512" width="10" height="10" style="fill: rgb(255,0,0); fill-opacity: 1.0" transform="matrix(-0.028346,0,0,0.028346,31.165354,2.834646)" /><rect x="382" y="512" width="10" height="10" style="fill: rgb(255,0,0); fill-opacity: 1.0" transform="matrix(-0.028346,0,0,0.028346,31.165354,2.834646)" /><rect x="382" y="512" width="10" height="10" style="fill: rgb(255,0,0); fill-opacity: 1.0" transform="matrix(-0.028346,0,0,0.028346,31.165354,2.834646)" /><rect x="382" y="512" width="10" height="10" style="fill: rgb(255,0,0); fill-opacity: 1.0" transform="matrix(-0.028346,0,0,0.028346,31.165354,2.834646)" /><rect x="382" y="512" width="10" height="10" style="fill: rgb(255,0,0); fill-opacity: 1.0" transform="matrix(-0.028346,0,0,0.028346,31.165354,2.834646)" /><rect x="382" y="512" width="10" height="10" style="fill: rgb(255,0,0); fill-opacity: 1.0" transform="matrix(-0.028346,0,0,0.028346,31.165354,2.834646)" /><rect x="382" y="512" width="10" height="10" style="fill: rgb(255,0,0); fill-opacity: 1.0" transform="matrix(-0.028346,0,0,0.028346,31.165354,2.834646)" /></svg>
