<?xml version="1.0"?>
<!DOCTYPE svg PUBLIC "-//W3C//DTD SVG 1.0//EN" "http://www.w3.org/TR/2001/REC-SVG-20010904/DTD/svg10.dtd">
<svg xmlns="http://www.w3.org/2000/svg" xmlns:xlink="http://www.w3.org/1999/xlink" xmlns:jfreesvg="http://www.jfree.org/jfreesvg/svg" width="124" height="99" text-rendering="auto" shape-rendering="auto">
<defs></defs>
<g style="fill: rgb(255,0,0); fill-opacity: 1.0; stroke: none" transform="matrix(-0.056693,0,0,0.056693,121.165354,2.834646)" ><path d="M 945 821 C 945 872.36 903.36 914 852 914 C 800.64 914 759 872.36 759 821 C 759 769.64 800.64 728 852 728 C 903.36 728 945 769.64 945 821 Z "/></g><g style="fill: rgb(255,0,0); fill-opacity: 1.0; stroke: none" transform="matrix(-0.056693,0,0,0.056693,121.165354,2.834646)" ><path d="M 953 1432 C 953 1487.78 907.78 1533 852 1533 C 796.22 1533 751 1487.78 751 1432 C 751 1376.22 796.22 1331 852 1331 C 907.78 1331 953 1376.22 953 1432 Z "/></g><rect x="834" y="1313" width="37" height="37" style="fill: rgb(255,0,0); fill-opacity: 1.0" transform="matrix(-0.056693,0,0,0.056693,121.165354,2.834646)" /><rect x="834" y="1313" width="37" height="37" style="fill: rgb(255,0,0); fill-opacity: 1.0" transform="matrix(-0.056693,0,0,0.056693,121.165354,2.834646)" /><rect x="834" y="1313" width="37" height="37" style="fill: rgb(255,0,0); fill-opacity: 1.0" transform="matrix(-0.056693,0,0,0.056693,121.165354,2.834646)" /><rect x="834" y="1313" width="37" height="37" style="fill: rgb(255,0,0); fill-opacity: 1.0" transform="matrix(-0.056693,0,0,0.056693,121.165354,2.834646)" /><rect x="834" y="1313" width="37" height="37" style="fill: rgb(255,0,0); fill-opacity: 1.0" transform="matrix(-0.056693,0,0,0.056693,121.165354,2.834646)" /><rect x="834" y="1313" width="37" height="37" style="fill: rgb(255,0,0); fill-opacity: 1.0" transform="matrix(-0.056693,0,0,0.056693,121.165354,2.834646)" /><rect x="834" y="896" width="37" height="454" style="fill: rgb(255,0,0); fill-opacity: 1.0" transform="matrix(-0.056693,0,0,0.056693,121.165354,2.834646)" /><rect x="834" y="896" width="37" height="37" style="fill: rgb(255,0,0); fill-opacity: 1.0" transform="matrix(-0.056693,0,0,0.056693,121.165354,2.834646)" /><rect x="834" y="896" width="37" height="37" style="fill: rgb(255,0,0); fill-opacity: 1.0" transform="matrix(-0.056693,0,0,0.056693,121.165354,2.834646)" /><rect x="834" y="896" width="37" height="37" style="fill: rgb(255,0,0); fill-opacity: 1.0" transform="matrix(-0.056693,0,0,0.056693,121.165354,2.834646)" /><rect x="834" y="896" width="37" height="37" style="fill: rgb(255,0,0); fill-opacity: 1.0" transform="matrix(-0.056693,0,0,0.056693,121.165354,2.834646)" /><rect x="834" y="896" width="37" height="37" style="fill: rgb(255,0,0); fill-opacity: 1.0" transform="matrix(-0.056693,0,0,0.056693,121.165354,2.834646)" /><rect x="834" y="896" width="37" height="37" style="fill: rgb(255,0,0); fill-opacity: 1.0" transform="matrix(-0.056693,0,0,0.056693,121.165354,2.834646)" /></svg>
