<?xml version="1.0"?>
<!DOCTYPE svg PUBLIC "-//W3C//DTD SVG 1.0//EN" "http://www.w3.org/TR/2001/REC-SVG-20010904/DTD/svg10.dtd">
<svg xmlns="http://www.w3.org/2000/svg" xmlns:xlink="http://www.w3.org/1999/xlink" xmlns:jfreesvg="http://www.jfree.org/jfreesvg/svg" width="212" height="160" text-rendering="auto" shape-rendering="auto">
<defs></defs>
<line x1="0" y1="0" x2="59679" y2="0" style="stroke-width: 100.0;stroke: rgb(0,0,0);stroke-opacity: 1.0;stroke-linecap: round;stroke-linejoin: round;" transform="matrix(0.0035433071,0,0,0.0035433071,0,0)" /><line x1="59680" y1="0" x2="59680" y2="44979" style="stroke-width: 100.0;stroke: rgb(0,0,0);stroke-opacity: 1.0;stroke-linecap: round;stroke-linejoin: round;" transform="matrix(0.0035433071,0,0,0.0035433071,0,0)" /><line x1="59680" y1="44980" x2="1" y2="44980" style="stroke-width: 100.0;stroke: rgb(0,0,0);stroke-opacity: 1.0;stroke-linecap: round;stroke-linejoin: round;" transform="matrix(0.0035433071,0,0,0.0035433071,0,0)" /><line x1="0" y1="44980" x2="0" y2="1" style="stroke-width: 100.0;stroke: rgb(0,0,0);stroke-opacity: 1.0;stroke-linecap: round;stroke-linejoin: round;" transform="matrix(0.0035433071,0,0,0.0035433071,0,0)" /><ellipse cx="453" cy="211" rx="101" ry="101" style="fill: rgb(0,0,255); fill-opacity: 1.0" transform="matrix(0.0708661418,0,0,0.0708661418,17.7165354375,17.7165354375)" /><ellipse cx="211" cy="586" rx="101" ry="101" style="fill: rgb(0,0,255); fill-opacity: 1.0" transform="matrix(0.0708661418,0,0,0.0708661418,17.7165354375,17.7165354375)" /><ellipse cx="453" cy="828" rx="101" ry="101" style="fill: rgb(0,0,255); fill-opacity: 1.0" transform="matrix(0.0708661418,0,0,0.0708661418,17.7165354375,17.7165354375)" /><ellipse cx="1873" cy="585" rx="101" ry="101" style="fill: rgb(0,0,255); fill-opacity: 1.0" transform="matrix(0.0708661418,0,0,0.0708661418,17.7165354375,17.7165354375)" /><rect x="677" y="193" width="37" height="37" style="fill: rgb(0,0,255); fill-opacity: 1.0" transform="matrix(0.0708661418,0,0,0.0708661418,17.7165354375,17.7165354375)" /><rect x="677" y="193" width="37" height="37" style="fill: rgb(0,0,255); fill-opacity: 1.0" transform="matrix(0.0708661418,0,0,0.0708661418,17.7165354375,17.7165354375)" /><rect x="677" y="193" width="37" height="37" style="fill: rgb(0,0,255); fill-opacity: 1.0" transform="matrix(0.0708661418,0,0,0.0708661418,17.7165354375,17.7165354375)" /><rect x="677" y="193" width="37" height="37" style="fill: rgb(0,0,255); fill-opacity: 1.0" transform="matrix(0.0708661418,0,0,0.0708661418,17.7165354375,17.7165354375)" /><rect x="677" y="193" width="37" height="37" style="fill: rgb(0,0,255); fill-opacity: 1.0" transform="matrix(0.0708661418,0,0,0.0708661418,17.7165354375,17.7165354375)" /><rect x="677" y="193" width="37" height="37" style="fill: rgb(0,0,255); fill-opacity: 1.0" transform="matrix(0.0708661418,0,0,0.0708661418,17.7165354375,17.7165354375)" /><rect x="677" y="193" width="37" height="37" style="fill: rgb(0,0,255); fill-opacity: 1.0" transform="matrix(0.0708661418,0,0,0.0708661418,17.7165354375,17.7165354375)" /><rect x="677" y="193" width="37" height="37" style="fill: rgb(0,0,255); fill-opacity: 1.0" transform="matrix(0.0708661418,0,0,0.0708661418,17.7165354375,17.7165354375)" /><rect x="677" y="193" width="263" height="37" style="fill: rgb(0,0,255); fill-opacity: 1.0" transform="matrix(0.0708661418,0,0,0.0708661418,17.7165354375,17.7165354375)" /><rect x="903" y="193" width="37" height="37" style="fill: rgb(0,0,255); fill-opacity: 1.0" transform="matrix(0.0708661418,0,0,0.0708661418,17.7165354375,17.7165354375)" /><rect x="903" y="193" width="37" height="37" style="fill: rgb(0,0,255); fill-opacity: 1.0" transform="matrix(0.0708661418,0,0,0.0708661418,17.7165354375,17.7165354375)" /><rect x="903" y="193" width="37" height="37" style="fill: rgb(0,0,255); fill-opacity: 1.0" transform="matrix(0.0708661418,0,0,0.0708661418,17.7165354375,17.7165354375)" /><rect x="903" y="193" width="37" height="37" style="fill: rgb(0,0,255); fill-opacity: 1.0" transform="matrix(0.0708661418,0,0,0.0708661418,17.7165354375,17.7165354375)" /><rect x="903" y="193" width="37" height="37" style="fill: rgb(0,0,255); fill-opacity: 1.0" transform="matrix(0.0708661418,0,0,0.0708661418,17.7165354375,17.7165354375)" /><rect x="903" y="193" width="37" height="37" style="fill: rgb(0,0,255); fill-opacity: 1.0" transform="matrix(0.0708661418,0,0,0.0708661418,17.7165354375,17.7165354375)" /><rect x="903" y="193" width="37" height="37" style="fill: rgb(0,0,255); fill-opacity: 1.0" transform="matrix(0.0708661418,0,0,0.0708661418,17.7165354375,17.7165354375)" /><rect x="903" y="193" width="37" height="37" style="fill: rgb(0,0,255); fill-opacity: 1.0" transform="matrix(0.0708661418,0,0,0.0708661418,17.7165354375,17.7165354375)" /><rect x="677" y="568" width="37" height="37" style="fill: rgb(0,0,255); fill-opacity: 1.0" transform="matrix(0.0708661418,0,0,0.0708661418,17.7165354375,17.7165354375)" /><rect x="677" y="568" width="37" height="37" style="fill: rgb(0,0,255); fill-opacity: 1.0" transform="matrix(0.0708661418,0,0,0.0708661418,17.7165354375,17.7165354375)" /><rect x="677" y="568" width="37" height="37" style="fill: rgb(0,0,255); fill-opacity: 1.0" transform="matrix(0.0708661418,0,0,0.0708661418,17.7165354375,17.7165354375)" /><rect x="677" y="568" width="37" height="37" style="fill: rgb(0,0,255); fill-opacity: 1.0" transform="matrix(0.0708661418,0,0,0.0708661418,17.7165354375,17.7165354375)" /><rect x="677" y="568" width="37" height="37" style="fill: rgb(0,0,255); fill-opacity: 1.0" transform="matrix(0.0708661418,0,0,0.0708661418,17.7165354375,17.7165354375)" /><rect x="677" y="568" width="37" height="37" style="fill: rgb(0,0,255); fill-opacity: 1.0" transform="matrix(0.0708661418,0,0,0.0708661418,17.7165354375,17.7165354375)" /><rect x="677" y="568" width="37" height="37" style="fill: rgb(0,0,255); fill-opacity: 1.0" transform="matrix(0.0708661418,0,0,0.0708661418,17.7165354375,17.7165354375)" /><rect x="677" y="568" width="37" height="37" style="fill: rgb(0,0,255); fill-opacity: 1.0" transform="matrix(0.0708661418,0,0,0.0708661418,17.7165354375,17.7165354375)" /><rect x="677" y="568" width="263" height="37" style="fill: rgb(0,0,255); fill-opacity: 1.0" transform="matrix(0.0708661418,0,0,0.0708661418,17.7165354375,17.7165354375)" /><rect x="903" y="568" width="37" height="37" style="fill: rgb(0,0,255); fill-opacity: 1.0" transform="matrix(0.0708661418,0,0,0.0708661418,17.7165354375,17.7165354375)" /><rect x="903" y="568" width="37" height="37" style="fill: rgb(0,0,255); fill-opacity: 1.0" transform="matrix(0.0708661418,0,0,0.0708661418,17.7165354375,17.7165354375)" /><rect x="903" y="568" width="37" height="37" style="fill: rgb(0,0,255); fill-opacity: 1.0" transform="matrix(0.0708661418,0,0,0.0708661418,17.7165354375,17.7165354375)" /><rect x="903" y="568" width="37" height="37" style="fill: rgb(0,0,255); fill-opacity: 1.0" transform="matrix(0.0708661418,0,0,0.0708661418,17.7165354375,17.7165354375)" /><rect x="903" y="568" width="37" height="37" style="fill: rgb(0,0,255); fill-opacity: 1.0" transform="matrix(0.0708661418,0,0,0.0708661418,17.7165354375,17.7165354375)" /><rect x="903" y="568" width="37" height="37" style="fill: rgb(0,0,255); fill-opacity: 1.0" transform="matrix(0.0708661418,0,0,0.0708661418,17.7165354375,17.7165354375)" /><rect x="903" y="568" width="37" height="37" style="fill: rgb(0,0,255); fill-opacity: 1.0" transform="matrix(0.0708661418,0,0,0.0708661418,17.7165354375,17.7165354375)" /><rect x="903" y="568" width="37" height="37" style="fill: rgb(0,0,255); fill-opacity: 1.0" transform="matrix(0.0708661418,0,0,0.0708661418,17.7165354375,17.7165354375)" /><rect x="903" y="193" width="37" height="37" style="fill: rgb(0,0,255); fill-opacity: 1.0" transform="matrix(0.0708661418,0,0,0.0708661418,17.7165354375,17.7165354375)" /><rect x="903" y="193" width="37" height="37" style="fill: rgb(0,0,255); fill-opacity: 1.0" transform="matrix(0.0708661418,0,0,0.0708661418,17.7165354375,17.7165354375)" /><rect x="903" y="193" width="37" height="37" style="fill: rgb(0,0,255); fill-opacity: 1.0" transform="matrix(0.0708661418,0,0,0.0708661418,17.7165354375,17.7165354375)" /><rect x="903" y="193" width="37" height="37" style="fill: rgb(0,0,255); fill-opacity: 1.0" transform="matrix(0.0708661418,0,0,0.0708661418,17.7165354375,17.7165354375)" /><rect x="903" y="193" width="37" height="37" style="fill: rgb(0,0,255); fill-opacity: 1.0" transform="matrix(0.0708661418,0,0,0.0708661418,17.7165354375,17.7165354375)" /><rect x="903" y="193" width="37" height="37" style="fill: rgb(0,0,255); fill-opacity: 1.0" transform="matrix(0.0708661418,0,0,0.0708661418,17.7165354375,17.7165354375)" /><rect x="903" y="193" width="37" height="37" style="fill: rgb(0,0,255); fill-opacity: 1.0" transform="matrix(0.0708661418,0,0,0.0708661418,17.7165354375,17.7165354375)" /><rect x="903" y="193" width="37" height="37" style="fill: rgb(0,0,255); fill-opacity: 1.0" transform="matrix(0.0708661418,0,0,0.0708661418,17.7165354375,17.7165354375)" /><rect x="903" y="193" width="37" height="224" style="fill: rgb(0,0,255); fill-opacity: 1.0" transform="matrix(0.0708661418,0,0,0.0708661418,17.7165354375,17.7165354375)" /><rect x="903" y="380" width="37" height="37" style="fill: rgb(0,0,255); fill-opacity: 1.0" transform="matrix(0.0708661418,0,0,0.0708661418,17.7165354375,17.7165354375)" /><rect x="903" y="380" width="37" height="37" style="fill: rgb(0,0,255); fill-opacity: 1.0" transform="matrix(0.0708661418,0,0,0.0708661418,17.7165354375,17.7165354375)" /><rect x="903" y="380" width="37" height="37" style="fill: rgb(0,0,255); fill-opacity: 1.0" transform="matrix(0.0708661418,0,0,0.0708661418,17.7165354375,17.7165354375)" /><rect x="903" y="380" width="37" height="37" style="fill: rgb(0,0,255); fill-opacity: 1.0" transform="matrix(0.0708661418,0,0,0.0708661418,17.7165354375,17.7165354375)" /><rect x="903" y="380" width="37" height="37" style="fill: rgb(0,0,255); fill-opacity: 1.0" transform="matrix(0.0708661418,0,0,0.0708661418,17.7165354375,17.7165354375)" /><rect x="903" y="380" width="37" height="37" style="fill: rgb(0,0,255); fill-opacity: 1.0" transform="matrix(0.0708661418,0,0,0.0708661418,17.7165354375,17.7165354375)" /><rect x="903" y="380" width="37" height="37" style="fill: rgb(0,0,255); fill-opacity: 1.0" transform="matrix(0.0708661418,0,0,0.0708661418,17.7165354375,17.7165354375)" /><rect x="903" y="380" width="37" height="37" style="fill: rgb(0,0,255); fill-opacity: 1.0" transform="matrix(0.0708661418,0,0,0.0708661418,17.7165354375,17.7165354375)" /><rect x="903" y="568" width="37" height="37" style="fill: rgb(0,0,255); fill-opacity: 1.0" transform="matrix(0.0708661418,0,0,0.0708661418,17.7165354375,17.7165354375)" /><rect x="903" y="568" width="37" height="37" style="fill: rgb(0,0,255); fill-opacity: 1.0" transform="matrix(0.0708661418,0,0,0.0708661418,17.7165354375,17.7165354375)" /><rect x="903" y="568" width="37" height="37" style="fill: rgb(0,0,255); fill-opacity: 1.0" transform="matrix(0.0708661418,0,0,0.0708661418,17.7165354375,17.7165354375)" /><rect x="903" y="568" width="37" height="37" style="fill: rgb(0,0,255); fill-opacity: 1.0" transform="matrix(0.0708661418,0,0,0.0708661418,17.7165354375,17.7165354375)" /><rect x="903" y="568" width="37" height="37" style="fill: rgb(0,0,255); fill-opacity: 1.0" transform="matrix(0.0708661418,0,0,0.0708661418,17.7165354375,17.7165354375)" /><rect x="903" y="568" width="37" height="37" style="fill: rgb(0,0,255); fill-opacity: 1.0" transform="matrix(0.0708661418,0,0,0.0708661418,17.7165354375,17.7165354375)" /><rect x="903" y="568" width="37" height="37" style="fill: rgb(0,0,255); fill-opacity: 1.0" transform="matrix(0.0708661418,0,0,0.0708661418,17.7165354375,17.7165354375)" /><rect x="903" y="568" width="37" height="37" style="fill: rgb(0,0,255); fill-opacity: 1.0" transform="matrix(0.0708661418,0,0,0.0708661418,17.7165354375,17.7165354375)" /><rect x="903" y="380" width="37" height="225" style="fill: rgb(0,0,255); fill-opacity: 1.0" transform="matrix(0.0708661418,0,0,0.0708661418,17.7165354375,17.7165354375)" /><rect x="903" y="380" width="37" height="37" style="fill: rgb(0,0,255); fill-opacity: 1.0" transform="matrix(0.0708661418,0,0,0.0708661418,17.7165354375,17.7165354375)" /><rect x="903" y="380" width="37" height="37" style="fill: rgb(0,0,255); fill-opacity: 1.0" transform="matrix(0.0708661418,0,0,0.0708661418,17.7165354375,17.7165354375)" /><rect x="903" y="380" width="37" height="37" style="fill: rgb(0,0,255); fill-opacity: 1.0" transform="matrix(0.0708661418,0,0,0.0708661418,17.7165354375,17.7165354375)" /><rect x="903" y="380" width="37" height="37" style="fill: rgb(0,0,255); fill-opacity: 1.0" transform="matrix(0.0708661418,0,0,0.0708661418,17.7165354375,17.7165354375)" /><rect x="903" y="380" width="37" height="37" style="fill: rgb(0,0,255); fill-opacity: 1.0" transform="matrix(0.0708661418,0,0,0.0708661418,17.7165354375,17.7165354375)" /><rect x="903" y="380" width="37" height="37" style="fill: rgb(0,0,255); fill-opacity: 1.0" transform="matrix(0.0708661418,0,0,0.0708661418,17.7165354375,17.7165354375)" /><rect x="903" y="380" width="37" height="37" style="fill: rgb(0,0,255); fill-opacity: 1.0" transform="matrix(0.0708661418,0,0,0.0708661418,17.7165354375,17.7165354375)" /><rect x="903" y="380" width="37" height="37" style="fill: rgb(0,0,255); fill-opacity: 1.0" transform="matrix(0.0708661418,0,0,0.0708661418,17.7165354375,17.7165354375)" /><rect x="677" y="193" width="37" height="37" style="fill: rgb(0,0,255); fill-opacity: 1.0" transform="matrix(0.0708661418,0,0,0.0708661418,17.7165354375,17.7165354375)" /><rect x="677" y="193" width="37" height="37" style="fill: rgb(0,0,255); fill-opacity: 1.0" transform="matrix(0.0708661418,0,0,0.0708661418,17.7165354375,17.7165354375)" /><rect x="677" y="193" width="37" height="37" style="fill: rgb(0,0,255); fill-opacity: 1.0" transform="matrix(0.0708661418,0,0,0.0708661418,17.7165354375,17.7165354375)" /><rect x="677" y="193" width="37" height="37" style="fill: rgb(0,0,255); fill-opacity: 1.0" transform="matrix(0.0708661418,0,0,0.0708661418,17.7165354375,17.7165354375)" /><rect x="677" y="193" width="37" height="37" style="fill: rgb(0,0,255); fill-opacity: 1.0" transform="matrix(0.0708661418,0,0,0.0708661418,17.7165354375,17.7165354375)" /><rect x="677" y="193" width="37" height="37" style="fill: rgb(0,0,255); fill-opacity: 1.0" transform="matrix(0.0708661418,0,0,0.0708661418,17.7165354375,17.7165354375)" /><rect x="677" y="193" width="37" height="37" style="fill: rgb(0,0,255); fill-opacity: 1.0" transform="matrix(0.0708661418,0,0,0.0708661418,17.7165354375,17.7165354375)" /><rect x="677" y="193" width="37" height="37" style="fill: rgb(0,0,255); fill-opacity: 1.0" transform="matrix(0.0708661418,0,0,0.0708661418,17.7165354375,17.7165354375)" /><rect x="653" y="193" width="61" height="37" style="fill: rgb(0,0,255); fill-opacity: 1.0" transform="matrix(0.0708661418,0,0,0.0708661418,17.7165354375,17.7165354375)" /><rect x="653" y="193" width="37" height="37" style="fill: rgb(0,0,255); fill-opacity: 1.0" transform="matrix(0.0708661418,0,0,0.0708661418,17.7165354375,17.7165354375)" /><rect x="653" y="193" width="37" height="37" style="fill: rgb(0,0,255); fill-opacity: 1.0" transform="matrix(0.0708661418,0,0,0.0708661418,17.7165354375,17.7165354375)" /><rect x="653" y="193" width="37" height="37" style="fill: rgb(0,0,255); fill-opacity: 1.0" transform="matrix(0.0708661418,0,0,0.0708661418,17.7165354375,17.7165354375)" /><rect x="653" y="193" width="37" height="37" style="fill: rgb(0,0,255); fill-opacity: 1.0" transform="matrix(0.0708661418,0,0,0.0708661418,17.7165354375,17.7165354375)" /><rect x="653" y="193" width="37" height="37" style="fill: rgb(0,0,255); fill-opacity: 1.0" transform="matrix(0.0708661418,0,0,0.0708661418,17.7165354375,17.7165354375)" /><rect x="653" y="193" width="37" height="37" style="fill: rgb(0,0,255); fill-opacity: 1.0" transform="matrix(0.0708661418,0,0,0.0708661418,17.7165354375,17.7165354375)" /><rect x="653" y="193" width="37" height="37" style="fill: rgb(0,0,255); fill-opacity: 1.0" transform="matrix(0.0708661418,0,0,0.0708661418,17.7165354375,17.7165354375)" /><rect x="653" y="193" width="37" height="37" style="fill: rgb(0,0,255); fill-opacity: 1.0" transform="matrix(0.0708661418,0,0,0.0708661418,17.7165354375,17.7165354375)" /><rect x="677" y="568" width="37" height="37" style="fill: rgb(0,0,255); fill-opacity: 1.0" transform="matrix(0.0708661418,0,0,0.0708661418,17.7165354375,17.7165354375)" /><rect x="677" y="568" width="37" height="37" style="fill: rgb(0,0,255); fill-opacity: 1.0" transform="matrix(0.0708661418,0,0,0.0708661418,17.7165354375,17.7165354375)" /><rect x="677" y="568" width="37" height="37" style="fill: rgb(0,0,255); fill-opacity: 1.0" transform="matrix(0.0708661418,0,0,0.0708661418,17.7165354375,17.7165354375)" /><rect x="677" y="568" width="37" height="37" style="fill: rgb(0,0,255); fill-opacity: 1.0" transform="matrix(0.0708661418,0,0,0.0708661418,17.7165354375,17.7165354375)" /><rect x="677" y="568" width="37" height="37" style="fill: rgb(0,0,255); fill-opacity: 1.0" transform="matrix(0.0708661418,0,0,0.0708661418,17.7165354375,17.7165354375)" /><rect x="677" y="568" width="37" height="37" style="fill: rgb(0,0,255); fill-opacity: 1.0" transform="matrix(0.0708661418,0,0,0.0708661418,17.7165354375,17.7165354375)" /><rect x="677" y="568" width="37" height="37" style="fill: rgb(0,0,255); fill-opacity: 1.0" transform="matrix(0.0708661418,0,0,0.0708661418,17.7165354375,17.7165354375)" /><rect x="677" y="568" width="37" height="37" style="fill: rgb(0,0,255); fill-opacity: 1.0" transform="matrix(0.0708661418,0,0,0.0708661418,17.7165354375,17.7165354375)" /><rect x="653" y="568" width="61" height="37" style="fill: rgb(0,0,255); fill-opacity: 1.0" transform="matrix(0.0708661418,0,0,0.0708661418,17.7165354375,17.7165354375)" /><rect x="653" y="568" width="37" height="37" style="fill: rgb(0,0,255); fill-opacity: 1.0" transform="matrix(0.0708661418,0,0,0.0708661418,17.7165354375,17.7165354375)" /><rect x="653" y="568" width="37" height="37" style="fill: rgb(0,0,255); fill-opacity: 1.0" transform="matrix(0.0708661418,0,0,0.0708661418,17.7165354375,17.7165354375)" /><rect x="653" y="568" width="37" height="37" style="fill: rgb(0,0,255); fill-opacity: 1.0" transform="matrix(0.0708661418,0,0,0.0708661418,17.7165354375,17.7165354375)" /><rect x="653" y="568" width="37" height="37" style="fill: rgb(0,0,255); fill-opacity: 1.0" transform="matrix(0.0708661418,0,0,0.0708661418,17.7165354375,17.7165354375)" /><rect x="653" y="568" width="37" height="37" style="fill: rgb(0,0,255); fill-opacity: 1.0" transform="matrix(0.0708661418,0,0,0.0708661418,17.7165354375,17.7165354375)" /><rect x="653" y="568" width="37" height="37" style="fill: rgb(0,0,255); fill-opacity: 1.0" transform="matrix(0.0708661418,0,0,0.0708661418,17.7165354375,17.7165354375)" /><rect x="653" y="568" width="37" height="37" style="fill: rgb(0,0,255); fill-opacity: 1.0" transform="matrix(0.0708661418,0,0,0.0708661418,17.7165354375,17.7165354375)" /><rect x="653" y="568" width="37" height="37" style="fill: rgb(0,0,255); fill-opacity: 1.0" transform="matrix(0.0708661418,0,0,0.0708661418,17.7165354375,17.7165354375)" /><rect x="903" y="380" width="37" height="37" style="fill: rgb(0,0,255); fill-opacity: 1.0" transform="matrix(0.0708661418,0,0,0.0708661418,17.7165354375,17.7165354375)" /><rect x="903" y="380" width="37" height="37" style="fill: rgb(0,0,255); fill-opacity: 1.0" transform="matrix(0.0708661418,0,0,0.0708661418,17.7165354375,17.7165354375)" /><rect x="903" y="380" width="37" height="37" style="fill: rgb(0,0,255); fill-opacity: 1.0" transform="matrix(0.0708661418,0,0,0.0708661418,17.7165354375,17.7165354375)" /><rect x="903" y="380" width="37" height="37" style="fill: rgb(0,0,255); fill-opacity: 1.0" transform="matrix(0.0708661418,0,0,0.0708661418,17.7165354375,17.7165354375)" /><rect x="903" y="380" width="37" height="37" style="fill: rgb(0,0,255); fill-opacity: 1.0" transform="matrix(0.0708661418,0,0,0.0708661418,17.7165354375,17.7165354375)" /><rect x="903" y="380" width="37" height="37" style="fill: rgb(0,0,255); fill-opacity: 1.0" transform="matrix(0.0708661418,0,0,0.0708661418,17.7165354375,17.7165354375)" /><rect x="903" y="380" width="37" height="37" style="fill: rgb(0,0,255); fill-opacity: 1.0" transform="matrix(0.0708661418,0,0,0.0708661418,17.7165354375,17.7165354375)" /><rect x="903" y="380" width="37" height="37" style="fill: rgb(0,0,255); fill-opacity: 1.0" transform="matrix(0.0708661418,0,0,0.0708661418,17.7165354375,17.7165354375)" /><rect x="903" y="380" width="61" height="37" style="fill: rgb(0,0,255); fill-opacity: 1.0" transform="matrix(0.0708661418,0,0,0.0708661418,17.7165354375,17.7165354375)" /><rect x="927" y="380" width="37" height="37" style="fill: rgb(0,0,255); fill-opacity: 1.0" transform="matrix(0.0708661418,0,0,0.0708661418,17.7165354375,17.7165354375)" /><rect x="927" y="380" width="37" height="37" style="fill: rgb(0,0,255); fill-opacity: 1.0" transform="matrix(0.0708661418,0,0,0.0708661418,17.7165354375,17.7165354375)" /><rect x="927" y="380" width="37" height="37" style="fill: rgb(0,0,255); fill-opacity: 1.0" transform="matrix(0.0708661418,0,0,0.0708661418,17.7165354375,17.7165354375)" /><rect x="927" y="380" width="37" height="37" style="fill: rgb(0,0,255); fill-opacity: 1.0" transform="matrix(0.0708661418,0,0,0.0708661418,17.7165354375,17.7165354375)" /><rect x="927" y="380" width="37" height="37" style="fill: rgb(0,0,255); fill-opacity: 1.0" transform="matrix(0.0708661418,0,0,0.0708661418,17.7165354375,17.7165354375)" /><rect x="927" y="380" width="37" height="37" style="fill: rgb(0,0,255); fill-opacity: 1.0" transform="matrix(0.0708661418,0,0,0.0708661418,17.7165354375,17.7165354375)" /><rect x="927" y="380" width="37" height="37" style="fill: rgb(0,0,255); fill-opacity: 1.0" transform="matrix(0.0708661418,0,0,0.0708661418,17.7165354375,17.7165354375)" /><rect x="927" y="380" width="37" height="37" style="fill: rgb(0,0,255); fill-opacity: 1.0" transform="matrix(0.0708661418,0,0,0.0708661418,17.7165354375,17.7165354375)" /><rect x="1065" y="380" width="37" height="37" style="fill: rgb(0,0,255); fill-opacity: 1.0" transform="matrix(0.0708661418,0,0,0.0708661418,17.7165354375,17.7165354375)" /><rect x="1065" y="380" width="37" height="37" style="fill: rgb(0,0,255); fill-opacity: 1.0" transform="matrix(0.0708661418,0,0,0.0708661418,17.7165354375,17.7165354375)" /><rect x="1065" y="380" width="37" height="37" style="fill: rgb(0,0,255); fill-opacity: 1.0" transform="matrix(0.0708661418,0,0,0.0708661418,17.7165354375,17.7165354375)" /><rect x="1065" y="380" width="37" height="37" style="fill: rgb(0,0,255); fill-opacity: 1.0" transform="matrix(0.0708661418,0,0,0.0708661418,17.7165354375,17.7165354375)" /><rect x="1065" y="380" width="37" height="37" style="fill: rgb(0,0,255); fill-opacity: 1.0" transform="matrix(0.0708661418,0,0,0.0708661418,17.7165354375,17.7165354375)" /><rect x="1065" y="380" width="37" height="37" style="fill: rgb(0,0,255); fill-opacity: 1.0" transform="matrix(0.0708661418,0,0,0.0708661418,17.7165354375,17.7165354375)" /><rect x="1065" y="380" width="37" height="37" style="fill: rgb(0,0,255); fill-opacity: 1.0" transform="matrix(0.0708661418,0,0,0.0708661418,17.7165354375,17.7165354375)" /><rect x="1065" y="380" width="37" height="37" style="fill: rgb(0,0,255); fill-opacity: 1.0" transform="matrix(0.0708661418,0,0,0.0708661418,17.7165354375,17.7165354375)" /><rect x="1065" y="380" width="263" height="37" style="fill: rgb(0,0,255); fill-opacity: 1.0" transform="matrix(0.0708661418,0,0,0.0708661418,17.7165354375,17.7165354375)" /><rect x="1291" y="380" width="37" height="37" style="fill: rgb(0,0,255); fill-opacity: 1.0" transform="matrix(0.0708661418,0,0,0.0708661418,17.7165354375,17.7165354375)" /><rect x="1291" y="380" width="37" height="37" style="fill: rgb(0,0,255); fill-opacity: 1.0" transform="matrix(0.0708661418,0,0,0.0708661418,17.7165354375,17.7165354375)" /><rect x="1291" y="380" width="37" height="37" style="fill: rgb(0,0,255); fill-opacity: 1.0" transform="matrix(0.0708661418,0,0,0.0708661418,17.7165354375,17.7165354375)" /><rect x="1291" y="380" width="37" height="37" style="fill: rgb(0,0,255); fill-opacity: 1.0" transform="matrix(0.0708661418,0,0,0.0708661418,17.7165354375,17.7165354375)" /><rect x="1291" y="380" width="37" height="37" style="fill: rgb(0,0,255); fill-opacity: 1.0" transform="matrix(0.0708661418,0,0,0.0708661418,17.7165354375,17.7165354375)" /><rect x="1291" y="380" width="37" height="37" style="fill: rgb(0,0,255); fill-opacity: 1.0" transform="matrix(0.0708661418,0,0,0.0708661418,17.7165354375,17.7165354375)" /><rect x="1291" y="380" width="37" height="37" style="fill: rgb(0,0,255); fill-opacity: 1.0" transform="matrix(0.0708661418,0,0,0.0708661418,17.7165354375,17.7165354375)" /><rect x="1291" y="380" width="37" height="37" style="fill: rgb(0,0,255); fill-opacity: 1.0" transform="matrix(0.0708661418,0,0,0.0708661418,17.7165354375,17.7165354375)" /><rect x="1065" y="755" width="37" height="37" style="fill: rgb(0,0,255); fill-opacity: 1.0" transform="matrix(0.0708661418,0,0,0.0708661418,17.7165354375,17.7165354375)" /><rect x="1065" y="755" width="37" height="37" style="fill: rgb(0,0,255); fill-opacity: 1.0" transform="matrix(0.0708661418,0,0,0.0708661418,17.7165354375,17.7165354375)" /><rect x="1065" y="755" width="37" height="37" style="fill: rgb(0,0,255); fill-opacity: 1.0" transform="matrix(0.0708661418,0,0,0.0708661418,17.7165354375,17.7165354375)" /><rect x="1065" y="755" width="37" height="37" style="fill: rgb(0,0,255); fill-opacity: 1.0" transform="matrix(0.0708661418,0,0,0.0708661418,17.7165354375,17.7165354375)" /><rect x="1065" y="755" width="37" height="37" style="fill: rgb(0,0,255); fill-opacity: 1.0" transform="matrix(0.0708661418,0,0,0.0708661418,17.7165354375,17.7165354375)" /><rect x="1065" y="755" width="37" height="37" style="fill: rgb(0,0,255); fill-opacity: 1.0" transform="matrix(0.0708661418,0,0,0.0708661418,17.7165354375,17.7165354375)" /><rect x="1065" y="755" width="37" height="37" style="fill: rgb(0,0,255); fill-opacity: 1.0" transform="matrix(0.0708661418,0,0,0.0708661418,17.7165354375,17.7165354375)" /><rect x="1065" y="755" width="37" height="37" style="fill: rgb(0,0,255); fill-opacity: 1.0" transform="matrix(0.0708661418,0,0,0.0708661418,17.7165354375,17.7165354375)" /><rect x="1065" y="755" width="263" height="37" style="fill: rgb(0,0,255); fill-opacity: 1.0" transform="matrix(0.0708661418,0,0,0.0708661418,17.7165354375,17.7165354375)" /><rect x="1291" y="755" width="37" height="37" style="fill: rgb(0,0,255); fill-opacity: 1.0" transform="matrix(0.0708661418,0,0,0.0708661418,17.7165354375,17.7165354375)" /><rect x="1291" y="755" width="37" height="37" style="fill: rgb(0,0,255); fill-opacity: 1.0" transform="matrix(0.0708661418,0,0,0.0708661418,17.7165354375,17.7165354375)" /><rect x="1291" y="755" width="37" height="37" style="fill: rgb(0,0,255); fill-opacity: 1.0" transform="matrix(0.0708661418,0,0,0.0708661418,17.7165354375,17.7165354375)" /><rect x="1291" y="755" width="37" height="37" style="fill: rgb(0,0,255); fill-opacity: 1.0" transform="matrix(0.0708661418,0,0,0.0708661418,17.7165354375,17.7165354375)" /><rect x="1291" y="755" width="37" height="37" style="fill: rgb(0,0,255); fill-opacity: 1.0" transform="matrix(0.0708661418,0,0,0.0708661418,17.7165354375,17.7165354375)" /><rect x="1291" y="755" width="37" height="37" style="fill: rgb(0,0,255); fill-opacity: 1.0" transform="matrix(0.0708661418,0,0,0.0708661418,17.7165354375,17.7165354375)" /><rect x="1291" y="755" width="37" height="37" style="fill: rgb(0,0,255); fill-opacity: 1.0" transform="matrix(0.0708661418,0,0,0.0708661418,17.7165354375,17.7165354375)" /><rect x="1291" y="755" width="37" height="37" style="fill: rgb(0,0,255); fill-opacity: 1.0" transform="matrix(0.0708661418,0,0,0.0708661418,17.7165354375,17.7165354375)" /><rect x="1291" y="380" width="37" height="37" style="fill: rgb(0,0,255); fill-opacity: 1.0" transform="matrix(0.0708661418,0,0,0.0708661418,17.7165354375,17.7165354375)" /><rect x="1291" y="380" width="37" height="37" style="fill: rgb(0,0,255); fill-opacity: 1.0" transform="matrix(0.0708661418,0,0,0.0708661418,17.7165354375,17.7165354375)" /><rect x="1291" y="380" width="37" height="37" style="fill: rgb(0,0,255); fill-opacity: 1.0" transform="matrix(0.0708661418,0,0,0.0708661418,17.7165354375,17.7165354375)" /><rect x="1291" y="380" width="37" height="37" style="fill: rgb(0,0,255); fill-opacity: 1.0" transform="matrix(0.0708661418,0,0,0.0708661418,17.7165354375,17.7165354375)" /><rect x="1291" y="380" width="37" height="37" style="fill: rgb(0,0,255); fill-opacity: 1.0" transform="matrix(0.0708661418,0,0,0.0708661418,17.7165354375,17.7165354375)" /><rect x="1291" y="380" width="37" height="37" style="fill: rgb(0,0,255); fill-opacity: 1.0" transform="matrix(0.0708661418,0,0,0.0708661418,17.7165354375,17.7165354375)" /><rect x="1291" y="380" width="37" height="37" style="fill: rgb(0,0,255); fill-opacity: 1.0" transform="matrix(0.0708661418,0,0,0.0708661418,17.7165354375,17.7165354375)" /><rect x="1291" y="380" width="37" height="37" style="fill: rgb(0,0,255); fill-opacity: 1.0" transform="matrix(0.0708661418,0,0,0.0708661418,17.7165354375,17.7165354375)" /><rect x="1291" y="380" width="37" height="224" style="fill: rgb(0,0,255); fill-opacity: 1.0" transform="matrix(0.0708661418,0,0,0.0708661418,17.7165354375,17.7165354375)" /><rect x="1291" y="567" width="37" height="37" style="fill: rgb(0,0,255); fill-opacity: 1.0" transform="matrix(0.0708661418,0,0,0.0708661418,17.7165354375,17.7165354375)" /><rect x="1291" y="567" width="37" height="37" style="fill: rgb(0,0,255); fill-opacity: 1.0" transform="matrix(0.0708661418,0,0,0.0708661418,17.7165354375,17.7165354375)" /><rect x="1291" y="567" width="37" height="37" style="fill: rgb(0,0,255); fill-opacity: 1.0" transform="matrix(0.0708661418,0,0,0.0708661418,17.7165354375,17.7165354375)" /><rect x="1291" y="567" width="37" height="37" style="fill: rgb(0,0,255); fill-opacity: 1.0" transform="matrix(0.0708661418,0,0,0.0708661418,17.7165354375,17.7165354375)" /><rect x="1291" y="567" width="37" height="37" style="fill: rgb(0,0,255); fill-opacity: 1.0" transform="matrix(0.0708661418,0,0,0.0708661418,17.7165354375,17.7165354375)" /><rect x="1291" y="567" width="37" height="37" style="fill: rgb(0,0,255); fill-opacity: 1.0" transform="matrix(0.0708661418,0,0,0.0708661418,17.7165354375,17.7165354375)" /><rect x="1291" y="567" width="37" height="37" style="fill: rgb(0,0,255); fill-opacity: 1.0" transform="matrix(0.0708661418,0,0,0.0708661418,17.7165354375,17.7165354375)" /><rect x="1291" y="567" width="37" height="37" style="fill: rgb(0,0,255); fill-opacity: 1.0" transform="matrix(0.0708661418,0,0,0.0708661418,17.7165354375,17.7165354375)" /><rect x="1291" y="755" width="37" height="37" style="fill: rgb(0,0,255); fill-opacity: 1.0" transform="matrix(0.0708661418,0,0,0.0708661418,17.7165354375,17.7165354375)" /><rect x="1291" y="755" width="37" height="37" style="fill: rgb(0,0,255); fill-opacity: 1.0" transform="matrix(0.0708661418,0,0,0.0708661418,17.7165354375,17.7165354375)" /><rect x="1291" y="755" width="37" height="37" style="fill: rgb(0,0,255); fill-opacity: 1.0" transform="matrix(0.0708661418,0,0,0.0708661418,17.7165354375,17.7165354375)" /><rect x="1291" y="755" width="37" height="37" style="fill: rgb(0,0,255); fill-opacity: 1.0" transform="matrix(0.0708661418,0,0,0.0708661418,17.7165354375,17.7165354375)" /><rect x="1291" y="755" width="37" height="37" style="fill: rgb(0,0,255); fill-opacity: 1.0" transform="matrix(0.0708661418,0,0,0.0708661418,17.7165354375,17.7165354375)" /><rect x="1291" y="755" width="37" height="37" style="fill: rgb(0,0,255); fill-opacity: 1.0" transform="matrix(0.0708661418,0,0,0.0708661418,17.7165354375,17.7165354375)" /><rect x="1291" y="755" width="37" height="37" style="fill: rgb(0,0,255); fill-opacity: 1.0" transform="matrix(0.0708661418,0,0,0.0708661418,17.7165354375,17.7165354375)" /><rect x="1291" y="755" width="37" height="37" style="fill: rgb(0,0,255); fill-opacity: 1.0" transform="matrix(0.0708661418,0,0,0.0708661418,17.7165354375,17.7165354375)" /><rect x="1291" y="567" width="37" height="225" style="fill: rgb(0,0,255); fill-opacity: 1.0" transform="matrix(0.0708661418,0,0,0.0708661418,17.7165354375,17.7165354375)" /><rect x="1291" y="567" width="37" height="37" style="fill: rgb(0,0,255); fill-opacity: 1.0" transform="matrix(0.0708661418,0,0,0.0708661418,17.7165354375,17.7165354375)" /><rect x="1291" y="567" width="37" height="37" style="fill: rgb(0,0,255); fill-opacity: 1.0" transform="matrix(0.0708661418,0,0,0.0708661418,17.7165354375,17.7165354375)" /><rect x="1291" y="567" width="37" height="37" style="fill: rgb(0,0,255); fill-opacity: 1.0" transform="matrix(0.0708661418,0,0,0.0708661418,17.7165354375,17.7165354375)" /><rect x="1291" y="567" width="37" height="37" style="fill: rgb(0,0,255); fill-opacity: 1.0" transform="matrix(0.0708661418,0,0,0.0708661418,17.7165354375,17.7165354375)" /><rect x="1291" y="567" width="37" height="37" style="fill: rgb(0,0,255); fill-opacity: 1.0" transform="matrix(0.0708661418,0,0,0.0708661418,17.7165354375,17.7165354375)" /><rect x="1291" y="567" width="37" height="37" style="fill: rgb(0,0,255); fill-opacity: 1.0" transform="matrix(0.0708661418,0,0,0.0708661418,17.7165354375,17.7165354375)" /><rect x="1291" y="567" width="37" height="37" style="fill: rgb(0,0,255); fill-opacity: 1.0" transform="matrix(0.0708661418,0,0,0.0708661418,17.7165354375,17.7165354375)" /><rect x="1291" y="567" width="37" height="37" style="fill: rgb(0,0,255); fill-opacity: 1.0" transform="matrix(0.0708661418,0,0,0.0708661418,17.7165354375,17.7165354375)" /><rect x="1065" y="380" width="37" height="37" style="fill: rgb(0,0,255); fill-opacity: 1.0" transform="matrix(0.0708661418,0,0,0.0708661418,17.7165354375,17.7165354375)" /><rect x="1065" y="380" width="37" height="37" style="fill: rgb(0,0,255); fill-opacity: 1.0" transform="matrix(0.0708661418,0,0,0.0708661418,17.7165354375,17.7165354375)" /><rect x="1065" y="380" width="37" height="37" style="fill: rgb(0,0,255); fill-opacity: 1.0" transform="matrix(0.0708661418,0,0,0.0708661418,17.7165354375,17.7165354375)" /><rect x="1065" y="380" width="37" height="37" style="fill: rgb(0,0,255); fill-opacity: 1.0" transform="matrix(0.0708661418,0,0,0.0708661418,17.7165354375,17.7165354375)" /><rect x="1065" y="380" width="37" height="37" style="fill: rgb(0,0,255); fill-opacity: 1.0" transform="matrix(0.0708661418,0,0,0.0708661418,17.7165354375,17.7165354375)" /><rect x="1065" y="380" width="37" height="37" style="fill: rgb(0,0,255); fill-opacity: 1.0" transform="matrix(0.0708661418,0,0,0.0708661418,17.7165354375,17.7165354375)" /><rect x="1065" y="380" width="37" height="37" style="fill: rgb(0,0,255); fill-opacity: 1.0" transform="matrix(0.0708661418,0,0,0.0708661418,17.7165354375,17.7165354375)" /><rect x="1065" y="380" width="37" height="37" style="fill: rgb(0,0,255); fill-opacity: 1.0" transform="matrix(0.0708661418,0,0,0.0708661418,17.7165354375,17.7165354375)" /><rect x="1041" y="380" width="61" height="37" style="fill: rgb(0,0,255); fill-opacity: 1.0" transform="matrix(0.0708661418,0,0,0.0708661418,17.7165354375,17.7165354375)" /><rect x="1041" y="380" width="37" height="37" style="fill: rgb(0,0,255); fill-opacity: 1.0" transform="matrix(0.0708661418,0,0,0.0708661418,17.7165354375,17.7165354375)" /><rect x="1041" y="380" width="37" height="37" style="fill: rgb(0,0,255); fill-opacity: 1.0" transform="matrix(0.0708661418,0,0,0.0708661418,17.7165354375,17.7165354375)" /><rect x="1041" y="380" width="37" height="37" style="fill: rgb(0,0,255); fill-opacity: 1.0" transform="matrix(0.0708661418,0,0,0.0708661418,17.7165354375,17.7165354375)" /><rect x="1041" y="380" width="37" height="37" style="fill: rgb(0,0,255); fill-opacity: 1.0" transform="matrix(0.0708661418,0,0,0.0708661418,17.7165354375,17.7165354375)" /><rect x="1041" y="380" width="37" height="37" style="fill: rgb(0,0,255); fill-opacity: 1.0" transform="matrix(0.0708661418,0,0,0.0708661418,17.7165354375,17.7165354375)" /><rect x="1041" y="380" width="37" height="37" style="fill: rgb(0,0,255); fill-opacity: 1.0" transform="matrix(0.0708661418,0,0,0.0708661418,17.7165354375,17.7165354375)" /><rect x="1041" y="380" width="37" height="37" style="fill: rgb(0,0,255); fill-opacity: 1.0" transform="matrix(0.0708661418,0,0,0.0708661418,17.7165354375,17.7165354375)" /><rect x="1041" y="380" width="37" height="37" style="fill: rgb(0,0,255); fill-opacity: 1.0" transform="matrix(0.0708661418,0,0,0.0708661418,17.7165354375,17.7165354375)" /><rect x="1065" y="755" width="37" height="37" style="fill: rgb(0,0,255); fill-opacity: 1.0" transform="matrix(0.0708661418,0,0,0.0708661418,17.7165354375,17.7165354375)" /><rect x="1065" y="755" width="37" height="37" style="fill: rgb(0,0,255); fill-opacity: 1.0" transform="matrix(0.0708661418,0,0,0.0708661418,17.7165354375,17.7165354375)" /><rect x="1065" y="755" width="37" height="37" style="fill: rgb(0,0,255); fill-opacity: 1.0" transform="matrix(0.0708661418,0,0,0.0708661418,17.7165354375,17.7165354375)" /><rect x="1065" y="755" width="37" height="37" style="fill: rgb(0,0,255); fill-opacity: 1.0" transform="matrix(0.0708661418,0,0,0.0708661418,17.7165354375,17.7165354375)" /><rect x="1065" y="755" width="37" height="37" style="fill: rgb(0,0,255); fill-opacity: 1.0" transform="matrix(0.0708661418,0,0,0.0708661418,17.7165354375,17.7165354375)" /><rect x="1065" y="755" width="37" height="37" style="fill: rgb(0,0,255); fill-opacity: 1.0" transform="matrix(0.0708661418,0,0,0.0708661418,17.7165354375,17.7165354375)" /><rect x="1065" y="755" width="37" height="37" style="fill: rgb(0,0,255); fill-opacity: 1.0" transform="matrix(0.0708661418,0,0,0.0708661418,17.7165354375,17.7165354375)" /><rect x="1065" y="755" width="37" height="37" style="fill: rgb(0,0,255); fill-opacity: 1.0" transform="matrix(0.0708661418,0,0,0.0708661418,17.7165354375,17.7165354375)" /><rect x="1041" y="755" width="61" height="37" style="fill: rgb(0,0,255); fill-opacity: 1.0" transform="matrix(0.0708661418,0,0,0.0708661418,17.7165354375,17.7165354375)" /><rect x="1041" y="755" width="37" height="37" style="fill: rgb(0,0,255); fill-opacity: 1.0" transform="matrix(0.0708661418,0,0,0.0708661418,17.7165354375,17.7165354375)" /><rect x="1041" y="755" width="37" height="37" style="fill: rgb(0,0,255); fill-opacity: 1.0" transform="matrix(0.0708661418,0,0,0.0708661418,17.7165354375,17.7165354375)" /><rect x="1041" y="755" width="37" height="37" style="fill: rgb(0,0,255); fill-opacity: 1.0" transform="matrix(0.0708661418,0,0,0.0708661418,17.7165354375,17.7165354375)" /><rect x="1041" y="755" width="37" height="37" style="fill: rgb(0,0,255); fill-opacity: 1.0" transform="matrix(0.0708661418,0,0,0.0708661418,17.7165354375,17.7165354375)" /><rect x="1041" y="755" width="37" height="37" style="fill: rgb(0,0,255); fill-opacity: 1.0" transform="matrix(0.0708661418,0,0,0.0708661418,17.7165354375,17.7165354375)" /><rect x="1041" y="755" width="37" height="37" style="fill: rgb(0,0,255); fill-opacity: 1.0" transform="matrix(0.0708661418,0,0,0.0708661418,17.7165354375,17.7165354375)" /><rect x="1041" y="755" width="37" height="37" style="fill: rgb(0,0,255); fill-opacity: 1.0" transform="matrix(0.0708661418,0,0,0.0708661418,17.7165354375,17.7165354375)" /><rect x="1041" y="755" width="37" height="37" style="fill: rgb(0,0,255); fill-opacity: 1.0" transform="matrix(0.0708661418,0,0,0.0708661418,17.7165354375,17.7165354375)" /><rect x="1291" y="567" width="37" height="37" style="fill: rgb(0,0,255); fill-opacity: 1.0" transform="matrix(0.0708661418,0,0,0.0708661418,17.7165354375,17.7165354375)" /><rect x="1291" y="567" width="37" height="37" style="fill: rgb(0,0,255); fill-opacity: 1.0" transform="matrix(0.0708661418,0,0,0.0708661418,17.7165354375,17.7165354375)" /><rect x="1291" y="567" width="37" height="37" style="fill: rgb(0,0,255); fill-opacity: 1.0" transform="matrix(0.0708661418,0,0,0.0708661418,17.7165354375,17.7165354375)" /><rect x="1291" y="567" width="37" height="37" style="fill: rgb(0,0,255); fill-opacity: 1.0" transform="matrix(0.0708661418,0,0,0.0708661418,17.7165354375,17.7165354375)" /><rect x="1291" y="567" width="37" height="37" style="fill: rgb(0,0,255); fill-opacity: 1.0" transform="matrix(0.0708661418,0,0,0.0708661418,17.7165354375,17.7165354375)" /><rect x="1291" y="567" width="37" height="37" style="fill: rgb(0,0,255); fill-opacity: 1.0" transform="matrix(0.0708661418,0,0,0.0708661418,17.7165354375,17.7165354375)" /><rect x="1291" y="567" width="37" height="37" style="fill: rgb(0,0,255); fill-opacity: 1.0" transform="matrix(0.0708661418,0,0,0.0708661418,17.7165354375,17.7165354375)" /><rect x="1291" y="567" width="37" height="37" style="fill: rgb(0,0,255); fill-opacity: 1.0" transform="matrix(0.0708661418,0,0,0.0708661418,17.7165354375,17.7165354375)" /><rect x="1291" y="567" width="61" height="37" style="fill: rgb(0,0,255); fill-opacity: 1.0" transform="matrix(0.0708661418,0,0,0.0708661418,17.7165354375,17.7165354375)" /><rect x="1315" y="567" width="37" height="37" style="fill: rgb(0,0,255); fill-opacity: 1.0" transform="matrix(0.0708661418,0,0,0.0708661418,17.7165354375,17.7165354375)" /><rect x="1315" y="567" width="37" height="37" style="fill: rgb(0,0,255); fill-opacity: 1.0" transform="matrix(0.0708661418,0,0,0.0708661418,17.7165354375,17.7165354375)" /><rect x="1315" y="567" width="37" height="37" style="fill: rgb(0,0,255); fill-opacity: 1.0" transform="matrix(0.0708661418,0,0,0.0708661418,17.7165354375,17.7165354375)" /><rect x="1315" y="567" width="37" height="37" style="fill: rgb(0,0,255); fill-opacity: 1.0" transform="matrix(0.0708661418,0,0,0.0708661418,17.7165354375,17.7165354375)" /><rect x="1315" y="567" width="37" height="37" style="fill: rgb(0,0,255); fill-opacity: 1.0" transform="matrix(0.0708661418,0,0,0.0708661418,17.7165354375,17.7165354375)" /><rect x="1315" y="567" width="37" height="37" style="fill: rgb(0,0,255); fill-opacity: 1.0" transform="matrix(0.0708661418,0,0,0.0708661418,17.7165354375,17.7165354375)" /><rect x="1315" y="567" width="37" height="37" style="fill: rgb(0,0,255); fill-opacity: 1.0" transform="matrix(0.0708661418,0,0,0.0708661418,17.7165354375,17.7165354375)" /><rect x="1315" y="567" width="37" height="37" style="fill: rgb(0,0,255); fill-opacity: 1.0" transform="matrix(0.0708661418,0,0,0.0708661418,17.7165354375,17.7165354375)" /><g style="fill: rgb(0,0,255); fill-opacity: 1.0; stroke: none" transform="matrix(0.0708661418,0,0,0.0708661418,17.7165354375,17.7165354375)" ><path d="M 837.4515991211 734.1449584961 C 792.2687988281 741.3012084961 759 780.2539672852 759 826 C 759 871.7460327148 792.2687988281 910.6987915039 837.4515991211 917.8550415039"/></g><g style="fill: rgb(0,0,255); fill-opacity: 1.0; stroke: none" transform="matrix(0.0708661418,0,0,0.0708661418,17.7165354375,17.7165354375)" ><path d="M 866.5484008789 917.8550415039 C 911.7312011719 910.6987915039 945 871.7460327148 945 826 C 945 780.2539672852 911.7312011719 741.3012084961 866.5484008789 734.1449584961"/></g><rect x="536" y="193" width="37" height="37" style="fill: rgb(0,0,255); fill-opacity: 1.0" transform="matrix(0.0708661418,0,0,0.0708661418,17.7165354375,17.7165354375)" /><rect x="536" y="193" width="37" height="37" style="fill: rgb(0,0,255); fill-opacity: 1.0" transform="matrix(0.0708661418,0,0,0.0708661418,17.7165354375,17.7165354375)" /><rect x="536" y="193" width="37" height="37" style="fill: rgb(0,0,255); fill-opacity: 1.0" transform="matrix(0.0708661418,0,0,0.0708661418,17.7165354375,17.7165354375)" /><rect x="536" y="193" width="37" height="37" style="fill: rgb(0,0,255); fill-opacity: 1.0" transform="matrix(0.0708661418,0,0,0.0708661418,17.7165354375,17.7165354375)" /><rect x="536" y="193" width="37" height="37" style="fill: rgb(0,0,255); fill-opacity: 1.0" transform="matrix(0.0708661418,0,0,0.0708661418,17.7165354375,17.7165354375)" /><rect x="536" y="193" width="37" height="37" style="fill: rgb(0,0,255); fill-opacity: 1.0" transform="matrix(0.0708661418,0,0,0.0708661418,17.7165354375,17.7165354375)" /><rect x="536" y="193" width="37" height="37" style="fill: rgb(0,0,255); fill-opacity: 1.0" transform="matrix(0.0708661418,0,0,0.0708661418,17.7165354375,17.7165354375)" /><rect x="536" y="193" width="37" height="37" style="fill: rgb(0,0,255); fill-opacity: 1.0" transform="matrix(0.0708661418,0,0,0.0708661418,17.7165354375,17.7165354375)" /><rect x="536" y="193" width="37" height="37" style="fill: rgb(0,0,255); fill-opacity: 1.0" transform="matrix(0.0708661418,0,0,0.0708661418,17.7165354375,17.7165354375)" /><rect x="536" y="193" width="37" height="37" style="fill: rgb(0,0,255); fill-opacity: 1.0" transform="matrix(0.0708661418,0,0,0.0708661418,17.7165354375,17.7165354375)" /><rect x="536" y="193" width="154" height="37" style="fill: rgb(0,0,255); fill-opacity: 1.0" transform="matrix(0.0708661418,0,0,0.0708661418,17.7165354375,17.7165354375)" /><rect x="653" y="193" width="37" height="37" style="fill: rgb(0,0,255); fill-opacity: 1.0" transform="matrix(0.0708661418,0,0,0.0708661418,17.7165354375,17.7165354375)" /><rect x="653" y="193" width="37" height="37" style="fill: rgb(0,0,255); fill-opacity: 1.0" transform="matrix(0.0708661418,0,0,0.0708661418,17.7165354375,17.7165354375)" /><rect x="653" y="193" width="37" height="37" style="fill: rgb(0,0,255); fill-opacity: 1.0" transform="matrix(0.0708661418,0,0,0.0708661418,17.7165354375,17.7165354375)" /><rect x="653" y="193" width="37" height="37" style="fill: rgb(0,0,255); fill-opacity: 1.0" transform="matrix(0.0708661418,0,0,0.0708661418,17.7165354375,17.7165354375)" /><rect x="653" y="193" width="37" height="37" style="fill: rgb(0,0,255); fill-opacity: 1.0" transform="matrix(0.0708661418,0,0,0.0708661418,17.7165354375,17.7165354375)" /><rect x="653" y="193" width="37" height="37" style="fill: rgb(0,0,255); fill-opacity: 1.0" transform="matrix(0.0708661418,0,0,0.0708661418,17.7165354375,17.7165354375)" /><rect x="653" y="193" width="37" height="37" style="fill: rgb(0,0,255); fill-opacity: 1.0" transform="matrix(0.0708661418,0,0,0.0708661418,17.7165354375,17.7165354375)" /><rect x="653" y="193" width="37" height="37" style="fill: rgb(0,0,255); fill-opacity: 1.0" transform="matrix(0.0708661418,0,0,0.0708661418,17.7165354375,17.7165354375)" /><rect x="653" y="193" width="37" height="37" style="fill: rgb(0,0,255); fill-opacity: 1.0" transform="matrix(0.0708661418,0,0,0.0708661418,17.7165354375,17.7165354375)" /><rect x="653" y="193" width="37" height="37" style="fill: rgb(0,0,255); fill-opacity: 1.0" transform="matrix(0.0708661418,0,0,0.0708661418,17.7165354375,17.7165354375)" /><rect x="294" y="568" width="37" height="37" style="fill: rgb(0,0,255); fill-opacity: 1.0" transform="matrix(0.0708661418,0,0,0.0708661418,17.7165354375,17.7165354375)" /><rect x="294" y="568" width="37" height="37" style="fill: rgb(0,0,255); fill-opacity: 1.0" transform="matrix(0.0708661418,0,0,0.0708661418,17.7165354375,17.7165354375)" /><rect x="294" y="568" width="37" height="37" style="fill: rgb(0,0,255); fill-opacity: 1.0" transform="matrix(0.0708661418,0,0,0.0708661418,17.7165354375,17.7165354375)" /><rect x="294" y="568" width="37" height="37" style="fill: rgb(0,0,255); fill-opacity: 1.0" transform="matrix(0.0708661418,0,0,0.0708661418,17.7165354375,17.7165354375)" /><rect x="294" y="568" width="37" height="37" style="fill: rgb(0,0,255); fill-opacity: 1.0" transform="matrix(0.0708661418,0,0,0.0708661418,17.7165354375,17.7165354375)" /><rect x="294" y="568" width="37" height="37" style="fill: rgb(0,0,255); fill-opacity: 1.0" transform="matrix(0.0708661418,0,0,0.0708661418,17.7165354375,17.7165354375)" /><rect x="294" y="568" width="37" height="37" style="fill: rgb(0,0,255); fill-opacity: 1.0" transform="matrix(0.0708661418,0,0,0.0708661418,17.7165354375,17.7165354375)" /><rect x="294" y="568" width="37" height="37" style="fill: rgb(0,0,255); fill-opacity: 1.0" transform="matrix(0.0708661418,0,0,0.0708661418,17.7165354375,17.7165354375)" /><rect x="294" y="568" width="37" height="37" style="fill: rgb(0,0,255); fill-opacity: 1.0" transform="matrix(0.0708661418,0,0,0.0708661418,17.7165354375,17.7165354375)" /><rect x="294" y="568" width="37" height="37" style="fill: rgb(0,0,255); fill-opacity: 1.0" transform="matrix(0.0708661418,0,0,0.0708661418,17.7165354375,17.7165354375)" /><rect x="294" y="568" width="396" height="37" style="fill: rgb(0,0,255); fill-opacity: 1.0" transform="matrix(0.0708661418,0,0,0.0708661418,17.7165354375,17.7165354375)" /><rect x="653" y="568" width="37" height="37" style="fill: rgb(0,0,255); fill-opacity: 1.0" transform="matrix(0.0708661418,0,0,0.0708661418,17.7165354375,17.7165354375)" /><rect x="653" y="568" width="37" height="37" style="fill: rgb(0,0,255); fill-opacity: 1.0" transform="matrix(0.0708661418,0,0,0.0708661418,17.7165354375,17.7165354375)" /><rect x="653" y="568" width="37" height="37" style="fill: rgb(0,0,255); fill-opacity: 1.0" transform="matrix(0.0708661418,0,0,0.0708661418,17.7165354375,17.7165354375)" /><rect x="653" y="568" width="37" height="37" style="fill: rgb(0,0,255); fill-opacity: 1.0" transform="matrix(0.0708661418,0,0,0.0708661418,17.7165354375,17.7165354375)" /><rect x="653" y="568" width="37" height="37" style="fill: rgb(0,0,255); fill-opacity: 1.0" transform="matrix(0.0708661418,0,0,0.0708661418,17.7165354375,17.7165354375)" /><rect x="653" y="568" width="37" height="37" style="fill: rgb(0,0,255); fill-opacity: 1.0" transform="matrix(0.0708661418,0,0,0.0708661418,17.7165354375,17.7165354375)" /><rect x="653" y="568" width="37" height="37" style="fill: rgb(0,0,255); fill-opacity: 1.0" transform="matrix(0.0708661418,0,0,0.0708661418,17.7165354375,17.7165354375)" /><rect x="653" y="568" width="37" height="37" style="fill: rgb(0,0,255); fill-opacity: 1.0" transform="matrix(0.0708661418,0,0,0.0708661418,17.7165354375,17.7165354375)" /><rect x="653" y="568" width="37" height="37" style="fill: rgb(0,0,255); fill-opacity: 1.0" transform="matrix(0.0708661418,0,0,0.0708661418,17.7165354375,17.7165354375)" /><rect x="653" y="568" width="37" height="37" style="fill: rgb(0,0,255); fill-opacity: 1.0" transform="matrix(0.0708661418,0,0,0.0708661418,17.7165354375,17.7165354375)" /><rect x="1315" y="567" width="37" height="37" style="fill: rgb(0,0,255); fill-opacity: 1.0" transform="matrix(0.0708661418,0,0,0.0708661418,17.7165354375,17.7165354375)" /><rect x="1315" y="567" width="37" height="37" style="fill: rgb(0,0,255); fill-opacity: 1.0" transform="matrix(0.0708661418,0,0,0.0708661418,17.7165354375,17.7165354375)" /><rect x="1315" y="567" width="37" height="37" style="fill: rgb(0,0,255); fill-opacity: 1.0" transform="matrix(0.0708661418,0,0,0.0708661418,17.7165354375,17.7165354375)" /><rect x="1315" y="567" width="37" height="37" style="fill: rgb(0,0,255); fill-opacity: 1.0" transform="matrix(0.0708661418,0,0,0.0708661418,17.7165354375,17.7165354375)" /><rect x="1315" y="567" width="37" height="37" style="fill: rgb(0,0,255); fill-opacity: 1.0" transform="matrix(0.0708661418,0,0,0.0708661418,17.7165354375,17.7165354375)" /><rect x="1315" y="567" width="37" height="37" style="fill: rgb(0,0,255); fill-opacity: 1.0" transform="matrix(0.0708661418,0,0,0.0708661418,17.7165354375,17.7165354375)" /><rect x="1315" y="567" width="37" height="37" style="fill: rgb(0,0,255); fill-opacity: 1.0" transform="matrix(0.0708661418,0,0,0.0708661418,17.7165354375,17.7165354375)" /><rect x="1315" y="567" width="37" height="37" style="fill: rgb(0,0,255); fill-opacity: 1.0" transform="matrix(0.0708661418,0,0,0.0708661418,17.7165354375,17.7165354375)" /><rect x="1315" y="567" width="37" height="37" style="fill: rgb(0,0,255); fill-opacity: 1.0" transform="matrix(0.0708661418,0,0,0.0708661418,17.7165354375,17.7165354375)" /><rect x="1315" y="567" width="37" height="37" style="fill: rgb(0,0,255); fill-opacity: 1.0" transform="matrix(0.0708661418,0,0,0.0708661418,17.7165354375,17.7165354375)" /><rect x="1315" y="567" width="476" height="37" style="fill: rgb(0,0,255); fill-opacity: 1.0" transform="matrix(0.0708661418,0,0,0.0708661418,17.7165354375,17.7165354375)" /><rect x="1754" y="567" width="37" height="37" style="fill: rgb(0,0,255); fill-opacity: 1.0" transform="matrix(0.0708661418,0,0,0.0708661418,17.7165354375,17.7165354375)" /><rect x="1754" y="567" width="37" height="37" style="fill: rgb(0,0,255); fill-opacity: 1.0" transform="matrix(0.0708661418,0,0,0.0708661418,17.7165354375,17.7165354375)" /><rect x="1754" y="567" width="37" height="37" style="fill: rgb(0,0,255); fill-opacity: 1.0" transform="matrix(0.0708661418,0,0,0.0708661418,17.7165354375,17.7165354375)" /><rect x="1754" y="567" width="37" height="37" style="fill: rgb(0,0,255); fill-opacity: 1.0" transform="matrix(0.0708661418,0,0,0.0708661418,17.7165354375,17.7165354375)" /><rect x="1754" y="567" width="37" height="37" style="fill: rgb(0,0,255); fill-opacity: 1.0" transform="matrix(0.0708661418,0,0,0.0708661418,17.7165354375,17.7165354375)" /><rect x="1754" y="567" width="37" height="37" style="fill: rgb(0,0,255); fill-opacity: 1.0" transform="matrix(0.0708661418,0,0,0.0708661418,17.7165354375,17.7165354375)" /><rect x="1754" y="567" width="37" height="37" style="fill: rgb(0,0,255); fill-opacity: 1.0" transform="matrix(0.0708661418,0,0,0.0708661418,17.7165354375,17.7165354375)" /><rect x="1754" y="567" width="37" height="37" style="fill: rgb(0,0,255); fill-opacity: 1.0" transform="matrix(0.0708661418,0,0,0.0708661418,17.7165354375,17.7165354375)" /><rect x="1754" y="567" width="37" height="37" style="fill: rgb(0,0,255); fill-opacity: 1.0" transform="matrix(0.0708661418,0,0,0.0708661418,17.7165354375,17.7165354375)" /><rect x="1754" y="567" width="37" height="37" style="fill: rgb(0,0,255); fill-opacity: 1.0" transform="matrix(0.0708661418,0,0,0.0708661418,17.7165354375,17.7165354375)" /><rect x="927" y="380" width="37" height="37" style="fill: rgb(0,0,255); fill-opacity: 1.0" transform="matrix(0.0708661418,0,0,0.0708661418,17.7165354375,17.7165354375)" /><rect x="927" y="380" width="37" height="37" style="fill: rgb(0,0,255); fill-opacity: 1.0" transform="matrix(0.0708661418,0,0,0.0708661418,17.7165354375,17.7165354375)" /><rect x="927" y="380" width="37" height="37" style="fill: rgb(0,0,255); fill-opacity: 1.0" transform="matrix(0.0708661418,0,0,0.0708661418,17.7165354375,17.7165354375)" /><rect x="927" y="380" width="37" height="37" style="fill: rgb(0,0,255); fill-opacity: 1.0" transform="matrix(0.0708661418,0,0,0.0708661418,17.7165354375,17.7165354375)" /><rect x="927" y="380" width="37" height="37" style="fill: rgb(0,0,255); fill-opacity: 1.0" transform="matrix(0.0708661418,0,0,0.0708661418,17.7165354375,17.7165354375)" /><rect x="927" y="380" width="37" height="37" style="fill: rgb(0,0,255); fill-opacity: 1.0" transform="matrix(0.0708661418,0,0,0.0708661418,17.7165354375,17.7165354375)" /><rect x="927" y="380" width="37" height="37" style="fill: rgb(0,0,255); fill-opacity: 1.0" transform="matrix(0.0708661418,0,0,0.0708661418,17.7165354375,17.7165354375)" /><rect x="927" y="380" width="37" height="37" style="fill: rgb(0,0,255); fill-opacity: 1.0" transform="matrix(0.0708661418,0,0,0.0708661418,17.7165354375,17.7165354375)" /><rect x="927" y="380" width="37" height="37" style="fill: rgb(0,0,255); fill-opacity: 1.0" transform="matrix(0.0708661418,0,0,0.0708661418,17.7165354375,17.7165354375)" /><rect x="927" y="380" width="37" height="37" style="fill: rgb(0,0,255); fill-opacity: 1.0" transform="matrix(0.0708661418,0,0,0.0708661418,17.7165354375,17.7165354375)" /><rect x="927" y="380" width="151" height="37" style="fill: rgb(0,0,255); fill-opacity: 1.0" transform="matrix(0.0708661418,0,0,0.0708661418,17.7165354375,17.7165354375)" /><rect x="1041" y="380" width="37" height="37" style="fill: rgb(0,0,255); fill-opacity: 1.0" transform="matrix(0.0708661418,0,0,0.0708661418,17.7165354375,17.7165354375)" /><rect x="1041" y="380" width="37" height="37" style="fill: rgb(0,0,255); fill-opacity: 1.0" transform="matrix(0.0708661418,0,0,0.0708661418,17.7165354375,17.7165354375)" /><rect x="1041" y="380" width="37" height="37" style="fill: rgb(0,0,255); fill-opacity: 1.0" transform="matrix(0.0708661418,0,0,0.0708661418,17.7165354375,17.7165354375)" /><rect x="1041" y="380" width="37" height="37" style="fill: rgb(0,0,255); fill-opacity: 1.0" transform="matrix(0.0708661418,0,0,0.0708661418,17.7165354375,17.7165354375)" /><rect x="1041" y="380" width="37" height="37" style="fill: rgb(0,0,255); fill-opacity: 1.0" transform="matrix(0.0708661418,0,0,0.0708661418,17.7165354375,17.7165354375)" /><rect x="1041" y="380" width="37" height="37" style="fill: rgb(0,0,255); fill-opacity: 1.0" transform="matrix(0.0708661418,0,0,0.0708661418,17.7165354375,17.7165354375)" /><rect x="1041" y="380" width="37" height="37" style="fill: rgb(0,0,255); fill-opacity: 1.0" transform="matrix(0.0708661418,0,0,0.0708661418,17.7165354375,17.7165354375)" /><rect x="1041" y="380" width="37" height="37" style="fill: rgb(0,0,255); fill-opacity: 1.0" transform="matrix(0.0708661418,0,0,0.0708661418,17.7165354375,17.7165354375)" /><rect x="1041" y="380" width="37" height="37" style="fill: rgb(0,0,255); fill-opacity: 1.0" transform="matrix(0.0708661418,0,0,0.0708661418,17.7165354375,17.7165354375)" /><rect x="1041" y="380" width="37" height="37" style="fill: rgb(0,0,255); fill-opacity: 1.0" transform="matrix(0.0708661418,0,0,0.0708661418,17.7165354375,17.7165354375)" /><rect x="536" y="810" width="37" height="37" style="fill: rgb(0,0,255); fill-opacity: 1.0" transform="matrix(0.0708661418,0,0,0.0708661418,17.7165354375,17.7165354375)" /><rect x="536" y="810" width="37" height="37" style="fill: rgb(0,0,255); fill-opacity: 1.0" transform="matrix(0.0708661418,0,0,0.0708661418,17.7165354375,17.7165354375)" /><rect x="536" y="810" width="37" height="37" style="fill: rgb(0,0,255); fill-opacity: 1.0" transform="matrix(0.0708661418,0,0,0.0708661418,17.7165354375,17.7165354375)" /><rect x="536" y="810" width="37" height="37" style="fill: rgb(0,0,255); fill-opacity: 1.0" transform="matrix(0.0708661418,0,0,0.0708661418,17.7165354375,17.7165354375)" /><rect x="536" y="810" width="37" height="37" style="fill: rgb(0,0,255); fill-opacity: 1.0" transform="matrix(0.0708661418,0,0,0.0708661418,17.7165354375,17.7165354375)" /><rect x="536" y="810" width="37" height="37" style="fill: rgb(0,0,255); fill-opacity: 1.0" transform="matrix(0.0708661418,0,0,0.0708661418,17.7165354375,17.7165354375)" /><rect x="536" y="810" width="37" height="37" style="fill: rgb(0,0,255); fill-opacity: 1.0" transform="matrix(0.0708661418,0,0,0.0708661418,17.7165354375,17.7165354375)" /><rect x="536" y="810" width="37" height="37" style="fill: rgb(0,0,255); fill-opacity: 1.0" transform="matrix(0.0708661418,0,0,0.0708661418,17.7165354375,17.7165354375)" /><rect x="536" y="810" width="204" height="37" style="fill: rgb(0,0,255); fill-opacity: 1.0" transform="matrix(0.0708661418,0,0,0.0708661418,17.7165354375,17.7165354375)" /><rect x="703" y="810" width="37" height="37" style="fill: rgb(0,0,255); fill-opacity: 1.0" transform="matrix(0.0708661418,0,0,0.0708661418,17.7165354375,17.7165354375)" /><rect x="703" y="810" width="37" height="37" style="fill: rgb(0,0,255); fill-opacity: 1.0" transform="matrix(0.0708661418,0,0,0.0708661418,17.7165354375,17.7165354375)" /><rect x="703" y="810" width="37" height="37" style="fill: rgb(0,0,255); fill-opacity: 1.0" transform="matrix(0.0708661418,0,0,0.0708661418,17.7165354375,17.7165354375)" /><rect x="703" y="810" width="37" height="37" style="fill: rgb(0,0,255); fill-opacity: 1.0" transform="matrix(0.0708661418,0,0,0.0708661418,17.7165354375,17.7165354375)" /><rect x="703" y="810" width="37" height="37" style="fill: rgb(0,0,255); fill-opacity: 1.0" transform="matrix(0.0708661418,0,0,0.0708661418,17.7165354375,17.7165354375)" /><rect x="703" y="810" width="37" height="37" style="fill: rgb(0,0,255); fill-opacity: 1.0" transform="matrix(0.0708661418,0,0,0.0708661418,17.7165354375,17.7165354375)" /><rect x="703" y="810" width="37" height="37" style="fill: rgb(0,0,255); fill-opacity: 1.0" transform="matrix(0.0708661418,0,0,0.0708661418,17.7165354375,17.7165354375)" /><rect x="703" y="810" width="37" height="37" style="fill: rgb(0,0,255); fill-opacity: 1.0" transform="matrix(0.0708661418,0,0,0.0708661418,17.7165354375,17.7165354375)" /><rect x="703" y="810" width="37" height="37" style="fill: rgb(0,0,255); fill-opacity: 1.0" transform="matrix(0.0708661418,0,0,0.0708661418,17.7165354375,17.7165354375)" /><rect x="703" y="810" width="37" height="37" style="fill: rgb(0,0,255); fill-opacity: 1.0" transform="matrix(0.0708661418,0,0,0.0708661418,17.7165354375,17.7165354375)" /><rect x="703" y="810" width="37" height="37" style="fill: rgb(0,0,255); fill-opacity: 1.0" transform="matrix(0.0708661418,0,0,0.0708661418,17.7165354375,17.7165354375)" /><rect x="703" y="810" width="37" height="37" style="fill: rgb(0,0,255); fill-opacity: 1.0" transform="matrix(0.0708661418,0,0,0.0708661418,17.7165354375,17.7165354375)" /><rect x="703" y="810" width="37" height="37" style="fill: rgb(0,0,255); fill-opacity: 1.0" transform="matrix(0.0708661418,0,0,0.0708661418,17.7165354375,17.7165354375)" /><rect x="703" y="810" width="37" height="37" style="fill: rgb(0,0,255); fill-opacity: 1.0" transform="matrix(0.0708661418,0,0,0.0708661418,17.7165354375,17.7165354375)" /><rect x="703" y="810" width="37" height="37" style="fill: rgb(0,0,255); fill-opacity: 1.0" transform="matrix(0.0708661418,0,0,0.0708661418,17.7165354375,17.7165354375)" /><rect x="703" y="810" width="37" height="37" style="fill: rgb(0,0,255); fill-opacity: 1.0" transform="matrix(0.0708661418,0,0,0.0708661418,17.7165354375,17.7165354375)" /><rect x="703" y="808" width="37" height="39" style="fill: rgb(0,0,255); fill-opacity: 1.0" transform="matrix(0.0708661418,0,0,0.0708661418,17.7165354375,17.7165354375)" /><rect x="703" y="808" width="37" height="37" style="fill: rgb(0,0,255); fill-opacity: 1.0" transform="matrix(0.0708661418,0,0,0.0708661418,17.7165354375,17.7165354375)" /><rect x="703" y="808" width="37" height="37" style="fill: rgb(0,0,255); fill-opacity: 1.0" transform="matrix(0.0708661418,0,0,0.0708661418,17.7165354375,17.7165354375)" /><rect x="703" y="808" width="37" height="37" style="fill: rgb(0,0,255); fill-opacity: 1.0" transform="matrix(0.0708661418,0,0,0.0708661418,17.7165354375,17.7165354375)" /><rect x="703" y="808" width="37" height="37" style="fill: rgb(0,0,255); fill-opacity: 1.0" transform="matrix(0.0708661418,0,0,0.0708661418,17.7165354375,17.7165354375)" /><rect x="703" y="808" width="37" height="37" style="fill: rgb(0,0,255); fill-opacity: 1.0" transform="matrix(0.0708661418,0,0,0.0708661418,17.7165354375,17.7165354375)" /><rect x="703" y="808" width="37" height="37" style="fill: rgb(0,0,255); fill-opacity: 1.0" transform="matrix(0.0708661418,0,0,0.0708661418,17.7165354375,17.7165354375)" /><rect x="703" y="808" width="37" height="37" style="fill: rgb(0,0,255); fill-opacity: 1.0" transform="matrix(0.0708661418,0,0,0.0708661418,17.7165354375,17.7165354375)" /><rect x="703" y="808" width="37" height="37" style="fill: rgb(0,0,255); fill-opacity: 1.0" transform="matrix(0.0708661418,0,0,0.0708661418,17.7165354375,17.7165354375)" /><rect x="703" y="808" width="37" height="37" style="fill: rgb(0,0,255); fill-opacity: 1.0" transform="matrix(0.0708661418,0,0,0.0708661418,17.7165354375,17.7165354375)" /><rect x="703" y="808" width="37" height="37" style="fill: rgb(0,0,255); fill-opacity: 1.0" transform="matrix(0.0708661418,0,0,0.0708661418,17.7165354375,17.7165354375)" /><rect x="703" y="808" width="37" height="37" style="fill: rgb(0,0,255); fill-opacity: 1.0" transform="matrix(0.0708661418,0,0,0.0708661418,17.7165354375,17.7165354375)" /><rect x="703" y="808" width="37" height="37" style="fill: rgb(0,0,255); fill-opacity: 1.0" transform="matrix(0.0708661418,0,0,0.0708661418,17.7165354375,17.7165354375)" /><rect x="703" y="808" width="37" height="37" style="fill: rgb(0,0,255); fill-opacity: 1.0" transform="matrix(0.0708661418,0,0,0.0708661418,17.7165354375,17.7165354375)" /><rect x="703" y="808" width="37" height="37" style="fill: rgb(0,0,255); fill-opacity: 1.0" transform="matrix(0.0708661418,0,0,0.0708661418,17.7165354375,17.7165354375)" /><rect x="703" y="808" width="37" height="37" style="fill: rgb(0,0,255); fill-opacity: 1.0" transform="matrix(0.0708661418,0,0,0.0708661418,17.7165354375,17.7165354375)" /><rect x="703" y="808" width="37" height="37" style="fill: rgb(0,0,255); fill-opacity: 1.0" transform="matrix(0.0708661418,0,0,0.0708661418,17.7165354375,17.7165354375)" /><rect x="703" y="808" width="75" height="37" style="fill: rgb(0,0,255); fill-opacity: 1.0" transform="matrix(0.0708661418,0,0,0.0708661418,17.7165354375,17.7165354375)" /><rect x="741" y="808" width="37" height="37" style="fill: rgb(0,0,255); fill-opacity: 1.0" transform="matrix(0.0708661418,0,0,0.0708661418,17.7165354375,17.7165354375)" /><rect x="741" y="808" width="37" height="37" style="fill: rgb(0,0,255); fill-opacity: 1.0" transform="matrix(0.0708661418,0,0,0.0708661418,17.7165354375,17.7165354375)" /><rect x="741" y="808" width="37" height="37" style="fill: rgb(0,0,255); fill-opacity: 1.0" transform="matrix(0.0708661418,0,0,0.0708661418,17.7165354375,17.7165354375)" /><rect x="741" y="808" width="37" height="37" style="fill: rgb(0,0,255); fill-opacity: 1.0" transform="matrix(0.0708661418,0,0,0.0708661418,17.7165354375,17.7165354375)" /><rect x="741" y="808" width="37" height="37" style="fill: rgb(0,0,255); fill-opacity: 1.0" transform="matrix(0.0708661418,0,0,0.0708661418,17.7165354375,17.7165354375)" /><rect x="741" y="808" width="37" height="37" style="fill: rgb(0,0,255); fill-opacity: 1.0" transform="matrix(0.0708661418,0,0,0.0708661418,17.7165354375,17.7165354375)" /><rect x="741" y="808" width="37" height="37" style="fill: rgb(0,0,255); fill-opacity: 1.0" transform="matrix(0.0708661418,0,0,0.0708661418,17.7165354375,17.7165354375)" /><rect x="741" y="808" width="37" height="37" style="fill: rgb(0,0,255); fill-opacity: 1.0" transform="matrix(0.0708661418,0,0,0.0708661418,17.7165354375,17.7165354375)" /><rect x="927" y="808" width="37" height="37" style="fill: rgb(0,0,255); fill-opacity: 1.0" transform="matrix(0.0708661418,0,0,0.0708661418,17.7165354375,17.7165354375)" /><rect x="927" y="808" width="37" height="37" style="fill: rgb(0,0,255); fill-opacity: 1.0" transform="matrix(0.0708661418,0,0,0.0708661418,17.7165354375,17.7165354375)" /><rect x="927" y="808" width="37" height="37" style="fill: rgb(0,0,255); fill-opacity: 1.0" transform="matrix(0.0708661418,0,0,0.0708661418,17.7165354375,17.7165354375)" /><rect x="927" y="808" width="37" height="37" style="fill: rgb(0,0,255); fill-opacity: 1.0" transform="matrix(0.0708661418,0,0,0.0708661418,17.7165354375,17.7165354375)" /><rect x="927" y="808" width="37" height="37" style="fill: rgb(0,0,255); fill-opacity: 1.0" transform="matrix(0.0708661418,0,0,0.0708661418,17.7165354375,17.7165354375)" /><rect x="927" y="808" width="37" height="37" style="fill: rgb(0,0,255); fill-opacity: 1.0" transform="matrix(0.0708661418,0,0,0.0708661418,17.7165354375,17.7165354375)" /><rect x="927" y="808" width="37" height="37" style="fill: rgb(0,0,255); fill-opacity: 1.0" transform="matrix(0.0708661418,0,0,0.0708661418,17.7165354375,17.7165354375)" /><rect x="927" y="808" width="37" height="37" style="fill: rgb(0,0,255); fill-opacity: 1.0" transform="matrix(0.0708661418,0,0,0.0708661418,17.7165354375,17.7165354375)" /><rect x="927" y="808" width="113" height="37" style="fill: rgb(0,0,255); fill-opacity: 1.0" transform="matrix(0.0708661418,0,0,0.0708661418,17.7165354375,17.7165354375)" /><rect x="1003" y="808" width="37" height="37" style="fill: rgb(0,0,255); fill-opacity: 1.0" transform="matrix(0.0708661418,0,0,0.0708661418,17.7165354375,17.7165354375)" /><rect x="1003" y="808" width="37" height="37" style="fill: rgb(0,0,255); fill-opacity: 1.0" transform="matrix(0.0708661418,0,0,0.0708661418,17.7165354375,17.7165354375)" /><rect x="1003" y="808" width="37" height="37" style="fill: rgb(0,0,255); fill-opacity: 1.0" transform="matrix(0.0708661418,0,0,0.0708661418,17.7165354375,17.7165354375)" /><rect x="1003" y="808" width="37" height="37" style="fill: rgb(0,0,255); fill-opacity: 1.0" transform="matrix(0.0708661418,0,0,0.0708661418,17.7165354375,17.7165354375)" /><rect x="1003" y="808" width="37" height="37" style="fill: rgb(0,0,255); fill-opacity: 1.0" transform="matrix(0.0708661418,0,0,0.0708661418,17.7165354375,17.7165354375)" /><rect x="1003" y="808" width="37" height="37" style="fill: rgb(0,0,255); fill-opacity: 1.0" transform="matrix(0.0708661418,0,0,0.0708661418,17.7165354375,17.7165354375)" /><rect x="1003" y="808" width="37" height="37" style="fill: rgb(0,0,255); fill-opacity: 1.0" transform="matrix(0.0708661418,0,0,0.0708661418,17.7165354375,17.7165354375)" /><rect x="1003" y="808" width="37" height="37" style="fill: rgb(0,0,255); fill-opacity: 1.0" transform="matrix(0.0708661418,0,0,0.0708661418,17.7165354375,17.7165354375)" /><rect x="1003" y="808" width="37" height="37" style="fill: rgb(0,0,255); fill-opacity: 1.0" transform="matrix(0.0708661418,0,0,0.0708661418,17.7165354375,17.7165354375)" /><rect x="1003" y="808" width="37" height="37" style="fill: rgb(0,0,255); fill-opacity: 1.0" transform="matrix(0.0708661418,0,0,0.0708661418,17.7165354375,17.7165354375)" /><rect x="1003" y="808" width="37" height="37" style="fill: rgb(0,0,255); fill-opacity: 1.0" transform="matrix(0.0708661418,0,0,0.0708661418,17.7165354375,17.7165354375)" /><rect x="1003" y="808" width="37" height="37" style="fill: rgb(0,0,255); fill-opacity: 1.0" transform="matrix(0.0708661418,0,0,0.0708661418,17.7165354375,17.7165354375)" /><rect x="1003" y="808" width="37" height="37" style="fill: rgb(0,0,255); fill-opacity: 1.0" transform="matrix(0.0708661418,0,0,0.0708661418,17.7165354375,17.7165354375)" /><rect x="1003" y="808" width="37" height="37" style="fill: rgb(0,0,255); fill-opacity: 1.0" transform="matrix(0.0708661418,0,0,0.0708661418,17.7165354375,17.7165354375)" /><rect x="1003" y="808" width="37" height="37" style="fill: rgb(0,0,255); fill-opacity: 1.0" transform="matrix(0.0708661418,0,0,0.0708661418,17.7165354375,17.7165354375)" /><rect x="1003" y="808" width="37" height="37" style="fill: rgb(0,0,255); fill-opacity: 1.0" transform="matrix(0.0708661418,0,0,0.0708661418,17.7165354375,17.7165354375)" /><rect x="1003" y="755" width="37" height="90" style="fill: rgb(0,0,255); fill-opacity: 1.0" transform="matrix(0.0708661418,0,0,0.0708661418,17.7165354375,17.7165354375)" /><rect x="1003" y="755" width="37" height="37" style="fill: rgb(0,0,255); fill-opacity: 1.0" transform="matrix(0.0708661418,0,0,0.0708661418,17.7165354375,17.7165354375)" /><rect x="1003" y="755" width="37" height="37" style="fill: rgb(0,0,255); fill-opacity: 1.0" transform="matrix(0.0708661418,0,0,0.0708661418,17.7165354375,17.7165354375)" /><rect x="1003" y="755" width="37" height="37" style="fill: rgb(0,0,255); fill-opacity: 1.0" transform="matrix(0.0708661418,0,0,0.0708661418,17.7165354375,17.7165354375)" /><rect x="1003" y="755" width="37" height="37" style="fill: rgb(0,0,255); fill-opacity: 1.0" transform="matrix(0.0708661418,0,0,0.0708661418,17.7165354375,17.7165354375)" /><rect x="1003" y="755" width="37" height="37" style="fill: rgb(0,0,255); fill-opacity: 1.0" transform="matrix(0.0708661418,0,0,0.0708661418,17.7165354375,17.7165354375)" /><rect x="1003" y="755" width="37" height="37" style="fill: rgb(0,0,255); fill-opacity: 1.0" transform="matrix(0.0708661418,0,0,0.0708661418,17.7165354375,17.7165354375)" /><rect x="1003" y="755" width="37" height="37" style="fill: rgb(0,0,255); fill-opacity: 1.0" transform="matrix(0.0708661418,0,0,0.0708661418,17.7165354375,17.7165354375)" /><rect x="1003" y="755" width="37" height="37" style="fill: rgb(0,0,255); fill-opacity: 1.0" transform="matrix(0.0708661418,0,0,0.0708661418,17.7165354375,17.7165354375)" /><rect x="1003" y="755" width="37" height="37" style="fill: rgb(0,0,255); fill-opacity: 1.0" transform="matrix(0.0708661418,0,0,0.0708661418,17.7165354375,17.7165354375)" /><rect x="1003" y="755" width="37" height="37" style="fill: rgb(0,0,255); fill-opacity: 1.0" transform="matrix(0.0708661418,0,0,0.0708661418,17.7165354375,17.7165354375)" /><rect x="1003" y="755" width="37" height="37" style="fill: rgb(0,0,255); fill-opacity: 1.0" transform="matrix(0.0708661418,0,0,0.0708661418,17.7165354375,17.7165354375)" /><rect x="1003" y="755" width="37" height="37" style="fill: rgb(0,0,255); fill-opacity: 1.0" transform="matrix(0.0708661418,0,0,0.0708661418,17.7165354375,17.7165354375)" /><rect x="1003" y="755" width="37" height="37" style="fill: rgb(0,0,255); fill-opacity: 1.0" transform="matrix(0.0708661418,0,0,0.0708661418,17.7165354375,17.7165354375)" /><rect x="1003" y="755" width="37" height="37" style="fill: rgb(0,0,255); fill-opacity: 1.0" transform="matrix(0.0708661418,0,0,0.0708661418,17.7165354375,17.7165354375)" /><rect x="1003" y="755" width="37" height="37" style="fill: rgb(0,0,255); fill-opacity: 1.0" transform="matrix(0.0708661418,0,0,0.0708661418,17.7165354375,17.7165354375)" /><rect x="1003" y="755" width="37" height="37" style="fill: rgb(0,0,255); fill-opacity: 1.0" transform="matrix(0.0708661418,0,0,0.0708661418,17.7165354375,17.7165354375)" /><rect x="1003" y="755" width="75" height="37" style="fill: rgb(0,0,255); fill-opacity: 1.0" transform="matrix(0.0708661418,0,0,0.0708661418,17.7165354375,17.7165354375)" /><rect x="1041" y="755" width="37" height="37" style="fill: rgb(0,0,255); fill-opacity: 1.0" transform="matrix(0.0708661418,0,0,0.0708661418,17.7165354375,17.7165354375)" /><rect x="1041" y="755" width="37" height="37" style="fill: rgb(0,0,255); fill-opacity: 1.0" transform="matrix(0.0708661418,0,0,0.0708661418,17.7165354375,17.7165354375)" /><rect x="1041" y="755" width="37" height="37" style="fill: rgb(0,0,255); fill-opacity: 1.0" transform="matrix(0.0708661418,0,0,0.0708661418,17.7165354375,17.7165354375)" /><rect x="1041" y="755" width="37" height="37" style="fill: rgb(0,0,255); fill-opacity: 1.0" transform="matrix(0.0708661418,0,0,0.0708661418,17.7165354375,17.7165354375)" /><rect x="1041" y="755" width="37" height="37" style="fill: rgb(0,0,255); fill-opacity: 1.0" transform="matrix(0.0708661418,0,0,0.0708661418,17.7165354375,17.7165354375)" /><rect x="1041" y="755" width="37" height="37" style="fill: rgb(0,0,255); fill-opacity: 1.0" transform="matrix(0.0708661418,0,0,0.0708661418,17.7165354375,17.7165354375)" /><rect x="1041" y="755" width="37" height="37" style="fill: rgb(0,0,255); fill-opacity: 1.0" transform="matrix(0.0708661418,0,0,0.0708661418,17.7165354375,17.7165354375)" /><rect x="1041" y="755" width="37" height="37" style="fill: rgb(0,0,255); fill-opacity: 1.0" transform="matrix(0.0708661418,0,0,0.0708661418,17.7165354375,17.7165354375)" /></svg>
