<?xml version="1.0"?>
<!DOCTYPE svg PUBLIC "-//W3C//DTD SVG 1.0//EN" "http://www.w3.org/TR/2001/REC-SVG-20010904/DTD/svg10.dtd">
<svg xmlns="http://www.w3.org/2000/svg" xmlns:xlink="http://www.w3.org/1999/xlink" xmlns:jfreesvg="http://www.jfree.org/jfreesvg/svg" width="314" height="192" text-rendering="auto" shape-rendering="auto">
<defs></defs>
<line x1="0" y1="0" x2="88419" y2="0" style="stroke-width: 100.0;stroke: rgb(0,0,0);stroke-opacity: 1.0;stroke-linecap: round;stroke-linejoin: round;" transform="matrix(0.0035433071,0,0,0.0035433071,-1.1125984255,0)" /><line x1="88420" y1="0" x2="88420" y2="54079" style="stroke-width: 100.0;stroke: rgb(0,0,0);stroke-opacity: 1.0;stroke-linecap: round;stroke-linejoin: round;" transform="matrix(0.0035433071,0,0,0.0035433071,-1.1125984255,0)" /><line x1="88420" y1="54080" x2="1" y2="54080" style="stroke-width: 100.0;stroke: rgb(0,0,0);stroke-opacity: 1.0;stroke-linecap: round;stroke-linejoin: round;" transform="matrix(0.0035433071,0,0,0.0035433071,-1.1125984255,0)" /><line x1="0" y1="54080" x2="0" y2="1" style="stroke-width: 100.0;stroke: rgb(0,0,0);stroke-opacity: 1.0;stroke-linecap: round;stroke-linejoin: round;" transform="matrix(0.0035433071,0,0,0.0035433071,-1.1125984255,0)" /><rect x="2469" y="1121" width="50" height="150" style="fill: rgb(0,255,255); fill-opacity: 1.0" transform="matrix(0.0708661418,0,0,0.0708661418,16.603937012,17.7165354375)" /><rect x="2569" y="1121" width="50" height="150" style="fill: rgb(0,255,255); fill-opacity: 1.0" transform="matrix(0.0708661418,0,0,0.0708661418,16.603937012,17.7165354375)" /><rect x="2669" y="1121" width="50" height="150" style="fill: rgb(0,255,255); fill-opacity: 1.0" transform="matrix(0.0708661418,0,0,0.0708661418,16.603937012,17.7165354375)" /></svg>
