<?xml version="1.0"?>
<!DOCTYPE svg PUBLIC "-//W3C//DTD SVG 1.0//EN" "http://www.w3.org/TR/2001/REC-SVG-20010904/DTD/svg10.dtd">
<svg xmlns="http://www.w3.org/2000/svg" xmlns:xlink="http://www.w3.org/1999/xlink" xmlns:jfreesvg="http://www.jfree.org/jfreesvg/svg" width="314" height="192" text-rendering="auto" shape-rendering="auto">
<defs></defs>
<line x1="0" y1="0" x2="88419" y2="0" style="stroke-width: 100.0;stroke: rgb(0,0,0);stroke-opacity: 1.0;stroke-linecap: round;stroke-linejoin: round;" transform="matrix(-0.0035433071,0,0,0.0035433071,314,0)" /><line x1="88420" y1="0" x2="88420" y2="54079" style="stroke-width: 100.0;stroke: rgb(0,0,0);stroke-opacity: 1.0;stroke-linecap: round;stroke-linejoin: round;" transform="matrix(-0.0035433071,0,0,0.0035433071,314,0)" /><line x1="88420" y1="54080" x2="1" y2="54080" style="stroke-width: 100.0;stroke: rgb(0,0,0);stroke-opacity: 1.0;stroke-linecap: round;stroke-linejoin: round;" transform="matrix(-0.0035433071,0,0,0.0035433071,314,0)" /><line x1="0" y1="54080" x2="0" y2="1" style="stroke-width: 100.0;stroke: rgb(0,0,0);stroke-opacity: 1.0;stroke-linecap: round;stroke-linejoin: round;" transform="matrix(-0.0035433071,0,0,0.0035433071,314,0)" /><ellipse cx="1013" cy="902" rx="100" ry="100" style="fill: rgb(255,0,0); fill-opacity: 1.0" transform="matrix(-0.0708661418,0,0,0.0708661418,296.2834645625,17.7165354375)" /><ellipse cx="646" cy="1241" rx="100" ry="100" style="fill: rgb(255,0,0); fill-opacity: 1.0" transform="matrix(-0.0708661418,0,0,0.0708661418,296.2834645625,17.7165354375)" /><ellipse cx="1013" cy="221" rx="101" ry="101" style="fill: rgb(255,0,0); fill-opacity: 1.0" transform="matrix(-0.0708661418,0,0,0.0708661418,296.2834645625,17.7165354375)" /><ellipse cx="646" cy="1583" rx="101" ry="101" style="fill: rgb(255,0,0); fill-opacity: 1.0" transform="matrix(-0.0708661418,0,0,0.0708661418,296.2834645625,17.7165354375)" /><rect x="988" y="297" width="50" height="50" style="fill: rgb(255,0,0); fill-opacity: 1.0" transform="matrix(-0.0708661418,0,0,0.0708661418,296.2834645625,17.7165354375)" /><rect x="988" y="297" width="50" height="50" style="fill: rgb(255,0,0); fill-opacity: 1.0" transform="matrix(-0.0708661418,0,0,0.0708661418,296.2834645625,17.7165354375)" /><rect x="988" y="297" width="50" height="50" style="fill: rgb(255,0,0); fill-opacity: 1.0" transform="matrix(-0.0708661418,0,0,0.0708661418,296.2834645625,17.7165354375)" /><rect x="988" y="297" width="50" height="50" style="fill: rgb(255,0,0); fill-opacity: 1.0" transform="matrix(-0.0708661418,0,0,0.0708661418,296.2834645625,17.7165354375)" /><rect x="988" y="297" width="50" height="50" style="fill: rgb(255,0,0); fill-opacity: 1.0" transform="matrix(-0.0708661418,0,0,0.0708661418,296.2834645625,17.7165354375)" /><rect x="988" y="297" width="50" height="50" style="fill: rgb(255,0,0); fill-opacity: 1.0" transform="matrix(-0.0708661418,0,0,0.0708661418,296.2834645625,17.7165354375)" /><rect x="988" y="297" width="50" height="530" style="fill: rgb(255,0,0); fill-opacity: 1.0" transform="matrix(-0.0708661418,0,0,0.0708661418,296.2834645625,17.7165354375)" /><rect x="988" y="777" width="50" height="50" style="fill: rgb(255,0,0); fill-opacity: 1.0" transform="matrix(-0.0708661418,0,0,0.0708661418,296.2834645625,17.7165354375)" /><rect x="988" y="777" width="50" height="50" style="fill: rgb(255,0,0); fill-opacity: 1.0" transform="matrix(-0.0708661418,0,0,0.0708661418,296.2834645625,17.7165354375)" /><rect x="988" y="777" width="50" height="50" style="fill: rgb(255,0,0); fill-opacity: 1.0" transform="matrix(-0.0708661418,0,0,0.0708661418,296.2834645625,17.7165354375)" /><rect x="988" y="777" width="50" height="50" style="fill: rgb(255,0,0); fill-opacity: 1.0" transform="matrix(-0.0708661418,0,0,0.0708661418,296.2834645625,17.7165354375)" /><rect x="988" y="777" width="50" height="50" style="fill: rgb(255,0,0); fill-opacity: 1.0" transform="matrix(-0.0708661418,0,0,0.0708661418,296.2834645625,17.7165354375)" /><rect x="988" y="777" width="50" height="50" style="fill: rgb(255,0,0); fill-opacity: 1.0" transform="matrix(-0.0708661418,0,0,0.0708661418,296.2834645625,17.7165354375)" /><rect x="621" y="1457" width="50" height="50" style="fill: rgb(255,0,0); fill-opacity: 1.0" transform="matrix(-0.0708661418,0,0,0.0708661418,296.2834645625,17.7165354375)" /><rect x="621" y="1457" width="50" height="50" style="fill: rgb(255,0,0); fill-opacity: 1.0" transform="matrix(-0.0708661418,0,0,0.0708661418,296.2834645625,17.7165354375)" /><rect x="621" y="1457" width="50" height="50" style="fill: rgb(255,0,0); fill-opacity: 1.0" transform="matrix(-0.0708661418,0,0,0.0708661418,296.2834645625,17.7165354375)" /><rect x="621" y="1457" width="50" height="50" style="fill: rgb(255,0,0); fill-opacity: 1.0" transform="matrix(-0.0708661418,0,0,0.0708661418,296.2834645625,17.7165354375)" /><rect x="621" y="1457" width="50" height="50" style="fill: rgb(255,0,0); fill-opacity: 1.0" transform="matrix(-0.0708661418,0,0,0.0708661418,296.2834645625,17.7165354375)" /><rect x="621" y="1457" width="50" height="50" style="fill: rgb(255,0,0); fill-opacity: 1.0" transform="matrix(-0.0708661418,0,0,0.0708661418,296.2834645625,17.7165354375)" /><rect x="621" y="1316" width="50" height="191" style="fill: rgb(255,0,0); fill-opacity: 1.0" transform="matrix(-0.0708661418,0,0,0.0708661418,296.2834645625,17.7165354375)" /><rect x="621" y="1316" width="50" height="50" style="fill: rgb(255,0,0); fill-opacity: 1.0" transform="matrix(-0.0708661418,0,0,0.0708661418,296.2834645625,17.7165354375)" /><rect x="621" y="1316" width="50" height="50" style="fill: rgb(255,0,0); fill-opacity: 1.0" transform="matrix(-0.0708661418,0,0,0.0708661418,296.2834645625,17.7165354375)" /><rect x="621" y="1316" width="50" height="50" style="fill: rgb(255,0,0); fill-opacity: 1.0" transform="matrix(-0.0708661418,0,0,0.0708661418,296.2834645625,17.7165354375)" /><rect x="621" y="1316" width="50" height="50" style="fill: rgb(255,0,0); fill-opacity: 1.0" transform="matrix(-0.0708661418,0,0,0.0708661418,296.2834645625,17.7165354375)" /><rect x="621" y="1316" width="50" height="50" style="fill: rgb(255,0,0); fill-opacity: 1.0" transform="matrix(-0.0708661418,0,0,0.0708661418,296.2834645625,17.7165354375)" /><rect x="621" y="1316" width="50" height="50" style="fill: rgb(255,0,0); fill-opacity: 1.0" transform="matrix(-0.0708661418,0,0,0.0708661418,296.2834645625,17.7165354375)" /></svg>
