<?xml version="1.0"?>
<!DOCTYPE svg PUBLIC "-//W3C//DTD SVG 1.0//EN" "http://www.w3.org/TR/2001/REC-SVG-20010904/DTD/svg10.dtd">
<svg xmlns="http://www.w3.org/2000/svg" xmlns:xlink="http://www.w3.org/1999/xlink" xmlns:jfreesvg="http://www.jfree.org/jfreesvg/svg" width="300" height="134" text-rendering="auto" shape-rendering="auto">
<defs></defs>
<line x1="0" y1="0" x2="84469" y2="0" style="stroke-width: 150.0;stroke: rgb(0,0,0);stroke-opacity: 1.0;stroke-linecap: round;stroke-linejoin: round;" transform="matrix(0.0035433071,0,0,0.0035433071,0,0)" /><line x1="84470" y1="0" x2="84470" y2="37579" style="stroke-width: 150.0;stroke: rgb(0,0,0);stroke-opacity: 1.0;stroke-linecap: round;stroke-linejoin: round;" transform="matrix(0.0035433071,0,0,0.0035433071,0,0)" /><line x1="84470" y1="37580" x2="1" y2="37580" style="stroke-width: 150.0;stroke: rgb(0,0,0);stroke-opacity: 1.0;stroke-linecap: round;stroke-linejoin: round;" transform="matrix(0.0035433071,0,0,0.0035433071,0,0)" /><line x1="0" y1="37580" x2="0" y2="1" style="stroke-width: 150.0;stroke: rgb(0,0,0);stroke-opacity: 1.0;stroke-linecap: round;stroke-linejoin: round;" transform="matrix(0.0035433071,0,0,0.0035433071,0,0)" /><ellipse cx="343" cy="343" rx="67" ry="67" style="fill: rgb(0,0,255); fill-opacity: 1.0" transform="matrix(0.1062992126,0,0,0.1062992126,17.6456692958,17.6456692958)" /><ellipse cx="1906" cy="343" rx="67" ry="67" style="fill: rgb(0,0,255); fill-opacity: 1.0" transform="matrix(0.1062992126,0,0,0.1062992126,17.6456692958,17.6456692958)" /><rect x="842" y="326" width="33" height="83" style="fill: rgb(0,0,255); fill-opacity: 1.0" transform="matrix(0.1062992126,0,0,0.1062992126,17.6456692958,17.6456692958)" /><rect x="842" y="393" width="166" height="33" style="fill: rgb(0,0,255); fill-opacity: 1.0" transform="matrix(0.1062992126,0,0,0.1062992126,17.6456692958,17.6456692958)" /><rect x="975" y="260" width="33" height="166" style="fill: rgb(0,0,255); fill-opacity: 1.0" transform="matrix(0.1062992126,0,0,0.1062992126,17.6456692958,17.6456692958)" /><rect x="975" y="260" width="166" height="33" style="fill: rgb(0,0,255); fill-opacity: 1.0" transform="matrix(0.1062992126,0,0,0.1062992126,17.6456692958,17.6456692958)" /><rect x="1108" y="260" width="33" height="166" style="fill: rgb(0,0,255); fill-opacity: 1.0" transform="matrix(0.1062992126,0,0,0.1062992126,17.6456692958,17.6456692958)" /><rect x="1108" y="393" width="166" height="33" style="fill: rgb(0,0,255); fill-opacity: 1.0" transform="matrix(0.1062992126,0,0,0.1062992126,17.6456692958,17.6456692958)" /><rect x="1241" y="260" width="33" height="166" style="fill: rgb(0,0,255); fill-opacity: 1.0" transform="matrix(0.1062992126,0,0,0.1062992126,17.6456692958,17.6456692958)" /><rect x="1241" y="260" width="166" height="33" style="fill: rgb(0,0,255); fill-opacity: 1.0" transform="matrix(0.1062992126,0,0,0.1062992126,17.6456692958,17.6456692958)" /><rect x="1374" y="260" width="33" height="99" style="fill: rgb(0,0,255); fill-opacity: 1.0" transform="matrix(0.1062992126,0,0,0.1062992126,17.6456692958,17.6456692958)" /><rect x="394" y="327" width="33" height="33" style="fill: rgb(0,0,255); fill-opacity: 1.0" transform="matrix(0.1062992126,0,0,0.1062992126,17.6456692958,17.6456692958)" /><rect x="394" y="327" width="33" height="33" style="fill: rgb(0,0,255); fill-opacity: 1.0" transform="matrix(0.1062992126,0,0,0.1062992126,17.6456692958,17.6456692958)" /><rect x="394" y="327" width="33" height="33" style="fill: rgb(0,0,255); fill-opacity: 1.0" transform="matrix(0.1062992126,0,0,0.1062992126,17.6456692958,17.6456692958)" /><rect x="394" y="327" width="33" height="33" style="fill: rgb(0,0,255); fill-opacity: 1.0" transform="matrix(0.1062992126,0,0,0.1062992126,17.6456692958,17.6456692958)" /><rect x="394" y="327" width="33" height="33" style="fill: rgb(0,0,255); fill-opacity: 1.0" transform="matrix(0.1062992126,0,0,0.1062992126,17.6456692958,17.6456692958)" /><rect x="394" y="327" width="33" height="33" style="fill: rgb(0,0,255); fill-opacity: 1.0" transform="matrix(0.1062992126,0,0,0.1062992126,17.6456692958,17.6456692958)" /><rect x="394" y="327" width="33" height="33" style="fill: rgb(0,0,255); fill-opacity: 1.0" transform="matrix(0.1062992126,0,0,0.1062992126,17.6456692958,17.6456692958)" /><rect x="394" y="327" width="33" height="33" style="fill: rgb(0,0,255); fill-opacity: 1.0" transform="matrix(0.1062992126,0,0,0.1062992126,17.6456692958,17.6456692958)" /><rect x="394" y="327" width="33" height="33" style="fill: rgb(0,0,255); fill-opacity: 1.0" transform="matrix(0.1062992126,0,0,0.1062992126,17.6456692958,17.6456692958)" /><rect x="394" y="327" width="33" height="33" style="fill: rgb(0,0,255); fill-opacity: 1.0" transform="matrix(0.1062992126,0,0,0.1062992126,17.6456692958,17.6456692958)" /><rect x="394" y="327" width="33" height="33" style="fill: rgb(0,0,255); fill-opacity: 1.0" transform="matrix(0.1062992126,0,0,0.1062992126,17.6456692958,17.6456692958)" /><rect x="394" y="327" width="33" height="33" style="fill: rgb(0,0,255); fill-opacity: 1.0" transform="matrix(0.1062992126,0,0,0.1062992126,17.6456692958,17.6456692958)" /><rect x="394" y="327" width="465" height="33" style="fill: rgb(0,0,255); fill-opacity: 1.0" transform="matrix(0.1062992126,0,0,0.1062992126,17.6456692958,17.6456692958)" /><rect x="826" y="327" width="33" height="33" style="fill: rgb(0,0,255); fill-opacity: 1.0" transform="matrix(0.1062992126,0,0,0.1062992126,17.6456692958,17.6456692958)" /><rect x="826" y="327" width="33" height="33" style="fill: rgb(0,0,255); fill-opacity: 1.0" transform="matrix(0.1062992126,0,0,0.1062992126,17.6456692958,17.6456692958)" /><rect x="826" y="327" width="33" height="33" style="fill: rgb(0,0,255); fill-opacity: 1.0" transform="matrix(0.1062992126,0,0,0.1062992126,17.6456692958,17.6456692958)" /><rect x="826" y="327" width="33" height="33" style="fill: rgb(0,0,255); fill-opacity: 1.0" transform="matrix(0.1062992126,0,0,0.1062992126,17.6456692958,17.6456692958)" /><rect x="826" y="327" width="33" height="33" style="fill: rgb(0,0,255); fill-opacity: 1.0" transform="matrix(0.1062992126,0,0,0.1062992126,17.6456692958,17.6456692958)" /><rect x="826" y="327" width="33" height="33" style="fill: rgb(0,0,255); fill-opacity: 1.0" transform="matrix(0.1062992126,0,0,0.1062992126,17.6456692958,17.6456692958)" /><rect x="826" y="327" width="33" height="33" style="fill: rgb(0,0,255); fill-opacity: 1.0" transform="matrix(0.1062992126,0,0,0.1062992126,17.6456692958,17.6456692958)" /><rect x="826" y="327" width="33" height="33" style="fill: rgb(0,0,255); fill-opacity: 1.0" transform="matrix(0.1062992126,0,0,0.1062992126,17.6456692958,17.6456692958)" /><rect x="826" y="327" width="33" height="33" style="fill: rgb(0,0,255); fill-opacity: 1.0" transform="matrix(0.1062992126,0,0,0.1062992126,17.6456692958,17.6456692958)" /><rect x="826" y="327" width="33" height="33" style="fill: rgb(0,0,255); fill-opacity: 1.0" transform="matrix(0.1062992126,0,0,0.1062992126,17.6456692958,17.6456692958)" /><rect x="826" y="327" width="33" height="33" style="fill: rgb(0,0,255); fill-opacity: 1.0" transform="matrix(0.1062992126,0,0,0.1062992126,17.6456692958,17.6456692958)" /><rect x="826" y="327" width="33" height="33" style="fill: rgb(0,0,255); fill-opacity: 1.0" transform="matrix(0.1062992126,0,0,0.1062992126,17.6456692958,17.6456692958)" /><rect x="1391" y="327" width="33" height="33" style="fill: rgb(0,0,255); fill-opacity: 1.0" transform="matrix(0.1062992126,0,0,0.1062992126,17.6456692958,17.6456692958)" /><rect x="1391" y="327" width="33" height="33" style="fill: rgb(0,0,255); fill-opacity: 1.0" transform="matrix(0.1062992126,0,0,0.1062992126,17.6456692958,17.6456692958)" /><rect x="1391" y="327" width="33" height="33" style="fill: rgb(0,0,255); fill-opacity: 1.0" transform="matrix(0.1062992126,0,0,0.1062992126,17.6456692958,17.6456692958)" /><rect x="1391" y="327" width="33" height="33" style="fill: rgb(0,0,255); fill-opacity: 1.0" transform="matrix(0.1062992126,0,0,0.1062992126,17.6456692958,17.6456692958)" /><rect x="1391" y="327" width="33" height="33" style="fill: rgb(0,0,255); fill-opacity: 1.0" transform="matrix(0.1062992126,0,0,0.1062992126,17.6456692958,17.6456692958)" /><rect x="1391" y="327" width="33" height="33" style="fill: rgb(0,0,255); fill-opacity: 1.0" transform="matrix(0.1062992126,0,0,0.1062992126,17.6456692958,17.6456692958)" /><rect x="1391" y="327" width="33" height="33" style="fill: rgb(0,0,255); fill-opacity: 1.0" transform="matrix(0.1062992126,0,0,0.1062992126,17.6456692958,17.6456692958)" /><rect x="1391" y="327" width="33" height="33" style="fill: rgb(0,0,255); fill-opacity: 1.0" transform="matrix(0.1062992126,0,0,0.1062992126,17.6456692958,17.6456692958)" /><rect x="1391" y="327" width="33" height="33" style="fill: rgb(0,0,255); fill-opacity: 1.0" transform="matrix(0.1062992126,0,0,0.1062992126,17.6456692958,17.6456692958)" /><rect x="1391" y="327" width="33" height="33" style="fill: rgb(0,0,255); fill-opacity: 1.0" transform="matrix(0.1062992126,0,0,0.1062992126,17.6456692958,17.6456692958)" /><rect x="1391" y="327" width="33" height="33" style="fill: rgb(0,0,255); fill-opacity: 1.0" transform="matrix(0.1062992126,0,0,0.1062992126,17.6456692958,17.6456692958)" /><rect x="1391" y="327" width="33" height="33" style="fill: rgb(0,0,255); fill-opacity: 1.0" transform="matrix(0.1062992126,0,0,0.1062992126,17.6456692958,17.6456692958)" /><rect x="1391" y="327" width="465" height="33" style="fill: rgb(0,0,255); fill-opacity: 1.0" transform="matrix(0.1062992126,0,0,0.1062992126,17.6456692958,17.6456692958)" /><rect x="1823" y="327" width="33" height="33" style="fill: rgb(0,0,255); fill-opacity: 1.0" transform="matrix(0.1062992126,0,0,0.1062992126,17.6456692958,17.6456692958)" /><rect x="1823" y="327" width="33" height="33" style="fill: rgb(0,0,255); fill-opacity: 1.0" transform="matrix(0.1062992126,0,0,0.1062992126,17.6456692958,17.6456692958)" /><rect x="1823" y="327" width="33" height="33" style="fill: rgb(0,0,255); fill-opacity: 1.0" transform="matrix(0.1062992126,0,0,0.1062992126,17.6456692958,17.6456692958)" /><rect x="1823" y="327" width="33" height="33" style="fill: rgb(0,0,255); fill-opacity: 1.0" transform="matrix(0.1062992126,0,0,0.1062992126,17.6456692958,17.6456692958)" /><rect x="1823" y="327" width="33" height="33" style="fill: rgb(0,0,255); fill-opacity: 1.0" transform="matrix(0.1062992126,0,0,0.1062992126,17.6456692958,17.6456692958)" /><rect x="1823" y="327" width="33" height="33" style="fill: rgb(0,0,255); fill-opacity: 1.0" transform="matrix(0.1062992126,0,0,0.1062992126,17.6456692958,17.6456692958)" /><rect x="1823" y="327" width="33" height="33" style="fill: rgb(0,0,255); fill-opacity: 1.0" transform="matrix(0.1062992126,0,0,0.1062992126,17.6456692958,17.6456692958)" /><rect x="1823" y="327" width="33" height="33" style="fill: rgb(0,0,255); fill-opacity: 1.0" transform="matrix(0.1062992126,0,0,0.1062992126,17.6456692958,17.6456692958)" /><rect x="1823" y="327" width="33" height="33" style="fill: rgb(0,0,255); fill-opacity: 1.0" transform="matrix(0.1062992126,0,0,0.1062992126,17.6456692958,17.6456692958)" /><rect x="1823" y="327" width="33" height="33" style="fill: rgb(0,0,255); fill-opacity: 1.0" transform="matrix(0.1062992126,0,0,0.1062992126,17.6456692958,17.6456692958)" /><rect x="1823" y="327" width="33" height="33" style="fill: rgb(0,0,255); fill-opacity: 1.0" transform="matrix(0.1062992126,0,0,0.1062992126,17.6456692958,17.6456692958)" /><rect x="1823" y="327" width="33" height="33" style="fill: rgb(0,0,255); fill-opacity: 1.0" transform="matrix(0.1062992126,0,0,0.1062992126,17.6456692958,17.6456692958)" /></svg>
