<?xml version="1.0"?>
<!DOCTYPE svg PUBLIC "-//W3C//DTD SVG 1.0//EN" "http://www.w3.org/TR/2001/REC-SVG-20010904/DTD/svg10.dtd">
<svg xmlns="http://www.w3.org/2000/svg" xmlns:xlink="http://www.w3.org/1999/xlink" xmlns:jfreesvg="http://www.jfree.org/jfreesvg/svg" width="212" height="194" text-rendering="auto" shape-rendering="auto">
<defs></defs>
<line x1="0" y1="0" x2="59679" y2="0" style="stroke-width: 100.0;stroke: rgb(0,0,0);stroke-opacity: 1.0;stroke-linecap: round;stroke-linejoin: round;" transform="matrix(0.0035433071,0,0,0.0035433071,0,0)" /><line x1="59680" y1="0" x2="59680" y2="54499" style="stroke-width: 100.0;stroke: rgb(0,0,0);stroke-opacity: 1.0;stroke-linecap: round;stroke-linejoin: round;" transform="matrix(0.0035433071,0,0,0.0035433071,0,0)" /><line x1="59680" y1="54500" x2="1" y2="54500" style="stroke-width: 100.0;stroke: rgb(0,0,0);stroke-opacity: 1.0;stroke-linecap: round;stroke-linejoin: round;" transform="matrix(0.0035433071,0,0,0.0035433071,0,0)" /><line x1="0" y1="54500" x2="0" y2="1" style="stroke-width: 100.0;stroke: rgb(0,0,0);stroke-opacity: 1.0;stroke-linecap: round;stroke-linejoin: round;" transform="matrix(0.0035433071,0,0,0.0035433071,0,0)" /><ellipse cx="453" cy="211" rx="101" ry="101" style="fill: rgb(0,0,255); fill-opacity: 1.0" transform="matrix(0.0708661418,0,0,0.0708661418,17.7165354375,17.7165354375)" /><ellipse cx="211" cy="586" rx="101" ry="101" style="fill: rgb(0,0,255); fill-opacity: 1.0" transform="matrix(0.0708661418,0,0,0.0708661418,17.7165354375,17.7165354375)" /><ellipse cx="453" cy="1003" rx="101" ry="101" style="fill: rgb(0,0,255); fill-opacity: 1.0" transform="matrix(0.0708661418,0,0,0.0708661418,17.7165354375,17.7165354375)" /><ellipse cx="1873" cy="584" rx="101" ry="101" style="fill: rgb(0,0,255); fill-opacity: 1.0" transform="matrix(0.0708661418,0,0,0.0708661418,17.7165354375,17.7165354375)" /><rect x="677" y="193" width="37" height="37" style="fill: rgb(0,0,255); fill-opacity: 1.0" transform="matrix(0.0708661418,0,0,0.0708661418,17.7165354375,17.7165354375)" /><rect x="677" y="193" width="37" height="37" style="fill: rgb(0,0,255); fill-opacity: 1.0" transform="matrix(0.0708661418,0,0,0.0708661418,17.7165354375,17.7165354375)" /><rect x="677" y="193" width="37" height="37" style="fill: rgb(0,0,255); fill-opacity: 1.0" transform="matrix(0.0708661418,0,0,0.0708661418,17.7165354375,17.7165354375)" /><rect x="677" y="193" width="37" height="37" style="fill: rgb(0,0,255); fill-opacity: 1.0" transform="matrix(0.0708661418,0,0,0.0708661418,17.7165354375,17.7165354375)" /><rect x="677" y="193" width="37" height="37" style="fill: rgb(0,0,255); fill-opacity: 1.0" transform="matrix(0.0708661418,0,0,0.0708661418,17.7165354375,17.7165354375)" /><rect x="677" y="193" width="37" height="37" style="fill: rgb(0,0,255); fill-opacity: 1.0" transform="matrix(0.0708661418,0,0,0.0708661418,17.7165354375,17.7165354375)" /><rect x="677" y="193" width="263" height="37" style="fill: rgb(0,0,255); fill-opacity: 1.0" transform="matrix(0.0708661418,0,0,0.0708661418,17.7165354375,17.7165354375)" /><rect x="903" y="193" width="37" height="37" style="fill: rgb(0,0,255); fill-opacity: 1.0" transform="matrix(0.0708661418,0,0,0.0708661418,17.7165354375,17.7165354375)" /><rect x="903" y="193" width="37" height="37" style="fill: rgb(0,0,255); fill-opacity: 1.0" transform="matrix(0.0708661418,0,0,0.0708661418,17.7165354375,17.7165354375)" /><rect x="903" y="193" width="37" height="37" style="fill: rgb(0,0,255); fill-opacity: 1.0" transform="matrix(0.0708661418,0,0,0.0708661418,17.7165354375,17.7165354375)" /><rect x="903" y="193" width="37" height="37" style="fill: rgb(0,0,255); fill-opacity: 1.0" transform="matrix(0.0708661418,0,0,0.0708661418,17.7165354375,17.7165354375)" /><rect x="903" y="193" width="37" height="37" style="fill: rgb(0,0,255); fill-opacity: 1.0" transform="matrix(0.0708661418,0,0,0.0708661418,17.7165354375,17.7165354375)" /><rect x="903" y="193" width="37" height="37" style="fill: rgb(0,0,255); fill-opacity: 1.0" transform="matrix(0.0708661418,0,0,0.0708661418,17.7165354375,17.7165354375)" /><rect x="677" y="568" width="37" height="37" style="fill: rgb(0,0,255); fill-opacity: 1.0" transform="matrix(0.0708661418,0,0,0.0708661418,17.7165354375,17.7165354375)" /><rect x="677" y="568" width="37" height="37" style="fill: rgb(0,0,255); fill-opacity: 1.0" transform="matrix(0.0708661418,0,0,0.0708661418,17.7165354375,17.7165354375)" /><rect x="677" y="568" width="37" height="37" style="fill: rgb(0,0,255); fill-opacity: 1.0" transform="matrix(0.0708661418,0,0,0.0708661418,17.7165354375,17.7165354375)" /><rect x="677" y="568" width="37" height="37" style="fill: rgb(0,0,255); fill-opacity: 1.0" transform="matrix(0.0708661418,0,0,0.0708661418,17.7165354375,17.7165354375)" /><rect x="677" y="568" width="37" height="37" style="fill: rgb(0,0,255); fill-opacity: 1.0" transform="matrix(0.0708661418,0,0,0.0708661418,17.7165354375,17.7165354375)" /><rect x="677" y="568" width="37" height="37" style="fill: rgb(0,0,255); fill-opacity: 1.0" transform="matrix(0.0708661418,0,0,0.0708661418,17.7165354375,17.7165354375)" /><rect x="677" y="568" width="263" height="37" style="fill: rgb(0,0,255); fill-opacity: 1.0" transform="matrix(0.0708661418,0,0,0.0708661418,17.7165354375,17.7165354375)" /><rect x="903" y="568" width="37" height="37" style="fill: rgb(0,0,255); fill-opacity: 1.0" transform="matrix(0.0708661418,0,0,0.0708661418,17.7165354375,17.7165354375)" /><rect x="903" y="568" width="37" height="37" style="fill: rgb(0,0,255); fill-opacity: 1.0" transform="matrix(0.0708661418,0,0,0.0708661418,17.7165354375,17.7165354375)" /><rect x="903" y="568" width="37" height="37" style="fill: rgb(0,0,255); fill-opacity: 1.0" transform="matrix(0.0708661418,0,0,0.0708661418,17.7165354375,17.7165354375)" /><rect x="903" y="568" width="37" height="37" style="fill: rgb(0,0,255); fill-opacity: 1.0" transform="matrix(0.0708661418,0,0,0.0708661418,17.7165354375,17.7165354375)" /><rect x="903" y="568" width="37" height="37" style="fill: rgb(0,0,255); fill-opacity: 1.0" transform="matrix(0.0708661418,0,0,0.0708661418,17.7165354375,17.7165354375)" /><rect x="903" y="568" width="37" height="37" style="fill: rgb(0,0,255); fill-opacity: 1.0" transform="matrix(0.0708661418,0,0,0.0708661418,17.7165354375,17.7165354375)" /><rect x="903" y="193" width="37" height="37" style="fill: rgb(0,0,255); fill-opacity: 1.0" transform="matrix(0.0708661418,0,0,0.0708661418,17.7165354375,17.7165354375)" /><rect x="903" y="193" width="37" height="37" style="fill: rgb(0,0,255); fill-opacity: 1.0" transform="matrix(0.0708661418,0,0,0.0708661418,17.7165354375,17.7165354375)" /><rect x="903" y="193" width="37" height="37" style="fill: rgb(0,0,255); fill-opacity: 1.0" transform="matrix(0.0708661418,0,0,0.0708661418,17.7165354375,17.7165354375)" /><rect x="903" y="193" width="37" height="37" style="fill: rgb(0,0,255); fill-opacity: 1.0" transform="matrix(0.0708661418,0,0,0.0708661418,17.7165354375,17.7165354375)" /><rect x="903" y="193" width="37" height="37" style="fill: rgb(0,0,255); fill-opacity: 1.0" transform="matrix(0.0708661418,0,0,0.0708661418,17.7165354375,17.7165354375)" /><rect x="903" y="193" width="37" height="37" style="fill: rgb(0,0,255); fill-opacity: 1.0" transform="matrix(0.0708661418,0,0,0.0708661418,17.7165354375,17.7165354375)" /><rect x="903" y="193" width="37" height="224" style="fill: rgb(0,0,255); fill-opacity: 1.0" transform="matrix(0.0708661418,0,0,0.0708661418,17.7165354375,17.7165354375)" /><rect x="903" y="380" width="37" height="37" style="fill: rgb(0,0,255); fill-opacity: 1.0" transform="matrix(0.0708661418,0,0,0.0708661418,17.7165354375,17.7165354375)" /><rect x="903" y="380" width="37" height="37" style="fill: rgb(0,0,255); fill-opacity: 1.0" transform="matrix(0.0708661418,0,0,0.0708661418,17.7165354375,17.7165354375)" /><rect x="903" y="380" width="37" height="37" style="fill: rgb(0,0,255); fill-opacity: 1.0" transform="matrix(0.0708661418,0,0,0.0708661418,17.7165354375,17.7165354375)" /><rect x="903" y="380" width="37" height="37" style="fill: rgb(0,0,255); fill-opacity: 1.0" transform="matrix(0.0708661418,0,0,0.0708661418,17.7165354375,17.7165354375)" /><rect x="903" y="380" width="37" height="37" style="fill: rgb(0,0,255); fill-opacity: 1.0" transform="matrix(0.0708661418,0,0,0.0708661418,17.7165354375,17.7165354375)" /><rect x="903" y="380" width="37" height="37" style="fill: rgb(0,0,255); fill-opacity: 1.0" transform="matrix(0.0708661418,0,0,0.0708661418,17.7165354375,17.7165354375)" /><rect x="903" y="568" width="37" height="37" style="fill: rgb(0,0,255); fill-opacity: 1.0" transform="matrix(0.0708661418,0,0,0.0708661418,17.7165354375,17.7165354375)" /><rect x="903" y="568" width="37" height="37" style="fill: rgb(0,0,255); fill-opacity: 1.0" transform="matrix(0.0708661418,0,0,0.0708661418,17.7165354375,17.7165354375)" /><rect x="903" y="568" width="37" height="37" style="fill: rgb(0,0,255); fill-opacity: 1.0" transform="matrix(0.0708661418,0,0,0.0708661418,17.7165354375,17.7165354375)" /><rect x="903" y="568" width="37" height="37" style="fill: rgb(0,0,255); fill-opacity: 1.0" transform="matrix(0.0708661418,0,0,0.0708661418,17.7165354375,17.7165354375)" /><rect x="903" y="568" width="37" height="37" style="fill: rgb(0,0,255); fill-opacity: 1.0" transform="matrix(0.0708661418,0,0,0.0708661418,17.7165354375,17.7165354375)" /><rect x="903" y="568" width="37" height="37" style="fill: rgb(0,0,255); fill-opacity: 1.0" transform="matrix(0.0708661418,0,0,0.0708661418,17.7165354375,17.7165354375)" /><rect x="903" y="380" width="37" height="225" style="fill: rgb(0,0,255); fill-opacity: 1.0" transform="matrix(0.0708661418,0,0,0.0708661418,17.7165354375,17.7165354375)" /><rect x="903" y="380" width="37" height="37" style="fill: rgb(0,0,255); fill-opacity: 1.0" transform="matrix(0.0708661418,0,0,0.0708661418,17.7165354375,17.7165354375)" /><rect x="903" y="380" width="37" height="37" style="fill: rgb(0,0,255); fill-opacity: 1.0" transform="matrix(0.0708661418,0,0,0.0708661418,17.7165354375,17.7165354375)" /><rect x="903" y="380" width="37" height="37" style="fill: rgb(0,0,255); fill-opacity: 1.0" transform="matrix(0.0708661418,0,0,0.0708661418,17.7165354375,17.7165354375)" /><rect x="903" y="380" width="37" height="37" style="fill: rgb(0,0,255); fill-opacity: 1.0" transform="matrix(0.0708661418,0,0,0.0708661418,17.7165354375,17.7165354375)" /><rect x="903" y="380" width="37" height="37" style="fill: rgb(0,0,255); fill-opacity: 1.0" transform="matrix(0.0708661418,0,0,0.0708661418,17.7165354375,17.7165354375)" /><rect x="903" y="380" width="37" height="37" style="fill: rgb(0,0,255); fill-opacity: 1.0" transform="matrix(0.0708661418,0,0,0.0708661418,17.7165354375,17.7165354375)" /><rect x="677" y="193" width="37" height="37" style="fill: rgb(0,0,255); fill-opacity: 1.0" transform="matrix(0.0708661418,0,0,0.0708661418,17.7165354375,17.7165354375)" /><rect x="677" y="193" width="37" height="37" style="fill: rgb(0,0,255); fill-opacity: 1.0" transform="matrix(0.0708661418,0,0,0.0708661418,17.7165354375,17.7165354375)" /><rect x="677" y="193" width="37" height="37" style="fill: rgb(0,0,255); fill-opacity: 1.0" transform="matrix(0.0708661418,0,0,0.0708661418,17.7165354375,17.7165354375)" /><rect x="677" y="193" width="37" height="37" style="fill: rgb(0,0,255); fill-opacity: 1.0" transform="matrix(0.0708661418,0,0,0.0708661418,17.7165354375,17.7165354375)" /><rect x="677" y="193" width="37" height="37" style="fill: rgb(0,0,255); fill-opacity: 1.0" transform="matrix(0.0708661418,0,0,0.0708661418,17.7165354375,17.7165354375)" /><rect x="677" y="193" width="37" height="37" style="fill: rgb(0,0,255); fill-opacity: 1.0" transform="matrix(0.0708661418,0,0,0.0708661418,17.7165354375,17.7165354375)" /><rect x="653" y="193" width="61" height="37" style="fill: rgb(0,0,255); fill-opacity: 1.0" transform="matrix(0.0708661418,0,0,0.0708661418,17.7165354375,17.7165354375)" /><rect x="653" y="193" width="37" height="37" style="fill: rgb(0,0,255); fill-opacity: 1.0" transform="matrix(0.0708661418,0,0,0.0708661418,17.7165354375,17.7165354375)" /><rect x="653" y="193" width="37" height="37" style="fill: rgb(0,0,255); fill-opacity: 1.0" transform="matrix(0.0708661418,0,0,0.0708661418,17.7165354375,17.7165354375)" /><rect x="653" y="193" width="37" height="37" style="fill: rgb(0,0,255); fill-opacity: 1.0" transform="matrix(0.0708661418,0,0,0.0708661418,17.7165354375,17.7165354375)" /><rect x="653" y="193" width="37" height="37" style="fill: rgb(0,0,255); fill-opacity: 1.0" transform="matrix(0.0708661418,0,0,0.0708661418,17.7165354375,17.7165354375)" /><rect x="653" y="193" width="37" height="37" style="fill: rgb(0,0,255); fill-opacity: 1.0" transform="matrix(0.0708661418,0,0,0.0708661418,17.7165354375,17.7165354375)" /><rect x="653" y="193" width="37" height="37" style="fill: rgb(0,0,255); fill-opacity: 1.0" transform="matrix(0.0708661418,0,0,0.0708661418,17.7165354375,17.7165354375)" /><rect x="677" y="568" width="37" height="37" style="fill: rgb(0,0,255); fill-opacity: 1.0" transform="matrix(0.0708661418,0,0,0.0708661418,17.7165354375,17.7165354375)" /><rect x="677" y="568" width="37" height="37" style="fill: rgb(0,0,255); fill-opacity: 1.0" transform="matrix(0.0708661418,0,0,0.0708661418,17.7165354375,17.7165354375)" /><rect x="677" y="568" width="37" height="37" style="fill: rgb(0,0,255); fill-opacity: 1.0" transform="matrix(0.0708661418,0,0,0.0708661418,17.7165354375,17.7165354375)" /><rect x="677" y="568" width="37" height="37" style="fill: rgb(0,0,255); fill-opacity: 1.0" transform="matrix(0.0708661418,0,0,0.0708661418,17.7165354375,17.7165354375)" /><rect x="677" y="568" width="37" height="37" style="fill: rgb(0,0,255); fill-opacity: 1.0" transform="matrix(0.0708661418,0,0,0.0708661418,17.7165354375,17.7165354375)" /><rect x="677" y="568" width="37" height="37" style="fill: rgb(0,0,255); fill-opacity: 1.0" transform="matrix(0.0708661418,0,0,0.0708661418,17.7165354375,17.7165354375)" /><rect x="653" y="568" width="61" height="37" style="fill: rgb(0,0,255); fill-opacity: 1.0" transform="matrix(0.0708661418,0,0,0.0708661418,17.7165354375,17.7165354375)" /><rect x="653" y="568" width="37" height="37" style="fill: rgb(0,0,255); fill-opacity: 1.0" transform="matrix(0.0708661418,0,0,0.0708661418,17.7165354375,17.7165354375)" /><rect x="653" y="568" width="37" height="37" style="fill: rgb(0,0,255); fill-opacity: 1.0" transform="matrix(0.0708661418,0,0,0.0708661418,17.7165354375,17.7165354375)" /><rect x="653" y="568" width="37" height="37" style="fill: rgb(0,0,255); fill-opacity: 1.0" transform="matrix(0.0708661418,0,0,0.0708661418,17.7165354375,17.7165354375)" /><rect x="653" y="568" width="37" height="37" style="fill: rgb(0,0,255); fill-opacity: 1.0" transform="matrix(0.0708661418,0,0,0.0708661418,17.7165354375,17.7165354375)" /><rect x="653" y="568" width="37" height="37" style="fill: rgb(0,0,255); fill-opacity: 1.0" transform="matrix(0.0708661418,0,0,0.0708661418,17.7165354375,17.7165354375)" /><rect x="653" y="568" width="37" height="37" style="fill: rgb(0,0,255); fill-opacity: 1.0" transform="matrix(0.0708661418,0,0,0.0708661418,17.7165354375,17.7165354375)" /><rect x="903" y="380" width="37" height="37" style="fill: rgb(0,0,255); fill-opacity: 1.0" transform="matrix(0.0708661418,0,0,0.0708661418,17.7165354375,17.7165354375)" /><rect x="903" y="380" width="37" height="37" style="fill: rgb(0,0,255); fill-opacity: 1.0" transform="matrix(0.0708661418,0,0,0.0708661418,17.7165354375,17.7165354375)" /><rect x="903" y="380" width="37" height="37" style="fill: rgb(0,0,255); fill-opacity: 1.0" transform="matrix(0.0708661418,0,0,0.0708661418,17.7165354375,17.7165354375)" /><rect x="903" y="380" width="37" height="37" style="fill: rgb(0,0,255); fill-opacity: 1.0" transform="matrix(0.0708661418,0,0,0.0708661418,17.7165354375,17.7165354375)" /><rect x="903" y="380" width="37" height="37" style="fill: rgb(0,0,255); fill-opacity: 1.0" transform="matrix(0.0708661418,0,0,0.0708661418,17.7165354375,17.7165354375)" /><rect x="903" y="380" width="37" height="37" style="fill: rgb(0,0,255); fill-opacity: 1.0" transform="matrix(0.0708661418,0,0,0.0708661418,17.7165354375,17.7165354375)" /><rect x="903" y="380" width="61" height="37" style="fill: rgb(0,0,255); fill-opacity: 1.0" transform="matrix(0.0708661418,0,0,0.0708661418,17.7165354375,17.7165354375)" /><rect x="927" y="380" width="37" height="37" style="fill: rgb(0,0,255); fill-opacity: 1.0" transform="matrix(0.0708661418,0,0,0.0708661418,17.7165354375,17.7165354375)" /><rect x="927" y="380" width="37" height="37" style="fill: rgb(0,0,255); fill-opacity: 1.0" transform="matrix(0.0708661418,0,0,0.0708661418,17.7165354375,17.7165354375)" /><rect x="927" y="380" width="37" height="37" style="fill: rgb(0,0,255); fill-opacity: 1.0" transform="matrix(0.0708661418,0,0,0.0708661418,17.7165354375,17.7165354375)" /><rect x="927" y="380" width="37" height="37" style="fill: rgb(0,0,255); fill-opacity: 1.0" transform="matrix(0.0708661418,0,0,0.0708661418,17.7165354375,17.7165354375)" /><rect x="927" y="380" width="37" height="37" style="fill: rgb(0,0,255); fill-opacity: 1.0" transform="matrix(0.0708661418,0,0,0.0708661418,17.7165354375,17.7165354375)" /><rect x="927" y="380" width="37" height="37" style="fill: rgb(0,0,255); fill-opacity: 1.0" transform="matrix(0.0708661418,0,0,0.0708661418,17.7165354375,17.7165354375)" /><rect x="1065" y="379" width="37" height="37" style="fill: rgb(0,0,255); fill-opacity: 1.0" transform="matrix(0.0708661418,0,0,0.0708661418,17.7165354375,17.7165354375)" /><rect x="1065" y="379" width="37" height="37" style="fill: rgb(0,0,255); fill-opacity: 1.0" transform="matrix(0.0708661418,0,0,0.0708661418,17.7165354375,17.7165354375)" /><rect x="1065" y="379" width="37" height="37" style="fill: rgb(0,0,255); fill-opacity: 1.0" transform="matrix(0.0708661418,0,0,0.0708661418,17.7165354375,17.7165354375)" /><rect x="1065" y="379" width="37" height="37" style="fill: rgb(0,0,255); fill-opacity: 1.0" transform="matrix(0.0708661418,0,0,0.0708661418,17.7165354375,17.7165354375)" /><rect x="1065" y="379" width="37" height="37" style="fill: rgb(0,0,255); fill-opacity: 1.0" transform="matrix(0.0708661418,0,0,0.0708661418,17.7165354375,17.7165354375)" /><rect x="1065" y="379" width="37" height="37" style="fill: rgb(0,0,255); fill-opacity: 1.0" transform="matrix(0.0708661418,0,0,0.0708661418,17.7165354375,17.7165354375)" /><rect x="1065" y="379" width="263" height="37" style="fill: rgb(0,0,255); fill-opacity: 1.0" transform="matrix(0.0708661418,0,0,0.0708661418,17.7165354375,17.7165354375)" /><rect x="1291" y="379" width="37" height="37" style="fill: rgb(0,0,255); fill-opacity: 1.0" transform="matrix(0.0708661418,0,0,0.0708661418,17.7165354375,17.7165354375)" /><rect x="1291" y="379" width="37" height="37" style="fill: rgb(0,0,255); fill-opacity: 1.0" transform="matrix(0.0708661418,0,0,0.0708661418,17.7165354375,17.7165354375)" /><rect x="1291" y="379" width="37" height="37" style="fill: rgb(0,0,255); fill-opacity: 1.0" transform="matrix(0.0708661418,0,0,0.0708661418,17.7165354375,17.7165354375)" /><rect x="1291" y="379" width="37" height="37" style="fill: rgb(0,0,255); fill-opacity: 1.0" transform="matrix(0.0708661418,0,0,0.0708661418,17.7165354375,17.7165354375)" /><rect x="1291" y="379" width="37" height="37" style="fill: rgb(0,0,255); fill-opacity: 1.0" transform="matrix(0.0708661418,0,0,0.0708661418,17.7165354375,17.7165354375)" /><rect x="1291" y="379" width="37" height="37" style="fill: rgb(0,0,255); fill-opacity: 1.0" transform="matrix(0.0708661418,0,0,0.0708661418,17.7165354375,17.7165354375)" /><rect x="1065" y="754" width="37" height="37" style="fill: rgb(0,0,255); fill-opacity: 1.0" transform="matrix(0.0708661418,0,0,0.0708661418,17.7165354375,17.7165354375)" /><rect x="1065" y="754" width="37" height="37" style="fill: rgb(0,0,255); fill-opacity: 1.0" transform="matrix(0.0708661418,0,0,0.0708661418,17.7165354375,17.7165354375)" /><rect x="1065" y="754" width="37" height="37" style="fill: rgb(0,0,255); fill-opacity: 1.0" transform="matrix(0.0708661418,0,0,0.0708661418,17.7165354375,17.7165354375)" /><rect x="1065" y="754" width="37" height="37" style="fill: rgb(0,0,255); fill-opacity: 1.0" transform="matrix(0.0708661418,0,0,0.0708661418,17.7165354375,17.7165354375)" /><rect x="1065" y="754" width="37" height="37" style="fill: rgb(0,0,255); fill-opacity: 1.0" transform="matrix(0.0708661418,0,0,0.0708661418,17.7165354375,17.7165354375)" /><rect x="1065" y="754" width="37" height="37" style="fill: rgb(0,0,255); fill-opacity: 1.0" transform="matrix(0.0708661418,0,0,0.0708661418,17.7165354375,17.7165354375)" /><rect x="1065" y="754" width="263" height="37" style="fill: rgb(0,0,255); fill-opacity: 1.0" transform="matrix(0.0708661418,0,0,0.0708661418,17.7165354375,17.7165354375)" /><rect x="1291" y="754" width="37" height="37" style="fill: rgb(0,0,255); fill-opacity: 1.0" transform="matrix(0.0708661418,0,0,0.0708661418,17.7165354375,17.7165354375)" /><rect x="1291" y="754" width="37" height="37" style="fill: rgb(0,0,255); fill-opacity: 1.0" transform="matrix(0.0708661418,0,0,0.0708661418,17.7165354375,17.7165354375)" /><rect x="1291" y="754" width="37" height="37" style="fill: rgb(0,0,255); fill-opacity: 1.0" transform="matrix(0.0708661418,0,0,0.0708661418,17.7165354375,17.7165354375)" /><rect x="1291" y="754" width="37" height="37" style="fill: rgb(0,0,255); fill-opacity: 1.0" transform="matrix(0.0708661418,0,0,0.0708661418,17.7165354375,17.7165354375)" /><rect x="1291" y="754" width="37" height="37" style="fill: rgb(0,0,255); fill-opacity: 1.0" transform="matrix(0.0708661418,0,0,0.0708661418,17.7165354375,17.7165354375)" /><rect x="1291" y="754" width="37" height="37" style="fill: rgb(0,0,255); fill-opacity: 1.0" transform="matrix(0.0708661418,0,0,0.0708661418,17.7165354375,17.7165354375)" /><rect x="1291" y="379" width="37" height="37" style="fill: rgb(0,0,255); fill-opacity: 1.0" transform="matrix(0.0708661418,0,0,0.0708661418,17.7165354375,17.7165354375)" /><rect x="1291" y="379" width="37" height="37" style="fill: rgb(0,0,255); fill-opacity: 1.0" transform="matrix(0.0708661418,0,0,0.0708661418,17.7165354375,17.7165354375)" /><rect x="1291" y="379" width="37" height="37" style="fill: rgb(0,0,255); fill-opacity: 1.0" transform="matrix(0.0708661418,0,0,0.0708661418,17.7165354375,17.7165354375)" /><rect x="1291" y="379" width="37" height="37" style="fill: rgb(0,0,255); fill-opacity: 1.0" transform="matrix(0.0708661418,0,0,0.0708661418,17.7165354375,17.7165354375)" /><rect x="1291" y="379" width="37" height="37" style="fill: rgb(0,0,255); fill-opacity: 1.0" transform="matrix(0.0708661418,0,0,0.0708661418,17.7165354375,17.7165354375)" /><rect x="1291" y="379" width="37" height="37" style="fill: rgb(0,0,255); fill-opacity: 1.0" transform="matrix(0.0708661418,0,0,0.0708661418,17.7165354375,17.7165354375)" /><rect x="1291" y="379" width="37" height="224" style="fill: rgb(0,0,255); fill-opacity: 1.0" transform="matrix(0.0708661418,0,0,0.0708661418,17.7165354375,17.7165354375)" /><rect x="1291" y="566" width="37" height="37" style="fill: rgb(0,0,255); fill-opacity: 1.0" transform="matrix(0.0708661418,0,0,0.0708661418,17.7165354375,17.7165354375)" /><rect x="1291" y="566" width="37" height="37" style="fill: rgb(0,0,255); fill-opacity: 1.0" transform="matrix(0.0708661418,0,0,0.0708661418,17.7165354375,17.7165354375)" /><rect x="1291" y="566" width="37" height="37" style="fill: rgb(0,0,255); fill-opacity: 1.0" transform="matrix(0.0708661418,0,0,0.0708661418,17.7165354375,17.7165354375)" /><rect x="1291" y="566" width="37" height="37" style="fill: rgb(0,0,255); fill-opacity: 1.0" transform="matrix(0.0708661418,0,0,0.0708661418,17.7165354375,17.7165354375)" /><rect x="1291" y="566" width="37" height="37" style="fill: rgb(0,0,255); fill-opacity: 1.0" transform="matrix(0.0708661418,0,0,0.0708661418,17.7165354375,17.7165354375)" /><rect x="1291" y="566" width="37" height="37" style="fill: rgb(0,0,255); fill-opacity: 1.0" transform="matrix(0.0708661418,0,0,0.0708661418,17.7165354375,17.7165354375)" /><rect x="1291" y="754" width="37" height="37" style="fill: rgb(0,0,255); fill-opacity: 1.0" transform="matrix(0.0708661418,0,0,0.0708661418,17.7165354375,17.7165354375)" /><rect x="1291" y="754" width="37" height="37" style="fill: rgb(0,0,255); fill-opacity: 1.0" transform="matrix(0.0708661418,0,0,0.0708661418,17.7165354375,17.7165354375)" /><rect x="1291" y="754" width="37" height="37" style="fill: rgb(0,0,255); fill-opacity: 1.0" transform="matrix(0.0708661418,0,0,0.0708661418,17.7165354375,17.7165354375)" /><rect x="1291" y="754" width="37" height="37" style="fill: rgb(0,0,255); fill-opacity: 1.0" transform="matrix(0.0708661418,0,0,0.0708661418,17.7165354375,17.7165354375)" /><rect x="1291" y="754" width="37" height="37" style="fill: rgb(0,0,255); fill-opacity: 1.0" transform="matrix(0.0708661418,0,0,0.0708661418,17.7165354375,17.7165354375)" /><rect x="1291" y="754" width="37" height="37" style="fill: rgb(0,0,255); fill-opacity: 1.0" transform="matrix(0.0708661418,0,0,0.0708661418,17.7165354375,17.7165354375)" /><rect x="1291" y="566" width="37" height="225" style="fill: rgb(0,0,255); fill-opacity: 1.0" transform="matrix(0.0708661418,0,0,0.0708661418,17.7165354375,17.7165354375)" /><rect x="1291" y="566" width="37" height="37" style="fill: rgb(0,0,255); fill-opacity: 1.0" transform="matrix(0.0708661418,0,0,0.0708661418,17.7165354375,17.7165354375)" /><rect x="1291" y="566" width="37" height="37" style="fill: rgb(0,0,255); fill-opacity: 1.0" transform="matrix(0.0708661418,0,0,0.0708661418,17.7165354375,17.7165354375)" /><rect x="1291" y="566" width="37" height="37" style="fill: rgb(0,0,255); fill-opacity: 1.0" transform="matrix(0.0708661418,0,0,0.0708661418,17.7165354375,17.7165354375)" /><rect x="1291" y="566" width="37" height="37" style="fill: rgb(0,0,255); fill-opacity: 1.0" transform="matrix(0.0708661418,0,0,0.0708661418,17.7165354375,17.7165354375)" /><rect x="1291" y="566" width="37" height="37" style="fill: rgb(0,0,255); fill-opacity: 1.0" transform="matrix(0.0708661418,0,0,0.0708661418,17.7165354375,17.7165354375)" /><rect x="1291" y="566" width="37" height="37" style="fill: rgb(0,0,255); fill-opacity: 1.0" transform="matrix(0.0708661418,0,0,0.0708661418,17.7165354375,17.7165354375)" /><rect x="1065" y="379" width="37" height="37" style="fill: rgb(0,0,255); fill-opacity: 1.0" transform="matrix(0.0708661418,0,0,0.0708661418,17.7165354375,17.7165354375)" /><rect x="1065" y="379" width="37" height="37" style="fill: rgb(0,0,255); fill-opacity: 1.0" transform="matrix(0.0708661418,0,0,0.0708661418,17.7165354375,17.7165354375)" /><rect x="1065" y="379" width="37" height="37" style="fill: rgb(0,0,255); fill-opacity: 1.0" transform="matrix(0.0708661418,0,0,0.0708661418,17.7165354375,17.7165354375)" /><rect x="1065" y="379" width="37" height="37" style="fill: rgb(0,0,255); fill-opacity: 1.0" transform="matrix(0.0708661418,0,0,0.0708661418,17.7165354375,17.7165354375)" /><rect x="1065" y="379" width="37" height="37" style="fill: rgb(0,0,255); fill-opacity: 1.0" transform="matrix(0.0708661418,0,0,0.0708661418,17.7165354375,17.7165354375)" /><rect x="1065" y="379" width="37" height="37" style="fill: rgb(0,0,255); fill-opacity: 1.0" transform="matrix(0.0708661418,0,0,0.0708661418,17.7165354375,17.7165354375)" /><rect x="1041" y="379" width="61" height="37" style="fill: rgb(0,0,255); fill-opacity: 1.0" transform="matrix(0.0708661418,0,0,0.0708661418,17.7165354375,17.7165354375)" /><rect x="1041" y="379" width="37" height="37" style="fill: rgb(0,0,255); fill-opacity: 1.0" transform="matrix(0.0708661418,0,0,0.0708661418,17.7165354375,17.7165354375)" /><rect x="1041" y="379" width="37" height="37" style="fill: rgb(0,0,255); fill-opacity: 1.0" transform="matrix(0.0708661418,0,0,0.0708661418,17.7165354375,17.7165354375)" /><rect x="1041" y="379" width="37" height="37" style="fill: rgb(0,0,255); fill-opacity: 1.0" transform="matrix(0.0708661418,0,0,0.0708661418,17.7165354375,17.7165354375)" /><rect x="1041" y="379" width="37" height="37" style="fill: rgb(0,0,255); fill-opacity: 1.0" transform="matrix(0.0708661418,0,0,0.0708661418,17.7165354375,17.7165354375)" /><rect x="1041" y="379" width="37" height="37" style="fill: rgb(0,0,255); fill-opacity: 1.0" transform="matrix(0.0708661418,0,0,0.0708661418,17.7165354375,17.7165354375)" /><rect x="1041" y="379" width="37" height="37" style="fill: rgb(0,0,255); fill-opacity: 1.0" transform="matrix(0.0708661418,0,0,0.0708661418,17.7165354375,17.7165354375)" /><rect x="1065" y="754" width="37" height="37" style="fill: rgb(0,0,255); fill-opacity: 1.0" transform="matrix(0.0708661418,0,0,0.0708661418,17.7165354375,17.7165354375)" /><rect x="1065" y="754" width="37" height="37" style="fill: rgb(0,0,255); fill-opacity: 1.0" transform="matrix(0.0708661418,0,0,0.0708661418,17.7165354375,17.7165354375)" /><rect x="1065" y="754" width="37" height="37" style="fill: rgb(0,0,255); fill-opacity: 1.0" transform="matrix(0.0708661418,0,0,0.0708661418,17.7165354375,17.7165354375)" /><rect x="1065" y="754" width="37" height="37" style="fill: rgb(0,0,255); fill-opacity: 1.0" transform="matrix(0.0708661418,0,0,0.0708661418,17.7165354375,17.7165354375)" /><rect x="1065" y="754" width="37" height="37" style="fill: rgb(0,0,255); fill-opacity: 1.0" transform="matrix(0.0708661418,0,0,0.0708661418,17.7165354375,17.7165354375)" /><rect x="1065" y="754" width="37" height="37" style="fill: rgb(0,0,255); fill-opacity: 1.0" transform="matrix(0.0708661418,0,0,0.0708661418,17.7165354375,17.7165354375)" /><rect x="1041" y="754" width="61" height="37" style="fill: rgb(0,0,255); fill-opacity: 1.0" transform="matrix(0.0708661418,0,0,0.0708661418,17.7165354375,17.7165354375)" /><rect x="1041" y="754" width="37" height="37" style="fill: rgb(0,0,255); fill-opacity: 1.0" transform="matrix(0.0708661418,0,0,0.0708661418,17.7165354375,17.7165354375)" /><rect x="1041" y="754" width="37" height="37" style="fill: rgb(0,0,255); fill-opacity: 1.0" transform="matrix(0.0708661418,0,0,0.0708661418,17.7165354375,17.7165354375)" /><rect x="1041" y="754" width="37" height="37" style="fill: rgb(0,0,255); fill-opacity: 1.0" transform="matrix(0.0708661418,0,0,0.0708661418,17.7165354375,17.7165354375)" /><rect x="1041" y="754" width="37" height="37" style="fill: rgb(0,0,255); fill-opacity: 1.0" transform="matrix(0.0708661418,0,0,0.0708661418,17.7165354375,17.7165354375)" /><rect x="1041" y="754" width="37" height="37" style="fill: rgb(0,0,255); fill-opacity: 1.0" transform="matrix(0.0708661418,0,0,0.0708661418,17.7165354375,17.7165354375)" /><rect x="1041" y="754" width="37" height="37" style="fill: rgb(0,0,255); fill-opacity: 1.0" transform="matrix(0.0708661418,0,0,0.0708661418,17.7165354375,17.7165354375)" /><rect x="1291" y="566" width="37" height="37" style="fill: rgb(0,0,255); fill-opacity: 1.0" transform="matrix(0.0708661418,0,0,0.0708661418,17.7165354375,17.7165354375)" /><rect x="1291" y="566" width="37" height="37" style="fill: rgb(0,0,255); fill-opacity: 1.0" transform="matrix(0.0708661418,0,0,0.0708661418,17.7165354375,17.7165354375)" /><rect x="1291" y="566" width="37" height="37" style="fill: rgb(0,0,255); fill-opacity: 1.0" transform="matrix(0.0708661418,0,0,0.0708661418,17.7165354375,17.7165354375)" /><rect x="1291" y="566" width="37" height="37" style="fill: rgb(0,0,255); fill-opacity: 1.0" transform="matrix(0.0708661418,0,0,0.0708661418,17.7165354375,17.7165354375)" /><rect x="1291" y="566" width="37" height="37" style="fill: rgb(0,0,255); fill-opacity: 1.0" transform="matrix(0.0708661418,0,0,0.0708661418,17.7165354375,17.7165354375)" /><rect x="1291" y="566" width="37" height="37" style="fill: rgb(0,0,255); fill-opacity: 1.0" transform="matrix(0.0708661418,0,0,0.0708661418,17.7165354375,17.7165354375)" /><rect x="1291" y="566" width="61" height="37" style="fill: rgb(0,0,255); fill-opacity: 1.0" transform="matrix(0.0708661418,0,0,0.0708661418,17.7165354375,17.7165354375)" /><rect x="1315" y="566" width="37" height="37" style="fill: rgb(0,0,255); fill-opacity: 1.0" transform="matrix(0.0708661418,0,0,0.0708661418,17.7165354375,17.7165354375)" /><rect x="1315" y="566" width="37" height="37" style="fill: rgb(0,0,255); fill-opacity: 1.0" transform="matrix(0.0708661418,0,0,0.0708661418,17.7165354375,17.7165354375)" /><rect x="1315" y="566" width="37" height="37" style="fill: rgb(0,0,255); fill-opacity: 1.0" transform="matrix(0.0708661418,0,0,0.0708661418,17.7165354375,17.7165354375)" /><rect x="1315" y="566" width="37" height="37" style="fill: rgb(0,0,255); fill-opacity: 1.0" transform="matrix(0.0708661418,0,0,0.0708661418,17.7165354375,17.7165354375)" /><rect x="1315" y="566" width="37" height="37" style="fill: rgb(0,0,255); fill-opacity: 1.0" transform="matrix(0.0708661418,0,0,0.0708661418,17.7165354375,17.7165354375)" /><rect x="1315" y="566" width="37" height="37" style="fill: rgb(0,0,255); fill-opacity: 1.0" transform="matrix(0.0708661418,0,0,0.0708661418,17.7165354375,17.7165354375)" /><g style="fill: rgb(0,0,255); fill-opacity: 1.0; stroke: none" transform="matrix(0.0708661418,0,0,0.0708661418,17.7165354375,17.7165354375)" ><path d="M 951.4515991211 911.1449584961 C 906.2687988281 918.3012084961 873 957.2539672852 873 1003 C 873 1048.7459716797 906.2687988281 1087.6987304688 951.4515991211 1094.8549804688"/></g><g style="fill: rgb(0,0,255); fill-opacity: 1.0; stroke: none" transform="matrix(0.0708661418,0,0,0.0708661418,17.7165354375,17.7165354375)" ><path d="M 980.5484008789 1094.8549804688 C 1025.7312011719 1087.6987304688 1059 1048.7459716797 1059 1003 C 1059 957.2539672852 1025.7312011719 918.3012084961 980.5484008789 911.1449584961"/></g><rect x="536" y="193" width="37" height="37" style="fill: rgb(0,0,255); fill-opacity: 1.0" transform="matrix(0.0708661418,0,0,0.0708661418,17.7165354375,17.7165354375)" /><rect x="536" y="193" width="37" height="37" style="fill: rgb(0,0,255); fill-opacity: 1.0" transform="matrix(0.0708661418,0,0,0.0708661418,17.7165354375,17.7165354375)" /><rect x="536" y="193" width="37" height="37" style="fill: rgb(0,0,255); fill-opacity: 1.0" transform="matrix(0.0708661418,0,0,0.0708661418,17.7165354375,17.7165354375)" /><rect x="536" y="193" width="37" height="37" style="fill: rgb(0,0,255); fill-opacity: 1.0" transform="matrix(0.0708661418,0,0,0.0708661418,17.7165354375,17.7165354375)" /><rect x="536" y="193" width="37" height="37" style="fill: rgb(0,0,255); fill-opacity: 1.0" transform="matrix(0.0708661418,0,0,0.0708661418,17.7165354375,17.7165354375)" /><rect x="536" y="193" width="37" height="37" style="fill: rgb(0,0,255); fill-opacity: 1.0" transform="matrix(0.0708661418,0,0,0.0708661418,17.7165354375,17.7165354375)" /><rect x="536" y="193" width="37" height="37" style="fill: rgb(0,0,255); fill-opacity: 1.0" transform="matrix(0.0708661418,0,0,0.0708661418,17.7165354375,17.7165354375)" /><rect x="536" y="193" width="37" height="37" style="fill: rgb(0,0,255); fill-opacity: 1.0" transform="matrix(0.0708661418,0,0,0.0708661418,17.7165354375,17.7165354375)" /><rect x="536" y="193" width="154" height="37" style="fill: rgb(0,0,255); fill-opacity: 1.0" transform="matrix(0.0708661418,0,0,0.0708661418,17.7165354375,17.7165354375)" /><rect x="653" y="193" width="37" height="37" style="fill: rgb(0,0,255); fill-opacity: 1.0" transform="matrix(0.0708661418,0,0,0.0708661418,17.7165354375,17.7165354375)" /><rect x="653" y="193" width="37" height="37" style="fill: rgb(0,0,255); fill-opacity: 1.0" transform="matrix(0.0708661418,0,0,0.0708661418,17.7165354375,17.7165354375)" /><rect x="653" y="193" width="37" height="37" style="fill: rgb(0,0,255); fill-opacity: 1.0" transform="matrix(0.0708661418,0,0,0.0708661418,17.7165354375,17.7165354375)" /><rect x="653" y="193" width="37" height="37" style="fill: rgb(0,0,255); fill-opacity: 1.0" transform="matrix(0.0708661418,0,0,0.0708661418,17.7165354375,17.7165354375)" /><rect x="653" y="193" width="37" height="37" style="fill: rgb(0,0,255); fill-opacity: 1.0" transform="matrix(0.0708661418,0,0,0.0708661418,17.7165354375,17.7165354375)" /><rect x="653" y="193" width="37" height="37" style="fill: rgb(0,0,255); fill-opacity: 1.0" transform="matrix(0.0708661418,0,0,0.0708661418,17.7165354375,17.7165354375)" /><rect x="653" y="193" width="37" height="37" style="fill: rgb(0,0,255); fill-opacity: 1.0" transform="matrix(0.0708661418,0,0,0.0708661418,17.7165354375,17.7165354375)" /><rect x="653" y="193" width="37" height="37" style="fill: rgb(0,0,255); fill-opacity: 1.0" transform="matrix(0.0708661418,0,0,0.0708661418,17.7165354375,17.7165354375)" /><rect x="294" y="568" width="37" height="37" style="fill: rgb(0,0,255); fill-opacity: 1.0" transform="matrix(0.0708661418,0,0,0.0708661418,17.7165354375,17.7165354375)" /><rect x="294" y="568" width="37" height="37" style="fill: rgb(0,0,255); fill-opacity: 1.0" transform="matrix(0.0708661418,0,0,0.0708661418,17.7165354375,17.7165354375)" /><rect x="294" y="568" width="37" height="37" style="fill: rgb(0,0,255); fill-opacity: 1.0" transform="matrix(0.0708661418,0,0,0.0708661418,17.7165354375,17.7165354375)" /><rect x="294" y="568" width="37" height="37" style="fill: rgb(0,0,255); fill-opacity: 1.0" transform="matrix(0.0708661418,0,0,0.0708661418,17.7165354375,17.7165354375)" /><rect x="294" y="568" width="37" height="37" style="fill: rgb(0,0,255); fill-opacity: 1.0" transform="matrix(0.0708661418,0,0,0.0708661418,17.7165354375,17.7165354375)" /><rect x="294" y="568" width="37" height="37" style="fill: rgb(0,0,255); fill-opacity: 1.0" transform="matrix(0.0708661418,0,0,0.0708661418,17.7165354375,17.7165354375)" /><rect x="294" y="568" width="37" height="37" style="fill: rgb(0,0,255); fill-opacity: 1.0" transform="matrix(0.0708661418,0,0,0.0708661418,17.7165354375,17.7165354375)" /><rect x="294" y="568" width="37" height="37" style="fill: rgb(0,0,255); fill-opacity: 1.0" transform="matrix(0.0708661418,0,0,0.0708661418,17.7165354375,17.7165354375)" /><rect x="294" y="568" width="396" height="37" style="fill: rgb(0,0,255); fill-opacity: 1.0" transform="matrix(0.0708661418,0,0,0.0708661418,17.7165354375,17.7165354375)" /><rect x="653" y="568" width="37" height="37" style="fill: rgb(0,0,255); fill-opacity: 1.0" transform="matrix(0.0708661418,0,0,0.0708661418,17.7165354375,17.7165354375)" /><rect x="653" y="568" width="37" height="37" style="fill: rgb(0,0,255); fill-opacity: 1.0" transform="matrix(0.0708661418,0,0,0.0708661418,17.7165354375,17.7165354375)" /><rect x="653" y="568" width="37" height="37" style="fill: rgb(0,0,255); fill-opacity: 1.0" transform="matrix(0.0708661418,0,0,0.0708661418,17.7165354375,17.7165354375)" /><rect x="653" y="568" width="37" height="37" style="fill: rgb(0,0,255); fill-opacity: 1.0" transform="matrix(0.0708661418,0,0,0.0708661418,17.7165354375,17.7165354375)" /><rect x="653" y="568" width="37" height="37" style="fill: rgb(0,0,255); fill-opacity: 1.0" transform="matrix(0.0708661418,0,0,0.0708661418,17.7165354375,17.7165354375)" /><rect x="653" y="568" width="37" height="37" style="fill: rgb(0,0,255); fill-opacity: 1.0" transform="matrix(0.0708661418,0,0,0.0708661418,17.7165354375,17.7165354375)" /><rect x="653" y="568" width="37" height="37" style="fill: rgb(0,0,255); fill-opacity: 1.0" transform="matrix(0.0708661418,0,0,0.0708661418,17.7165354375,17.7165354375)" /><rect x="653" y="568" width="37" height="37" style="fill: rgb(0,0,255); fill-opacity: 1.0" transform="matrix(0.0708661418,0,0,0.0708661418,17.7165354375,17.7165354375)" /><rect x="536" y="985" width="37" height="37" style="fill: rgb(0,0,255); fill-opacity: 1.0" transform="matrix(0.0708661418,0,0,0.0708661418,17.7165354375,17.7165354375)" /><rect x="536" y="985" width="37" height="37" style="fill: rgb(0,0,255); fill-opacity: 1.0" transform="matrix(0.0708661418,0,0,0.0708661418,17.7165354375,17.7165354375)" /><rect x="536" y="985" width="37" height="37" style="fill: rgb(0,0,255); fill-opacity: 1.0" transform="matrix(0.0708661418,0,0,0.0708661418,17.7165354375,17.7165354375)" /><rect x="536" y="985" width="37" height="37" style="fill: rgb(0,0,255); fill-opacity: 1.0" transform="matrix(0.0708661418,0,0,0.0708661418,17.7165354375,17.7165354375)" /><rect x="536" y="985" width="37" height="37" style="fill: rgb(0,0,255); fill-opacity: 1.0" transform="matrix(0.0708661418,0,0,0.0708661418,17.7165354375,17.7165354375)" /><rect x="536" y="985" width="37" height="37" style="fill: rgb(0,0,255); fill-opacity: 1.0" transform="matrix(0.0708661418,0,0,0.0708661418,17.7165354375,17.7165354375)" /><rect x="536" y="985" width="37" height="37" style="fill: rgb(0,0,255); fill-opacity: 1.0" transform="matrix(0.0708661418,0,0,0.0708661418,17.7165354375,17.7165354375)" /><rect x="536" y="985" width="37" height="37" style="fill: rgb(0,0,255); fill-opacity: 1.0" transform="matrix(0.0708661418,0,0,0.0708661418,17.7165354375,17.7165354375)" /><rect x="536" y="985" width="356" height="37" style="fill: rgb(0,0,255); fill-opacity: 1.0" transform="matrix(0.0708661418,0,0,0.0708661418,17.7165354375,17.7165354375)" /><rect x="855" y="985" width="37" height="37" style="fill: rgb(0,0,255); fill-opacity: 1.0" transform="matrix(0.0708661418,0,0,0.0708661418,17.7165354375,17.7165354375)" /><rect x="855" y="985" width="37" height="37" style="fill: rgb(0,0,255); fill-opacity: 1.0" transform="matrix(0.0708661418,0,0,0.0708661418,17.7165354375,17.7165354375)" /><rect x="855" y="985" width="37" height="37" style="fill: rgb(0,0,255); fill-opacity: 1.0" transform="matrix(0.0708661418,0,0,0.0708661418,17.7165354375,17.7165354375)" /><rect x="855" y="985" width="37" height="37" style="fill: rgb(0,0,255); fill-opacity: 1.0" transform="matrix(0.0708661418,0,0,0.0708661418,17.7165354375,17.7165354375)" /><rect x="855" y="985" width="37" height="37" style="fill: rgb(0,0,255); fill-opacity: 1.0" transform="matrix(0.0708661418,0,0,0.0708661418,17.7165354375,17.7165354375)" /><rect x="855" y="985" width="37" height="37" style="fill: rgb(0,0,255); fill-opacity: 1.0" transform="matrix(0.0708661418,0,0,0.0708661418,17.7165354375,17.7165354375)" /><rect x="855" y="985" width="37" height="37" style="fill: rgb(0,0,255); fill-opacity: 1.0" transform="matrix(0.0708661418,0,0,0.0708661418,17.7165354375,17.7165354375)" /><rect x="855" y="985" width="37" height="37" style="fill: rgb(0,0,255); fill-opacity: 1.0" transform="matrix(0.0708661418,0,0,0.0708661418,17.7165354375,17.7165354375)" /><rect x="1315" y="566" width="37" height="37" style="fill: rgb(0,0,255); fill-opacity: 1.0" transform="matrix(0.0708661418,0,0,0.0708661418,17.7165354375,17.7165354375)" /><rect x="1315" y="566" width="37" height="37" style="fill: rgb(0,0,255); fill-opacity: 1.0" transform="matrix(0.0708661418,0,0,0.0708661418,17.7165354375,17.7165354375)" /><rect x="1315" y="566" width="37" height="37" style="fill: rgb(0,0,255); fill-opacity: 1.0" transform="matrix(0.0708661418,0,0,0.0708661418,17.7165354375,17.7165354375)" /><rect x="1315" y="566" width="37" height="37" style="fill: rgb(0,0,255); fill-opacity: 1.0" transform="matrix(0.0708661418,0,0,0.0708661418,17.7165354375,17.7165354375)" /><rect x="1315" y="566" width="37" height="37" style="fill: rgb(0,0,255); fill-opacity: 1.0" transform="matrix(0.0708661418,0,0,0.0708661418,17.7165354375,17.7165354375)" /><rect x="1315" y="566" width="37" height="37" style="fill: rgb(0,0,255); fill-opacity: 1.0" transform="matrix(0.0708661418,0,0,0.0708661418,17.7165354375,17.7165354375)" /><rect x="1315" y="566" width="37" height="37" style="fill: rgb(0,0,255); fill-opacity: 1.0" transform="matrix(0.0708661418,0,0,0.0708661418,17.7165354375,17.7165354375)" /><rect x="1315" y="566" width="37" height="37" style="fill: rgb(0,0,255); fill-opacity: 1.0" transform="matrix(0.0708661418,0,0,0.0708661418,17.7165354375,17.7165354375)" /><rect x="1315" y="566" width="476" height="37" style="fill: rgb(0,0,255); fill-opacity: 1.0" transform="matrix(0.0708661418,0,0,0.0708661418,17.7165354375,17.7165354375)" /><rect x="1754" y="566" width="37" height="37" style="fill: rgb(0,0,255); fill-opacity: 1.0" transform="matrix(0.0708661418,0,0,0.0708661418,17.7165354375,17.7165354375)" /><rect x="1754" y="566" width="37" height="37" style="fill: rgb(0,0,255); fill-opacity: 1.0" transform="matrix(0.0708661418,0,0,0.0708661418,17.7165354375,17.7165354375)" /><rect x="1754" y="566" width="37" height="37" style="fill: rgb(0,0,255); fill-opacity: 1.0" transform="matrix(0.0708661418,0,0,0.0708661418,17.7165354375,17.7165354375)" /><rect x="1754" y="566" width="37" height="37" style="fill: rgb(0,0,255); fill-opacity: 1.0" transform="matrix(0.0708661418,0,0,0.0708661418,17.7165354375,17.7165354375)" /><rect x="1754" y="566" width="37" height="37" style="fill: rgb(0,0,255); fill-opacity: 1.0" transform="matrix(0.0708661418,0,0,0.0708661418,17.7165354375,17.7165354375)" /><rect x="1754" y="566" width="37" height="37" style="fill: rgb(0,0,255); fill-opacity: 1.0" transform="matrix(0.0708661418,0,0,0.0708661418,17.7165354375,17.7165354375)" /><rect x="1754" y="566" width="37" height="37" style="fill: rgb(0,0,255); fill-opacity: 1.0" transform="matrix(0.0708661418,0,0,0.0708661418,17.7165354375,17.7165354375)" /><rect x="1754" y="566" width="37" height="37" style="fill: rgb(0,0,255); fill-opacity: 1.0" transform="matrix(0.0708661418,0,0,0.0708661418,17.7165354375,17.7165354375)" /><rect x="927" y="380" width="37" height="37" style="fill: rgb(0,0,255); fill-opacity: 1.0" transform="matrix(0.0708661418,0,0,0.0708661418,17.7165354375,17.7165354375)" /><rect x="927" y="380" width="37" height="37" style="fill: rgb(0,0,255); fill-opacity: 1.0" transform="matrix(0.0708661418,0,0,0.0708661418,17.7165354375,17.7165354375)" /><rect x="927" y="380" width="37" height="37" style="fill: rgb(0,0,255); fill-opacity: 1.0" transform="matrix(0.0708661418,0,0,0.0708661418,17.7165354375,17.7165354375)" /><rect x="927" y="380" width="37" height="37" style="fill: rgb(0,0,255); fill-opacity: 1.0" transform="matrix(0.0708661418,0,0,0.0708661418,17.7165354375,17.7165354375)" /><rect x="927" y="380" width="37" height="37" style="fill: rgb(0,0,255); fill-opacity: 1.0" transform="matrix(0.0708661418,0,0,0.0708661418,17.7165354375,17.7165354375)" /><rect x="927" y="380" width="37" height="37" style="fill: rgb(0,0,255); fill-opacity: 1.0" transform="matrix(0.0708661418,0,0,0.0708661418,17.7165354375,17.7165354375)" /><rect x="927" y="380" width="113" height="37" style="fill: rgb(0,0,255); fill-opacity: 1.0" transform="matrix(0.0708661418,0,0,0.0708661418,17.7165354375,17.7165354375)" /><rect x="1003" y="380" width="37" height="37" style="fill: rgb(0,0,255); fill-opacity: 1.0" transform="matrix(0.0708661418,0,0,0.0708661418,17.7165354375,17.7165354375)" /><rect x="1003" y="380" width="37" height="37" style="fill: rgb(0,0,255); fill-opacity: 1.0" transform="matrix(0.0708661418,0,0,0.0708661418,17.7165354375,17.7165354375)" /><rect x="1003" y="380" width="37" height="37" style="fill: rgb(0,0,255); fill-opacity: 1.0" transform="matrix(0.0708661418,0,0,0.0708661418,17.7165354375,17.7165354375)" /><rect x="1003" y="380" width="37" height="37" style="fill: rgb(0,0,255); fill-opacity: 1.0" transform="matrix(0.0708661418,0,0,0.0708661418,17.7165354375,17.7165354375)" /><rect x="1003" y="380" width="37" height="37" style="fill: rgb(0,0,255); fill-opacity: 1.0" transform="matrix(0.0708661418,0,0,0.0708661418,17.7165354375,17.7165354375)" /><rect x="1003" y="380" width="37" height="37" style="fill: rgb(0,0,255); fill-opacity: 1.0" transform="matrix(0.0708661418,0,0,0.0708661418,17.7165354375,17.7165354375)" /><rect x="1003" y="380" width="37" height="37" style="fill: rgb(0,0,255); fill-opacity: 1.0" transform="matrix(0.0708661418,0,0,0.0708661418,17.7165354375,17.7165354375)" /><rect x="1003" y="380" width="37" height="37" style="fill: rgb(0,0,255); fill-opacity: 1.0" transform="matrix(0.0708661418,0,0,0.0708661418,17.7165354375,17.7165354375)" /><rect x="1003" y="380" width="37" height="37" style="fill: rgb(0,0,255); fill-opacity: 1.0" transform="matrix(0.0708661418,0,0,0.0708661418,17.7165354375,17.7165354375)" /><rect x="1003" y="380" width="37" height="37" style="fill: rgb(0,0,255); fill-opacity: 1.0" transform="matrix(0.0708661418,0,0,0.0708661418,17.7165354375,17.7165354375)" /><rect x="1003" y="380" width="37" height="37" style="fill: rgb(0,0,255); fill-opacity: 1.0" transform="matrix(0.0708661418,0,0,0.0708661418,17.7165354375,17.7165354375)" /><rect x="1003" y="380" width="37" height="37" style="fill: rgb(0,0,255); fill-opacity: 1.0" transform="matrix(0.0708661418,0,0,0.0708661418,17.7165354375,17.7165354375)" /><rect x="1003" y="379" width="37" height="38" style="fill: rgb(0,0,255); fill-opacity: 1.0" transform="matrix(0.0708661418,0,0,0.0708661418,17.7165354375,17.7165354375)" /><rect x="1003" y="379" width="37" height="37" style="fill: rgb(0,0,255); fill-opacity: 1.0" transform="matrix(0.0708661418,0,0,0.0708661418,17.7165354375,17.7165354375)" /><rect x="1003" y="379" width="37" height="37" style="fill: rgb(0,0,255); fill-opacity: 1.0" transform="matrix(0.0708661418,0,0,0.0708661418,17.7165354375,17.7165354375)" /><rect x="1003" y="379" width="37" height="37" style="fill: rgb(0,0,255); fill-opacity: 1.0" transform="matrix(0.0708661418,0,0,0.0708661418,17.7165354375,17.7165354375)" /><rect x="1003" y="379" width="37" height="37" style="fill: rgb(0,0,255); fill-opacity: 1.0" transform="matrix(0.0708661418,0,0,0.0708661418,17.7165354375,17.7165354375)" /><rect x="1003" y="379" width="37" height="37" style="fill: rgb(0,0,255); fill-opacity: 1.0" transform="matrix(0.0708661418,0,0,0.0708661418,17.7165354375,17.7165354375)" /><rect x="1003" y="379" width="37" height="37" style="fill: rgb(0,0,255); fill-opacity: 1.0" transform="matrix(0.0708661418,0,0,0.0708661418,17.7165354375,17.7165354375)" /><rect x="1003" y="379" width="37" height="37" style="fill: rgb(0,0,255); fill-opacity: 1.0" transform="matrix(0.0708661418,0,0,0.0708661418,17.7165354375,17.7165354375)" /><rect x="1003" y="379" width="37" height="37" style="fill: rgb(0,0,255); fill-opacity: 1.0" transform="matrix(0.0708661418,0,0,0.0708661418,17.7165354375,17.7165354375)" /><rect x="1003" y="379" width="37" height="37" style="fill: rgb(0,0,255); fill-opacity: 1.0" transform="matrix(0.0708661418,0,0,0.0708661418,17.7165354375,17.7165354375)" /><rect x="1003" y="379" width="37" height="37" style="fill: rgb(0,0,255); fill-opacity: 1.0" transform="matrix(0.0708661418,0,0,0.0708661418,17.7165354375,17.7165354375)" /><rect x="1003" y="379" width="37" height="37" style="fill: rgb(0,0,255); fill-opacity: 1.0" transform="matrix(0.0708661418,0,0,0.0708661418,17.7165354375,17.7165354375)" /><rect x="1003" y="379" width="37" height="37" style="fill: rgb(0,0,255); fill-opacity: 1.0" transform="matrix(0.0708661418,0,0,0.0708661418,17.7165354375,17.7165354375)" /><rect x="1003" y="379" width="75" height="37" style="fill: rgb(0,0,255); fill-opacity: 1.0" transform="matrix(0.0708661418,0,0,0.0708661418,17.7165354375,17.7165354375)" /><rect x="1041" y="379" width="37" height="37" style="fill: rgb(0,0,255); fill-opacity: 1.0" transform="matrix(0.0708661418,0,0,0.0708661418,17.7165354375,17.7165354375)" /><rect x="1041" y="379" width="37" height="37" style="fill: rgb(0,0,255); fill-opacity: 1.0" transform="matrix(0.0708661418,0,0,0.0708661418,17.7165354375,17.7165354375)" /><rect x="1041" y="379" width="37" height="37" style="fill: rgb(0,0,255); fill-opacity: 1.0" transform="matrix(0.0708661418,0,0,0.0708661418,17.7165354375,17.7165354375)" /><rect x="1041" y="379" width="37" height="37" style="fill: rgb(0,0,255); fill-opacity: 1.0" transform="matrix(0.0708661418,0,0,0.0708661418,17.7165354375,17.7165354375)" /><rect x="1041" y="379" width="37" height="37" style="fill: rgb(0,0,255); fill-opacity: 1.0" transform="matrix(0.0708661418,0,0,0.0708661418,17.7165354375,17.7165354375)" /><rect x="1041" y="379" width="37" height="37" style="fill: rgb(0,0,255); fill-opacity: 1.0" transform="matrix(0.0708661418,0,0,0.0708661418,17.7165354375,17.7165354375)" /><rect x="1041" y="985" width="37" height="37" style="fill: rgb(0,0,255); fill-opacity: 1.0" transform="matrix(0.0708661418,0,0,0.0708661418,17.7165354375,17.7165354375)" /><rect x="1041" y="985" width="37" height="37" style="fill: rgb(0,0,255); fill-opacity: 1.0" transform="matrix(0.0708661418,0,0,0.0708661418,17.7165354375,17.7165354375)" /><rect x="1041" y="985" width="37" height="37" style="fill: rgb(0,0,255); fill-opacity: 1.0" transform="matrix(0.0708661418,0,0,0.0708661418,17.7165354375,17.7165354375)" /><rect x="1041" y="985" width="37" height="37" style="fill: rgb(0,0,255); fill-opacity: 1.0" transform="matrix(0.0708661418,0,0,0.0708661418,17.7165354375,17.7165354375)" /><rect x="1041" y="985" width="37" height="37" style="fill: rgb(0,0,255); fill-opacity: 1.0" transform="matrix(0.0708661418,0,0,0.0708661418,17.7165354375,17.7165354375)" /><rect x="1041" y="985" width="37" height="37" style="fill: rgb(0,0,255); fill-opacity: 1.0" transform="matrix(0.0708661418,0,0,0.0708661418,17.7165354375,17.7165354375)" /><rect x="1041" y="815" width="37" height="207" style="fill: rgb(0,0,255); fill-opacity: 1.0" transform="matrix(0.0708661418,0,0,0.0708661418,17.7165354375,17.7165354375)" /><rect x="1041" y="815" width="37" height="37" style="fill: rgb(0,0,255); fill-opacity: 1.0" transform="matrix(0.0708661418,0,0,0.0708661418,17.7165354375,17.7165354375)" /><rect x="1041" y="815" width="37" height="37" style="fill: rgb(0,0,255); fill-opacity: 1.0" transform="matrix(0.0708661418,0,0,0.0708661418,17.7165354375,17.7165354375)" /><rect x="1041" y="815" width="37" height="37" style="fill: rgb(0,0,255); fill-opacity: 1.0" transform="matrix(0.0708661418,0,0,0.0708661418,17.7165354375,17.7165354375)" /><rect x="1041" y="815" width="37" height="37" style="fill: rgb(0,0,255); fill-opacity: 1.0" transform="matrix(0.0708661418,0,0,0.0708661418,17.7165354375,17.7165354375)" /><rect x="1041" y="815" width="37" height="37" style="fill: rgb(0,0,255); fill-opacity: 1.0" transform="matrix(0.0708661418,0,0,0.0708661418,17.7165354375,17.7165354375)" /><rect x="1041" y="815" width="37" height="37" style="fill: rgb(0,0,255); fill-opacity: 1.0" transform="matrix(0.0708661418,0,0,0.0708661418,17.7165354375,17.7165354375)" /><rect x="1041" y="815" width="37" height="37" style="fill: rgb(0,0,255); fill-opacity: 1.0" transform="matrix(0.0708661418,0,0,0.0708661418,17.7165354375,17.7165354375)" /><rect x="1041" y="815" width="37" height="37" style="fill: rgb(0,0,255); fill-opacity: 1.0" transform="matrix(0.0708661418,0,0,0.0708661418,17.7165354375,17.7165354375)" /><rect x="1041" y="815" width="37" height="37" style="fill: rgb(0,0,255); fill-opacity: 1.0" transform="matrix(0.0708661418,0,0,0.0708661418,17.7165354375,17.7165354375)" /><rect x="1041" y="815" width="37" height="37" style="fill: rgb(0,0,255); fill-opacity: 1.0" transform="matrix(0.0708661418,0,0,0.0708661418,17.7165354375,17.7165354375)" /><rect x="1041" y="815" width="37" height="37" style="fill: rgb(0,0,255); fill-opacity: 1.0" transform="matrix(0.0708661418,0,0,0.0708661418,17.7165354375,17.7165354375)" /><rect x="1041" y="815" width="37" height="37" style="fill: rgb(0,0,255); fill-opacity: 1.0" transform="matrix(0.0708661418,0,0,0.0708661418,17.7165354375,17.7165354375)" /><rect x="1040" y="815" width="38" height="37" style="fill: rgb(0,0,255); fill-opacity: 1.0" transform="matrix(0.0708661418,0,0,0.0708661418,17.7165354375,17.7165354375)" /><rect x="1040" y="815" width="37" height="37" style="fill: rgb(0,0,255); fill-opacity: 1.0" transform="matrix(0.0708661418,0,0,0.0708661418,17.7165354375,17.7165354375)" /><rect x="1040" y="815" width="37" height="37" style="fill: rgb(0,0,255); fill-opacity: 1.0" transform="matrix(0.0708661418,0,0,0.0708661418,17.7165354375,17.7165354375)" /><rect x="1040" y="815" width="37" height="37" style="fill: rgb(0,0,255); fill-opacity: 1.0" transform="matrix(0.0708661418,0,0,0.0708661418,17.7165354375,17.7165354375)" /><rect x="1040" y="815" width="37" height="37" style="fill: rgb(0,0,255); fill-opacity: 1.0" transform="matrix(0.0708661418,0,0,0.0708661418,17.7165354375,17.7165354375)" /><rect x="1040" y="815" width="37" height="37" style="fill: rgb(0,0,255); fill-opacity: 1.0" transform="matrix(0.0708661418,0,0,0.0708661418,17.7165354375,17.7165354375)" /><rect x="1040" y="815" width="37" height="37" style="fill: rgb(0,0,255); fill-opacity: 1.0" transform="matrix(0.0708661418,0,0,0.0708661418,17.7165354375,17.7165354375)" /><rect x="1040" y="815" width="37" height="37" style="fill: rgb(0,0,255); fill-opacity: 1.0" transform="matrix(0.0708661418,0,0,0.0708661418,17.7165354375,17.7165354375)" /><rect x="1040" y="815" width="37" height="37" style="fill: rgb(0,0,255); fill-opacity: 1.0" transform="matrix(0.0708661418,0,0,0.0708661418,17.7165354375,17.7165354375)" /><rect x="1040" y="815" width="37" height="37" style="fill: rgb(0,0,255); fill-opacity: 1.0" transform="matrix(0.0708661418,0,0,0.0708661418,17.7165354375,17.7165354375)" /><rect x="1040" y="815" width="37" height="37" style="fill: rgb(0,0,255); fill-opacity: 1.0" transform="matrix(0.0708661418,0,0,0.0708661418,17.7165354375,17.7165354375)" /><rect x="1040" y="815" width="37" height="37" style="fill: rgb(0,0,255); fill-opacity: 1.0" transform="matrix(0.0708661418,0,0,0.0708661418,17.7165354375,17.7165354375)" /><rect x="1040" y="815" width="37" height="37" style="fill: rgb(0,0,255); fill-opacity: 1.0" transform="matrix(0.0708661418,0,0,0.0708661418,17.7165354375,17.7165354375)" /><rect x="1040" y="754" width="37" height="98" style="fill: rgb(0,0,255); fill-opacity: 1.0" transform="matrix(0.0708661418,0,0,0.0708661418,17.7165354375,17.7165354375)" /><rect x="1040" y="754" width="37" height="37" style="fill: rgb(0,0,255); fill-opacity: 1.0" transform="matrix(0.0708661418,0,0,0.0708661418,17.7165354375,17.7165354375)" /><rect x="1040" y="754" width="37" height="37" style="fill: rgb(0,0,255); fill-opacity: 1.0" transform="matrix(0.0708661418,0,0,0.0708661418,17.7165354375,17.7165354375)" /><rect x="1040" y="754" width="37" height="37" style="fill: rgb(0,0,255); fill-opacity: 1.0" transform="matrix(0.0708661418,0,0,0.0708661418,17.7165354375,17.7165354375)" /><rect x="1040" y="754" width="37" height="37" style="fill: rgb(0,0,255); fill-opacity: 1.0" transform="matrix(0.0708661418,0,0,0.0708661418,17.7165354375,17.7165354375)" /><rect x="1040" y="754" width="37" height="37" style="fill: rgb(0,0,255); fill-opacity: 1.0" transform="matrix(0.0708661418,0,0,0.0708661418,17.7165354375,17.7165354375)" /><rect x="1040" y="754" width="37" height="37" style="fill: rgb(0,0,255); fill-opacity: 1.0" transform="matrix(0.0708661418,0,0,0.0708661418,17.7165354375,17.7165354375)" /><rect x="1040" y="754" width="37" height="37" style="fill: rgb(0,0,255); fill-opacity: 1.0" transform="matrix(0.0708661418,0,0,0.0708661418,17.7165354375,17.7165354375)" /><rect x="1040" y="754" width="37" height="37" style="fill: rgb(0,0,255); fill-opacity: 1.0" transform="matrix(0.0708661418,0,0,0.0708661418,17.7165354375,17.7165354375)" /><rect x="1040" y="754" width="37" height="37" style="fill: rgb(0,0,255); fill-opacity: 1.0" transform="matrix(0.0708661418,0,0,0.0708661418,17.7165354375,17.7165354375)" /><rect x="1040" y="754" width="37" height="37" style="fill: rgb(0,0,255); fill-opacity: 1.0" transform="matrix(0.0708661418,0,0,0.0708661418,17.7165354375,17.7165354375)" /><rect x="1040" y="754" width="37" height="37" style="fill: rgb(0,0,255); fill-opacity: 1.0" transform="matrix(0.0708661418,0,0,0.0708661418,17.7165354375,17.7165354375)" /><rect x="1040" y="754" width="37" height="37" style="fill: rgb(0,0,255); fill-opacity: 1.0" transform="matrix(0.0708661418,0,0,0.0708661418,17.7165354375,17.7165354375)" /><rect x="1040" y="754" width="38" height="37" style="fill: rgb(0,0,255); fill-opacity: 1.0" transform="matrix(0.0708661418,0,0,0.0708661418,17.7165354375,17.7165354375)" /><rect x="1041" y="754" width="37" height="37" style="fill: rgb(0,0,255); fill-opacity: 1.0" transform="matrix(0.0708661418,0,0,0.0708661418,17.7165354375,17.7165354375)" /><rect x="1041" y="754" width="37" height="37" style="fill: rgb(0,0,255); fill-opacity: 1.0" transform="matrix(0.0708661418,0,0,0.0708661418,17.7165354375,17.7165354375)" /><rect x="1041" y="754" width="37" height="37" style="fill: rgb(0,0,255); fill-opacity: 1.0" transform="matrix(0.0708661418,0,0,0.0708661418,17.7165354375,17.7165354375)" /><rect x="1041" y="754" width="37" height="37" style="fill: rgb(0,0,255); fill-opacity: 1.0" transform="matrix(0.0708661418,0,0,0.0708661418,17.7165354375,17.7165354375)" /><rect x="1041" y="754" width="37" height="37" style="fill: rgb(0,0,255); fill-opacity: 1.0" transform="matrix(0.0708661418,0,0,0.0708661418,17.7165354375,17.7165354375)" /><rect x="1041" y="754" width="37" height="37" style="fill: rgb(0,0,255); fill-opacity: 1.0" transform="matrix(0.0708661418,0,0,0.0708661418,17.7165354375,17.7165354375)" /></svg>
