<?xml version="1.0"?>
<!DOCTYPE svg PUBLIC "-//W3C//DTD SVG 1.0//EN" "http://www.w3.org/TR/2001/REC-SVG-20010904/DTD/svg10.dtd">
<svg xmlns="http://www.w3.org/2000/svg" xmlns:xlink="http://www.w3.org/1999/xlink" xmlns:jfreesvg="http://www.jfree.org/jfreesvg/svg" width="212" height="194" text-rendering="auto" shape-rendering="auto">
<defs></defs>
<line x1="0" y1="0" x2="59699" y2="0" style="stroke-width: 100.0;stroke: rgb(0,0,0);stroke-opacity: 1.0;stroke-linecap: round;stroke-linejoin: round;" transform="matrix(-0.0035433071,0,0,0.0035433071,212,0)" /><line x1="59700" y1="0" x2="59700" y2="54519" style="stroke-width: 100.0;stroke: rgb(0,0,0);stroke-opacity: 1.0;stroke-linecap: round;stroke-linejoin: round;" transform="matrix(-0.0035433071,0,0,0.0035433071,212,0)" /><line x1="59700" y1="54520" x2="1" y2="54520" style="stroke-width: 100.0;stroke: rgb(0,0,0);stroke-opacity: 1.0;stroke-linecap: round;stroke-linejoin: round;" transform="matrix(-0.0035433071,0,0,0.0035433071,212,0)" /><line x1="0" y1="54520" x2="0" y2="1" style="stroke-width: 100.0;stroke: rgb(0,0,0);stroke-opacity: 1.0;stroke-linecap: round;stroke-linejoin: round;" transform="matrix(-0.0035433071,0,0,0.0035433071,212,0)" /><ellipse cx="967" cy="1004" rx="93" ry="93" style="fill: rgb(255,0,0); fill-opacity: 1.0" transform="matrix(-0.0708661418,0,0,0.0708661418,194.2834645625,17.7165354375)" /><ellipse cx="967" cy="1615" rx="101" ry="101" style="fill: rgb(255,0,0); fill-opacity: 1.0" transform="matrix(-0.0708661418,0,0,0.0708661418,194.2834645625,17.7165354375)" /><rect x="949" y="1496" width="37" height="37" style="fill: rgb(255,0,0); fill-opacity: 1.0" transform="matrix(-0.0708661418,0,0,0.0708661418,194.2834645625,17.7165354375)" /><rect x="949" y="1496" width="37" height="37" style="fill: rgb(255,0,0); fill-opacity: 1.0" transform="matrix(-0.0708661418,0,0,0.0708661418,194.2834645625,17.7165354375)" /><rect x="949" y="1496" width="37" height="37" style="fill: rgb(255,0,0); fill-opacity: 1.0" transform="matrix(-0.0708661418,0,0,0.0708661418,194.2834645625,17.7165354375)" /><rect x="949" y="1496" width="37" height="37" style="fill: rgb(255,0,0); fill-opacity: 1.0" transform="matrix(-0.0708661418,0,0,0.0708661418,194.2834645625,17.7165354375)" /><rect x="949" y="1496" width="37" height="37" style="fill: rgb(255,0,0); fill-opacity: 1.0" transform="matrix(-0.0708661418,0,0,0.0708661418,194.2834645625,17.7165354375)" /><rect x="949" y="1496" width="37" height="37" style="fill: rgb(255,0,0); fill-opacity: 1.0" transform="matrix(-0.0708661418,0,0,0.0708661418,194.2834645625,17.7165354375)" /><rect x="949" y="1496" width="37" height="37" style="fill: rgb(255,0,0); fill-opacity: 1.0" transform="matrix(-0.0708661418,0,0,0.0708661418,194.2834645625,17.7165354375)" /><rect x="949" y="1496" width="37" height="37" style="fill: rgb(255,0,0); fill-opacity: 1.0" transform="matrix(-0.0708661418,0,0,0.0708661418,194.2834645625,17.7165354375)" /><rect x="949" y="1079" width="37" height="454" style="fill: rgb(255,0,0); fill-opacity: 1.0" transform="matrix(-0.0708661418,0,0,0.0708661418,194.2834645625,17.7165354375)" /><rect x="949" y="1079" width="37" height="37" style="fill: rgb(255,0,0); fill-opacity: 1.0" transform="matrix(-0.0708661418,0,0,0.0708661418,194.2834645625,17.7165354375)" /><rect x="949" y="1079" width="37" height="37" style="fill: rgb(255,0,0); fill-opacity: 1.0" transform="matrix(-0.0708661418,0,0,0.0708661418,194.2834645625,17.7165354375)" /><rect x="949" y="1079" width="37" height="37" style="fill: rgb(255,0,0); fill-opacity: 1.0" transform="matrix(-0.0708661418,0,0,0.0708661418,194.2834645625,17.7165354375)" /><rect x="949" y="1079" width="37" height="37" style="fill: rgb(255,0,0); fill-opacity: 1.0" transform="matrix(-0.0708661418,0,0,0.0708661418,194.2834645625,17.7165354375)" /><rect x="949" y="1079" width="37" height="37" style="fill: rgb(255,0,0); fill-opacity: 1.0" transform="matrix(-0.0708661418,0,0,0.0708661418,194.2834645625,17.7165354375)" /><rect x="949" y="1079" width="37" height="37" style="fill: rgb(255,0,0); fill-opacity: 1.0" transform="matrix(-0.0708661418,0,0,0.0708661418,194.2834645625,17.7165354375)" /><rect x="949" y="1079" width="37" height="37" style="fill: rgb(255,0,0); fill-opacity: 1.0" transform="matrix(-0.0708661418,0,0,0.0708661418,194.2834645625,17.7165354375)" /><rect x="949" y="1079" width="37" height="37" style="fill: rgb(255,0,0); fill-opacity: 1.0" transform="matrix(-0.0708661418,0,0,0.0708661418,194.2834645625,17.7165354375)" /></svg>
