<?xml version="1.0"?>
<!DOCTYPE svg PUBLIC "-//W3C//DTD SVG 1.0//EN" "http://www.w3.org/TR/2001/REC-SVG-20010904/DTD/svg10.dtd">
<svg xmlns="http://www.w3.org/2000/svg" xmlns:xlink="http://www.w3.org/1999/xlink" xmlns:jfreesvg="http://www.jfree.org/jfreesvg/svg" width="195" height="181" text-rendering="auto" shape-rendering="auto">
<defs></defs>
<line x1="0" y1="0" x2="54859" y2="0" style="stroke-width: 100.0;stroke: rgb(0,0,0);stroke-opacity: 1.0;stroke-linecap: round;stroke-linejoin: round;" transform="matrix(0.0035433071,0,0,0.0035433071,0,0)" /><line x1="54860" y1="0" x2="54860" y2="50839" style="stroke-width: 100.0;stroke: rgb(0,0,0);stroke-opacity: 1.0;stroke-linecap: round;stroke-linejoin: round;" transform="matrix(0.0035433071,0,0,0.0035433071,0,0)" /><line x1="54860" y1="50840" x2="1" y2="50840" style="stroke-width: 100.0;stroke: rgb(0,0,0);stroke-opacity: 1.0;stroke-linecap: round;stroke-linejoin: round;" transform="matrix(0.0035433071,0,0,0.0035433071,0,0)" /><line x1="0" y1="50840" x2="0" y2="1" style="stroke-width: 100.0;stroke: rgb(0,0,0);stroke-opacity: 1.0;stroke-linecap: round;stroke-linejoin: round;" transform="matrix(0.0035433071,0,0,0.0035433071,0,0)" /><ellipse cx="211" cy="211" rx="101" ry="101" style="fill: rgb(0,0,255); fill-opacity: 1.0" transform="matrix(0.0708661418,0,0,0.0708661418,17.7165354375,17.7165354375)" /><ellipse cx="211" cy="586" rx="101" ry="101" style="fill: rgb(0,0,255); fill-opacity: 1.0" transform="matrix(0.0708661418,0,0,0.0708661418,17.7165354375,17.7165354375)" /><ellipse cx="211" cy="868" rx="101" ry="101" style="fill: rgb(0,0,255); fill-opacity: 1.0" transform="matrix(0.0708661418,0,0,0.0708661418,17.7165354375,17.7165354375)" /><ellipse cx="1632" cy="585" rx="101" ry="101" style="fill: rgb(0,0,255); fill-opacity: 1.0" transform="matrix(0.0708661418,0,0,0.0708661418,17.7165354375,17.7165354375)" /><rect x="436" y="193" width="37" height="37" style="fill: rgb(0,0,255); fill-opacity: 1.0" transform="matrix(0.0708661418,0,0,0.0708661418,17.7165354375,17.7165354375)" /><rect x="436" y="193" width="37" height="37" style="fill: rgb(0,0,255); fill-opacity: 1.0" transform="matrix(0.0708661418,0,0,0.0708661418,17.7165354375,17.7165354375)" /><rect x="436" y="193" width="37" height="37" style="fill: rgb(0,0,255); fill-opacity: 1.0" transform="matrix(0.0708661418,0,0,0.0708661418,17.7165354375,17.7165354375)" /><rect x="436" y="193" width="37" height="37" style="fill: rgb(0,0,255); fill-opacity: 1.0" transform="matrix(0.0708661418,0,0,0.0708661418,17.7165354375,17.7165354375)" /><rect x="436" y="193" width="37" height="37" style="fill: rgb(0,0,255); fill-opacity: 1.0" transform="matrix(0.0708661418,0,0,0.0708661418,17.7165354375,17.7165354375)" /><rect x="436" y="193" width="37" height="37" style="fill: rgb(0,0,255); fill-opacity: 1.0" transform="matrix(0.0708661418,0,0,0.0708661418,17.7165354375,17.7165354375)" /><rect x="436" y="193" width="263" height="37" style="fill: rgb(0,0,255); fill-opacity: 1.0" transform="matrix(0.0708661418,0,0,0.0708661418,17.7165354375,17.7165354375)" /><rect x="662" y="193" width="37" height="37" style="fill: rgb(0,0,255); fill-opacity: 1.0" transform="matrix(0.0708661418,0,0,0.0708661418,17.7165354375,17.7165354375)" /><rect x="662" y="193" width="37" height="37" style="fill: rgb(0,0,255); fill-opacity: 1.0" transform="matrix(0.0708661418,0,0,0.0708661418,17.7165354375,17.7165354375)" /><rect x="662" y="193" width="37" height="37" style="fill: rgb(0,0,255); fill-opacity: 1.0" transform="matrix(0.0708661418,0,0,0.0708661418,17.7165354375,17.7165354375)" /><rect x="662" y="193" width="37" height="37" style="fill: rgb(0,0,255); fill-opacity: 1.0" transform="matrix(0.0708661418,0,0,0.0708661418,17.7165354375,17.7165354375)" /><rect x="662" y="193" width="37" height="37" style="fill: rgb(0,0,255); fill-opacity: 1.0" transform="matrix(0.0708661418,0,0,0.0708661418,17.7165354375,17.7165354375)" /><rect x="662" y="193" width="37" height="37" style="fill: rgb(0,0,255); fill-opacity: 1.0" transform="matrix(0.0708661418,0,0,0.0708661418,17.7165354375,17.7165354375)" /><rect x="436" y="568" width="37" height="37" style="fill: rgb(0,0,255); fill-opacity: 1.0" transform="matrix(0.0708661418,0,0,0.0708661418,17.7165354375,17.7165354375)" /><rect x="436" y="568" width="37" height="37" style="fill: rgb(0,0,255); fill-opacity: 1.0" transform="matrix(0.0708661418,0,0,0.0708661418,17.7165354375,17.7165354375)" /><rect x="436" y="568" width="37" height="37" style="fill: rgb(0,0,255); fill-opacity: 1.0" transform="matrix(0.0708661418,0,0,0.0708661418,17.7165354375,17.7165354375)" /><rect x="436" y="568" width="37" height="37" style="fill: rgb(0,0,255); fill-opacity: 1.0" transform="matrix(0.0708661418,0,0,0.0708661418,17.7165354375,17.7165354375)" /><rect x="436" y="568" width="37" height="37" style="fill: rgb(0,0,255); fill-opacity: 1.0" transform="matrix(0.0708661418,0,0,0.0708661418,17.7165354375,17.7165354375)" /><rect x="436" y="568" width="37" height="37" style="fill: rgb(0,0,255); fill-opacity: 1.0" transform="matrix(0.0708661418,0,0,0.0708661418,17.7165354375,17.7165354375)" /><rect x="436" y="568" width="263" height="37" style="fill: rgb(0,0,255); fill-opacity: 1.0" transform="matrix(0.0708661418,0,0,0.0708661418,17.7165354375,17.7165354375)" /><rect x="662" y="568" width="37" height="37" style="fill: rgb(0,0,255); fill-opacity: 1.0" transform="matrix(0.0708661418,0,0,0.0708661418,17.7165354375,17.7165354375)" /><rect x="662" y="568" width="37" height="37" style="fill: rgb(0,0,255); fill-opacity: 1.0" transform="matrix(0.0708661418,0,0,0.0708661418,17.7165354375,17.7165354375)" /><rect x="662" y="568" width="37" height="37" style="fill: rgb(0,0,255); fill-opacity: 1.0" transform="matrix(0.0708661418,0,0,0.0708661418,17.7165354375,17.7165354375)" /><rect x="662" y="568" width="37" height="37" style="fill: rgb(0,0,255); fill-opacity: 1.0" transform="matrix(0.0708661418,0,0,0.0708661418,17.7165354375,17.7165354375)" /><rect x="662" y="568" width="37" height="37" style="fill: rgb(0,0,255); fill-opacity: 1.0" transform="matrix(0.0708661418,0,0,0.0708661418,17.7165354375,17.7165354375)" /><rect x="662" y="568" width="37" height="37" style="fill: rgb(0,0,255); fill-opacity: 1.0" transform="matrix(0.0708661418,0,0,0.0708661418,17.7165354375,17.7165354375)" /><rect x="662" y="193" width="37" height="37" style="fill: rgb(0,0,255); fill-opacity: 1.0" transform="matrix(0.0708661418,0,0,0.0708661418,17.7165354375,17.7165354375)" /><rect x="662" y="193" width="37" height="37" style="fill: rgb(0,0,255); fill-opacity: 1.0" transform="matrix(0.0708661418,0,0,0.0708661418,17.7165354375,17.7165354375)" /><rect x="662" y="193" width="37" height="37" style="fill: rgb(0,0,255); fill-opacity: 1.0" transform="matrix(0.0708661418,0,0,0.0708661418,17.7165354375,17.7165354375)" /><rect x="662" y="193" width="37" height="37" style="fill: rgb(0,0,255); fill-opacity: 1.0" transform="matrix(0.0708661418,0,0,0.0708661418,17.7165354375,17.7165354375)" /><rect x="662" y="193" width="37" height="37" style="fill: rgb(0,0,255); fill-opacity: 1.0" transform="matrix(0.0708661418,0,0,0.0708661418,17.7165354375,17.7165354375)" /><rect x="662" y="193" width="37" height="37" style="fill: rgb(0,0,255); fill-opacity: 1.0" transform="matrix(0.0708661418,0,0,0.0708661418,17.7165354375,17.7165354375)" /><rect x="662" y="193" width="37" height="224" style="fill: rgb(0,0,255); fill-opacity: 1.0" transform="matrix(0.0708661418,0,0,0.0708661418,17.7165354375,17.7165354375)" /><rect x="662" y="380" width="37" height="37" style="fill: rgb(0,0,255); fill-opacity: 1.0" transform="matrix(0.0708661418,0,0,0.0708661418,17.7165354375,17.7165354375)" /><rect x="662" y="380" width="37" height="37" style="fill: rgb(0,0,255); fill-opacity: 1.0" transform="matrix(0.0708661418,0,0,0.0708661418,17.7165354375,17.7165354375)" /><rect x="662" y="380" width="37" height="37" style="fill: rgb(0,0,255); fill-opacity: 1.0" transform="matrix(0.0708661418,0,0,0.0708661418,17.7165354375,17.7165354375)" /><rect x="662" y="380" width="37" height="37" style="fill: rgb(0,0,255); fill-opacity: 1.0" transform="matrix(0.0708661418,0,0,0.0708661418,17.7165354375,17.7165354375)" /><rect x="662" y="380" width="37" height="37" style="fill: rgb(0,0,255); fill-opacity: 1.0" transform="matrix(0.0708661418,0,0,0.0708661418,17.7165354375,17.7165354375)" /><rect x="662" y="380" width="37" height="37" style="fill: rgb(0,0,255); fill-opacity: 1.0" transform="matrix(0.0708661418,0,0,0.0708661418,17.7165354375,17.7165354375)" /><rect x="662" y="568" width="37" height="37" style="fill: rgb(0,0,255); fill-opacity: 1.0" transform="matrix(0.0708661418,0,0,0.0708661418,17.7165354375,17.7165354375)" /><rect x="662" y="568" width="37" height="37" style="fill: rgb(0,0,255); fill-opacity: 1.0" transform="matrix(0.0708661418,0,0,0.0708661418,17.7165354375,17.7165354375)" /><rect x="662" y="568" width="37" height="37" style="fill: rgb(0,0,255); fill-opacity: 1.0" transform="matrix(0.0708661418,0,0,0.0708661418,17.7165354375,17.7165354375)" /><rect x="662" y="568" width="37" height="37" style="fill: rgb(0,0,255); fill-opacity: 1.0" transform="matrix(0.0708661418,0,0,0.0708661418,17.7165354375,17.7165354375)" /><rect x="662" y="568" width="37" height="37" style="fill: rgb(0,0,255); fill-opacity: 1.0" transform="matrix(0.0708661418,0,0,0.0708661418,17.7165354375,17.7165354375)" /><rect x="662" y="568" width="37" height="37" style="fill: rgb(0,0,255); fill-opacity: 1.0" transform="matrix(0.0708661418,0,0,0.0708661418,17.7165354375,17.7165354375)" /><rect x="662" y="380" width="37" height="225" style="fill: rgb(0,0,255); fill-opacity: 1.0" transform="matrix(0.0708661418,0,0,0.0708661418,17.7165354375,17.7165354375)" /><rect x="662" y="380" width="37" height="37" style="fill: rgb(0,0,255); fill-opacity: 1.0" transform="matrix(0.0708661418,0,0,0.0708661418,17.7165354375,17.7165354375)" /><rect x="662" y="380" width="37" height="37" style="fill: rgb(0,0,255); fill-opacity: 1.0" transform="matrix(0.0708661418,0,0,0.0708661418,17.7165354375,17.7165354375)" /><rect x="662" y="380" width="37" height="37" style="fill: rgb(0,0,255); fill-opacity: 1.0" transform="matrix(0.0708661418,0,0,0.0708661418,17.7165354375,17.7165354375)" /><rect x="662" y="380" width="37" height="37" style="fill: rgb(0,0,255); fill-opacity: 1.0" transform="matrix(0.0708661418,0,0,0.0708661418,17.7165354375,17.7165354375)" /><rect x="662" y="380" width="37" height="37" style="fill: rgb(0,0,255); fill-opacity: 1.0" transform="matrix(0.0708661418,0,0,0.0708661418,17.7165354375,17.7165354375)" /><rect x="662" y="380" width="37" height="37" style="fill: rgb(0,0,255); fill-opacity: 1.0" transform="matrix(0.0708661418,0,0,0.0708661418,17.7165354375,17.7165354375)" /><rect x="436" y="193" width="37" height="37" style="fill: rgb(0,0,255); fill-opacity: 1.0" transform="matrix(0.0708661418,0,0,0.0708661418,17.7165354375,17.7165354375)" /><rect x="436" y="193" width="37" height="37" style="fill: rgb(0,0,255); fill-opacity: 1.0" transform="matrix(0.0708661418,0,0,0.0708661418,17.7165354375,17.7165354375)" /><rect x="436" y="193" width="37" height="37" style="fill: rgb(0,0,255); fill-opacity: 1.0" transform="matrix(0.0708661418,0,0,0.0708661418,17.7165354375,17.7165354375)" /><rect x="436" y="193" width="37" height="37" style="fill: rgb(0,0,255); fill-opacity: 1.0" transform="matrix(0.0708661418,0,0,0.0708661418,17.7165354375,17.7165354375)" /><rect x="436" y="193" width="37" height="37" style="fill: rgb(0,0,255); fill-opacity: 1.0" transform="matrix(0.0708661418,0,0,0.0708661418,17.7165354375,17.7165354375)" /><rect x="436" y="193" width="37" height="37" style="fill: rgb(0,0,255); fill-opacity: 1.0" transform="matrix(0.0708661418,0,0,0.0708661418,17.7165354375,17.7165354375)" /><rect x="412" y="193" width="61" height="37" style="fill: rgb(0,0,255); fill-opacity: 1.0" transform="matrix(0.0708661418,0,0,0.0708661418,17.7165354375,17.7165354375)" /><rect x="412" y="193" width="37" height="37" style="fill: rgb(0,0,255); fill-opacity: 1.0" transform="matrix(0.0708661418,0,0,0.0708661418,17.7165354375,17.7165354375)" /><rect x="412" y="193" width="37" height="37" style="fill: rgb(0,0,255); fill-opacity: 1.0" transform="matrix(0.0708661418,0,0,0.0708661418,17.7165354375,17.7165354375)" /><rect x="412" y="193" width="37" height="37" style="fill: rgb(0,0,255); fill-opacity: 1.0" transform="matrix(0.0708661418,0,0,0.0708661418,17.7165354375,17.7165354375)" /><rect x="412" y="193" width="37" height="37" style="fill: rgb(0,0,255); fill-opacity: 1.0" transform="matrix(0.0708661418,0,0,0.0708661418,17.7165354375,17.7165354375)" /><rect x="412" y="193" width="37" height="37" style="fill: rgb(0,0,255); fill-opacity: 1.0" transform="matrix(0.0708661418,0,0,0.0708661418,17.7165354375,17.7165354375)" /><rect x="412" y="193" width="37" height="37" style="fill: rgb(0,0,255); fill-opacity: 1.0" transform="matrix(0.0708661418,0,0,0.0708661418,17.7165354375,17.7165354375)" /><rect x="436" y="568" width="37" height="37" style="fill: rgb(0,0,255); fill-opacity: 1.0" transform="matrix(0.0708661418,0,0,0.0708661418,17.7165354375,17.7165354375)" /><rect x="436" y="568" width="37" height="37" style="fill: rgb(0,0,255); fill-opacity: 1.0" transform="matrix(0.0708661418,0,0,0.0708661418,17.7165354375,17.7165354375)" /><rect x="436" y="568" width="37" height="37" style="fill: rgb(0,0,255); fill-opacity: 1.0" transform="matrix(0.0708661418,0,0,0.0708661418,17.7165354375,17.7165354375)" /><rect x="436" y="568" width="37" height="37" style="fill: rgb(0,0,255); fill-opacity: 1.0" transform="matrix(0.0708661418,0,0,0.0708661418,17.7165354375,17.7165354375)" /><rect x="436" y="568" width="37" height="37" style="fill: rgb(0,0,255); fill-opacity: 1.0" transform="matrix(0.0708661418,0,0,0.0708661418,17.7165354375,17.7165354375)" /><rect x="436" y="568" width="37" height="37" style="fill: rgb(0,0,255); fill-opacity: 1.0" transform="matrix(0.0708661418,0,0,0.0708661418,17.7165354375,17.7165354375)" /><rect x="412" y="568" width="61" height="37" style="fill: rgb(0,0,255); fill-opacity: 1.0" transform="matrix(0.0708661418,0,0,0.0708661418,17.7165354375,17.7165354375)" /><rect x="412" y="568" width="37" height="37" style="fill: rgb(0,0,255); fill-opacity: 1.0" transform="matrix(0.0708661418,0,0,0.0708661418,17.7165354375,17.7165354375)" /><rect x="412" y="568" width="37" height="37" style="fill: rgb(0,0,255); fill-opacity: 1.0" transform="matrix(0.0708661418,0,0,0.0708661418,17.7165354375,17.7165354375)" /><rect x="412" y="568" width="37" height="37" style="fill: rgb(0,0,255); fill-opacity: 1.0" transform="matrix(0.0708661418,0,0,0.0708661418,17.7165354375,17.7165354375)" /><rect x="412" y="568" width="37" height="37" style="fill: rgb(0,0,255); fill-opacity: 1.0" transform="matrix(0.0708661418,0,0,0.0708661418,17.7165354375,17.7165354375)" /><rect x="412" y="568" width="37" height="37" style="fill: rgb(0,0,255); fill-opacity: 1.0" transform="matrix(0.0708661418,0,0,0.0708661418,17.7165354375,17.7165354375)" /><rect x="412" y="568" width="37" height="37" style="fill: rgb(0,0,255); fill-opacity: 1.0" transform="matrix(0.0708661418,0,0,0.0708661418,17.7165354375,17.7165354375)" /><rect x="662" y="380" width="37" height="37" style="fill: rgb(0,0,255); fill-opacity: 1.0" transform="matrix(0.0708661418,0,0,0.0708661418,17.7165354375,17.7165354375)" /><rect x="662" y="380" width="37" height="37" style="fill: rgb(0,0,255); fill-opacity: 1.0" transform="matrix(0.0708661418,0,0,0.0708661418,17.7165354375,17.7165354375)" /><rect x="662" y="380" width="37" height="37" style="fill: rgb(0,0,255); fill-opacity: 1.0" transform="matrix(0.0708661418,0,0,0.0708661418,17.7165354375,17.7165354375)" /><rect x="662" y="380" width="37" height="37" style="fill: rgb(0,0,255); fill-opacity: 1.0" transform="matrix(0.0708661418,0,0,0.0708661418,17.7165354375,17.7165354375)" /><rect x="662" y="380" width="37" height="37" style="fill: rgb(0,0,255); fill-opacity: 1.0" transform="matrix(0.0708661418,0,0,0.0708661418,17.7165354375,17.7165354375)" /><rect x="662" y="380" width="37" height="37" style="fill: rgb(0,0,255); fill-opacity: 1.0" transform="matrix(0.0708661418,0,0,0.0708661418,17.7165354375,17.7165354375)" /><rect x="662" y="380" width="61" height="37" style="fill: rgb(0,0,255); fill-opacity: 1.0" transform="matrix(0.0708661418,0,0,0.0708661418,17.7165354375,17.7165354375)" /><rect x="686" y="380" width="37" height="37" style="fill: rgb(0,0,255); fill-opacity: 1.0" transform="matrix(0.0708661418,0,0,0.0708661418,17.7165354375,17.7165354375)" /><rect x="686" y="380" width="37" height="37" style="fill: rgb(0,0,255); fill-opacity: 1.0" transform="matrix(0.0708661418,0,0,0.0708661418,17.7165354375,17.7165354375)" /><rect x="686" y="380" width="37" height="37" style="fill: rgb(0,0,255); fill-opacity: 1.0" transform="matrix(0.0708661418,0,0,0.0708661418,17.7165354375,17.7165354375)" /><rect x="686" y="380" width="37" height="37" style="fill: rgb(0,0,255); fill-opacity: 1.0" transform="matrix(0.0708661418,0,0,0.0708661418,17.7165354375,17.7165354375)" /><rect x="686" y="380" width="37" height="37" style="fill: rgb(0,0,255); fill-opacity: 1.0" transform="matrix(0.0708661418,0,0,0.0708661418,17.7165354375,17.7165354375)" /><rect x="686" y="380" width="37" height="37" style="fill: rgb(0,0,255); fill-opacity: 1.0" transform="matrix(0.0708661418,0,0,0.0708661418,17.7165354375,17.7165354375)" /><rect x="824" y="380" width="37" height="37" style="fill: rgb(0,0,255); fill-opacity: 1.0" transform="matrix(0.0708661418,0,0,0.0708661418,17.7165354375,17.7165354375)" /><rect x="824" y="380" width="37" height="37" style="fill: rgb(0,0,255); fill-opacity: 1.0" transform="matrix(0.0708661418,0,0,0.0708661418,17.7165354375,17.7165354375)" /><rect x="824" y="380" width="37" height="37" style="fill: rgb(0,0,255); fill-opacity: 1.0" transform="matrix(0.0708661418,0,0,0.0708661418,17.7165354375,17.7165354375)" /><rect x="824" y="380" width="37" height="37" style="fill: rgb(0,0,255); fill-opacity: 1.0" transform="matrix(0.0708661418,0,0,0.0708661418,17.7165354375,17.7165354375)" /><rect x="824" y="380" width="37" height="37" style="fill: rgb(0,0,255); fill-opacity: 1.0" transform="matrix(0.0708661418,0,0,0.0708661418,17.7165354375,17.7165354375)" /><rect x="824" y="380" width="37" height="37" style="fill: rgb(0,0,255); fill-opacity: 1.0" transform="matrix(0.0708661418,0,0,0.0708661418,17.7165354375,17.7165354375)" /><rect x="824" y="380" width="263" height="37" style="fill: rgb(0,0,255); fill-opacity: 1.0" transform="matrix(0.0708661418,0,0,0.0708661418,17.7165354375,17.7165354375)" /><rect x="1050" y="380" width="37" height="37" style="fill: rgb(0,0,255); fill-opacity: 1.0" transform="matrix(0.0708661418,0,0,0.0708661418,17.7165354375,17.7165354375)" /><rect x="1050" y="380" width="37" height="37" style="fill: rgb(0,0,255); fill-opacity: 1.0" transform="matrix(0.0708661418,0,0,0.0708661418,17.7165354375,17.7165354375)" /><rect x="1050" y="380" width="37" height="37" style="fill: rgb(0,0,255); fill-opacity: 1.0" transform="matrix(0.0708661418,0,0,0.0708661418,17.7165354375,17.7165354375)" /><rect x="1050" y="380" width="37" height="37" style="fill: rgb(0,0,255); fill-opacity: 1.0" transform="matrix(0.0708661418,0,0,0.0708661418,17.7165354375,17.7165354375)" /><rect x="1050" y="380" width="37" height="37" style="fill: rgb(0,0,255); fill-opacity: 1.0" transform="matrix(0.0708661418,0,0,0.0708661418,17.7165354375,17.7165354375)" /><rect x="1050" y="380" width="37" height="37" style="fill: rgb(0,0,255); fill-opacity: 1.0" transform="matrix(0.0708661418,0,0,0.0708661418,17.7165354375,17.7165354375)" /><rect x="824" y="755" width="37" height="37" style="fill: rgb(0,0,255); fill-opacity: 1.0" transform="matrix(0.0708661418,0,0,0.0708661418,17.7165354375,17.7165354375)" /><rect x="824" y="755" width="37" height="37" style="fill: rgb(0,0,255); fill-opacity: 1.0" transform="matrix(0.0708661418,0,0,0.0708661418,17.7165354375,17.7165354375)" /><rect x="824" y="755" width="37" height="37" style="fill: rgb(0,0,255); fill-opacity: 1.0" transform="matrix(0.0708661418,0,0,0.0708661418,17.7165354375,17.7165354375)" /><rect x="824" y="755" width="37" height="37" style="fill: rgb(0,0,255); fill-opacity: 1.0" transform="matrix(0.0708661418,0,0,0.0708661418,17.7165354375,17.7165354375)" /><rect x="824" y="755" width="37" height="37" style="fill: rgb(0,0,255); fill-opacity: 1.0" transform="matrix(0.0708661418,0,0,0.0708661418,17.7165354375,17.7165354375)" /><rect x="824" y="755" width="37" height="37" style="fill: rgb(0,0,255); fill-opacity: 1.0" transform="matrix(0.0708661418,0,0,0.0708661418,17.7165354375,17.7165354375)" /><rect x="824" y="755" width="263" height="37" style="fill: rgb(0,0,255); fill-opacity: 1.0" transform="matrix(0.0708661418,0,0,0.0708661418,17.7165354375,17.7165354375)" /><rect x="1050" y="755" width="37" height="37" style="fill: rgb(0,0,255); fill-opacity: 1.0" transform="matrix(0.0708661418,0,0,0.0708661418,17.7165354375,17.7165354375)" /><rect x="1050" y="755" width="37" height="37" style="fill: rgb(0,0,255); fill-opacity: 1.0" transform="matrix(0.0708661418,0,0,0.0708661418,17.7165354375,17.7165354375)" /><rect x="1050" y="755" width="37" height="37" style="fill: rgb(0,0,255); fill-opacity: 1.0" transform="matrix(0.0708661418,0,0,0.0708661418,17.7165354375,17.7165354375)" /><rect x="1050" y="755" width="37" height="37" style="fill: rgb(0,0,255); fill-opacity: 1.0" transform="matrix(0.0708661418,0,0,0.0708661418,17.7165354375,17.7165354375)" /><rect x="1050" y="755" width="37" height="37" style="fill: rgb(0,0,255); fill-opacity: 1.0" transform="matrix(0.0708661418,0,0,0.0708661418,17.7165354375,17.7165354375)" /><rect x="1050" y="755" width="37" height="37" style="fill: rgb(0,0,255); fill-opacity: 1.0" transform="matrix(0.0708661418,0,0,0.0708661418,17.7165354375,17.7165354375)" /><rect x="1050" y="380" width="37" height="37" style="fill: rgb(0,0,255); fill-opacity: 1.0" transform="matrix(0.0708661418,0,0,0.0708661418,17.7165354375,17.7165354375)" /><rect x="1050" y="380" width="37" height="37" style="fill: rgb(0,0,255); fill-opacity: 1.0" transform="matrix(0.0708661418,0,0,0.0708661418,17.7165354375,17.7165354375)" /><rect x="1050" y="380" width="37" height="37" style="fill: rgb(0,0,255); fill-opacity: 1.0" transform="matrix(0.0708661418,0,0,0.0708661418,17.7165354375,17.7165354375)" /><rect x="1050" y="380" width="37" height="37" style="fill: rgb(0,0,255); fill-opacity: 1.0" transform="matrix(0.0708661418,0,0,0.0708661418,17.7165354375,17.7165354375)" /><rect x="1050" y="380" width="37" height="37" style="fill: rgb(0,0,255); fill-opacity: 1.0" transform="matrix(0.0708661418,0,0,0.0708661418,17.7165354375,17.7165354375)" /><rect x="1050" y="380" width="37" height="37" style="fill: rgb(0,0,255); fill-opacity: 1.0" transform="matrix(0.0708661418,0,0,0.0708661418,17.7165354375,17.7165354375)" /><rect x="1050" y="380" width="37" height="224" style="fill: rgb(0,0,255); fill-opacity: 1.0" transform="matrix(0.0708661418,0,0,0.0708661418,17.7165354375,17.7165354375)" /><rect x="1050" y="567" width="37" height="37" style="fill: rgb(0,0,255); fill-opacity: 1.0" transform="matrix(0.0708661418,0,0,0.0708661418,17.7165354375,17.7165354375)" /><rect x="1050" y="567" width="37" height="37" style="fill: rgb(0,0,255); fill-opacity: 1.0" transform="matrix(0.0708661418,0,0,0.0708661418,17.7165354375,17.7165354375)" /><rect x="1050" y="567" width="37" height="37" style="fill: rgb(0,0,255); fill-opacity: 1.0" transform="matrix(0.0708661418,0,0,0.0708661418,17.7165354375,17.7165354375)" /><rect x="1050" y="567" width="37" height="37" style="fill: rgb(0,0,255); fill-opacity: 1.0" transform="matrix(0.0708661418,0,0,0.0708661418,17.7165354375,17.7165354375)" /><rect x="1050" y="567" width="37" height="37" style="fill: rgb(0,0,255); fill-opacity: 1.0" transform="matrix(0.0708661418,0,0,0.0708661418,17.7165354375,17.7165354375)" /><rect x="1050" y="567" width="37" height="37" style="fill: rgb(0,0,255); fill-opacity: 1.0" transform="matrix(0.0708661418,0,0,0.0708661418,17.7165354375,17.7165354375)" /><rect x="1050" y="755" width="37" height="37" style="fill: rgb(0,0,255); fill-opacity: 1.0" transform="matrix(0.0708661418,0,0,0.0708661418,17.7165354375,17.7165354375)" /><rect x="1050" y="755" width="37" height="37" style="fill: rgb(0,0,255); fill-opacity: 1.0" transform="matrix(0.0708661418,0,0,0.0708661418,17.7165354375,17.7165354375)" /><rect x="1050" y="755" width="37" height="37" style="fill: rgb(0,0,255); fill-opacity: 1.0" transform="matrix(0.0708661418,0,0,0.0708661418,17.7165354375,17.7165354375)" /><rect x="1050" y="755" width="37" height="37" style="fill: rgb(0,0,255); fill-opacity: 1.0" transform="matrix(0.0708661418,0,0,0.0708661418,17.7165354375,17.7165354375)" /><rect x="1050" y="755" width="37" height="37" style="fill: rgb(0,0,255); fill-opacity: 1.0" transform="matrix(0.0708661418,0,0,0.0708661418,17.7165354375,17.7165354375)" /><rect x="1050" y="755" width="37" height="37" style="fill: rgb(0,0,255); fill-opacity: 1.0" transform="matrix(0.0708661418,0,0,0.0708661418,17.7165354375,17.7165354375)" /><rect x="1050" y="567" width="37" height="225" style="fill: rgb(0,0,255); fill-opacity: 1.0" transform="matrix(0.0708661418,0,0,0.0708661418,17.7165354375,17.7165354375)" /><rect x="1050" y="567" width="37" height="37" style="fill: rgb(0,0,255); fill-opacity: 1.0" transform="matrix(0.0708661418,0,0,0.0708661418,17.7165354375,17.7165354375)" /><rect x="1050" y="567" width="37" height="37" style="fill: rgb(0,0,255); fill-opacity: 1.0" transform="matrix(0.0708661418,0,0,0.0708661418,17.7165354375,17.7165354375)" /><rect x="1050" y="567" width="37" height="37" style="fill: rgb(0,0,255); fill-opacity: 1.0" transform="matrix(0.0708661418,0,0,0.0708661418,17.7165354375,17.7165354375)" /><rect x="1050" y="567" width="37" height="37" style="fill: rgb(0,0,255); fill-opacity: 1.0" transform="matrix(0.0708661418,0,0,0.0708661418,17.7165354375,17.7165354375)" /><rect x="1050" y="567" width="37" height="37" style="fill: rgb(0,0,255); fill-opacity: 1.0" transform="matrix(0.0708661418,0,0,0.0708661418,17.7165354375,17.7165354375)" /><rect x="1050" y="567" width="37" height="37" style="fill: rgb(0,0,255); fill-opacity: 1.0" transform="matrix(0.0708661418,0,0,0.0708661418,17.7165354375,17.7165354375)" /><rect x="824" y="380" width="37" height="37" style="fill: rgb(0,0,255); fill-opacity: 1.0" transform="matrix(0.0708661418,0,0,0.0708661418,17.7165354375,17.7165354375)" /><rect x="824" y="380" width="37" height="37" style="fill: rgb(0,0,255); fill-opacity: 1.0" transform="matrix(0.0708661418,0,0,0.0708661418,17.7165354375,17.7165354375)" /><rect x="824" y="380" width="37" height="37" style="fill: rgb(0,0,255); fill-opacity: 1.0" transform="matrix(0.0708661418,0,0,0.0708661418,17.7165354375,17.7165354375)" /><rect x="824" y="380" width="37" height="37" style="fill: rgb(0,0,255); fill-opacity: 1.0" transform="matrix(0.0708661418,0,0,0.0708661418,17.7165354375,17.7165354375)" /><rect x="824" y="380" width="37" height="37" style="fill: rgb(0,0,255); fill-opacity: 1.0" transform="matrix(0.0708661418,0,0,0.0708661418,17.7165354375,17.7165354375)" /><rect x="824" y="380" width="37" height="37" style="fill: rgb(0,0,255); fill-opacity: 1.0" transform="matrix(0.0708661418,0,0,0.0708661418,17.7165354375,17.7165354375)" /><rect x="800" y="380" width="61" height="37" style="fill: rgb(0,0,255); fill-opacity: 1.0" transform="matrix(0.0708661418,0,0,0.0708661418,17.7165354375,17.7165354375)" /><rect x="800" y="380" width="37" height="37" style="fill: rgb(0,0,255); fill-opacity: 1.0" transform="matrix(0.0708661418,0,0,0.0708661418,17.7165354375,17.7165354375)" /><rect x="800" y="380" width="37" height="37" style="fill: rgb(0,0,255); fill-opacity: 1.0" transform="matrix(0.0708661418,0,0,0.0708661418,17.7165354375,17.7165354375)" /><rect x="800" y="380" width="37" height="37" style="fill: rgb(0,0,255); fill-opacity: 1.0" transform="matrix(0.0708661418,0,0,0.0708661418,17.7165354375,17.7165354375)" /><rect x="800" y="380" width="37" height="37" style="fill: rgb(0,0,255); fill-opacity: 1.0" transform="matrix(0.0708661418,0,0,0.0708661418,17.7165354375,17.7165354375)" /><rect x="800" y="380" width="37" height="37" style="fill: rgb(0,0,255); fill-opacity: 1.0" transform="matrix(0.0708661418,0,0,0.0708661418,17.7165354375,17.7165354375)" /><rect x="800" y="380" width="37" height="37" style="fill: rgb(0,0,255); fill-opacity: 1.0" transform="matrix(0.0708661418,0,0,0.0708661418,17.7165354375,17.7165354375)" /><rect x="824" y="755" width="37" height="37" style="fill: rgb(0,0,255); fill-opacity: 1.0" transform="matrix(0.0708661418,0,0,0.0708661418,17.7165354375,17.7165354375)" /><rect x="824" y="755" width="37" height="37" style="fill: rgb(0,0,255); fill-opacity: 1.0" transform="matrix(0.0708661418,0,0,0.0708661418,17.7165354375,17.7165354375)" /><rect x="824" y="755" width="37" height="37" style="fill: rgb(0,0,255); fill-opacity: 1.0" transform="matrix(0.0708661418,0,0,0.0708661418,17.7165354375,17.7165354375)" /><rect x="824" y="755" width="37" height="37" style="fill: rgb(0,0,255); fill-opacity: 1.0" transform="matrix(0.0708661418,0,0,0.0708661418,17.7165354375,17.7165354375)" /><rect x="824" y="755" width="37" height="37" style="fill: rgb(0,0,255); fill-opacity: 1.0" transform="matrix(0.0708661418,0,0,0.0708661418,17.7165354375,17.7165354375)" /><rect x="824" y="755" width="37" height="37" style="fill: rgb(0,0,255); fill-opacity: 1.0" transform="matrix(0.0708661418,0,0,0.0708661418,17.7165354375,17.7165354375)" /><rect x="800" y="755" width="61" height="37" style="fill: rgb(0,0,255); fill-opacity: 1.0" transform="matrix(0.0708661418,0,0,0.0708661418,17.7165354375,17.7165354375)" /><rect x="800" y="755" width="37" height="37" style="fill: rgb(0,0,255); fill-opacity: 1.0" transform="matrix(0.0708661418,0,0,0.0708661418,17.7165354375,17.7165354375)" /><rect x="800" y="755" width="37" height="37" style="fill: rgb(0,0,255); fill-opacity: 1.0" transform="matrix(0.0708661418,0,0,0.0708661418,17.7165354375,17.7165354375)" /><rect x="800" y="755" width="37" height="37" style="fill: rgb(0,0,255); fill-opacity: 1.0" transform="matrix(0.0708661418,0,0,0.0708661418,17.7165354375,17.7165354375)" /><rect x="800" y="755" width="37" height="37" style="fill: rgb(0,0,255); fill-opacity: 1.0" transform="matrix(0.0708661418,0,0,0.0708661418,17.7165354375,17.7165354375)" /><rect x="800" y="755" width="37" height="37" style="fill: rgb(0,0,255); fill-opacity: 1.0" transform="matrix(0.0708661418,0,0,0.0708661418,17.7165354375,17.7165354375)" /><rect x="800" y="755" width="37" height="37" style="fill: rgb(0,0,255); fill-opacity: 1.0" transform="matrix(0.0708661418,0,0,0.0708661418,17.7165354375,17.7165354375)" /><rect x="1050" y="567" width="37" height="37" style="fill: rgb(0,0,255); fill-opacity: 1.0" transform="matrix(0.0708661418,0,0,0.0708661418,17.7165354375,17.7165354375)" /><rect x="1050" y="567" width="37" height="37" style="fill: rgb(0,0,255); fill-opacity: 1.0" transform="matrix(0.0708661418,0,0,0.0708661418,17.7165354375,17.7165354375)" /><rect x="1050" y="567" width="37" height="37" style="fill: rgb(0,0,255); fill-opacity: 1.0" transform="matrix(0.0708661418,0,0,0.0708661418,17.7165354375,17.7165354375)" /><rect x="1050" y="567" width="37" height="37" style="fill: rgb(0,0,255); fill-opacity: 1.0" transform="matrix(0.0708661418,0,0,0.0708661418,17.7165354375,17.7165354375)" /><rect x="1050" y="567" width="37" height="37" style="fill: rgb(0,0,255); fill-opacity: 1.0" transform="matrix(0.0708661418,0,0,0.0708661418,17.7165354375,17.7165354375)" /><rect x="1050" y="567" width="37" height="37" style="fill: rgb(0,0,255); fill-opacity: 1.0" transform="matrix(0.0708661418,0,0,0.0708661418,17.7165354375,17.7165354375)" /><rect x="1050" y="567" width="61" height="37" style="fill: rgb(0,0,255); fill-opacity: 1.0" transform="matrix(0.0708661418,0,0,0.0708661418,17.7165354375,17.7165354375)" /><rect x="1074" y="567" width="37" height="37" style="fill: rgb(0,0,255); fill-opacity: 1.0" transform="matrix(0.0708661418,0,0,0.0708661418,17.7165354375,17.7165354375)" /><rect x="1074" y="567" width="37" height="37" style="fill: rgb(0,0,255); fill-opacity: 1.0" transform="matrix(0.0708661418,0,0,0.0708661418,17.7165354375,17.7165354375)" /><rect x="1074" y="567" width="37" height="37" style="fill: rgb(0,0,255); fill-opacity: 1.0" transform="matrix(0.0708661418,0,0,0.0708661418,17.7165354375,17.7165354375)" /><rect x="1074" y="567" width="37" height="37" style="fill: rgb(0,0,255); fill-opacity: 1.0" transform="matrix(0.0708661418,0,0,0.0708661418,17.7165354375,17.7165354375)" /><rect x="1074" y="567" width="37" height="37" style="fill: rgb(0,0,255); fill-opacity: 1.0" transform="matrix(0.0708661418,0,0,0.0708661418,17.7165354375,17.7165354375)" /><rect x="1074" y="567" width="37" height="37" style="fill: rgb(0,0,255); fill-opacity: 1.0" transform="matrix(0.0708661418,0,0,0.0708661418,17.7165354375,17.7165354375)" /><g style="fill: rgb(0,0,255); fill-opacity: 1.0; stroke: none" transform="matrix(0.0708661418,0,0,0.0708661418,17.7165354375,17.7165354375)" ><path d="M 596.4515991211 728.1449584961 C 551.2687988281 735.3012084961 518 774.2539672852 518 820 C 518 865.7460327148 551.2687988281 904.6987915039 596.4515991211 911.8550415039"/></g><g style="fill: rgb(0,0,255); fill-opacity: 1.0; stroke: none" transform="matrix(0.0708661418,0,0,0.0708661418,17.7165354375,17.7165354375)" ><path d="M 625.5484008789 911.8550415039 C 670.7312011719 904.6987915039 704 865.7460327148 704 820 C 704 774.2539672852 670.7312011719 735.3012084961 625.5484008789 728.1449584961"/></g><rect x="294" y="193" width="37" height="37" style="fill: rgb(0,0,255); fill-opacity: 1.0" transform="matrix(0.0708661418,0,0,0.0708661418,17.7165354375,17.7165354375)" /><rect x="294" y="193" width="37" height="37" style="fill: rgb(0,0,255); fill-opacity: 1.0" transform="matrix(0.0708661418,0,0,0.0708661418,17.7165354375,17.7165354375)" /><rect x="294" y="193" width="37" height="37" style="fill: rgb(0,0,255); fill-opacity: 1.0" transform="matrix(0.0708661418,0,0,0.0708661418,17.7165354375,17.7165354375)" /><rect x="294" y="193" width="37" height="37" style="fill: rgb(0,0,255); fill-opacity: 1.0" transform="matrix(0.0708661418,0,0,0.0708661418,17.7165354375,17.7165354375)" /><rect x="294" y="193" width="37" height="37" style="fill: rgb(0,0,255); fill-opacity: 1.0" transform="matrix(0.0708661418,0,0,0.0708661418,17.7165354375,17.7165354375)" /><rect x="294" y="193" width="37" height="37" style="fill: rgb(0,0,255); fill-opacity: 1.0" transform="matrix(0.0708661418,0,0,0.0708661418,17.7165354375,17.7165354375)" /><rect x="294" y="193" width="37" height="37" style="fill: rgb(0,0,255); fill-opacity: 1.0" transform="matrix(0.0708661418,0,0,0.0708661418,17.7165354375,17.7165354375)" /><rect x="294" y="193" width="37" height="37" style="fill: rgb(0,0,255); fill-opacity: 1.0" transform="matrix(0.0708661418,0,0,0.0708661418,17.7165354375,17.7165354375)" /><rect x="294" y="193" width="155" height="37" style="fill: rgb(0,0,255); fill-opacity: 1.0" transform="matrix(0.0708661418,0,0,0.0708661418,17.7165354375,17.7165354375)" /><rect x="412" y="193" width="37" height="37" style="fill: rgb(0,0,255); fill-opacity: 1.0" transform="matrix(0.0708661418,0,0,0.0708661418,17.7165354375,17.7165354375)" /><rect x="412" y="193" width="37" height="37" style="fill: rgb(0,0,255); fill-opacity: 1.0" transform="matrix(0.0708661418,0,0,0.0708661418,17.7165354375,17.7165354375)" /><rect x="412" y="193" width="37" height="37" style="fill: rgb(0,0,255); fill-opacity: 1.0" transform="matrix(0.0708661418,0,0,0.0708661418,17.7165354375,17.7165354375)" /><rect x="412" y="193" width="37" height="37" style="fill: rgb(0,0,255); fill-opacity: 1.0" transform="matrix(0.0708661418,0,0,0.0708661418,17.7165354375,17.7165354375)" /><rect x="412" y="193" width="37" height="37" style="fill: rgb(0,0,255); fill-opacity: 1.0" transform="matrix(0.0708661418,0,0,0.0708661418,17.7165354375,17.7165354375)" /><rect x="412" y="193" width="37" height="37" style="fill: rgb(0,0,255); fill-opacity: 1.0" transform="matrix(0.0708661418,0,0,0.0708661418,17.7165354375,17.7165354375)" /><rect x="412" y="193" width="37" height="37" style="fill: rgb(0,0,255); fill-opacity: 1.0" transform="matrix(0.0708661418,0,0,0.0708661418,17.7165354375,17.7165354375)" /><rect x="412" y="193" width="37" height="37" style="fill: rgb(0,0,255); fill-opacity: 1.0" transform="matrix(0.0708661418,0,0,0.0708661418,17.7165354375,17.7165354375)" /><rect x="294" y="568" width="37" height="37" style="fill: rgb(0,0,255); fill-opacity: 1.0" transform="matrix(0.0708661418,0,0,0.0708661418,17.7165354375,17.7165354375)" /><rect x="294" y="568" width="37" height="37" style="fill: rgb(0,0,255); fill-opacity: 1.0" transform="matrix(0.0708661418,0,0,0.0708661418,17.7165354375,17.7165354375)" /><rect x="294" y="568" width="37" height="37" style="fill: rgb(0,0,255); fill-opacity: 1.0" transform="matrix(0.0708661418,0,0,0.0708661418,17.7165354375,17.7165354375)" /><rect x="294" y="568" width="37" height="37" style="fill: rgb(0,0,255); fill-opacity: 1.0" transform="matrix(0.0708661418,0,0,0.0708661418,17.7165354375,17.7165354375)" /><rect x="294" y="568" width="37" height="37" style="fill: rgb(0,0,255); fill-opacity: 1.0" transform="matrix(0.0708661418,0,0,0.0708661418,17.7165354375,17.7165354375)" /><rect x="294" y="568" width="37" height="37" style="fill: rgb(0,0,255); fill-opacity: 1.0" transform="matrix(0.0708661418,0,0,0.0708661418,17.7165354375,17.7165354375)" /><rect x="294" y="568" width="37" height="37" style="fill: rgb(0,0,255); fill-opacity: 1.0" transform="matrix(0.0708661418,0,0,0.0708661418,17.7165354375,17.7165354375)" /><rect x="294" y="568" width="37" height="37" style="fill: rgb(0,0,255); fill-opacity: 1.0" transform="matrix(0.0708661418,0,0,0.0708661418,17.7165354375,17.7165354375)" /><rect x="294" y="568" width="155" height="37" style="fill: rgb(0,0,255); fill-opacity: 1.0" transform="matrix(0.0708661418,0,0,0.0708661418,17.7165354375,17.7165354375)" /><rect x="412" y="568" width="37" height="37" style="fill: rgb(0,0,255); fill-opacity: 1.0" transform="matrix(0.0708661418,0,0,0.0708661418,17.7165354375,17.7165354375)" /><rect x="412" y="568" width="37" height="37" style="fill: rgb(0,0,255); fill-opacity: 1.0" transform="matrix(0.0708661418,0,0,0.0708661418,17.7165354375,17.7165354375)" /><rect x="412" y="568" width="37" height="37" style="fill: rgb(0,0,255); fill-opacity: 1.0" transform="matrix(0.0708661418,0,0,0.0708661418,17.7165354375,17.7165354375)" /><rect x="412" y="568" width="37" height="37" style="fill: rgb(0,0,255); fill-opacity: 1.0" transform="matrix(0.0708661418,0,0,0.0708661418,17.7165354375,17.7165354375)" /><rect x="412" y="568" width="37" height="37" style="fill: rgb(0,0,255); fill-opacity: 1.0" transform="matrix(0.0708661418,0,0,0.0708661418,17.7165354375,17.7165354375)" /><rect x="412" y="568" width="37" height="37" style="fill: rgb(0,0,255); fill-opacity: 1.0" transform="matrix(0.0708661418,0,0,0.0708661418,17.7165354375,17.7165354375)" /><rect x="412" y="568" width="37" height="37" style="fill: rgb(0,0,255); fill-opacity: 1.0" transform="matrix(0.0708661418,0,0,0.0708661418,17.7165354375,17.7165354375)" /><rect x="412" y="568" width="37" height="37" style="fill: rgb(0,0,255); fill-opacity: 1.0" transform="matrix(0.0708661418,0,0,0.0708661418,17.7165354375,17.7165354375)" /><rect x="1074" y="567" width="37" height="37" style="fill: rgb(0,0,255); fill-opacity: 1.0" transform="matrix(0.0708661418,0,0,0.0708661418,17.7165354375,17.7165354375)" /><rect x="1074" y="567" width="37" height="37" style="fill: rgb(0,0,255); fill-opacity: 1.0" transform="matrix(0.0708661418,0,0,0.0708661418,17.7165354375,17.7165354375)" /><rect x="1074" y="567" width="37" height="37" style="fill: rgb(0,0,255); fill-opacity: 1.0" transform="matrix(0.0708661418,0,0,0.0708661418,17.7165354375,17.7165354375)" /><rect x="1074" y="567" width="37" height="37" style="fill: rgb(0,0,255); fill-opacity: 1.0" transform="matrix(0.0708661418,0,0,0.0708661418,17.7165354375,17.7165354375)" /><rect x="1074" y="567" width="37" height="37" style="fill: rgb(0,0,255); fill-opacity: 1.0" transform="matrix(0.0708661418,0,0,0.0708661418,17.7165354375,17.7165354375)" /><rect x="1074" y="567" width="37" height="37" style="fill: rgb(0,0,255); fill-opacity: 1.0" transform="matrix(0.0708661418,0,0,0.0708661418,17.7165354375,17.7165354375)" /><rect x="1074" y="567" width="37" height="37" style="fill: rgb(0,0,255); fill-opacity: 1.0" transform="matrix(0.0708661418,0,0,0.0708661418,17.7165354375,17.7165354375)" /><rect x="1074" y="567" width="37" height="37" style="fill: rgb(0,0,255); fill-opacity: 1.0" transform="matrix(0.0708661418,0,0,0.0708661418,17.7165354375,17.7165354375)" /><rect x="1074" y="567" width="476" height="37" style="fill: rgb(0,0,255); fill-opacity: 1.0" transform="matrix(0.0708661418,0,0,0.0708661418,17.7165354375,17.7165354375)" /><rect x="1513" y="567" width="37" height="37" style="fill: rgb(0,0,255); fill-opacity: 1.0" transform="matrix(0.0708661418,0,0,0.0708661418,17.7165354375,17.7165354375)" /><rect x="1513" y="567" width="37" height="37" style="fill: rgb(0,0,255); fill-opacity: 1.0" transform="matrix(0.0708661418,0,0,0.0708661418,17.7165354375,17.7165354375)" /><rect x="1513" y="567" width="37" height="37" style="fill: rgb(0,0,255); fill-opacity: 1.0" transform="matrix(0.0708661418,0,0,0.0708661418,17.7165354375,17.7165354375)" /><rect x="1513" y="567" width="37" height="37" style="fill: rgb(0,0,255); fill-opacity: 1.0" transform="matrix(0.0708661418,0,0,0.0708661418,17.7165354375,17.7165354375)" /><rect x="1513" y="567" width="37" height="37" style="fill: rgb(0,0,255); fill-opacity: 1.0" transform="matrix(0.0708661418,0,0,0.0708661418,17.7165354375,17.7165354375)" /><rect x="1513" y="567" width="37" height="37" style="fill: rgb(0,0,255); fill-opacity: 1.0" transform="matrix(0.0708661418,0,0,0.0708661418,17.7165354375,17.7165354375)" /><rect x="1513" y="567" width="37" height="37" style="fill: rgb(0,0,255); fill-opacity: 1.0" transform="matrix(0.0708661418,0,0,0.0708661418,17.7165354375,17.7165354375)" /><rect x="1513" y="567" width="37" height="37" style="fill: rgb(0,0,255); fill-opacity: 1.0" transform="matrix(0.0708661418,0,0,0.0708661418,17.7165354375,17.7165354375)" /><rect x="686" y="380" width="37" height="37" style="fill: rgb(0,0,255); fill-opacity: 1.0" transform="matrix(0.0708661418,0,0,0.0708661418,17.7165354375,17.7165354375)" /><rect x="686" y="380" width="37" height="37" style="fill: rgb(0,0,255); fill-opacity: 1.0" transform="matrix(0.0708661418,0,0,0.0708661418,17.7165354375,17.7165354375)" /><rect x="686" y="380" width="37" height="37" style="fill: rgb(0,0,255); fill-opacity: 1.0" transform="matrix(0.0708661418,0,0,0.0708661418,17.7165354375,17.7165354375)" /><rect x="686" y="380" width="37" height="37" style="fill: rgb(0,0,255); fill-opacity: 1.0" transform="matrix(0.0708661418,0,0,0.0708661418,17.7165354375,17.7165354375)" /><rect x="686" y="380" width="37" height="37" style="fill: rgb(0,0,255); fill-opacity: 1.0" transform="matrix(0.0708661418,0,0,0.0708661418,17.7165354375,17.7165354375)" /><rect x="686" y="380" width="37" height="37" style="fill: rgb(0,0,255); fill-opacity: 1.0" transform="matrix(0.0708661418,0,0,0.0708661418,17.7165354375,17.7165354375)" /><rect x="686" y="380" width="37" height="37" style="fill: rgb(0,0,255); fill-opacity: 1.0" transform="matrix(0.0708661418,0,0,0.0708661418,17.7165354375,17.7165354375)" /><rect x="686" y="380" width="37" height="37" style="fill: rgb(0,0,255); fill-opacity: 1.0" transform="matrix(0.0708661418,0,0,0.0708661418,17.7165354375,17.7165354375)" /><rect x="686" y="380" width="151" height="37" style="fill: rgb(0,0,255); fill-opacity: 1.0" transform="matrix(0.0708661418,0,0,0.0708661418,17.7165354375,17.7165354375)" /><rect x="800" y="380" width="37" height="37" style="fill: rgb(0,0,255); fill-opacity: 1.0" transform="matrix(0.0708661418,0,0,0.0708661418,17.7165354375,17.7165354375)" /><rect x="800" y="380" width="37" height="37" style="fill: rgb(0,0,255); fill-opacity: 1.0" transform="matrix(0.0708661418,0,0,0.0708661418,17.7165354375,17.7165354375)" /><rect x="800" y="380" width="37" height="37" style="fill: rgb(0,0,255); fill-opacity: 1.0" transform="matrix(0.0708661418,0,0,0.0708661418,17.7165354375,17.7165354375)" /><rect x="800" y="380" width="37" height="37" style="fill: rgb(0,0,255); fill-opacity: 1.0" transform="matrix(0.0708661418,0,0,0.0708661418,17.7165354375,17.7165354375)" /><rect x="800" y="380" width="37" height="37" style="fill: rgb(0,0,255); fill-opacity: 1.0" transform="matrix(0.0708661418,0,0,0.0708661418,17.7165354375,17.7165354375)" /><rect x="800" y="380" width="37" height="37" style="fill: rgb(0,0,255); fill-opacity: 1.0" transform="matrix(0.0708661418,0,0,0.0708661418,17.7165354375,17.7165354375)" /><rect x="800" y="380" width="37" height="37" style="fill: rgb(0,0,255); fill-opacity: 1.0" transform="matrix(0.0708661418,0,0,0.0708661418,17.7165354375,17.7165354375)" /><rect x="800" y="380" width="37" height="37" style="fill: rgb(0,0,255); fill-opacity: 1.0" transform="matrix(0.0708661418,0,0,0.0708661418,17.7165354375,17.7165354375)" /><rect x="294" y="850" width="37" height="37" style="fill: rgb(0,0,255); fill-opacity: 1.0" transform="matrix(0.0708661418,0,0,0.0708661418,17.7165354375,17.7165354375)" /><rect x="294" y="850" width="37" height="37" style="fill: rgb(0,0,255); fill-opacity: 1.0" transform="matrix(0.0708661418,0,0,0.0708661418,17.7165354375,17.7165354375)" /><rect x="294" y="850" width="37" height="37" style="fill: rgb(0,0,255); fill-opacity: 1.0" transform="matrix(0.0708661418,0,0,0.0708661418,17.7165354375,17.7165354375)" /><rect x="294" y="850" width="37" height="37" style="fill: rgb(0,0,255); fill-opacity: 1.0" transform="matrix(0.0708661418,0,0,0.0708661418,17.7165354375,17.7165354375)" /><rect x="294" y="850" width="37" height="37" style="fill: rgb(0,0,255); fill-opacity: 1.0" transform="matrix(0.0708661418,0,0,0.0708661418,17.7165354375,17.7165354375)" /><rect x="294" y="850" width="37" height="37" style="fill: rgb(0,0,255); fill-opacity: 1.0" transform="matrix(0.0708661418,0,0,0.0708661418,17.7165354375,17.7165354375)" /><rect x="294" y="850" width="205" height="37" style="fill: rgb(0,0,255); fill-opacity: 1.0" transform="matrix(0.0708661418,0,0,0.0708661418,17.7165354375,17.7165354375)" /><rect x="462" y="850" width="37" height="37" style="fill: rgb(0,0,255); fill-opacity: 1.0" transform="matrix(0.0708661418,0,0,0.0708661418,17.7165354375,17.7165354375)" /><rect x="462" y="850" width="37" height="37" style="fill: rgb(0,0,255); fill-opacity: 1.0" transform="matrix(0.0708661418,0,0,0.0708661418,17.7165354375,17.7165354375)" /><rect x="462" y="850" width="37" height="37" style="fill: rgb(0,0,255); fill-opacity: 1.0" transform="matrix(0.0708661418,0,0,0.0708661418,17.7165354375,17.7165354375)" /><rect x="462" y="850" width="37" height="37" style="fill: rgb(0,0,255); fill-opacity: 1.0" transform="matrix(0.0708661418,0,0,0.0708661418,17.7165354375,17.7165354375)" /><rect x="462" y="850" width="37" height="37" style="fill: rgb(0,0,255); fill-opacity: 1.0" transform="matrix(0.0708661418,0,0,0.0708661418,17.7165354375,17.7165354375)" /><rect x="462" y="850" width="37" height="37" style="fill: rgb(0,0,255); fill-opacity: 1.0" transform="matrix(0.0708661418,0,0,0.0708661418,17.7165354375,17.7165354375)" /><rect x="462" y="850" width="37" height="37" style="fill: rgb(0,0,255); fill-opacity: 1.0" transform="matrix(0.0708661418,0,0,0.0708661418,17.7165354375,17.7165354375)" /><rect x="462" y="850" width="37" height="37" style="fill: rgb(0,0,255); fill-opacity: 1.0" transform="matrix(0.0708661418,0,0,0.0708661418,17.7165354375,17.7165354375)" /><rect x="462" y="850" width="37" height="37" style="fill: rgb(0,0,255); fill-opacity: 1.0" transform="matrix(0.0708661418,0,0,0.0708661418,17.7165354375,17.7165354375)" /><rect x="462" y="850" width="37" height="37" style="fill: rgb(0,0,255); fill-opacity: 1.0" transform="matrix(0.0708661418,0,0,0.0708661418,17.7165354375,17.7165354375)" /><rect x="462" y="850" width="37" height="37" style="fill: rgb(0,0,255); fill-opacity: 1.0" transform="matrix(0.0708661418,0,0,0.0708661418,17.7165354375,17.7165354375)" /><rect x="462" y="850" width="37" height="37" style="fill: rgb(0,0,255); fill-opacity: 1.0" transform="matrix(0.0708661418,0,0,0.0708661418,17.7165354375,17.7165354375)" /><rect x="462" y="802" width="37" height="85" style="fill: rgb(0,0,255); fill-opacity: 1.0" transform="matrix(0.0708661418,0,0,0.0708661418,17.7165354375,17.7165354375)" /><rect x="462" y="802" width="37" height="37" style="fill: rgb(0,0,255); fill-opacity: 1.0" transform="matrix(0.0708661418,0,0,0.0708661418,17.7165354375,17.7165354375)" /><rect x="462" y="802" width="37" height="37" style="fill: rgb(0,0,255); fill-opacity: 1.0" transform="matrix(0.0708661418,0,0,0.0708661418,17.7165354375,17.7165354375)" /><rect x="462" y="802" width="37" height="37" style="fill: rgb(0,0,255); fill-opacity: 1.0" transform="matrix(0.0708661418,0,0,0.0708661418,17.7165354375,17.7165354375)" /><rect x="462" y="802" width="37" height="37" style="fill: rgb(0,0,255); fill-opacity: 1.0" transform="matrix(0.0708661418,0,0,0.0708661418,17.7165354375,17.7165354375)" /><rect x="462" y="802" width="37" height="37" style="fill: rgb(0,0,255); fill-opacity: 1.0" transform="matrix(0.0708661418,0,0,0.0708661418,17.7165354375,17.7165354375)" /><rect x="462" y="802" width="37" height="37" style="fill: rgb(0,0,255); fill-opacity: 1.0" transform="matrix(0.0708661418,0,0,0.0708661418,17.7165354375,17.7165354375)" /><rect x="462" y="802" width="37" height="37" style="fill: rgb(0,0,255); fill-opacity: 1.0" transform="matrix(0.0708661418,0,0,0.0708661418,17.7165354375,17.7165354375)" /><rect x="462" y="802" width="37" height="37" style="fill: rgb(0,0,255); fill-opacity: 1.0" transform="matrix(0.0708661418,0,0,0.0708661418,17.7165354375,17.7165354375)" /><rect x="462" y="802" width="37" height="37" style="fill: rgb(0,0,255); fill-opacity: 1.0" transform="matrix(0.0708661418,0,0,0.0708661418,17.7165354375,17.7165354375)" /><rect x="462" y="802" width="37" height="37" style="fill: rgb(0,0,255); fill-opacity: 1.0" transform="matrix(0.0708661418,0,0,0.0708661418,17.7165354375,17.7165354375)" /><rect x="462" y="802" width="37" height="37" style="fill: rgb(0,0,255); fill-opacity: 1.0" transform="matrix(0.0708661418,0,0,0.0708661418,17.7165354375,17.7165354375)" /><rect x="462" y="802" width="37" height="37" style="fill: rgb(0,0,255); fill-opacity: 1.0" transform="matrix(0.0708661418,0,0,0.0708661418,17.7165354375,17.7165354375)" /><rect x="462" y="802" width="75" height="37" style="fill: rgb(0,0,255); fill-opacity: 1.0" transform="matrix(0.0708661418,0,0,0.0708661418,17.7165354375,17.7165354375)" /><rect x="500" y="802" width="37" height="37" style="fill: rgb(0,0,255); fill-opacity: 1.0" transform="matrix(0.0708661418,0,0,0.0708661418,17.7165354375,17.7165354375)" /><rect x="500" y="802" width="37" height="37" style="fill: rgb(0,0,255); fill-opacity: 1.0" transform="matrix(0.0708661418,0,0,0.0708661418,17.7165354375,17.7165354375)" /><rect x="500" y="802" width="37" height="37" style="fill: rgb(0,0,255); fill-opacity: 1.0" transform="matrix(0.0708661418,0,0,0.0708661418,17.7165354375,17.7165354375)" /><rect x="500" y="802" width="37" height="37" style="fill: rgb(0,0,255); fill-opacity: 1.0" transform="matrix(0.0708661418,0,0,0.0708661418,17.7165354375,17.7165354375)" /><rect x="500" y="802" width="37" height="37" style="fill: rgb(0,0,255); fill-opacity: 1.0" transform="matrix(0.0708661418,0,0,0.0708661418,17.7165354375,17.7165354375)" /><rect x="500" y="802" width="37" height="37" style="fill: rgb(0,0,255); fill-opacity: 1.0" transform="matrix(0.0708661418,0,0,0.0708661418,17.7165354375,17.7165354375)" /><rect x="686" y="802" width="37" height="37" style="fill: rgb(0,0,255); fill-opacity: 1.0" transform="matrix(0.0708661418,0,0,0.0708661418,17.7165354375,17.7165354375)" /><rect x="686" y="802" width="37" height="37" style="fill: rgb(0,0,255); fill-opacity: 1.0" transform="matrix(0.0708661418,0,0,0.0708661418,17.7165354375,17.7165354375)" /><rect x="686" y="802" width="37" height="37" style="fill: rgb(0,0,255); fill-opacity: 1.0" transform="matrix(0.0708661418,0,0,0.0708661418,17.7165354375,17.7165354375)" /><rect x="686" y="802" width="37" height="37" style="fill: rgb(0,0,255); fill-opacity: 1.0" transform="matrix(0.0708661418,0,0,0.0708661418,17.7165354375,17.7165354375)" /><rect x="686" y="802" width="37" height="37" style="fill: rgb(0,0,255); fill-opacity: 1.0" transform="matrix(0.0708661418,0,0,0.0708661418,17.7165354375,17.7165354375)" /><rect x="686" y="802" width="37" height="37" style="fill: rgb(0,0,255); fill-opacity: 1.0" transform="matrix(0.0708661418,0,0,0.0708661418,17.7165354375,17.7165354375)" /><rect x="686" y="802" width="113" height="37" style="fill: rgb(0,0,255); fill-opacity: 1.0" transform="matrix(0.0708661418,0,0,0.0708661418,17.7165354375,17.7165354375)" /><rect x="762" y="802" width="37" height="37" style="fill: rgb(0,0,255); fill-opacity: 1.0" transform="matrix(0.0708661418,0,0,0.0708661418,17.7165354375,17.7165354375)" /><rect x="762" y="802" width="37" height="37" style="fill: rgb(0,0,255); fill-opacity: 1.0" transform="matrix(0.0708661418,0,0,0.0708661418,17.7165354375,17.7165354375)" /><rect x="762" y="802" width="37" height="37" style="fill: rgb(0,0,255); fill-opacity: 1.0" transform="matrix(0.0708661418,0,0,0.0708661418,17.7165354375,17.7165354375)" /><rect x="762" y="802" width="37" height="37" style="fill: rgb(0,0,255); fill-opacity: 1.0" transform="matrix(0.0708661418,0,0,0.0708661418,17.7165354375,17.7165354375)" /><rect x="762" y="802" width="37" height="37" style="fill: rgb(0,0,255); fill-opacity: 1.0" transform="matrix(0.0708661418,0,0,0.0708661418,17.7165354375,17.7165354375)" /><rect x="762" y="802" width="37" height="37" style="fill: rgb(0,0,255); fill-opacity: 1.0" transform="matrix(0.0708661418,0,0,0.0708661418,17.7165354375,17.7165354375)" /><rect x="762" y="802" width="37" height="37" style="fill: rgb(0,0,255); fill-opacity: 1.0" transform="matrix(0.0708661418,0,0,0.0708661418,17.7165354375,17.7165354375)" /><rect x="762" y="802" width="37" height="37" style="fill: rgb(0,0,255); fill-opacity: 1.0" transform="matrix(0.0708661418,0,0,0.0708661418,17.7165354375,17.7165354375)" /><rect x="762" y="802" width="37" height="37" style="fill: rgb(0,0,255); fill-opacity: 1.0" transform="matrix(0.0708661418,0,0,0.0708661418,17.7165354375,17.7165354375)" /><rect x="762" y="802" width="37" height="37" style="fill: rgb(0,0,255); fill-opacity: 1.0" transform="matrix(0.0708661418,0,0,0.0708661418,17.7165354375,17.7165354375)" /><rect x="762" y="802" width="37" height="37" style="fill: rgb(0,0,255); fill-opacity: 1.0" transform="matrix(0.0708661418,0,0,0.0708661418,17.7165354375,17.7165354375)" /><rect x="762" y="802" width="37" height="37" style="fill: rgb(0,0,255); fill-opacity: 1.0" transform="matrix(0.0708661418,0,0,0.0708661418,17.7165354375,17.7165354375)" /><rect x="762" y="755" width="37" height="84" style="fill: rgb(0,0,255); fill-opacity: 1.0" transform="matrix(0.0708661418,0,0,0.0708661418,17.7165354375,17.7165354375)" /><rect x="762" y="755" width="37" height="37" style="fill: rgb(0,0,255); fill-opacity: 1.0" transform="matrix(0.0708661418,0,0,0.0708661418,17.7165354375,17.7165354375)" /><rect x="762" y="755" width="37" height="37" style="fill: rgb(0,0,255); fill-opacity: 1.0" transform="matrix(0.0708661418,0,0,0.0708661418,17.7165354375,17.7165354375)" /><rect x="762" y="755" width="37" height="37" style="fill: rgb(0,0,255); fill-opacity: 1.0" transform="matrix(0.0708661418,0,0,0.0708661418,17.7165354375,17.7165354375)" /><rect x="762" y="755" width="37" height="37" style="fill: rgb(0,0,255); fill-opacity: 1.0" transform="matrix(0.0708661418,0,0,0.0708661418,17.7165354375,17.7165354375)" /><rect x="762" y="755" width="37" height="37" style="fill: rgb(0,0,255); fill-opacity: 1.0" transform="matrix(0.0708661418,0,0,0.0708661418,17.7165354375,17.7165354375)" /><rect x="762" y="755" width="37" height="37" style="fill: rgb(0,0,255); fill-opacity: 1.0" transform="matrix(0.0708661418,0,0,0.0708661418,17.7165354375,17.7165354375)" /><rect x="762" y="755" width="37" height="37" style="fill: rgb(0,0,255); fill-opacity: 1.0" transform="matrix(0.0708661418,0,0,0.0708661418,17.7165354375,17.7165354375)" /><rect x="762" y="755" width="37" height="37" style="fill: rgb(0,0,255); fill-opacity: 1.0" transform="matrix(0.0708661418,0,0,0.0708661418,17.7165354375,17.7165354375)" /><rect x="762" y="755" width="37" height="37" style="fill: rgb(0,0,255); fill-opacity: 1.0" transform="matrix(0.0708661418,0,0,0.0708661418,17.7165354375,17.7165354375)" /><rect x="762" y="755" width="37" height="37" style="fill: rgb(0,0,255); fill-opacity: 1.0" transform="matrix(0.0708661418,0,0,0.0708661418,17.7165354375,17.7165354375)" /><rect x="762" y="755" width="37" height="37" style="fill: rgb(0,0,255); fill-opacity: 1.0" transform="matrix(0.0708661418,0,0,0.0708661418,17.7165354375,17.7165354375)" /><rect x="762" y="755" width="37" height="37" style="fill: rgb(0,0,255); fill-opacity: 1.0" transform="matrix(0.0708661418,0,0,0.0708661418,17.7165354375,17.7165354375)" /><rect x="762" y="755" width="75" height="37" style="fill: rgb(0,0,255); fill-opacity: 1.0" transform="matrix(0.0708661418,0,0,0.0708661418,17.7165354375,17.7165354375)" /><rect x="800" y="755" width="37" height="37" style="fill: rgb(0,0,255); fill-opacity: 1.0" transform="matrix(0.0708661418,0,0,0.0708661418,17.7165354375,17.7165354375)" /><rect x="800" y="755" width="37" height="37" style="fill: rgb(0,0,255); fill-opacity: 1.0" transform="matrix(0.0708661418,0,0,0.0708661418,17.7165354375,17.7165354375)" /><rect x="800" y="755" width="37" height="37" style="fill: rgb(0,0,255); fill-opacity: 1.0" transform="matrix(0.0708661418,0,0,0.0708661418,17.7165354375,17.7165354375)" /><rect x="800" y="755" width="37" height="37" style="fill: rgb(0,0,255); fill-opacity: 1.0" transform="matrix(0.0708661418,0,0,0.0708661418,17.7165354375,17.7165354375)" /><rect x="800" y="755" width="37" height="37" style="fill: rgb(0,0,255); fill-opacity: 1.0" transform="matrix(0.0708661418,0,0,0.0708661418,17.7165354375,17.7165354375)" /><rect x="800" y="755" width="37" height="37" style="fill: rgb(0,0,255); fill-opacity: 1.0" transform="matrix(0.0708661418,0,0,0.0708661418,17.7165354375,17.7165354375)" /></svg>
