<?xml version="1.0"?>
<!DOCTYPE svg PUBLIC "-//W3C//DTD SVG 1.0//EN" "http://www.w3.org/TR/2001/REC-SVG-20010904/DTD/svg10.dtd">
<svg xmlns="http://www.w3.org/2000/svg" xmlns:xlink="http://www.w3.org/1999/xlink" xmlns:jfreesvg="http://www.jfree.org/jfreesvg/svg" width="314" height="192" text-rendering="auto" shape-rendering="auto">
<defs></defs>
<line x1="0" y1="0" x2="88419" y2="0" style="stroke-width: 100.0;stroke: rgb(0,0,0);stroke-opacity: 1.0;stroke-linecap: round;stroke-linejoin: round;" transform="matrix(0.0035433071,0,0,0.0035433071,0,0)" /><line x1="88420" y1="0" x2="88420" y2="54079" style="stroke-width: 100.0;stroke: rgb(0,0,0);stroke-opacity: 1.0;stroke-linecap: round;stroke-linejoin: round;" transform="matrix(0.0035433071,0,0,0.0035433071,0,0)" /><line x1="88420" y1="54080" x2="1" y2="54080" style="stroke-width: 100.0;stroke: rgb(0,0,0);stroke-opacity: 1.0;stroke-linecap: round;stroke-linejoin: round;" transform="matrix(0.0035433071,0,0,0.0035433071,0,0)" /><line x1="0" y1="54080" x2="0" y2="1" style="stroke-width: 100.0;stroke: rgb(0,0,0);stroke-opacity: 1.0;stroke-linecap: round;stroke-linejoin: round;" transform="matrix(0.0035433071,0,0,0.0035433071,0,0)" /><ellipse cx="305" cy="896" rx="101" ry="101" style="fill: rgb(0,0,255); fill-opacity: 1.0" transform="matrix(0.0708661418,0,0,0.0708661418,17.7165354375,17.7165354375)" /><ellipse cx="221" cy="1459" rx="101" ry="101" style="fill: rgb(0,0,255); fill-opacity: 1.0" transform="matrix(0.0708661418,0,0,0.0708661418,17.7165354375,17.7165354375)" /><ellipse cx="221" cy="1241" rx="101" ry="101" style="fill: rgb(0,0,255); fill-opacity: 1.0" transform="matrix(0.0708661418,0,0,0.0708661418,17.7165354375,17.7165354375)" /><ellipse cx="3300" cy="1196" rx="101" ry="101" style="fill: rgb(0,0,255); fill-opacity: 1.0" transform="matrix(0.0708661418,0,0,0.0708661418,17.7165354375,17.7165354375)" /><rect x="1279" y="1170" width="50" height="100" style="fill: rgb(0,0,255); fill-opacity: 1.0" transform="matrix(0.0708661418,0,0,0.0708661418,17.7165354375,17.7165354375)" /><rect x="1279" y="1245" width="150" height="50" style="fill: rgb(0,0,255); fill-opacity: 1.0" transform="matrix(0.0708661418,0,0,0.0708661418,17.7165354375,17.7165354375)" /><rect x="1379" y="1095" width="50" height="200" style="fill: rgb(0,0,255); fill-opacity: 1.0" transform="matrix(0.0708661418,0,0,0.0708661418,17.7165354375,17.7165354375)" /><rect x="1379" y="1095" width="150" height="50" style="fill: rgb(0,0,255); fill-opacity: 1.0" transform="matrix(0.0708661418,0,0,0.0708661418,17.7165354375,17.7165354375)" /><rect x="1479" y="1095" width="50" height="200" style="fill: rgb(0,0,255); fill-opacity: 1.0" transform="matrix(0.0708661418,0,0,0.0708661418,17.7165354375,17.7165354375)" /><rect x="1479" y="1245" width="150" height="50" style="fill: rgb(0,0,255); fill-opacity: 1.0" transform="matrix(0.0708661418,0,0,0.0708661418,17.7165354375,17.7165354375)" /><rect x="1579" y="1095" width="50" height="200" style="fill: rgb(0,0,255); fill-opacity: 1.0" transform="matrix(0.0708661418,0,0,0.0708661418,17.7165354375,17.7165354375)" /><rect x="1579" y="1095" width="150" height="50" style="fill: rgb(0,0,255); fill-opacity: 1.0" transform="matrix(0.0708661418,0,0,0.0708661418,17.7165354375,17.7165354375)" /><rect x="1679" y="1095" width="50" height="200" style="fill: rgb(0,0,255); fill-opacity: 1.0" transform="matrix(0.0708661418,0,0,0.0708661418,17.7165354375,17.7165354375)" /><rect x="1679" y="1245" width="150" height="50" style="fill: rgb(0,0,255); fill-opacity: 1.0" transform="matrix(0.0708661418,0,0,0.0708661418,17.7165354375,17.7165354375)" /><rect x="1779" y="1095" width="50" height="200" style="fill: rgb(0,0,255); fill-opacity: 1.0" transform="matrix(0.0708661418,0,0,0.0708661418,17.7165354375,17.7165354375)" /><rect x="1779" y="1095" width="150" height="50" style="fill: rgb(0,0,255); fill-opacity: 1.0" transform="matrix(0.0708661418,0,0,0.0708661418,17.7165354375,17.7165354375)" /><rect x="1879" y="1095" width="50" height="200" style="fill: rgb(0,0,255); fill-opacity: 1.0" transform="matrix(0.0708661418,0,0,0.0708661418,17.7165354375,17.7165354375)" /><rect x="1879" y="1245" width="150" height="50" style="fill: rgb(0,0,255); fill-opacity: 1.0" transform="matrix(0.0708661418,0,0,0.0708661418,17.7165354375,17.7165354375)" /><rect x="1979" y="1095" width="50" height="200" style="fill: rgb(0,0,255); fill-opacity: 1.0" transform="matrix(0.0708661418,0,0,0.0708661418,17.7165354375,17.7165354375)" /><rect x="1979" y="1095" width="150" height="50" style="fill: rgb(0,0,255); fill-opacity: 1.0" transform="matrix(0.0708661418,0,0,0.0708661418,17.7165354375,17.7165354375)" /><rect x="2079" y="1095" width="50" height="200" style="fill: rgb(0,0,255); fill-opacity: 1.0" transform="matrix(0.0708661418,0,0,0.0708661418,17.7165354375,17.7165354375)" /><rect x="2079" y="1245" width="150" height="50" style="fill: rgb(0,0,255); fill-opacity: 1.0" transform="matrix(0.0708661418,0,0,0.0708661418,17.7165354375,17.7165354375)" /><rect x="2179" y="1095" width="50" height="200" style="fill: rgb(0,0,255); fill-opacity: 1.0" transform="matrix(0.0708661418,0,0,0.0708661418,17.7165354375,17.7165354375)" /><rect x="2179" y="1095" width="150" height="50" style="fill: rgb(0,0,255); fill-opacity: 1.0" transform="matrix(0.0708661418,0,0,0.0708661418,17.7165354375,17.7165354375)" /><rect x="2279" y="1095" width="50" height="125" style="fill: rgb(0,0,255); fill-opacity: 1.0" transform="matrix(0.0708661418,0,0,0.0708661418,17.7165354375,17.7165354375)" /><rect x="2469" y="1171" width="300" height="50" style="fill: rgb(0,0,255); fill-opacity: 1.0" transform="matrix(0.0708661418,0,0,0.0708661418,17.7165354375,17.7165354375)" /><g style="fill: rgb(0,0,255); fill-opacity: 1.0; stroke: none" transform="matrix(0.0708661418,0,0,0.0708661418,17.7165354375,17.7165354375)" ><path d="M 988.807800293 804.9703979492 C 944.2611694336 816.0771484375 913 856.0896606445 913 902 C 913 947.9103393555 944.2611694336 987.9228515625 988.807800293 999.0296020508"/></g><g style="fill: rgb(0,0,255); fill-opacity: 1.0; stroke: none" transform="matrix(0.0708661418,0,0,0.0708661418,17.7165354375,17.7165354375)" ><path d="M 1037.1921386719 999.0296020508 C 1081.7387695312 987.9228515625 1113 947.9103393555 1113 902 C 1113 856.0896606445 1081.7387695312 816.0771484375 1037.1921386719 804.9703979492"/></g><g style="fill: rgb(0,0,255); fill-opacity: 1.0; stroke: none" transform="matrix(0.0708661418,0,0,0.0708661418,17.7165354375,17.7165354375)" ><path d="M 621.807800293 1143.9704589844 C 577.2611694336 1155.0771484375 546 1195.0895996094 546 1241 C 546 1286.9104003906 577.2611694336 1326.9228515625 621.807800293 1338.0295410156"/></g><g style="fill: rgb(0,0,255); fill-opacity: 1.0; stroke: none" transform="matrix(0.0708661418,0,0,0.0708661418,17.7165354375,17.7165354375)" ><path d="M 670.192199707 1338.0295410156 C 714.7388305664 1326.9228515625 746 1286.9104003906 746 1241 C 746 1195.0895996094 714.7388305664 1155.0771484375 670.192199707 1143.9704589844"/></g><rect x="297" y="1216" width="50" height="50" style="fill: rgb(0,0,255); fill-opacity: 1.0" transform="matrix(0.0708661418,0,0,0.0708661418,17.7165354375,17.7165354375)" /><rect x="297" y="1216" width="50" height="50" style="fill: rgb(0,0,255); fill-opacity: 1.0" transform="matrix(0.0708661418,0,0,0.0708661418,17.7165354375,17.7165354375)" /><rect x="297" y="1216" width="50" height="50" style="fill: rgb(0,0,255); fill-opacity: 1.0" transform="matrix(0.0708661418,0,0,0.0708661418,17.7165354375,17.7165354375)" /><rect x="297" y="1216" width="50" height="50" style="fill: rgb(0,0,255); fill-opacity: 1.0" transform="matrix(0.0708661418,0,0,0.0708661418,17.7165354375,17.7165354375)" /><rect x="297" y="1216" width="50" height="50" style="fill: rgb(0,0,255); fill-opacity: 1.0" transform="matrix(0.0708661418,0,0,0.0708661418,17.7165354375,17.7165354375)" /><rect x="297" y="1216" width="50" height="50" style="fill: rgb(0,0,255); fill-opacity: 1.0" transform="matrix(0.0708661418,0,0,0.0708661418,17.7165354375,17.7165354375)" /><rect x="297" y="1216" width="274" height="50" style="fill: rgb(0,0,255); fill-opacity: 1.0" transform="matrix(0.0708661418,0,0,0.0708661418,17.7165354375,17.7165354375)" /><rect x="521" y="1216" width="50" height="50" style="fill: rgb(0,0,255); fill-opacity: 1.0" transform="matrix(0.0708661418,0,0,0.0708661418,17.7165354375,17.7165354375)" /><rect x="521" y="1216" width="50" height="50" style="fill: rgb(0,0,255); fill-opacity: 1.0" transform="matrix(0.0708661418,0,0,0.0708661418,17.7165354375,17.7165354375)" /><rect x="521" y="1216" width="50" height="50" style="fill: rgb(0,0,255); fill-opacity: 1.0" transform="matrix(0.0708661418,0,0,0.0708661418,17.7165354375,17.7165354375)" /><rect x="521" y="1216" width="50" height="50" style="fill: rgb(0,0,255); fill-opacity: 1.0" transform="matrix(0.0708661418,0,0,0.0708661418,17.7165354375,17.7165354375)" /><rect x="521" y="1216" width="50" height="50" style="fill: rgb(0,0,255); fill-opacity: 1.0" transform="matrix(0.0708661418,0,0,0.0708661418,17.7165354375,17.7165354375)" /><rect x="521" y="1216" width="50" height="50" style="fill: rgb(0,0,255); fill-opacity: 1.0" transform="matrix(0.0708661418,0,0,0.0708661418,17.7165354375,17.7165354375)" /><rect x="2744" y="1171" width="50" height="50" style="fill: rgb(0,0,255); fill-opacity: 1.0" transform="matrix(0.0708661418,0,0,0.0708661418,17.7165354375,17.7165354375)" /><rect x="2744" y="1171" width="50" height="50" style="fill: rgb(0,0,255); fill-opacity: 1.0" transform="matrix(0.0708661418,0,0,0.0708661418,17.7165354375,17.7165354375)" /><rect x="2744" y="1171" width="50" height="50" style="fill: rgb(0,0,255); fill-opacity: 1.0" transform="matrix(0.0708661418,0,0,0.0708661418,17.7165354375,17.7165354375)" /><rect x="2744" y="1171" width="50" height="50" style="fill: rgb(0,0,255); fill-opacity: 1.0" transform="matrix(0.0708661418,0,0,0.0708661418,17.7165354375,17.7165354375)" /><rect x="2744" y="1171" width="50" height="50" style="fill: rgb(0,0,255); fill-opacity: 1.0" transform="matrix(0.0708661418,0,0,0.0708661418,17.7165354375,17.7165354375)" /><rect x="2744" y="1171" width="50" height="50" style="fill: rgb(0,0,255); fill-opacity: 1.0" transform="matrix(0.0708661418,0,0,0.0708661418,17.7165354375,17.7165354375)" /><rect x="2744" y="1171" width="480" height="50" style="fill: rgb(0,0,255); fill-opacity: 1.0" transform="matrix(0.0708661418,0,0,0.0708661418,17.7165354375,17.7165354375)" /><rect x="3174" y="1171" width="50" height="50" style="fill: rgb(0,0,255); fill-opacity: 1.0" transform="matrix(0.0708661418,0,0,0.0708661418,17.7165354375,17.7165354375)" /><rect x="3174" y="1171" width="50" height="50" style="fill: rgb(0,0,255); fill-opacity: 1.0" transform="matrix(0.0708661418,0,0,0.0708661418,17.7165354375,17.7165354375)" /><rect x="3174" y="1171" width="50" height="50" style="fill: rgb(0,0,255); fill-opacity: 1.0" transform="matrix(0.0708661418,0,0,0.0708661418,17.7165354375,17.7165354375)" /><rect x="3174" y="1171" width="50" height="50" style="fill: rgb(0,0,255); fill-opacity: 1.0" transform="matrix(0.0708661418,0,0,0.0708661418,17.7165354375,17.7165354375)" /><rect x="3174" y="1171" width="50" height="50" style="fill: rgb(0,0,255); fill-opacity: 1.0" transform="matrix(0.0708661418,0,0,0.0708661418,17.7165354375,17.7165354375)" /><rect x="3174" y="1171" width="50" height="50" style="fill: rgb(0,0,255); fill-opacity: 1.0" transform="matrix(0.0708661418,0,0,0.0708661418,17.7165354375,17.7165354375)" /><rect x="1088" y="877" width="50" height="50" style="fill: rgb(0,0,255); fill-opacity: 1.0" transform="matrix(0.0708661418,0,0,0.0708661418,17.7165354375,17.7165354375)" /><rect x="1088" y="877" width="50" height="50" style="fill: rgb(0,0,255); fill-opacity: 1.0" transform="matrix(0.0708661418,0,0,0.0708661418,17.7165354375,17.7165354375)" /><rect x="1088" y="877" width="50" height="50" style="fill: rgb(0,0,255); fill-opacity: 1.0" transform="matrix(0.0708661418,0,0,0.0708661418,17.7165354375,17.7165354375)" /><rect x="1088" y="877" width="50" height="50" style="fill: rgb(0,0,255); fill-opacity: 1.0" transform="matrix(0.0708661418,0,0,0.0708661418,17.7165354375,17.7165354375)" /><rect x="1088" y="877" width="50" height="50" style="fill: rgb(0,0,255); fill-opacity: 1.0" transform="matrix(0.0708661418,0,0,0.0708661418,17.7165354375,17.7165354375)" /><rect x="1088" y="877" width="50" height="50" style="fill: rgb(0,0,255); fill-opacity: 1.0" transform="matrix(0.0708661418,0,0,0.0708661418,17.7165354375,17.7165354375)" /><rect x="1088" y="877" width="50" height="341" style="fill: rgb(0,0,255); fill-opacity: 1.0" transform="matrix(0.0708661418,0,0,0.0708661418,17.7165354375,17.7165354375)" /><rect x="1088" y="1168" width="50" height="50" style="fill: rgb(0,0,255); fill-opacity: 1.0" transform="matrix(0.0708661418,0,0,0.0708661418,17.7165354375,17.7165354375)" /><rect x="1088" y="1168" width="50" height="50" style="fill: rgb(0,0,255); fill-opacity: 1.0" transform="matrix(0.0708661418,0,0,0.0708661418,17.7165354375,17.7165354375)" /><rect x="1088" y="1168" width="50" height="50" style="fill: rgb(0,0,255); fill-opacity: 1.0" transform="matrix(0.0708661418,0,0,0.0708661418,17.7165354375,17.7165354375)" /><rect x="1088" y="1168" width="50" height="50" style="fill: rgb(0,0,255); fill-opacity: 1.0" transform="matrix(0.0708661418,0,0,0.0708661418,17.7165354375,17.7165354375)" /><rect x="1088" y="1168" width="50" height="50" style="fill: rgb(0,0,255); fill-opacity: 1.0" transform="matrix(0.0708661418,0,0,0.0708661418,17.7165354375,17.7165354375)" /><rect x="1088" y="1168" width="50" height="50" style="fill: rgb(0,0,255); fill-opacity: 1.0" transform="matrix(0.0708661418,0,0,0.0708661418,17.7165354375,17.7165354375)" /><rect x="381" y="871" width="50" height="50" style="fill: rgb(0,0,255); fill-opacity: 1.0" transform="matrix(0.0708661418,0,0,0.0708661418,17.7165354375,17.7165354375)" /><rect x="381" y="871" width="50" height="50" style="fill: rgb(0,0,255); fill-opacity: 1.0" transform="matrix(0.0708661418,0,0,0.0708661418,17.7165354375,17.7165354375)" /><rect x="381" y="871" width="50" height="50" style="fill: rgb(0,0,255); fill-opacity: 1.0" transform="matrix(0.0708661418,0,0,0.0708661418,17.7165354375,17.7165354375)" /><rect x="381" y="871" width="50" height="50" style="fill: rgb(0,0,255); fill-opacity: 1.0" transform="matrix(0.0708661418,0,0,0.0708661418,17.7165354375,17.7165354375)" /><rect x="381" y="871" width="506" height="50" style="fill: rgb(0,0,255); fill-opacity: 1.0" transform="matrix(0.0708661418,0,0,0.0708661418,17.7165354375,17.7165354375)" /><rect x="837" y="871" width="50" height="50" style="fill: rgb(0,0,255); fill-opacity: 1.0" transform="matrix(0.0708661418,0,0,0.0708661418,17.7165354375,17.7165354375)" /><rect x="837" y="871" width="50" height="50" style="fill: rgb(0,0,255); fill-opacity: 1.0" transform="matrix(0.0708661418,0,0,0.0708661418,17.7165354375,17.7165354375)" /><rect x="837" y="871" width="50" height="50" style="fill: rgb(0,0,255); fill-opacity: 1.0" transform="matrix(0.0708661418,0,0,0.0708661418,17.7165354375,17.7165354375)" /><rect x="837" y="871" width="50" height="50" style="fill: rgb(0,0,255); fill-opacity: 1.0" transform="matrix(0.0708661418,0,0,0.0708661418,17.7165354375,17.7165354375)" /><rect x="837" y="871" width="50" height="50" style="fill: rgb(0,0,255); fill-opacity: 1.0" transform="matrix(0.0708661418,0,0,0.0708661418,17.7165354375,17.7165354375)" /><rect x="837" y="871" width="50" height="50" style="fill: rgb(0,0,255); fill-opacity: 1.0" transform="matrix(0.0708661418,0,0,0.0708661418,17.7165354375,17.7165354375)" /><rect x="837" y="871" width="50" height="50" style="fill: rgb(0,0,255); fill-opacity: 1.0" transform="matrix(0.0708661418,0,0,0.0708661418,17.7165354375,17.7165354375)" /><rect x="837" y="871" width="50" height="50" style="fill: rgb(0,0,255); fill-opacity: 1.0" transform="matrix(0.0708661418,0,0,0.0708661418,17.7165354375,17.7165354375)" /><rect x="837" y="871" width="50" height="56" style="fill: rgb(0,0,255); fill-opacity: 1.0" transform="matrix(0.0708661418,0,0,0.0708661418,17.7165354375,17.7165354375)" /><rect x="837" y="877" width="50" height="50" style="fill: rgb(0,0,255); fill-opacity: 1.0" transform="matrix(0.0708661418,0,0,0.0708661418,17.7165354375,17.7165354375)" /><rect x="837" y="877" width="50" height="50" style="fill: rgb(0,0,255); fill-opacity: 1.0" transform="matrix(0.0708661418,0,0,0.0708661418,17.7165354375,17.7165354375)" /><rect x="837" y="877" width="50" height="50" style="fill: rgb(0,0,255); fill-opacity: 1.0" transform="matrix(0.0708661418,0,0,0.0708661418,17.7165354375,17.7165354375)" /><rect x="837" y="877" width="50" height="50" style="fill: rgb(0,0,255); fill-opacity: 1.0" transform="matrix(0.0708661418,0,0,0.0708661418,17.7165354375,17.7165354375)" /><rect x="837" y="877" width="50" height="50" style="fill: rgb(0,0,255); fill-opacity: 1.0" transform="matrix(0.0708661418,0,0,0.0708661418,17.7165354375,17.7165354375)" /><rect x="837" y="877" width="50" height="50" style="fill: rgb(0,0,255); fill-opacity: 1.0" transform="matrix(0.0708661418,0,0,0.0708661418,17.7165354375,17.7165354375)" /><rect x="837" y="877" width="50" height="50" style="fill: rgb(0,0,255); fill-opacity: 1.0" transform="matrix(0.0708661418,0,0,0.0708661418,17.7165354375,17.7165354375)" /><rect x="837" y="877" width="50" height="50" style="fill: rgb(0,0,255); fill-opacity: 1.0" transform="matrix(0.0708661418,0,0,0.0708661418,17.7165354375,17.7165354375)" /><rect x="837" y="877" width="101" height="50" style="fill: rgb(0,0,255); fill-opacity: 1.0" transform="matrix(0.0708661418,0,0,0.0708661418,17.7165354375,17.7165354375)" /><rect x="888" y="877" width="50" height="50" style="fill: rgb(0,0,255); fill-opacity: 1.0" transform="matrix(0.0708661418,0,0,0.0708661418,17.7165354375,17.7165354375)" /><rect x="888" y="877" width="50" height="50" style="fill: rgb(0,0,255); fill-opacity: 1.0" transform="matrix(0.0708661418,0,0,0.0708661418,17.7165354375,17.7165354375)" /><rect x="888" y="877" width="50" height="50" style="fill: rgb(0,0,255); fill-opacity: 1.0" transform="matrix(0.0708661418,0,0,0.0708661418,17.7165354375,17.7165354375)" /><rect x="888" y="877" width="50" height="50" style="fill: rgb(0,0,255); fill-opacity: 1.0" transform="matrix(0.0708661418,0,0,0.0708661418,17.7165354375,17.7165354375)" /><rect x="297" y="1434" width="50" height="50" style="fill: rgb(0,0,255); fill-opacity: 1.0" transform="matrix(0.0708661418,0,0,0.0708661418,17.7165354375,17.7165354375)" /><rect x="297" y="1434" width="50" height="50" style="fill: rgb(0,0,255); fill-opacity: 1.0" transform="matrix(0.0708661418,0,0,0.0708661418,17.7165354375,17.7165354375)" /><rect x="297" y="1434" width="50" height="50" style="fill: rgb(0,0,255); fill-opacity: 1.0" transform="matrix(0.0708661418,0,0,0.0708661418,17.7165354375,17.7165354375)" /><rect x="297" y="1434" width="50" height="50" style="fill: rgb(0,0,255); fill-opacity: 1.0" transform="matrix(0.0708661418,0,0,0.0708661418,17.7165354375,17.7165354375)" /><rect x="297" y="1434" width="222" height="50" style="fill: rgb(0,0,255); fill-opacity: 1.0" transform="matrix(0.0708661418,0,0,0.0708661418,17.7165354375,17.7165354375)" /><rect x="469" y="1434" width="50" height="50" style="fill: rgb(0,0,255); fill-opacity: 1.0" transform="matrix(0.0708661418,0,0,0.0708661418,17.7165354375,17.7165354375)" /><rect x="469" y="1434" width="50" height="50" style="fill: rgb(0,0,255); fill-opacity: 1.0" transform="matrix(0.0708661418,0,0,0.0708661418,17.7165354375,17.7165354375)" /><rect x="469" y="1434" width="50" height="50" style="fill: rgb(0,0,255); fill-opacity: 1.0" transform="matrix(0.0708661418,0,0,0.0708661418,17.7165354375,17.7165354375)" /><rect x="469" y="1434" width="50" height="50" style="fill: rgb(0,0,255); fill-opacity: 1.0" transform="matrix(0.0708661418,0,0,0.0708661418,17.7165354375,17.7165354375)" /><rect x="469" y="1434" width="50" height="50" style="fill: rgb(0,0,255); fill-opacity: 1.0" transform="matrix(0.0708661418,0,0,0.0708661418,17.7165354375,17.7165354375)" /><rect x="469" y="1434" width="50" height="50" style="fill: rgb(0,0,255); fill-opacity: 1.0" transform="matrix(0.0708661418,0,0,0.0708661418,17.7165354375,17.7165354375)" /><rect x="469" y="1434" width="50" height="50" style="fill: rgb(0,0,255); fill-opacity: 1.0" transform="matrix(0.0708661418,0,0,0.0708661418,17.7165354375,17.7165354375)" /><rect x="469" y="1434" width="50" height="50" style="fill: rgb(0,0,255); fill-opacity: 1.0" transform="matrix(0.0708661418,0,0,0.0708661418,17.7165354375,17.7165354375)" /><rect x="469" y="1366" width="50" height="118" style="fill: rgb(0,0,255); fill-opacity: 1.0" transform="matrix(0.0708661418,0,0,0.0708661418,17.7165354375,17.7165354375)" /><rect x="469" y="1366" width="50" height="50" style="fill: rgb(0,0,255); fill-opacity: 1.0" transform="matrix(0.0708661418,0,0,0.0708661418,17.7165354375,17.7165354375)" /><rect x="469" y="1366" width="50" height="50" style="fill: rgb(0,0,255); fill-opacity: 1.0" transform="matrix(0.0708661418,0,0,0.0708661418,17.7165354375,17.7165354375)" /><rect x="469" y="1366" width="50" height="50" style="fill: rgb(0,0,255); fill-opacity: 1.0" transform="matrix(0.0708661418,0,0,0.0708661418,17.7165354375,17.7165354375)" /><rect x="469" y="1366" width="50" height="50" style="fill: rgb(0,0,255); fill-opacity: 1.0" transform="matrix(0.0708661418,0,0,0.0708661418,17.7165354375,17.7165354375)" /><rect x="469" y="1366" width="50" height="50" style="fill: rgb(0,0,255); fill-opacity: 1.0" transform="matrix(0.0708661418,0,0,0.0708661418,17.7165354375,17.7165354375)" /><rect x="469" y="1366" width="50" height="50" style="fill: rgb(0,0,255); fill-opacity: 1.0" transform="matrix(0.0708661418,0,0,0.0708661418,17.7165354375,17.7165354375)" /><rect x="469" y="1366" width="50" height="50" style="fill: rgb(0,0,255); fill-opacity: 1.0" transform="matrix(0.0708661418,0,0,0.0708661418,17.7165354375,17.7165354375)" /><rect x="469" y="1366" width="50" height="50" style="fill: rgb(0,0,255); fill-opacity: 1.0" transform="matrix(0.0708661418,0,0,0.0708661418,17.7165354375,17.7165354375)" /><rect x="469" y="1366" width="669" height="50" style="fill: rgb(0,0,255); fill-opacity: 1.0" transform="matrix(0.0708661418,0,0,0.0708661418,17.7165354375,17.7165354375)" /><rect x="1088" y="1366" width="50" height="50" style="fill: rgb(0,0,255); fill-opacity: 1.0" transform="matrix(0.0708661418,0,0,0.0708661418,17.7165354375,17.7165354375)" /><rect x="1088" y="1366" width="50" height="50" style="fill: rgb(0,0,255); fill-opacity: 1.0" transform="matrix(0.0708661418,0,0,0.0708661418,17.7165354375,17.7165354375)" /><rect x="1088" y="1366" width="50" height="50" style="fill: rgb(0,0,255); fill-opacity: 1.0" transform="matrix(0.0708661418,0,0,0.0708661418,17.7165354375,17.7165354375)" /><rect x="1088" y="1366" width="50" height="50" style="fill: rgb(0,0,255); fill-opacity: 1.0" transform="matrix(0.0708661418,0,0,0.0708661418,17.7165354375,17.7165354375)" /><rect x="1088" y="1366" width="50" height="50" style="fill: rgb(0,0,255); fill-opacity: 1.0" transform="matrix(0.0708661418,0,0,0.0708661418,17.7165354375,17.7165354375)" /><rect x="1088" y="1366" width="50" height="50" style="fill: rgb(0,0,255); fill-opacity: 1.0" transform="matrix(0.0708661418,0,0,0.0708661418,17.7165354375,17.7165354375)" /><rect x="1088" y="1366" width="50" height="50" style="fill: rgb(0,0,255); fill-opacity: 1.0" transform="matrix(0.0708661418,0,0,0.0708661418,17.7165354375,17.7165354375)" /><rect x="1088" y="1366" width="50" height="50" style="fill: rgb(0,0,255); fill-opacity: 1.0" transform="matrix(0.0708661418,0,0,0.0708661418,17.7165354375,17.7165354375)" /><rect x="1088" y="1168" width="50" height="248" style="fill: rgb(0,0,255); fill-opacity: 1.0" transform="matrix(0.0708661418,0,0,0.0708661418,17.7165354375,17.7165354375)" /><rect x="1088" y="1168" width="50" height="50" style="fill: rgb(0,0,255); fill-opacity: 1.0" transform="matrix(0.0708661418,0,0,0.0708661418,17.7165354375,17.7165354375)" /><rect x="1088" y="1168" width="50" height="50" style="fill: rgb(0,0,255); fill-opacity: 1.0" transform="matrix(0.0708661418,0,0,0.0708661418,17.7165354375,17.7165354375)" /><rect x="1088" y="1168" width="50" height="50" style="fill: rgb(0,0,255); fill-opacity: 1.0" transform="matrix(0.0708661418,0,0,0.0708661418,17.7165354375,17.7165354375)" /><rect x="1088" y="1168" width="50" height="50" style="fill: rgb(0,0,255); fill-opacity: 1.0" transform="matrix(0.0708661418,0,0,0.0708661418,17.7165354375,17.7165354375)" /><rect x="721" y="1216" width="50" height="50" style="fill: rgb(0,0,255); fill-opacity: 1.0" transform="matrix(0.0708661418,0,0,0.0708661418,17.7165354375,17.7165354375)" /><rect x="721" y="1216" width="50" height="50" style="fill: rgb(0,0,255); fill-opacity: 1.0" transform="matrix(0.0708661418,0,0,0.0708661418,17.7165354375,17.7165354375)" /><rect x="721" y="1216" width="50" height="50" style="fill: rgb(0,0,255); fill-opacity: 1.0" transform="matrix(0.0708661418,0,0,0.0708661418,17.7165354375,17.7165354375)" /><rect x="721" y="1216" width="50" height="50" style="fill: rgb(0,0,255); fill-opacity: 1.0" transform="matrix(0.0708661418,0,0,0.0708661418,17.7165354375,17.7165354375)" /><rect x="721" y="1216" width="417" height="50" style="fill: rgb(0,0,255); fill-opacity: 1.0" transform="matrix(0.0708661418,0,0,0.0708661418,17.7165354375,17.7165354375)" /><rect x="1088" y="1216" width="50" height="50" style="fill: rgb(0,0,255); fill-opacity: 1.0" transform="matrix(0.0708661418,0,0,0.0708661418,17.7165354375,17.7165354375)" /><rect x="1088" y="1216" width="50" height="50" style="fill: rgb(0,0,255); fill-opacity: 1.0" transform="matrix(0.0708661418,0,0,0.0708661418,17.7165354375,17.7165354375)" /><rect x="1088" y="1216" width="50" height="50" style="fill: rgb(0,0,255); fill-opacity: 1.0" transform="matrix(0.0708661418,0,0,0.0708661418,17.7165354375,17.7165354375)" /><rect x="1088" y="1216" width="50" height="50" style="fill: rgb(0,0,255); fill-opacity: 1.0" transform="matrix(0.0708661418,0,0,0.0708661418,17.7165354375,17.7165354375)" /><rect x="1088" y="1216" width="50" height="50" style="fill: rgb(0,0,255); fill-opacity: 1.0" transform="matrix(0.0708661418,0,0,0.0708661418,17.7165354375,17.7165354375)" /><rect x="1088" y="1216" width="50" height="50" style="fill: rgb(0,0,255); fill-opacity: 1.0" transform="matrix(0.0708661418,0,0,0.0708661418,17.7165354375,17.7165354375)" /><rect x="1088" y="1216" width="50" height="50" style="fill: rgb(0,0,255); fill-opacity: 1.0" transform="matrix(0.0708661418,0,0,0.0708661418,17.7165354375,17.7165354375)" /><rect x="1088" y="1216" width="50" height="50" style="fill: rgb(0,0,255); fill-opacity: 1.0" transform="matrix(0.0708661418,0,0,0.0708661418,17.7165354375,17.7165354375)" /><rect x="1088" y="1168" width="50" height="98" style="fill: rgb(0,0,255); fill-opacity: 1.0" transform="matrix(0.0708661418,0,0,0.0708661418,17.7165354375,17.7165354375)" /><rect x="1088" y="1168" width="50" height="50" style="fill: rgb(0,0,255); fill-opacity: 1.0" transform="matrix(0.0708661418,0,0,0.0708661418,17.7165354375,17.7165354375)" /><rect x="1088" y="1168" width="50" height="50" style="fill: rgb(0,0,255); fill-opacity: 1.0" transform="matrix(0.0708661418,0,0,0.0708661418,17.7165354375,17.7165354375)" /><rect x="1088" y="1168" width="50" height="50" style="fill: rgb(0,0,255); fill-opacity: 1.0" transform="matrix(0.0708661418,0,0,0.0708661418,17.7165354375,17.7165354375)" /><rect x="1088" y="1168" width="50" height="50" style="fill: rgb(0,0,255); fill-opacity: 1.0" transform="matrix(0.0708661418,0,0,0.0708661418,17.7165354375,17.7165354375)" /><rect x="1254" y="1170" width="50" height="50" style="fill: rgb(0,0,255); fill-opacity: 1.0" transform="matrix(0.0708661418,0,0,0.0708661418,17.7165354375,17.7165354375)" /><rect x="1254" y="1170" width="50" height="50" style="fill: rgb(0,0,255); fill-opacity: 1.0" transform="matrix(0.0708661418,0,0,0.0708661418,17.7165354375,17.7165354375)" /><rect x="1254" y="1170" width="50" height="50" style="fill: rgb(0,0,255); fill-opacity: 1.0" transform="matrix(0.0708661418,0,0,0.0708661418,17.7165354375,17.7165354375)" /><rect x="1254" y="1170" width="50" height="50" style="fill: rgb(0,0,255); fill-opacity: 1.0" transform="matrix(0.0708661418,0,0,0.0708661418,17.7165354375,17.7165354375)" /><rect x="1088" y="1170" width="216" height="50" style="fill: rgb(0,0,255); fill-opacity: 1.0" transform="matrix(0.0708661418,0,0,0.0708661418,17.7165354375,17.7165354375)" /><rect x="1088" y="1170" width="50" height="50" style="fill: rgb(0,0,255); fill-opacity: 1.0" transform="matrix(0.0708661418,0,0,0.0708661418,17.7165354375,17.7165354375)" /><rect x="1088" y="1170" width="50" height="50" style="fill: rgb(0,0,255); fill-opacity: 1.0" transform="matrix(0.0708661418,0,0,0.0708661418,17.7165354375,17.7165354375)" /><rect x="1088" y="1170" width="50" height="50" style="fill: rgb(0,0,255); fill-opacity: 1.0" transform="matrix(0.0708661418,0,0,0.0708661418,17.7165354375,17.7165354375)" /><rect x="1088" y="1170" width="50" height="50" style="fill: rgb(0,0,255); fill-opacity: 1.0" transform="matrix(0.0708661418,0,0,0.0708661418,17.7165354375,17.7165354375)" /><rect x="1088" y="1170" width="50" height="50" style="fill: rgb(0,0,255); fill-opacity: 1.0" transform="matrix(0.0708661418,0,0,0.0708661418,17.7165354375,17.7165354375)" /><rect x="1088" y="1170" width="50" height="50" style="fill: rgb(0,0,255); fill-opacity: 1.0" transform="matrix(0.0708661418,0,0,0.0708661418,17.7165354375,17.7165354375)" /><rect x="1088" y="1170" width="50" height="50" style="fill: rgb(0,0,255); fill-opacity: 1.0" transform="matrix(0.0708661418,0,0,0.0708661418,17.7165354375,17.7165354375)" /><rect x="1088" y="1170" width="50" height="50" style="fill: rgb(0,0,255); fill-opacity: 1.0" transform="matrix(0.0708661418,0,0,0.0708661418,17.7165354375,17.7165354375)" /><rect x="1088" y="1168" width="50" height="52" style="fill: rgb(0,0,255); fill-opacity: 1.0" transform="matrix(0.0708661418,0,0,0.0708661418,17.7165354375,17.7165354375)" /><rect x="1088" y="1168" width="50" height="50" style="fill: rgb(0,0,255); fill-opacity: 1.0" transform="matrix(0.0708661418,0,0,0.0708661418,17.7165354375,17.7165354375)" /><rect x="1088" y="1168" width="50" height="50" style="fill: rgb(0,0,255); fill-opacity: 1.0" transform="matrix(0.0708661418,0,0,0.0708661418,17.7165354375,17.7165354375)" /><rect x="1088" y="1168" width="50" height="50" style="fill: rgb(0,0,255); fill-opacity: 1.0" transform="matrix(0.0708661418,0,0,0.0708661418,17.7165354375,17.7165354375)" /><rect x="1088" y="1168" width="50" height="50" style="fill: rgb(0,0,255); fill-opacity: 1.0" transform="matrix(0.0708661418,0,0,0.0708661418,17.7165354375,17.7165354375)" /><rect x="2304" y="1170" width="50" height="50" style="fill: rgb(0,0,255); fill-opacity: 1.0" transform="matrix(0.0708661418,0,0,0.0708661418,17.7165354375,17.7165354375)" /><rect x="2304" y="1170" width="50" height="50" style="fill: rgb(0,0,255); fill-opacity: 1.0" transform="matrix(0.0708661418,0,0,0.0708661418,17.7165354375,17.7165354375)" /><rect x="2304" y="1170" width="50" height="50" style="fill: rgb(0,0,255); fill-opacity: 1.0" transform="matrix(0.0708661418,0,0,0.0708661418,17.7165354375,17.7165354375)" /><rect x="2304" y="1170" width="50" height="50" style="fill: rgb(0,0,255); fill-opacity: 1.0" transform="matrix(0.0708661418,0,0,0.0708661418,17.7165354375,17.7165354375)" /><rect x="2304" y="1170" width="139" height="50" style="fill: rgb(0,0,255); fill-opacity: 1.0" transform="matrix(0.0708661418,0,0,0.0708661418,17.7165354375,17.7165354375)" /><rect x="2393" y="1170" width="50" height="50" style="fill: rgb(0,0,255); fill-opacity: 1.0" transform="matrix(0.0708661418,0,0,0.0708661418,17.7165354375,17.7165354375)" /><rect x="2393" y="1170" width="50" height="50" style="fill: rgb(0,0,255); fill-opacity: 1.0" transform="matrix(0.0708661418,0,0,0.0708661418,17.7165354375,17.7165354375)" /><rect x="2393" y="1170" width="50" height="50" style="fill: rgb(0,0,255); fill-opacity: 1.0" transform="matrix(0.0708661418,0,0,0.0708661418,17.7165354375,17.7165354375)" /><rect x="2393" y="1170" width="50" height="50" style="fill: rgb(0,0,255); fill-opacity: 1.0" transform="matrix(0.0708661418,0,0,0.0708661418,17.7165354375,17.7165354375)" /><rect x="2393" y="1170" width="50" height="50" style="fill: rgb(0,0,255); fill-opacity: 1.0" transform="matrix(0.0708661418,0,0,0.0708661418,17.7165354375,17.7165354375)" /><rect x="2393" y="1170" width="50" height="50" style="fill: rgb(0,0,255); fill-opacity: 1.0" transform="matrix(0.0708661418,0,0,0.0708661418,17.7165354375,17.7165354375)" /><rect x="2393" y="1170" width="50" height="50" style="fill: rgb(0,0,255); fill-opacity: 1.0" transform="matrix(0.0708661418,0,0,0.0708661418,17.7165354375,17.7165354375)" /><rect x="2393" y="1170" width="50" height="50" style="fill: rgb(0,0,255); fill-opacity: 1.0" transform="matrix(0.0708661418,0,0,0.0708661418,17.7165354375,17.7165354375)" /><rect x="2393" y="1170" width="50" height="51" style="fill: rgb(0,0,255); fill-opacity: 1.0" transform="matrix(0.0708661418,0,0,0.0708661418,17.7165354375,17.7165354375)" /><rect x="2393" y="1171" width="50" height="50" style="fill: rgb(0,0,255); fill-opacity: 1.0" transform="matrix(0.0708661418,0,0,0.0708661418,17.7165354375,17.7165354375)" /><rect x="2393" y="1171" width="50" height="50" style="fill: rgb(0,0,255); fill-opacity: 1.0" transform="matrix(0.0708661418,0,0,0.0708661418,17.7165354375,17.7165354375)" /><rect x="2393" y="1171" width="50" height="50" style="fill: rgb(0,0,255); fill-opacity: 1.0" transform="matrix(0.0708661418,0,0,0.0708661418,17.7165354375,17.7165354375)" /><rect x="2393" y="1171" width="50" height="50" style="fill: rgb(0,0,255); fill-opacity: 1.0" transform="matrix(0.0708661418,0,0,0.0708661418,17.7165354375,17.7165354375)" /><rect x="2393" y="1171" width="50" height="50" style="fill: rgb(0,0,255); fill-opacity: 1.0" transform="matrix(0.0708661418,0,0,0.0708661418,17.7165354375,17.7165354375)" /><rect x="2393" y="1171" width="50" height="50" style="fill: rgb(0,0,255); fill-opacity: 1.0" transform="matrix(0.0708661418,0,0,0.0708661418,17.7165354375,17.7165354375)" /><rect x="2393" y="1171" width="50" height="50" style="fill: rgb(0,0,255); fill-opacity: 1.0" transform="matrix(0.0708661418,0,0,0.0708661418,17.7165354375,17.7165354375)" /><rect x="2393" y="1171" width="50" height="50" style="fill: rgb(0,0,255); fill-opacity: 1.0" transform="matrix(0.0708661418,0,0,0.0708661418,17.7165354375,17.7165354375)" /><rect x="2393" y="1171" width="101" height="50" style="fill: rgb(0,0,255); fill-opacity: 1.0" transform="matrix(0.0708661418,0,0,0.0708661418,17.7165354375,17.7165354375)" /><rect x="2444" y="1171" width="50" height="50" style="fill: rgb(0,0,255); fill-opacity: 1.0" transform="matrix(0.0708661418,0,0,0.0708661418,17.7165354375,17.7165354375)" /><rect x="2444" y="1171" width="50" height="50" style="fill: rgb(0,0,255); fill-opacity: 1.0" transform="matrix(0.0708661418,0,0,0.0708661418,17.7165354375,17.7165354375)" /><rect x="2444" y="1171" width="50" height="50" style="fill: rgb(0,0,255); fill-opacity: 1.0" transform="matrix(0.0708661418,0,0,0.0708661418,17.7165354375,17.7165354375)" /><rect x="2444" y="1171" width="50" height="50" style="fill: rgb(0,0,255); fill-opacity: 1.0" transform="matrix(0.0708661418,0,0,0.0708661418,17.7165354375,17.7165354375)" /></svg>
