<?xml version="1.0" standalone="no"?>
<!DOCTYPE svg PUBLIC "-//W3C//DTD SVG 20010904//EN"
 "http://www.w3.org/TR/2001/REC-SVG-20010904/DTD/svg10.dtd">
<svg version="1.0" xmlns="http://www.w3.org/2000/svg"
 width="1279.000000pt" height="1279.000000pt" viewBox="0 0 1279.000000 1279.000000"
 preserveAspectRatio="xMidYMid meet">
<metadata>
Created by potrace 1.11, written by Peter Selinger 2001-2013
</metadata>
<g transform="translate(0.000000,1279.000000) scale(0.100000,-0.100000)"
fill="#000000" stroke="none">
<path d="M6081 12779 c-2426 -115 -4587 -1611 -5555 -3846 -605 -1400 -688
-2989 -231 -4457 129 -416 351 -918 575 -1301 955 -1632 2578 -2761 4425
-3079 396 -68 672 -90 1110 -90 364 1 562 13 865 55 1219 167 2352 677 3295
1485 192 164 515 487 679 679 808 943 1318 2076 1485 3295 42 303 54 501 55
865 0 438 -22 713 -90 1110 -273 1591 -1159 3037 -2459 4013 -570 427 -1257
781 -1921 987 -722 225 -1472 320 -2233 284z m694 -289 c706 -47 1370 -205
2027 -482 181 -76 541 -261 718 -367 1004 -606 1803 -1463 2324 -2491 346
-683 545 -1366 633 -2175 14 -126 17 -249 17 -580 0 -439 -6 -543 -55 -880
-125 -874 -460 -1751 -951 -2490 -380 -571 -877 -1099 -1423 -1510 -314 -236
-597 -411 -965 -594 -664 -330 -1335 -522 -2125 -608 -229 -25 -931 -25 -1160
0 -346 38 -655 92 -940 167 -1070 278 -2013 817 -2795 1600 -471 471 -839 977
-1135 1565 -286 566 -466 1117 -575 1754 -98 576 -105 1257 -19 1861 186 1305
790 2512 1729 3450 1067 1067 2465 1694 3980 1783 132 8 578 6 715 -3z"/>
<path d="M6288 9621 c-73 -29 -123 -75 -157 -143 -41 -81 -44 -185 -7 -265 25
-53 93 -128 127 -138 19 -6 19 -29 19 -1076 l0 -1069 -815 0 -815 0 0 608 0
608 53 34 c58 39 111 110 128 173 15 57 6 156 -20 210 -27 56 -80 110 -134
140 -60 32 -213 32 -272 0 -54 -29 -110 -87 -136 -140 -26 -53 -35 -153 -20
-208 16 -61 65 -131 116 -167 l45 -32 0 -733 0 -733 935 0 935 0 0 -1589 c0
-1560 0 -1590 -19 -1596 -34 -10 -102 -85 -127 -138 -37 -80 -34 -183 7 -266
74 -148 262 -205 409 -125 100 54 153 146 153 264 -1 109 -51 206 -133 252
l-40 23 0 1588 0 1587 935 0 935 0 0 759 0 759 28 17 c48 31 83 69 110 120 23
43 27 62 27 140 0 69 -4 98 -19 125 -37 70 -77 109 -141 141 -60 29 -70 31
-147 27 -96 -5 -143 -25 -199 -85 -78 -82 -106 -190 -75 -294 20 -73 62 -128
125 -168 l51 -33 0 -634 0 -634 -815 0 -815 0 0 1068 0 1067 40 23 c82 46 132
143 133 252 0 118 -53 210 -154 265 -70 38 -180 45 -251 16z"/>
</g>
</svg>
